<svg width="60" height="60" viewBox="0 0 60 60" fill="none" xmlns="http://www.w3.org/2000/svg">
<g clip-path="url(#clip0_6749_54639)">
<path d="M0 30C0 13.4315 13.4315 0 30 0C46.5685 0 60 13.4315 60 30C60 46.5685 46.5685 60 30 60C13.4315 60 0 46.5685 0 30Z" fill="#1D1D1D"/>
<g filter="url(#filter0_ii_6749_54639)">
<path d="M0 30C0 46.5685 13.4315 60 30 60C46.5685 60 60 46.5685 60 30C60 13.4315 46.5685 0 30 0C13.4315 0 0 13.4315 0 30Z" fill="#006B68"/>
</g>
<path d="M48.8378 31.2667C48.3398 30.4107 47.6338 29.7587 46.9138 29.1027C44.5898 27.0187 41.6758 25.5367 38.6998 24.8647C38.4798 24.8147 38.3358 24.6107 38.3598 24.3867C38.6718 21.5327 38.3298 18.6127 37.2998 15.8887C36.9518 16.0487 36.4978 16.2867 35.9638 16.6247L35.9238 16.6507C36.9638 19.5407 37.1818 22.6367 36.6038 25.5807C36.5538 25.8407 36.7318 26.0907 36.9938 26.1287C41.0258 26.7007 44.8498 28.7807 47.5218 31.9407C45.2018 33.9347 42.4318 35.4087 39.4718 36.1407C39.2618 36.1907 39.1178 36.3847 39.1278 36.6027C39.3098 40.1307 38.4998 43.6687 36.8358 46.7807C46.9438 50.3947 54.5798 40.1167 48.8398 31.2647" fill="#FFC629"/>
<path d="M36.9327 13.4152C33.4187 14.9412 30.3207 17.6712 28.4027 20.9272C28.2887 21.1212 28.0487 21.2032 27.8447 21.1092C25.2827 19.9432 22.3707 19.3592 19.4727 19.4852C19.5067 19.8712 19.5767 20.3792 19.7187 21.0012L19.7247 21.0372C22.8007 20.9372 25.8067 21.6912 28.4307 23.1532C28.6627 23.2812 28.9567 23.1892 29.0727 22.9492C30.8407 19.2892 34.0247 16.3052 37.8307 14.7212L38.0447 15.2452C39.1187 17.9232 39.5447 20.8352 39.3507 23.6892C39.3347 23.9052 39.4747 24.0992 39.6827 24.1572C42.3827 24.8872 44.8887 26.1972 47.0487 28.0012L47.0547 27.9972C47.6007 28.4712 48.1347 28.9572 48.6407 29.4832C49.4307 28.4952 50.0227 27.2412 50.3487 26.0932C53.4367 17.8092 44.8947 10.0132 36.9307 13.4152" fill="#FFC629"/>
<path d="M34.5572 43.8468L34.5832 43.7888C34.4512 43.7008 34.3212 43.6128 34.1952 43.5208C31.8112 41.7828 29.9932 39.5428 28.7812 36.9508C28.6712 36.7108 28.3792 36.6148 28.1452 36.7388C24.5572 38.6408 20.2232 39.2328 16.2192 38.2268C16.9292 35.2428 18.2872 32.4328 20.2572 30.0908C20.3972 29.9248 20.4012 29.6868 20.2632 29.5148C18.0532 26.7788 16.6252 23.4368 16.1472 19.9168L16.1432 19.8828C15.1232 20.1488 14.0652 20.6588 13.2152 21.2308C13.2152 21.2308 13.2152 21.2308 13.2112 21.2308C3.47323 27.6428 9.06323 40.8288 20.1992 40.2628C22.7652 40.2628 25.2372 39.7368 27.4992 38.7708C27.7092 38.6808 27.9552 38.7568 28.0672 38.9568C29.4532 41.4008 31.4592 43.5868 33.8732 45.1868C34.0712 44.8588 34.3072 44.4148 34.5552 43.8468" fill="#FFC629"/>
<path d="M45.1212 30.7271L45.0952 30.7051C42.6652 32.5951 39.7932 33.7451 36.8152 34.1131C36.5532 34.1471 36.3712 34.3911 36.4172 34.6531C37.1132 38.6491 36.3592 42.9811 34.1372 46.4591L33.6732 46.1611C31.2152 44.5871 29.1972 42.5411 27.6772 40.1031C27.5612 39.9191 27.3352 39.8431 27.1312 39.9211C23.8532 41.1771 20.2112 41.5091 16.7452 40.8831C16.2312 50.8091 27.7292 55.9351 34.4972 48.3851C37.4432 45.1971 38.5132 40.1471 38.1452 35.8971C38.1272 35.6731 38.2872 35.4591 38.5052 35.4131C41.2692 34.8431 43.9752 33.5951 46.2492 31.7831C45.9832 31.4971 45.6152 31.1371 45.1212 30.7271Z" fill="#FFC629"/>
<path d="M34.6764 11.4124C34.6764 11.4124 34.6724 11.4084 34.6704 11.4064C27.7984 3.87243 15.7844 9.81843 17.0564 19.7264C17.0564 19.7304 17.0564 19.7324 17.0564 19.7324C17.5144 23.3224 19.1224 26.8504 21.4744 29.5184C21.6224 29.6884 21.6204 29.9424 21.4684 30.1084C19.5784 32.1904 18.1204 34.7864 17.3484 37.5804C17.7224 37.6684 18.2184 37.7564 18.8404 37.8184L18.8984 37.8244C19.7524 34.8664 21.3964 32.2324 23.5984 30.1784C23.7924 29.9984 23.7944 29.6924 23.6044 29.5084C23.3484 29.2604 23.1024 29.0044 22.8644 28.7404C20.3684 26.0344 18.7764 22.3464 18.4944 18.6144C21.5284 18.3584 24.6764 18.8004 27.4784 19.9444C27.6804 20.0264 27.9104 19.9564 28.0284 19.7724C29.9404 16.8304 32.6724 14.4404 35.8644 12.8924C35.5284 12.3744 35.1144 11.8724 34.6744 11.4144" fill="#FFC629"/>
</g>
<defs>
<filter id="filter0_ii_6749_54639" x="-12" y="-12" width="84" height="84" filterUnits="userSpaceOnUse" color-interpolation-filters="sRGB">
<feFlood flood-opacity="0" result="BackgroundImageFix"/>
<feBlend mode="normal" in="SourceGraphic" in2="BackgroundImageFix" result="shape"/>
<feColorMatrix in="SourceAlpha" type="matrix" values="0 0 0 0 0 0 0 0 0 0 0 0 0 0 0 0 0 0 127 0" result="hardAlpha"/>
<feOffset dx="-12" dy="-12"/>
<feGaussianBlur stdDeviation="12"/>
<feComposite in2="hardAlpha" operator="arithmetic" k2="-1" k3="1"/>
<feColorMatrix type="matrix" values="0 0 0 0 0 0 0 0 0 0 0 0 0 0 0 0 0 0 0.44 0"/>
<feBlend mode="normal" in2="shape" result="effect1_innerShadow_6749_54639"/>
<feColorMatrix in="SourceAlpha" type="matrix" values="0 0 0 0 0 0 0 0 0 0 0 0 0 0 0 0 0 0 127 0" result="hardAlpha"/>
<feOffset dx="12" dy="12"/>
<feGaussianBlur stdDeviation="12"/>
<feComposite in2="hardAlpha" operator="arithmetic" k2="-1" k3="1"/>
<feColorMatrix type="matrix" values="0 0 0 0 1 0 0 0 0 1 0 0 0 0 1 0 0 0 0.4 0"/>
<feBlend mode="normal" in2="effect1_innerShadow_6749_54639" result="effect2_innerShadow_6749_54639"/>
</filter>
<clipPath id="clip0_6749_54639">
<path d="M0 30C0 13.4315 13.4315 0 30 0C46.5685 0 60 13.4315 60 30C60 46.5685 46.5685 60 30 60C13.4315 60 0 46.5685 0 30Z" fill="white"/>
</clipPath>
</defs>
</svg>
