<svg width="60" height="60" viewBox="0 0 60 60" fill="none" xmlns="http://www.w3.org/2000/svg">
<g clip-path="url(#clip0_6749_54650)">
<path d="M0 30C0 13.4315 13.4315 0 30 0C46.5685 0 60 13.4315 60 30C60 46.5685 46.5685 60 30 60C13.4315 60 0 46.5685 0 30Z" fill="#1D1D1D"/>
<circle cx="30" cy="30" r="30" fill="#1D1D1D"/>
<path d="M29.5319 36.684C29.7259 36.708 29.9219 36.732 30.1219 36.756C30.1559 36.902 30.1919 37.05 30.2319 37.198C28.8279 38.022 27.4239 38.854 25.9679 39.586C25.4779 39.834 25.0059 40.126 24.4959 40.324C23.9259 40.636 23.3359 40.912 22.7399 41.172C21.6759 41.674 20.5939 42.146 19.4959 42.57C19.2099 42.292 18.8539 42.112 18.5299 41.892C18.4079 41.274 18.3839 40.64 18.2939 40.018C18.2559 39.638 18.2199 39.258 18.1839 38.878C18.1399 38.528 18.1039 38.176 18.0659 37.826C18.0059 37.242 17.9719 36.656 17.9499 36.07L17.9299 36.062C17.9039 35.65 17.8839 35.238 17.8779 34.826C18.3859 34.77 18.8079 34.456 19.0379 34.002C22.4399 35.234 25.9659 36.096 29.5339 36.682L29.5319 36.684ZM22.2219 11.164C22.5399 11.244 22.8839 11.412 23.2079 11.248C24.4019 10.788 25.6259 10.418 26.8639 10.094C27.8439 9.84795 28.8359 9.65795 29.8339 9.49795C30.3439 9.42795 30.8559 9.36595 31.3679 9.30395C33.3759 9.09395 35.3979 9.14195 37.4079 9.29395C35.1979 8.49195 32.8539 8.07995 30.5039 8.00995L30.3519 8.00195H29.5239C27.9839 8.04595 26.4439 8.22595 24.9439 8.58395C24.6619 8.64195 24.3699 8.68795 24.1099 8.81395C23.7619 9.06195 23.5099 9.41795 23.2339 9.73795C22.8619 10.188 22.5379 10.676 22.2219 11.164ZM21.7159 11.196C22.2159 10.428 22.7919 9.71195 23.3719 9.00395C21.4219 9.61195 19.5459 10.49 17.8559 11.638C18.6999 11.666 19.5419 11.74 20.3839 11.822C20.7739 11.516 21.2359 11.322 21.7159 11.196ZM33.8719 9.43795C32.9339 9.45795 32.0039 9.58195 31.0739 9.68395C29.9779 9.82395 28.8959 10.044 27.8199 10.284C26.7119 10.552 25.6099 10.856 24.5479 11.264C24.0579 11.38 23.6019 11.604 23.1379 11.79C23.1199 11.978 23.1059 12.166 23.0919 12.354C25.6159 12.974 28.0619 13.892 30.3999 15.026C32.2179 15.896 33.9519 16.924 35.7059 17.912C36.4679 18.412 37.2519 18.88 38.0219 19.368C38.6899 19.804 39.3459 20.256 40.0119 20.696C40.6419 21.13 41.2559 21.586 41.8819 22.028C42.4619 22.456 43.0279 22.902 43.6039 23.336C44.2999 23.872 44.9559 24.458 45.6519 24.994C45.6839 25.038 45.7479 25.126 45.7779 25.168C46.0659 24.956 46.3899 24.732 46.7699 24.766C47.1179 24.746 47.4119 24.958 47.6839 25.144C48.1019 24.774 48.5119 24.394 48.9079 24C49.4859 23.442 50.0339 22.854 50.5639 22.252C49.9479 20.66 49.1679 19.132 48.2139 17.716C46.3619 14.986 43.9079 12.646 41.0379 11.012L41.0319 10.988C40.0659 10.432 39.0619 9.93395 38.0199 9.53395C37.5279 9.41795 37.0159 9.44395 36.5159 9.40795C35.6339 9.39195 34.7519 9.38395 33.8719 9.43795ZM43.7279 24.372V24.35C43.3659 24.078 43.0079 23.798 42.6499 23.522C42.3319 23.272 42.0079 23.028 41.6799 22.796V22.774C41.2739 22.482 40.8699 22.186 40.4679 21.892C39.7639 21.378 39.0479 20.88 38.3199 20.398C37.1079 19.536 35.8379 18.754 34.5599 17.99L34.5679 17.97C32.6939 16.864 30.7899 15.8 28.8019 14.91C26.8479 14.056 24.8339 13.332 22.7639 12.818C22.3699 13.186 21.9219 13.526 21.3879 13.648C21.1719 13.734 20.8379 13.704 20.7639 13.978C20.4799 14.644 20.2239 15.324 20.0139 16.016L19.9859 16.026C19.6139 17.182 19.3139 18.36 19.0519 19.546C18.5819 21.79 18.2539 24.066 18.0699 26.352C17.9959 27.514 17.8619 28.676 17.8759 29.84C17.8439 30.322 17.8319 30.808 17.8379 31.29C18.5999 31.678 19.0799 32.47 19.1559 33.314C21.6599 34.168 24.2419 34.816 26.8479 35.236C28.0019 35.5 29.1759 35.672 30.3439 35.862C30.7639 35.178 31.5319 34.722 32.3399 34.738C32.8039 34.716 33.2279 34.93 33.6279 35.14C34.0419 34.864 34.4719 34.608 34.8899 34.338L34.8979 34.304C36.0419 33.63 37.1519 32.896 38.2639 32.172L38.2719 32.14C39.0599 31.67 39.8059 31.136 40.5699 30.63L40.5739 30.604C40.9439 30.372 41.3059 30.124 41.6579 29.862C42.1479 29.526 42.6279 29.176 43.1139 28.832L43.1179 28.808C43.8879 28.272 44.6279 27.692 45.3639 27.112C45.2559 26.652 45.2899 26.178 45.4259 25.726C44.8699 25.264 44.3079 24.806 43.7339 24.37L43.7279 24.372ZM19.9439 12.268C19.0339 12.158 18.1099 12.02 17.1959 12.092C14.6799 13.846 12.5559 16.172 11.0099 18.82C13.5659 16.514 16.3899 14.494 19.4579 12.922C19.7259 12.804 19.8059 12.5 19.9459 12.27L19.9439 12.268ZM44.6719 37.262C43.2939 37.39 41.9079 37.436 40.5279 37.48C39.4499 37.508 38.3739 37.446 37.2959 37.434C36.8499 37.416 36.4059 37.372 35.9599 37.38C35.4339 37.322 34.9059 37.296 34.3759 37.268C34.2139 37.246 34.0559 37.226 33.8979 37.206C33.2079 38.25 31.6639 38.59 30.6479 37.822C29.0319 38.69 27.3959 39.522 25.7579 40.35C25.1139 40.654 24.4719 40.958 23.8339 41.27C23.0019 41.648 22.1679 42.02 21.3299 42.386C20.8239 42.602 20.3179 42.814 19.8059 43.01C19.9239 43.344 19.9419 43.7 19.8579 44.044C19.6279 44.296 19.3179 44.438 18.9899 44.51C19.2399 45.598 19.5559 46.668 19.9519 47.712L19.9679 47.716C20.3079 48.568 20.6939 49.412 21.2059 50.174C21.8559 50.528 22.5779 50.734 23.2739 50.976C24.6479 51.402 26.0679 51.742 27.5039 51.852C28.3039 51.994 29.1219 51.992 29.9339 52C34.8179 52.04 39.6879 50.348 43.5239 47.326C47.1259 44.518 49.8039 40.558 51.0859 36.176C50.5319 36.308 49.9799 36.438 49.4239 36.554C47.8539 36.882 46.2639 37.106 44.6679 37.264L44.6719 37.262ZM12.0839 30.122L12.0879 30.15C13.2879 30.83 14.5259 31.434 15.7799 32.002C15.8119 31.938 15.8719 31.81 15.9039 31.746C16.1339 31.392 16.5019 31.18 16.9099 31.09C16.8879 30.228 16.9739 29.372 16.9779 28.512C17.0899 27.858 17.0739 27.186 17.1599 26.528C17.4559 23.378 17.9939 20.244 18.9079 17.212L18.9259 17.208C19.3019 16.03 19.7559 14.876 20.2839 13.76C20.0959 13.638 19.9079 13.516 19.7259 13.392C18.8099 13.882 17.8959 14.38 17.0079 14.918C15.2919 15.952 13.6259 17.072 12.0799 18.346V18.372C11.6139 18.722 11.1859 19.116 10.7459 19.496C10.3699 19.796 10.2179 20.27 10.0099 20.686C9.87992 20.986 9.70192 21.274 9.63792 21.596C8.80992 23.474 8.32192 25.496 8.08792 27.532C8.79392 28.046 9.50592 28.554 10.2419 29.028C10.8379 29.422 11.4479 29.796 12.0839 30.126V30.122ZM51.6839 26.52C51.4859 25.216 51.1419 23.94 50.7239 22.69C49.8859 23.73 49.0079 24.738 48.0459 25.664C48.2439 26.168 48.2359 26.722 48.1079 27.244C49.4579 28.58 50.7679 29.97 51.8879 31.51C51.9259 29.846 51.9679 28.168 51.6839 26.522V26.52ZM47.7899 27.786C47.4499 28.108 47.0099 28.306 46.5359 28.27C46.2319 28.156 45.9519 27.994 45.7079 27.782C44.7399 28.612 43.7539 29.422 42.7339 30.186V30.218C42.2299 30.558 41.7339 30.91 41.2659 31.294C40.6119 31.716 39.9879 32.184 39.3419 32.618C37.6219 33.752 35.8819 34.856 34.0959 35.884C34.1099 36.038 34.1239 36.192 34.1419 36.348C34.8139 36.44 35.4899 36.494 36.1659 36.552C36.7219 36.58 37.2799 36.634 37.8399 36.662C38.1999 36.668 38.5619 36.706 38.9259 36.7C40.0099 36.734 41.0959 36.752 42.1819 36.718C45.2219 36.664 48.2519 36.306 51.2279 35.678C51.5339 34.488 51.7579 33.274 51.8659 32.05C50.6359 30.514 49.2439 29.118 47.7939 27.792L47.7899 27.786ZM16.8799 42.308L16.9079 42.326C17.1039 42.002 17.4459 41.842 17.8099 41.784C17.7099 41.15 17.6399 40.512 17.5819 39.872C17.5379 39.478 17.4899 39.086 17.4499 38.694C17.3759 37.968 17.2759 37.246 17.2099 36.52C17.1759 36.162 17.1359 35.806 17.1099 35.448C17.0859 35.18 17.0599 34.912 17.0299 34.644C16.2639 34.268 15.7639 33.494 15.6779 32.654C14.7059 32.23 13.7759 31.726 12.8159 31.278C12.3579 30.974 11.8619 30.73 11.3779 30.47C10.7279 30.046 10.0599 29.646 9.41392 29.216C8.94792 28.884 8.48592 28.546 8.02992 28.204C7.90792 29.548 7.87592 30.912 8.07192 32.25L8.07792 32.152C8.17592 33.444 8.39192 34.744 8.78792 35.978C9.62592 39.118 11.2499 42.028 13.3719 44.482C14.6159 44.2 15.8459 43.85 17.0579 43.454C16.8959 43.094 16.8119 42.706 16.8779 42.312L16.8799 42.308ZM17.4499 43.882C16.2319 44.296 14.9879 44.654 13.7179 44.86C15.5939 46.886 17.8299 48.58 20.3139 49.794C19.4559 48.072 18.7939 46.254 18.3139 44.39C18.0079 44.252 17.7159 44.084 17.4499 43.882Z" fill="url(#paint0_radial_6749_54650)"/>
</g>
<defs>
<radialGradient id="paint0_radial_6749_54650" cx="0" cy="0" r="1" gradientUnits="userSpaceOnUse" gradientTransform="translate(25.5579 23.096) scale(28.114 28.114)">
<stop stop-color="white"/>
<stop offset="0.5" stop-color="#BF921E"/>
<stop offset="1" stop-color="#836522"/>
</radialGradient>
<clipPath id="clip0_6749_54650">
<path d="M0 30C0 13.4315 13.4315 0 30 0C46.5685 0 60 13.4315 60 30C60 46.5685 46.5685 60 30 60C13.4315 60 0 46.5685 0 30Z" fill="white"/>
</clipPath>
</defs>
</svg>
