<svg width="60" height="60" viewBox="0 0 60 60" fill="none" xmlns="http://www.w3.org/2000/svg">
<g clip-path="url(#clip0_6749_54651)">
<path d="M0 30C0 13.4315 13.4315 0 30 0C46.5685 0 60 13.4315 60 30C60 46.5685 46.5685 60 30 60C13.4315 60 0 46.5685 0 30Z" fill="#1D1D1D"/>
<circle cx="30" cy="30" r="30" fill="#1D1D1D"/>
<path fill-rule="evenodd" clip-rule="evenodd" d="M23.7738 23.574H36.2318V34.944C40.8658 35.676 45.2358 37.202 49.2378 39.402C50.5278 36.562 51.2598 33.384 51.2598 30.022C51.2598 17.858 41.7278 8.00195 29.9958 8.00195C18.2638 8.00195 8.75781 17.858 8.75781 30.022C8.75781 33.376 9.47782 36.548 10.7658 39.388C14.7698 37.194 19.1398 35.66 23.7718 34.938V23.576L23.7738 23.574Z" fill="#005992"/>
<path fill-rule="evenodd" clip-rule="evenodd" d="M30.0046 52C37.4286 52 43.9686 48.05 47.7746 42.058C42.4686 39.148 36.4106 37.502 29.9846 37.502C23.5586 37.502 17.5266 39.14 12.2266 42.052C16.0206 48.042 22.5606 52 30.0046 52Z" fill="#D51D4B"/>
</g>
<defs>
<clipPath id="clip0_6749_54651">
<path d="M0 30C0 13.4315 13.4315 0 30 0C46.5685 0 60 13.4315 60 30C60 46.5685 46.5685 60 30 60C13.4315 60 0 46.5685 0 30Z" fill="white"/>
</clipPath>
</defs>
</svg>
