<svg width="60" height="60" viewBox="0 0 60 60" fill="none" xmlns="http://www.w3.org/2000/svg">
<g clip-path="url(#clip0_6749_54683)">
<path d="M0 30C0 13.4315 13.4315 0 30 0C46.5685 0 60 13.4315 60 30C60 46.5685 46.5685 60 30 60C13.4315 60 0 46.5685 0 30Z" fill="#1D1D1D"/>
<circle cx="30" cy="30" r="30" fill="#1D1D1D"/>
<mask id="mask0_6749_54683" style="mask-type:luminance" maskUnits="userSpaceOnUse" x="8" y="6" width="44" height="37">
<path d="M52 6.43359H8V42.6376H52V6.43359Z" fill="white"/>
</mask>
<g mask="url(#mask0_6749_54683)">
<path d="M36.0019 6.5476L35.6619 6.65959C30.8979 8.20159 29.3319 10.4236 28.6979 15.2496L28.6719 15.5816L28.6479 15.9236L28.6299 16.2796C28.5299 19.3136 29.2259 21.0196 30.0259 23.7736L30.0899 24.0516L30.1519 24.3456C30.6519 26.8556 30.5659 29.6936 28.9919 31.8296L28.7159 32.1836L28.4099 32.5236L28.0739 32.8516L27.8299 32.4236L27.6499 31.9696C26.9559 29.8276 27.9859 26.9036 28.2539 24.7076L28.3319 24.0956L28.3819 23.4876C28.6199 20.1336 27.2819 17.9336 24.3539 16.3036L23.4839 15.8596L22.5059 15.4416L22.7259 15.8356L22.9119 16.2076C24.7659 19.8236 22.2479 21.0676 22.6479 24.7076L22.6959 25.1976L22.7659 25.6696C23.3979 29.6696 26.5119 31.9296 27.7919 35.5236L27.9219 35.9236L28.0319 36.3336L28.1839 35.8336L28.3559 35.3556L28.5479 34.8976C30.6659 30.3836 35.0379 28.6356 36.0939 23.1776L36.2059 22.5116L36.2719 21.8616C36.9819 16.9556 31.4519 11.9196 35.3759 7.4536L35.8279 6.9476L36.3499 6.43359L35.9979 6.5476H36.0019Z" fill="#EB2227"/>
<path d="M8 35.2648V42.5188H9.276V39.6408H10.094C11.056 39.5828 11.308 38.6448 11.34 37.8428V37.7168C11.32 36.1788 11.266 35.2788 9.498 35.2628H8V35.2648ZM9.276 36.5528H9.422L9.512 36.5588L9.592 36.5628C10 36.5788 10.01 36.8268 10.052 37.1628L10.062 37.2928L10.066 37.4328C10.038 37.7468 10.118 38.3248 9.658 38.3468L9.592 38.3508H9.276V36.5528ZM11.852 35.2648V42.5188H14.754V41.1188H13.132V39.5008H14.496V38.1048H13.132V36.6648H14.692V35.2648H11.852ZM15.118 35.2648V36.6648H15.94V42.5188H17.216V36.6648H18.042V35.2648H15.12H15.118ZM18.404 35.2648V42.5188H19.68V39.3908H19.916C20.864 39.2428 20.144 41.6408 20.532 42.4908L20.55 42.5188H21.812L21.784 42.4708C21.396 41.4248 22.234 39.1088 20.98 38.7068L20.934 38.6988L20.996 38.6708L21.05 38.6448C21.822 38.2848 21.712 37.2688 21.68 36.5668L21.668 36.4688L21.654 36.3708C21.506 35.5448 20.978 35.2968 20.196 35.2648H18.408H18.404ZM19.68 36.4968H20.01L20.084 36.5128C20.414 36.5728 20.402 36.8128 20.424 37.1008L20.428 37.1948V37.2968C20.422 37.6548 20.472 38.1088 20.024 38.1508H19.678V36.4968H19.68ZM22.264 37.1168L22.26 37.2428V40.5388L22.264 40.6568L22.268 40.7748L22.276 40.8888L22.288 40.9988C22.412 41.9348 22.99 42.6888 24.002 42.6308L24.092 42.6228L24.18 42.6148C25.18 42.4528 25.566 41.4448 25.554 40.5368V37.2408L25.55 37.1148L25.544 36.9928C25.506 35.7448 24.708 35.1328 23.908 35.1328C23.108 35.1328 22.236 35.8028 22.264 37.1168ZM23.54 40.7628V37.0388L23.544 36.9828V36.9248L23.552 36.8708C23.556 36.5968 23.72 36.3668 24.016 36.4508L24.038 36.4588L24.064 36.4728C24.284 36.5788 24.262 36.8968 24.272 37.1008V40.7348L24.266 40.7888C24.28 41.1608 24.088 41.3548 23.896 41.3548C23.704 41.3548 23.516 41.1628 23.538 40.7648M30.786 42.4588H32.068V35.2248H30.786V42.4588ZM32.578 35.2248V42.4588H35.474V41.0608H33.858V39.4528H35.224V38.0568H33.858V36.6188H35.416V35.2248H32.58H32.578ZM35.838 35.2248V36.6188H36.66V42.4588H37.934V36.6188H38.76V35.2248H35.838ZM41.556 35.2248L41.542 39.4908L40.514 35.2248H39.122V42.4588H40.356L40.372 37.9868L41.404 42.4588H42.788V35.2248H41.556ZM44.15 35.2248L43.122 42.4588H44.398L44.528 41.1768H45.424L45.538 42.4588H46.876L45.84 35.2248H44.15ZM45.002 36.3468L45.298 39.8848H44.662L45.002 36.3468ZM49.992 35.2248L49.618 38.8088L49.254 35.2248H47.244V42.4588H48.478L48.49 36.8328L49.21 42.4588H50.038L50.768 36.8328V42.4588H51.998V35.2248H49.99H49.992Z" fill="#23699B"/>
<path d="M28.0617 40.0527L27.1717 35.2227H25.7617L27.3177 42.5587H28.6357L30.4077 35.2227H28.9257L28.0617 40.0527Z" fill="#23699B"/>
</g>
<path d="M17.8477 43.5156H19.0577V50.6116H17.8477V43.5156ZM18.4137 46.6976H19.6677C19.7657 46.6976 19.8497 46.6756 19.9217 46.6296C19.9937 46.5836 20.0477 46.5176 20.0877 46.4296C20.1277 46.3416 20.1457 46.2376 20.1457 46.1176V45.2836C20.1457 45.1576 20.1277 45.0476 20.0897 44.9556C20.0517 44.8656 19.9977 44.7956 19.9257 44.7476C19.8537 44.6996 19.7677 44.6776 19.6677 44.6776H18.4137V43.5156H19.7017C20.0537 43.5156 20.3537 43.5776 20.6037 43.7016C20.8537 43.8256 21.0437 44.0076 21.1757 44.2456C21.3057 44.4856 21.3717 44.7716 21.3717 45.1076V46.3036C21.3717 46.6316 21.3057 46.9136 21.1737 47.1456C21.0417 47.3776 20.8497 47.5556 20.5997 47.6776C20.3497 47.7996 20.0497 47.8616 19.7017 47.8616H18.4137V46.6996V46.6976Z" fill="#EB2227"/>
<path d="M21.7754 43.5156H23.0594L23.7374 48.4156L24.4154 43.5156H25.6994L24.3914 50.6116H23.0834L21.7754 43.5156Z" fill="#EB2227"/>
<path d="M31.1377 46.7814V48.9054C31.1377 49.2754 31.0677 49.5955 30.9297 49.8615C30.7917 50.1275 30.5897 50.3314 30.3277 50.4734C30.0637 50.6154 29.7477 50.6854 29.3817 50.6854C29.0157 50.6854 28.6877 50.6174 28.4197 50.4794C28.1537 50.3434 27.9477 50.1434 27.8077 49.8834C27.6657 49.6234 27.5957 49.3115 27.5957 48.9515V45.2714C27.5957 44.8914 27.6657 44.5635 27.8037 44.2875C27.9417 44.0135 28.1437 43.8034 28.4057 43.6574C28.6697 43.5134 28.9857 43.4395 29.3517 43.4395C29.7177 43.4395 30.0237 43.5095 30.2817 43.6495C30.5397 43.7895 30.7377 43.9934 30.8737 44.2594C31.0097 44.5254 31.0797 44.8455 31.0797 45.2155V45.7615H29.8357V45.2155C29.8357 45.1015 29.8157 45.0034 29.7777 44.9194C29.7397 44.8354 29.6817 44.7734 29.6097 44.7294C29.5357 44.6854 29.4517 44.6635 29.3537 44.6635C29.2457 44.6635 29.1537 44.6875 29.0737 44.7375C28.9937 44.7855 28.9337 44.8554 28.8897 44.9474C28.8477 45.0394 28.8257 45.1454 28.8257 45.2694V48.9495C28.8257 49.0495 28.8477 49.1395 28.8917 49.2155C28.9357 49.2915 28.9997 49.3514 29.0837 49.3914C29.1677 49.4314 29.2677 49.4535 29.3817 49.4535C29.4957 49.4535 29.5997 49.4315 29.6877 49.3895C29.7757 49.3475 29.8397 49.2855 29.8857 49.2035C29.9317 49.1215 29.9537 49.0255 29.9537 48.9115V47.9395H29.3577V46.7775H31.1397L31.1377 46.7814Z" fill="#EB2227"/>
<path d="M33.2115 43.5156H34.0615L35.7555 50.6116H34.5555L33.6375 45.9596L32.7195 50.6116H31.5195L33.2135 43.5156H33.2115ZM32.6695 48.3776H34.6015V49.5096H32.6695V48.3776Z" fill="#EB2227"/>
<path d="M36.8611 50.4794C36.5951 50.3414 36.3891 50.1414 36.2491 49.8794C36.1071 49.6174 36.0371 49.3034 36.0371 48.9354V48.5554L37.2431 48.5454V48.9255C37.2431 49.1035 37.2931 49.2454 37.3951 49.3474C37.4951 49.4494 37.6351 49.5015 37.8151 49.5015C37.9951 49.5015 38.1271 49.4515 38.2231 49.3495C38.3191 49.2495 38.3671 49.1094 38.3671 48.9354V48.3155C38.3671 48.1855 38.3311 48.0715 38.2571 47.9755C38.1831 47.8795 38.0891 47.7975 37.9731 47.7275C37.8571 47.6575 37.7011 47.5735 37.5011 47.4755C37.4871 47.4695 37.4751 47.4634 37.4651 47.4554C37.4531 47.4494 37.4411 47.4434 37.4291 47.4354L37.3651 47.4054C37.1011 47.2714 36.8771 47.1335 36.6911 46.9875C36.5051 46.8435 36.3511 46.6515 36.2271 46.4135C36.1031 46.1755 36.0411 45.8834 36.0411 45.5354V45.1694C36.0411 44.8074 36.1111 44.4975 36.2491 44.2395C36.3871 43.9815 36.5891 43.7834 36.8511 43.6454C37.1151 43.5094 37.4311 43.4395 37.8031 43.4395C38.1751 43.4395 38.4751 43.5074 38.7351 43.6454C38.9951 43.7834 39.1931 43.9814 39.3311 44.2434C39.4671 44.5054 39.5351 44.8195 39.5351 45.1875V45.5875L38.3291 45.6015V45.1954C38.3291 45.0134 38.2831 44.8714 38.1891 44.7674C38.0971 44.6654 37.9671 44.6135 37.8011 44.6135C37.6251 44.6135 37.4891 44.6595 37.3931 44.7535C37.2971 44.8455 37.2491 44.9735 37.2491 45.1375V45.6114C37.2491 45.7455 37.2831 45.8594 37.3531 45.9574C37.4231 46.0554 37.5111 46.1375 37.6171 46.2035C37.7231 46.2695 37.8691 46.3514 38.0591 46.4454C38.0951 46.4614 38.1311 46.4795 38.1691 46.4995C38.2071 46.5195 38.2451 46.5394 38.2831 46.5574C38.2891 46.5614 38.2951 46.5634 38.3011 46.5674C38.3071 46.5714 38.3111 46.5735 38.3191 46.5775C38.5891 46.7215 38.8071 46.8535 38.9731 46.9755C39.1391 47.0975 39.2811 47.2695 39.3971 47.4895C39.5151 47.7115 39.5731 47.9935 39.5731 48.3395V48.9294C39.5731 49.2974 39.5031 49.6114 39.3651 49.8734C39.2271 50.1354 39.0251 50.3354 38.7631 50.4734C38.4991 50.6114 38.1831 50.6814 37.8171 50.6814C37.4511 50.6814 37.1271 50.6114 36.8611 50.4734V50.4794Z" fill="#EB2227"/>
</g>
<defs>
<clipPath id="clip0_6749_54683">
<path d="M0 30C0 13.4315 13.4315 0 30 0C46.5685 0 60 13.4315 60 30C60 46.5685 46.5685 60 30 60C13.4315 60 0 46.5685 0 30Z" fill="white"/>
</clipPath>
</defs>
</svg>
