<svg width="60" height="60" viewBox="0 0 60 60" fill="none" xmlns="http://www.w3.org/2000/svg">
<g clip-path="url(#clip0_6749_54684)">
<path d="M0 30C0 13.4315 13.4315 0 30 0V0C46.5685 0 60 13.4315 60 30V30C60 46.5685 46.5685 60 30 60V60C13.4315 60 0 46.5685 0 30V30Z" fill="#1D1D1D"/>
<circle cx="30" cy="30" r="30" fill="#1D1D1D"/>
<path d="M8.76187 30.0001C8.76187 41.6861 18.2339 51.158 29.9199 51.158C41.6059 51.158 51.0779 41.6861 51.0779 30.0001C51.0779 18.3141 41.6059 8.84205 29.9219 8.84205C18.2419 8.85605 8.77787 18.3201 8.76187 30.0001ZM7.92188 30.0001C7.92188 17.8481 17.7719 8.00205 29.9199 7.99805C42.0699 7.99405 51.9179 17.8501 51.9179 30.0001C51.9179 42.1501 42.0719 51.996 29.9219 51.998C17.7719 51.998 7.92188 42.1481 7.92188 30.0001Z" fill="#00A551"/>
<path d="M14.3403 40.6967L14.8182 37.1427C14.8422 36.9587 14.8583 36.8267 14.8723 36.7527C14.8843 36.6847 14.9062 36.6167 14.9362 36.5547C14.9542 36.5047 15.0003 36.4707 15.0523 36.4688C15.0943 36.4727 15.1343 36.4967 15.1562 36.5347C15.1903 36.5927 15.2162 36.6547 15.2302 36.7187C15.2482 36.7947 15.2582 36.8728 15.2563 36.9508C15.2563 37.0028 15.2563 37.0667 15.2463 37.1207C15.2363 37.1747 15.2343 37.2447 15.2263 37.2967C15.2183 37.3487 15.2083 37.4127 15.2003 37.4807L14.6883 40.9227C14.6683 41.0567 14.6542 41.1807 14.6302 41.2987C14.6062 41.4167 14.5903 41.5187 14.5703 41.6067C14.5523 41.6847 14.5202 41.7608 14.4742 41.8268C14.4422 41.8788 14.3863 41.9128 14.3263 41.9148C14.2663 41.9148 14.2102 41.8808 14.1802 41.8268C14.1342 41.7608 14.1022 41.6847 14.0862 41.6067C14.0562 41.5047 14.0363 41.4027 14.0223 41.2987C14.0023 41.1827 13.9843 41.0567 13.9663 40.9227L13.4643 37.5107C13.4563 37.4467 13.4463 37.3867 13.4383 37.3287C13.4303 37.2707 13.4203 37.2027 13.4143 37.1367C13.4083 37.0707 13.4062 37.0127 13.4062 36.9607C13.4062 36.8447 13.4263 36.7307 13.4663 36.6207C13.5063 36.5247 13.5563 36.4747 13.6143 36.4747C13.6723 36.4747 13.7383 36.5267 13.7723 36.6347C13.8123 36.8127 13.8443 36.9907 13.8643 37.1707L14.3443 40.6987L14.3403 40.6967Z" fill="#00A551"/>
<path d="M15.9401 41.3137C15.9461 41.4657 15.9281 41.6157 15.8861 41.7617C15.8461 41.8577 15.8001 41.9097 15.7421 41.9097C15.6841 41.9097 15.6381 41.8577 15.6001 41.7537C15.5561 41.6117 15.5381 41.4637 15.5441 41.3137V38.5097C15.5381 38.3597 15.5561 38.2117 15.6001 38.0677C15.6381 37.9717 15.6841 37.9197 15.7421 37.9197C15.8001 37.9197 15.8461 37.9737 15.8861 38.0677C15.9261 38.2017 15.9461 38.3397 15.9401 38.4797V41.3137ZM15.6061 37.3397C15.5241 37.1157 15.5241 36.8677 15.6061 36.6437C15.6461 36.5557 15.6921 36.5117 15.7441 36.5117C15.7961 36.5117 15.8421 36.5477 15.8801 36.6277C15.9261 36.7417 15.9461 36.8657 15.9401 36.9877C15.9461 37.1057 15.9281 37.2237 15.8861 37.3357C15.8461 37.4157 15.8001 37.4617 15.7461 37.4617C15.6921 37.4617 15.6421 37.4157 15.6061 37.3357" fill="#00A551"/>
<path d="M17.3855 39.6062C17.3875 39.3502 17.3515 39.0942 17.2755 38.8502C17.2135 38.6802 17.1315 38.6002 17.0275 38.6002C16.9235 38.6002 16.8475 38.6882 16.7835 38.8582C16.7095 39.1022 16.6695 39.3542 16.6675 39.6082H17.3835L17.3855 39.6062ZM16.6735 40.1602C16.6735 40.3582 16.6915 40.5542 16.7295 40.7482C16.7475 40.8842 16.7955 41.0142 16.8675 41.1302C16.9015 41.2062 16.9755 41.2562 17.0575 41.2642C17.1055 41.2642 17.1515 41.2482 17.1895 41.2202C17.2375 41.1862 17.2775 41.1422 17.3055 41.0882C17.3455 41.0302 17.3775 40.9682 17.4055 40.9022C17.4375 40.8382 17.4755 40.7422 17.5215 40.6302C17.5415 40.5862 17.5695 40.5642 17.6055 40.5642C17.6415 40.5642 17.6795 40.5942 17.7035 40.6462C17.7315 40.7202 17.7435 40.7982 17.7415 40.8782C17.7395 40.9822 17.7255 41.0862 17.7015 41.1862C17.6735 41.3042 17.6315 41.4182 17.5755 41.5242C17.5255 41.6302 17.4535 41.7262 17.3635 41.8042C17.2795 41.8702 17.1775 41.9062 17.0715 41.9062C16.8195 41.9062 16.6215 41.7302 16.4795 41.3682C16.3375 41.0062 16.2715 40.5242 16.2715 39.9042C16.2715 39.6322 16.2875 39.3622 16.3235 39.0922C16.3495 38.8762 16.3995 38.6642 16.4735 38.4602C16.5255 38.3062 16.6095 38.1662 16.7195 38.0482C16.8035 37.9602 16.9195 37.9082 17.0415 37.9082C17.2075 37.9142 17.3555 38.0082 17.4375 38.1522C17.5595 38.3422 17.6435 38.5562 17.6855 38.7782C17.7415 39.0362 17.7695 39.3002 17.7675 39.5642C17.7675 39.8082 17.7375 39.9682 17.6835 40.0422C17.6275 40.1182 17.5375 40.1602 17.4455 40.1582H16.6755L16.6735 40.1602Z" fill="#00A551"/>
<path d="M18.1606 38.0099V37.4219C18.1606 37.2679 18.1606 37.1419 18.1666 37.0479C18.1666 36.9699 18.1765 36.8919 18.1945 36.8159C18.2065 36.7559 18.2305 36.6979 18.2625 36.6459C18.2825 36.6119 18.3185 36.5899 18.3585 36.5859C18.4065 36.5859 18.4545 36.6299 18.4945 36.7259C18.5225 36.7999 18.5406 36.8779 18.5466 36.9579C18.5526 37.0459 18.5546 37.1719 18.5546 37.3399V38.0099H18.6986C18.7586 38.0099 18.8105 38.0499 18.8265 38.1059C18.8565 38.1879 18.8725 38.2759 18.8685 38.3639C18.8765 38.4579 18.8565 38.5539 18.8085 38.6359C18.7645 38.6899 18.6966 38.7199 18.6286 38.7159H18.5546V40.5179C18.5546 40.6719 18.5545 40.7899 18.5645 40.8659C18.5645 40.9339 18.5766 40.9999 18.5966 41.0639C18.6146 41.1159 18.6465 41.1439 18.6865 41.1439C18.7205 41.1439 18.7545 41.1319 18.7825 41.1139C18.8105 41.0979 18.8406 41.0879 18.8726 41.0859C18.9046 41.0859 18.9325 41.1139 18.9585 41.1819C18.9865 41.2559 19.0006 41.3339 18.9986 41.4139C19.0066 41.5419 18.9705 41.6699 18.8945 41.7739C18.8205 41.8599 18.7106 41.9059 18.5986 41.8999C18.4826 41.9059 18.3745 41.8459 18.3185 41.7439C18.2465 41.6119 18.2045 41.4679 18.1945 41.3179C18.1685 41.0759 18.1586 40.8319 18.1606 40.5899V38.7139H18.1085C18.0485 38.7119 17.9965 38.6699 17.9805 38.6119C17.9205 38.4479 17.9205 38.2679 17.9805 38.1039C18.0005 38.0459 18.0525 38.0079 18.1145 38.0079H18.1606V38.0099Z" fill="#00A551"/>
<path d="M19.4979 38.5823C19.5459 38.4043 19.6238 38.2343 19.7298 38.0843C19.8138 37.9303 20.0078 37.8743 20.1618 37.9603C20.2158 37.9903 20.2618 38.0363 20.2898 38.0923C20.3858 38.2363 20.4478 38.3983 20.4698 38.5703C20.4978 38.6983 20.5139 38.8283 20.5219 38.9603C20.5319 39.1003 20.5338 39.2763 20.5338 39.4903V41.3163C20.5398 41.4683 20.5218 41.6183 20.4798 41.7643C20.4418 41.8603 20.3938 41.9123 20.3398 41.9123C20.2858 41.9123 20.2339 41.8603 20.1979 41.7563C20.1539 41.6143 20.1358 41.4663 20.1418 41.3163V39.6843C20.1478 39.4363 20.1298 39.1863 20.0898 38.9403C20.0558 38.7723 19.9858 38.6823 19.8758 38.6823C19.8038 38.6823 19.7398 38.7343 19.6838 38.8383C19.6178 38.9743 19.5758 39.1203 19.5558 39.2703C19.5378 39.4163 19.5298 39.6883 19.5298 40.0823V41.3123C19.5358 41.4643 19.5178 41.6143 19.4758 41.7603C19.4358 41.8563 19.3878 41.9083 19.3318 41.9083C19.2758 41.9083 19.2258 41.8563 19.1898 41.7523C19.1498 41.6103 19.1318 41.4603 19.1378 41.3123V38.4843C19.1338 38.3423 19.1498 38.2003 19.1858 38.0643C19.2178 37.9683 19.2618 37.9243 19.3198 37.9243C19.3618 37.9283 19.3979 37.9543 19.4159 37.9923C19.4499 38.0463 19.4718 38.1063 19.4838 38.1683C19.5018 38.2683 19.5098 38.3683 19.5078 38.4703L19.5039 38.5883L19.4979 38.5823Z" fill="#00A551"/>
<path d="M21.6387 40.1069C21.5327 40.1669 21.4527 40.2089 21.4067 40.2309C21.3567 40.2749 21.3167 40.3309 21.2907 40.3929C21.2507 40.5009 21.2307 40.6169 21.2367 40.7329C21.2327 40.8609 21.2547 40.9889 21.3027 41.1089C21.3487 41.2189 21.4067 41.2709 21.4787 41.2709C21.5667 41.2629 21.6447 41.2109 21.6887 41.1349C21.7607 41.0389 21.8107 40.9289 21.8367 40.8109C21.8807 40.5689 21.8967 40.3209 21.8887 40.0749V39.9409C21.8107 40.0049 21.7267 40.0609 21.6367 40.1089M21.6367 41.7689C21.5607 41.8569 21.4507 41.9089 21.3347 41.9089C21.2287 41.9049 21.1307 41.8489 21.0707 41.7609C20.9847 41.6409 20.9247 41.5029 20.8947 41.3569C20.8527 41.1749 20.8307 40.9909 20.8327 40.8029C20.8267 40.5709 20.8627 40.3389 20.9367 40.1189C20.9827 39.9609 21.0867 39.8269 21.2267 39.7409C21.2527 39.7269 21.3167 39.6969 21.4127 39.6449C21.5087 39.5929 21.5927 39.5429 21.6667 39.5049C21.7407 39.4669 21.8127 39.4089 21.8987 39.3489C21.9027 39.1569 21.8827 38.9629 21.8387 38.7769C21.8127 38.6709 21.7167 38.5969 21.6067 38.5989C21.5207 38.5949 21.4367 38.6329 21.3847 38.7029C21.3227 38.7989 21.2787 38.9069 21.2567 39.0189C21.2167 39.1589 21.1947 39.2509 21.1807 39.2909C21.1687 39.3329 21.1267 39.3609 21.0827 39.3589C21.0387 39.3589 21.0047 39.3209 20.9667 39.2429C20.9287 39.1589 20.9127 39.0689 20.9147 38.9789C20.9147 38.8069 20.9407 38.6349 20.9887 38.4709C21.0327 38.3209 21.1107 38.1849 21.2207 38.0749C21.3187 37.9669 21.4607 37.9089 21.6067 37.9129C21.7587 37.9049 21.9087 37.9609 22.0167 38.0689C22.1307 38.2089 22.2007 38.3769 22.2247 38.5549C22.2727 38.8449 22.2947 39.1369 22.2887 39.4309V40.5469C22.2887 40.7389 22.3007 40.9309 22.3287 41.1209C22.3507 41.3209 22.3627 41.4529 22.3627 41.5109C22.3647 41.6049 22.3467 41.6969 22.3067 41.7829C22.2687 41.8649 22.2227 41.9089 22.1767 41.9089C22.1307 41.9089 22.0947 41.8649 22.0607 41.7689C22.0087 41.6349 21.9667 41.4989 21.9347 41.3589C21.8627 41.5069 21.7707 41.6449 21.6627 41.7689" fill="#00A551"/>
<path d="M23.9782 41.2899C23.9862 41.4459 23.9682 41.6039 23.9222 41.7539C23.8822 41.8579 23.8382 41.9099 23.7742 41.9099C23.7102 41.9099 23.6702 41.8579 23.6322 41.7539C23.5882 41.6039 23.5682 41.4459 23.5762 41.2899V39.7299C23.5762 39.4879 23.5722 39.2959 23.5662 39.1559C23.5622 39.0419 23.5422 38.9279 23.5102 38.8179C23.4802 38.7299 23.4342 38.6859 23.3702 38.6859C23.2402 38.6859 23.1562 38.7959 23.1142 39.0159C23.0682 39.3299 23.0482 39.6459 23.0542 39.9639V41.2899C23.0602 41.4459 23.0422 41.6019 23.0022 41.7539C22.9622 41.8579 22.9162 41.9099 22.8542 41.9099C22.7922 41.9099 22.7482 41.8579 22.7102 41.7539C22.6622 41.6039 22.6422 41.4479 22.6502 41.2899V38.4879C22.6442 38.3459 22.6622 38.2059 22.7042 38.0699C22.7362 37.9739 22.7802 37.9219 22.8362 37.9219C22.8922 37.9219 22.9342 37.9679 22.9702 38.0559C23.0102 38.1759 23.0282 38.3019 23.0242 38.4299V38.5279C23.0722 38.3679 23.1442 38.2159 23.2402 38.0799C23.3002 37.9939 23.3962 37.9399 23.5002 37.9319C23.6042 37.9359 23.7022 37.9919 23.7582 38.0799C23.8442 38.2159 23.9022 38.3699 23.9302 38.5279C23.9762 38.3679 24.0481 38.2159 24.1421 38.0799C24.1981 37.9939 24.2922 37.9399 24.3942 37.9319C24.5082 37.9359 24.6122 37.9959 24.6722 38.0939C24.7642 38.2279 24.8222 38.3819 24.8442 38.5419C24.8842 38.8199 24.9002 39.0999 24.8942 39.3819V41.2939C24.9022 41.4499 24.8822 41.6079 24.8382 41.7579C24.8002 41.8619 24.7542 41.9139 24.6902 41.9139C24.6262 41.9139 24.5862 41.8619 24.5462 41.7579C24.5022 41.6079 24.4822 41.4499 24.4862 41.2939V39.6479C24.4862 39.4359 24.4862 39.2659 24.4782 39.1419C24.4742 39.0339 24.4542 38.9259 24.4182 38.8239C24.3862 38.7359 24.3362 38.6919 24.2742 38.6919C24.2122 38.6919 24.1702 38.7279 24.1262 38.8079C24.0702 38.9039 24.0342 39.0079 24.0162 39.1179C23.9782 39.4079 23.9622 39.6999 23.9702 39.9919V41.2959L23.9782 41.2899Z" fill="#00A551"/>
<path d="M26.4694 37.3551V38.8031H26.8514C26.9434 38.8071 27.0334 38.7851 27.1114 38.7391C27.1914 38.6831 27.2494 38.6011 27.2734 38.5071C27.3414 38.2351 27.3454 37.9491 27.2834 37.6751C27.2654 37.5831 27.2214 37.4991 27.1574 37.4311C27.0734 37.3671 26.9694 37.3391 26.8634 37.3511L26.4674 37.3551H26.4694ZM26.4694 39.5691V41.2611C26.4754 41.4271 26.4554 41.5931 26.4094 41.7531C26.3714 41.8571 26.3174 41.9091 26.2554 41.9091C26.1934 41.9091 26.1394 41.8571 26.0974 41.7471C26.0534 41.5891 26.0334 41.4251 26.0414 41.2631V37.2051C26.0314 37.0371 26.0534 36.8671 26.1014 36.7051C26.1274 36.6151 26.2094 36.5511 26.3034 36.5491H26.9994C27.0834 36.5471 27.1654 36.5571 27.2454 36.5791C27.3174 36.6011 27.3834 36.6451 27.4314 36.7051C27.5094 36.7931 27.5674 36.8951 27.6034 37.0051C27.6594 37.1491 27.6974 37.3011 27.7194 37.4531C27.7454 37.6331 27.7574 37.8151 27.7574 37.9971C27.7694 38.3171 27.7254 38.6351 27.6254 38.9391C27.5574 39.1511 27.4134 39.3291 27.2214 39.4371C27.3194 39.5711 27.3934 39.7211 27.4394 39.8791C27.5094 40.0771 27.5694 40.2851 27.6254 40.5051C27.6814 40.7251 27.7214 40.9311 27.7534 41.1071C27.7754 41.2291 27.7914 41.3531 27.7974 41.4751C27.7974 41.5451 27.7874 41.6131 27.7714 41.6811C27.7574 41.7391 27.7334 41.7931 27.6974 41.8431C27.6734 41.8791 27.6334 41.8991 27.5894 41.9011C27.5374 41.8951 27.4934 41.8611 27.4734 41.8131C27.4354 41.7491 27.4094 41.6791 27.3914 41.6071C27.3654 41.5191 27.3314 41.3931 27.2934 41.2251L27.1234 40.5111C27.0774 40.3091 27.0214 40.1111 26.9574 39.9151C26.9294 39.8131 26.8794 39.7171 26.8094 39.6351C26.7594 39.5851 26.6914 39.5591 26.6214 39.5611L26.4694 39.5671V39.5691Z" fill="#00A551"/>
<path d="M29.1593 41.2319C29.1173 41.3599 29.0673 41.4859 29.0093 41.6079C28.9653 41.6919 28.9093 41.7659 28.8393 41.8279C28.7813 41.8779 28.7053 41.9039 28.6293 41.9019C28.5253 41.8959 28.4313 41.8399 28.3733 41.7539C28.2893 41.6319 28.2313 41.4939 28.1973 41.3499C28.1393 41.0539 28.1153 40.7539 28.1253 40.4519V38.5099C28.1173 38.3599 28.1353 38.2119 28.1793 38.0679C28.2133 37.9719 28.2613 37.9199 28.3213 37.9199C28.3813 37.9199 28.4253 37.9739 28.4653 38.0679C28.5093 38.2099 28.5273 38.3599 28.5193 38.5099V40.0759C28.5193 40.3079 28.5273 40.4959 28.5433 40.6499C28.5513 40.7739 28.5793 40.8939 28.6213 41.0099C28.6613 41.0999 28.7173 41.1439 28.7833 41.1439C28.8493 41.1439 28.9153 41.0919 28.9753 40.9959C29.0393 40.8759 29.0833 40.7459 29.1033 40.6119C29.1313 40.3099 29.1413 40.0039 29.1353 39.6999V38.5099C29.1273 38.3599 29.1472 38.2119 29.1912 38.0679C29.2292 37.9719 29.2753 37.9199 29.3333 37.9199C29.3913 37.9199 29.4393 37.9739 29.4753 38.0679C29.5173 38.2119 29.5353 38.3599 29.5273 38.5099V41.3479C29.5313 41.4879 29.5153 41.6299 29.4773 41.7659C29.4413 41.8639 29.3993 41.9079 29.3433 41.9079C29.2873 41.9079 29.2473 41.8559 29.2113 41.7599C29.1713 41.6299 29.1533 41.4919 29.1593 41.3559V41.2299V41.2319Z" fill="#00A551"/>
<path d="M30.4086 40.8367C30.4786 41.0507 30.5726 41.1528 30.6886 41.1528C30.7846 41.1528 30.8686 41.0428 30.9446 40.8288C31.0286 40.5288 31.0646 40.2187 31.0526 39.9087C31.0546 39.6847 31.0406 39.4608 31.0066 39.2388C30.9866 39.0888 30.9446 38.9408 30.8806 38.8048C30.8226 38.7088 30.7646 38.6587 30.6886 38.6587C30.6006 38.6687 30.5226 38.7248 30.4866 38.8048C30.4166 38.9428 30.3726 39.0927 30.3526 39.2447C30.3166 39.4747 30.3006 39.7068 30.3006 39.9408C30.2886 40.2428 30.3246 40.5467 30.4066 40.8367M30.2806 38.5268C30.3366 38.3688 30.4146 38.2207 30.5126 38.0867C30.5766 37.9947 30.6826 37.9388 30.7946 37.9388C30.9446 37.9468 31.0786 38.0347 31.1426 38.1707C31.2586 38.3787 31.3386 38.6048 31.3746 38.8408C31.4326 39.1848 31.4586 39.5347 31.4566 39.8847C31.4566 40.1587 31.4426 40.4308 31.4106 40.7028C31.3826 40.9208 31.3386 41.1367 31.2766 41.3487C31.2366 41.5007 31.1666 41.6448 31.0686 41.7668C31.0046 41.8548 30.9046 41.9088 30.7966 41.9148C30.7366 41.9148 30.6766 41.8987 30.6266 41.8628C30.5706 41.8247 30.5246 41.7748 30.4906 41.7148C30.4506 41.6608 30.4186 41.6007 30.3946 41.5367C30.3686 41.4707 30.3326 41.3827 30.2886 41.2587V41.3548C30.2946 41.4968 30.2766 41.6367 30.2366 41.7727C30.2026 41.8707 30.1546 41.9127 30.1006 41.9127C30.0466 41.9127 30.0006 41.8687 29.9666 41.7727C29.9286 41.6367 29.9126 41.4968 29.9146 41.3548V37.0727C29.9106 36.9187 29.9286 36.7667 29.9666 36.6167C29.9986 36.5207 30.0426 36.4688 30.1006 36.4688C30.1586 36.4688 30.2046 36.5207 30.2366 36.6167C30.2746 36.7507 30.2926 36.8888 30.2886 37.0268L30.2786 38.5247L30.2806 38.5268Z" fill="#00A551"/>
<path d="M32.249 40.8367C32.319 41.0507 32.415 41.1528 32.529 41.1528C32.643 41.1528 32.713 41.0428 32.785 40.8288C32.869 40.5288 32.905 40.2187 32.893 39.9087C32.895 39.6847 32.881 39.4608 32.849 39.2388C32.829 39.0888 32.785 38.9408 32.721 38.8048C32.665 38.7088 32.605 38.6587 32.529 38.6587C32.441 38.6687 32.363 38.7248 32.327 38.8048C32.259 38.9428 32.213 39.0927 32.191 39.2447C32.155 39.4747 32.139 39.7068 32.139 39.9408C32.129 40.2428 32.165 40.5447 32.247 40.8367M32.121 38.5247C32.177 38.3667 32.255 38.2187 32.353 38.0847C32.417 37.9927 32.523 37.9367 32.635 37.9367C32.785 37.9447 32.919 38.0328 32.983 38.1688C33.101 38.3767 33.179 38.6028 33.215 38.8388C33.273 39.1828 33.301 39.5327 33.297 39.8827C33.297 40.1567 33.283 40.4308 33.251 40.7008C33.225 40.9188 33.183 41.1347 33.121 41.3467C33.079 41.4987 33.009 41.6408 32.909 41.7648C32.845 41.8528 32.745 41.9068 32.637 41.9128C32.577 41.9128 32.517 41.8967 32.467 41.8607C32.411 41.8227 32.365 41.7728 32.331 41.7128C32.291 41.6588 32.259 41.5987 32.237 41.5347C32.211 41.4687 32.173 41.3807 32.129 41.2567V41.3528C32.135 41.4948 32.117 41.6347 32.077 41.7707C32.043 41.8687 31.995 41.9107 31.941 41.9107C31.887 41.9107 31.841 41.8667 31.807 41.7707C31.767 41.6347 31.751 41.4948 31.755 41.3528V37.0727C31.749 36.9187 31.767 36.7647 31.807 36.6167C31.839 36.5207 31.883 36.4688 31.941 36.4688C31.999 36.4688 32.047 36.5207 32.079 36.6167C32.117 36.7507 32.135 36.8888 32.131 37.0268L32.121 38.5227V38.5247Z" fill="#00A551"/>
<path d="M34.6434 39.6062C34.6434 39.3502 34.6094 39.0962 34.5354 38.8502C34.4714 38.6802 34.3894 38.6002 34.2874 38.6002C34.1854 38.6002 34.1094 38.6882 34.0454 38.8582C33.9714 39.1022 33.9334 39.3542 33.9294 39.6082H34.6434V39.6062ZM33.9294 40.1602C33.9294 40.3582 33.9494 40.5542 33.9854 40.7482C34.0054 40.8842 34.0514 41.0142 34.1234 41.1302C34.1594 41.2062 34.2334 41.2562 34.3154 41.2642C34.3614 41.2642 34.4074 41.2482 34.4434 41.2202C34.4934 41.1882 34.5334 41.1422 34.5594 41.0882C34.5994 41.0302 34.6334 40.9682 34.6594 40.9022C34.6934 40.8382 34.7294 40.7422 34.7814 40.6302C34.7914 40.5922 34.8274 40.5662 34.8654 40.5642C34.9054 40.5642 34.9374 40.5942 34.9614 40.6462C34.9894 40.7202 35.0034 40.7982 35.0014 40.8782C34.9974 40.9822 34.9834 41.0862 34.9594 41.1862C34.9314 41.3042 34.8874 41.4182 34.8314 41.5242C34.7794 41.6302 34.7094 41.7242 34.6214 41.8042C34.5374 41.8702 34.4334 41.9062 34.3254 41.9062C34.0754 41.9062 33.8794 41.7302 33.7374 41.3682C33.5954 41.0062 33.5254 40.5242 33.5254 39.9042C33.5254 39.6322 33.5414 39.3622 33.5774 39.0922C33.6034 38.8762 33.6534 38.6642 33.7274 38.4602C33.7774 38.3062 33.8614 38.1662 33.9714 38.0482C34.0554 37.9582 34.1714 37.9082 34.2934 37.9082C34.4574 37.9142 34.6074 38.0062 34.6874 38.1522C34.8094 38.3422 34.8954 38.5562 34.9374 38.7782C34.9914 39.0362 35.0194 39.3002 35.0194 39.5642C35.0194 39.8082 34.9914 39.9682 34.9334 40.0422C34.8774 40.1182 34.7894 40.1622 34.6954 40.1582H33.9234L33.9294 40.1602Z" fill="#00A551"/>
<path d="M35.7487 41.3139C35.7547 41.4659 35.7367 41.6159 35.6907 41.7619C35.6527 41.8579 35.6047 41.9099 35.5467 41.9099C35.4887 41.9099 35.4427 41.8579 35.4047 41.7619C35.3647 41.6159 35.3467 41.4659 35.3527 41.3139V38.5819C35.3527 38.1419 35.4167 37.9199 35.5447 37.9199C35.6087 37.9199 35.6607 37.9739 35.6847 38.0759C35.7167 38.2259 35.7327 38.3779 35.7327 38.5299C35.7647 38.3739 35.8127 38.2219 35.8767 38.0759C35.9287 37.9739 35.9927 37.9199 36.0747 37.9199C36.1747 37.9319 36.2627 37.9899 36.3167 38.0759C36.3987 38.1979 36.4387 38.3419 36.4327 38.4879C36.4347 38.5879 36.4187 38.6899 36.3827 38.7839C36.3507 38.8619 36.3167 38.8999 36.2767 38.8999C36.2367 38.8839 36.2027 38.8619 36.1707 38.8339C36.1307 38.7959 36.0787 38.7719 36.0247 38.7679C35.9607 38.7739 35.9047 38.8159 35.8847 38.8779C35.8387 38.9859 35.8107 39.0999 35.8007 39.2179C35.7747 39.3939 35.7607 39.5699 35.7587 39.7479C35.7487 39.9539 35.7467 40.2019 35.7467 40.4979V41.3159L35.7487 41.3139Z" fill="#00A551"/>
<path d="M39.3386 40.6888C39.3386 40.7968 39.3346 40.9048 39.3226 41.0108C39.3126 41.0848 39.2926 41.1568 39.2626 41.2248C39.2346 41.2928 39.1966 41.3568 39.1526 41.4168C39.0506 41.5608 38.9266 41.6868 38.7866 41.7908C38.6726 41.8688 38.5386 41.9088 38.4006 41.9068C38.2346 41.9068 38.0746 41.8408 37.9566 41.7248C37.8046 41.5688 37.6886 41.3828 37.6166 41.1788C37.5106 40.9028 37.4386 40.6148 37.4026 40.3228C37.3486 39.9488 37.3246 39.5708 37.3266 39.1928C37.3226 38.8168 37.3466 38.4388 37.3986 38.0648C37.4366 37.7708 37.5086 37.4828 37.6126 37.2048C37.6846 36.9968 37.8046 36.8088 37.9606 36.6548C38.0846 36.5348 38.2526 36.4708 38.4246 36.4708C38.5646 36.4688 38.6986 36.5168 38.8046 36.6088C38.9146 36.7108 39.0046 36.8328 39.0686 36.9688C39.1366 37.1148 39.1886 37.2668 39.2226 37.4248C39.2546 37.5648 39.2726 37.7088 39.2746 37.8528C39.2766 37.9668 39.2566 38.0828 39.2146 38.1888C39.1726 38.2868 39.1266 38.3368 39.0706 38.3368C39.0346 38.3368 39.0006 38.3168 38.9826 38.2848C38.9506 38.2368 38.9266 38.1848 38.9126 38.1288C38.8586 37.9228 38.8146 37.7688 38.7786 37.6648C38.7466 37.5648 38.6966 37.4728 38.6306 37.3928C38.5706 37.3248 38.4826 37.2868 38.3926 37.2888C38.2906 37.2928 38.1966 37.3368 38.1286 37.4128C38.0386 37.5208 37.9706 37.6448 37.9306 37.7808C37.8686 37.9748 37.8266 38.1768 37.8046 38.3788C37.7726 38.6368 37.7586 38.8968 37.7606 39.1568C37.7606 39.7768 37.8146 40.2528 37.9306 40.5848C38.0466 40.9168 38.2006 41.0868 38.4046 41.0868C38.5066 41.0868 38.6046 41.0528 38.6846 40.9908C38.7866 40.9108 38.8746 40.8168 38.9486 40.7108V39.8568H38.6206C38.5486 39.8628 38.4806 39.8288 38.4406 39.7708C38.3926 39.6748 38.3726 39.5668 38.3786 39.4608C38.3746 39.3628 38.3906 39.2668 38.4266 39.1748C38.4586 39.0928 38.5086 39.0588 38.5666 39.0588H39.0526C39.1046 39.0588 39.1566 39.0708 39.2026 39.0968C39.2526 39.1448 39.2866 39.2068 39.3026 39.2728C39.3326 39.4088 39.3446 39.5468 39.3406 39.6848L39.3366 40.6888H39.3386Z" fill="#00A551"/>
<path d="M40.1106 41.3139C40.1186 41.4659 40.0986 41.6159 40.0566 41.7619C40.0166 41.8579 39.9666 41.9099 39.9086 41.9099C39.8506 41.9099 39.8066 41.8579 39.7686 41.7619C39.7266 41.6159 39.7066 41.4659 39.7146 41.3139V38.5819C39.7146 38.1419 39.7806 37.9199 39.9086 37.9199C39.9726 37.9199 40.0246 37.9739 40.0506 38.0759C40.0826 38.2259 40.0986 38.3779 40.0986 38.5299C40.1306 38.3739 40.1786 38.2219 40.2406 38.0759C40.2906 37.9739 40.3566 37.9199 40.4406 37.9199C40.5406 37.9319 40.6306 37.9899 40.6826 38.0759C40.7646 38.1979 40.8046 38.3419 40.7986 38.4879C40.8006 38.5879 40.7826 38.6899 40.7466 38.7839C40.7146 38.8619 40.6786 38.8999 40.6406 38.8999C40.6026 38.8839 40.5686 38.8619 40.5386 38.8339C40.4966 38.7959 40.4446 38.7719 40.3886 38.7679C40.3346 38.7679 40.2886 38.8039 40.2486 38.8779C40.2046 38.9859 40.1766 39.1019 40.1646 39.2179C40.1446 39.3659 40.1306 39.5419 40.1226 39.7479C40.1146 39.9539 40.1126 40.2019 40.1126 40.4979V41.3159L40.1106 41.3139Z" fill="#00A551"/>
<path d="M41.9821 38.9798C41.9121 38.7578 41.8181 38.6478 41.7001 38.6478C41.6121 38.6578 41.5341 38.7138 41.4981 38.7958C41.4261 38.9338 41.3801 39.0818 41.3621 39.2358C41.3281 39.4598 41.3121 39.6858 41.3161 39.9138C41.3141 40.1398 41.3281 40.3678 41.3621 40.5918C41.3801 40.7438 41.4261 40.8898 41.4961 41.0258C41.5301 41.1118 41.6101 41.1718 41.7021 41.1798C41.8181 41.1798 41.9141 41.0698 41.9841 40.8418C42.0661 40.5398 42.1021 40.2278 42.0921 39.9138C42.1021 39.5978 42.0661 39.2838 41.9841 38.9798M42.4301 40.7198C42.4021 40.9358 42.3501 41.1478 42.2741 41.3538C42.2201 41.5058 42.1361 41.6458 42.0261 41.7638C41.9421 41.8538 41.8241 41.9038 41.7021 41.9038C41.5801 41.9038 41.4641 41.8538 41.3801 41.7638C41.2721 41.6458 41.1881 41.5058 41.1321 41.3538C41.0581 41.1498 41.0041 40.9358 40.9741 40.7198C40.9341 40.4518 40.9161 40.1798 40.9181 39.9078C40.9181 39.6358 40.9361 39.3658 40.9741 39.0958C41.0021 38.8818 41.0561 38.6718 41.1321 38.4698C41.1841 38.3198 41.2681 38.1818 41.3801 38.0658C41.5481 37.8878 41.8281 37.8778 42.0061 38.0458C42.0121 38.0518 42.0201 38.0578 42.0261 38.0658C42.1361 38.1838 42.2221 38.3238 42.2741 38.4778C42.3481 38.6798 42.4021 38.8898 42.4341 39.1038C42.4701 39.3738 42.4881 39.6438 42.4861 39.9158C42.4881 40.1878 42.4701 40.4598 42.4301 40.7278" fill="#00A551"/>
<path d="M43.8069 41.2319C43.7669 41.3599 43.7189 41.4859 43.6609 41.6079C43.6169 41.6919 43.5589 41.7659 43.4889 41.8299C43.4309 41.8799 43.3549 41.9059 43.2789 41.9039C43.1749 41.8979 43.0809 41.8419 43.0229 41.7559C42.9389 41.6339 42.8789 41.4979 42.8469 41.3519C42.7909 41.0559 42.7669 40.7559 42.7749 40.4539V38.5099C42.7689 38.3599 42.7869 38.2119 42.8289 38.0679C42.8629 37.9719 42.9109 37.9199 42.9709 37.9199C43.0309 37.9199 43.0749 37.9739 43.1149 38.0679C43.1609 38.2099 43.1789 38.3599 43.1729 38.5099V40.0759C43.1729 40.3079 43.1789 40.4959 43.1929 40.6499C43.2009 40.7739 43.2269 40.8939 43.2709 41.0099C43.3109 41.0999 43.3669 41.1439 43.4349 41.1439C43.5029 41.1439 43.5629 41.0919 43.6209 40.9959C43.6849 40.8759 43.7289 40.7459 43.7489 40.6119C43.7769 40.3099 43.7869 40.0039 43.7809 39.6999V38.5099C43.7729 38.3599 43.7909 38.2119 43.8349 38.0679C43.8729 37.9719 43.9169 37.9199 43.9769 37.9199C44.0369 37.9199 44.0849 37.9739 44.1189 38.0679C44.1609 38.2119 44.1789 38.3599 44.1709 38.5099V41.3479C44.1769 41.4879 44.1589 41.6299 44.1189 41.7659C44.0849 41.8639 44.0409 41.9079 43.9849 41.9079C43.9289 41.9079 43.8889 41.8559 43.8529 41.7599C43.8129 41.6299 43.7929 41.4939 43.7989 41.3559V41.2299L43.8069 41.2319Z" fill="#00A551"/>
<path d="M45.654 39.2319C45.634 39.0839 45.5901 38.9379 45.5221 38.8039C45.4661 38.7079 45.4061 38.6579 45.3321 38.6579C45.2261 38.6579 45.136 38.7599 45.064 38.9739C44.976 39.2799 44.9361 39.5979 44.9481 39.9159C44.9381 40.2239 44.9741 40.5319 45.0581 40.8279C45.1341 41.0419 45.2241 41.1519 45.3321 41.1519C45.3981 41.1519 45.46 41.1099 45.516 41.0119C45.584 40.8779 45.6281 40.7339 45.6481 40.5859C45.6861 40.3599 45.704 40.1299 45.702 39.9019C45.704 39.6779 45.688 39.4539 45.654 39.2319ZM44.9321 38.5899C44.9841 38.4119 45.062 38.2439 45.164 38.0899C45.224 37.9979 45.3261 37.9399 45.4361 37.9339C45.5521 37.9339 45.6681 38.0079 45.7681 38.1659C45.8921 38.3759 45.9741 38.6079 46.0101 38.8499C46.0741 39.1999 46.1041 39.5539 46.1001 39.9079C46.1001 40.1859 46.0841 40.4639 46.0481 40.7399C46.0221 40.9539 45.9741 41.1659 45.9061 41.3699C45.8641 41.5139 45.7921 41.6499 45.6981 41.7659C45.5981 41.9119 45.398 41.9499 45.252 41.8499C45.21 41.8219 45.1761 41.7839 45.1501 41.7379C45.0561 41.5839 44.9821 41.4179 44.9341 41.2439V42.7159C44.9341 43.1479 44.8701 43.3639 44.7441 43.3639C44.6701 43.3639 44.6201 43.3039 44.5961 43.1939C44.5681 43.0339 44.5561 42.8699 44.5621 42.7079V38.4779C44.5561 38.3359 44.5741 38.1959 44.6121 38.0599C44.6441 37.9639 44.6881 37.9199 44.7461 37.9199C44.8041 37.9199 44.844 37.9659 44.88 38.0599C44.922 38.1919 44.9421 38.3319 44.9361 38.4719L44.9321 38.5859V38.5899Z" fill="#00A551"/>
<path d="M34.5603 27.3714C34.5603 27.3714 34.4923 23.4974 33.0703 20.4834C31.7523 17.8154 29.4763 17.2634 27.8943 15.7294C26.6283 14.5854 25.6263 13.1794 24.9583 11.6094C24.9583 11.6094 24.3963 17.4574 29.4163 20.4994C34.4363 23.5414 33.6183 24.6074 34.5603 27.3674" fill="#00A551"/>
<path d="M34.5603 32.4886C34.5603 32.4886 34.4923 28.6166 33.0703 25.6026C31.7523 22.9346 29.4763 22.3806 27.8943 20.8486C26.6283 19.7046 25.6263 18.2986 24.9583 16.7266C24.9583 16.7266 24.3963 22.5766 29.4163 25.6146C34.4363 28.6546 33.6183 29.7266 34.5603 32.4826" fill="#00A551"/>
<path d="M34.5603 37.5608C34.5603 37.5608 34.4923 33.6888 33.0703 30.6728C31.7523 28.0048 29.4763 27.4508 27.8943 25.9188C26.6283 24.7748 25.6263 23.3688 24.9583 21.7988C24.9583 21.7988 24.3963 27.6468 29.4163 30.6868C34.4363 33.7268 33.6183 34.7988 34.5603 37.5548" fill="#00A551"/>
</g>
<defs>
<clipPath id="clip0_6749_54684">
<path d="M0 30C0 13.4315 13.4315 0 30 0V0C46.5685 0 60 13.4315 60 30V30C60 46.5685 46.5685 60 30 60V60C13.4315 60 0 46.5685 0 30V30Z" fill="white"/>
</clipPath>
</defs>
</svg>
