<svg width="60" height="60" viewBox="0 0 60 60" fill="none" xmlns="http://www.w3.org/2000/svg">
<g clip-path="url(#clip0_6749_54685)">
<path d="M0 30C0 13.4315 13.4315 0 30 0V0C46.5685 0 60 13.4315 60 30V30C60 46.5685 46.5685 60 30 60V60C13.4315 60 0 46.5685 0 30V30Z" fill="#1D1D1D"/>
<circle cx="30" cy="30" r="30" fill="#1D1D1D"/>
<path d="M14.3097 13.2748C15.0537 12.6948 15.8357 12.1008 16.7617 11.8508C17.0377 11.7768 17.5357 11.8448 17.5377 12.2108C17.6437 13.7548 17.4697 15.3128 17.6797 16.8488C17.9357 19.2288 18.4597 21.7328 20.0637 23.5948C20.6757 24.3468 21.5617 24.7768 22.3657 25.2888C19.5297 25.7328 16.6757 26.0528 13.8137 26.2128C12.4777 26.2288 11.0957 26.3448 9.80971 25.9228C8.91571 25.6828 8.2137 24.9128 8.0757 23.9968C7.7837 22.2768 8.50971 20.6008 9.30571 19.1168C10.6077 16.8928 12.3217 14.9088 14.3137 13.2728L14.3097 13.2748Z" fill="url(#paint0_linear_6749_54685)"/>
<path d="M50.9328 21.5727C51.2708 21.4067 51.6448 21.4387 52.0048 21.5047C52.0008 22.0427 51.8808 22.5727 51.6308 23.0527C49.1508 28.2527 46.3148 33.3107 42.7928 37.8807C40.5768 40.7387 38.0748 43.4267 35.0688 45.4707C32.7008 47.0707 29.9108 48.2527 27.0068 48.1667C25.5688 48.1347 24.3148 47.2887 23.2628 46.3847C21.2048 44.5367 19.7248 42.1407 18.5328 39.6687C16.9388 36.3547 15.9668 32.7487 15.6348 29.0887C24.0848 28.7607 32.4488 27.2187 40.5988 25.0067C44.0908 24.0187 47.5768 22.9647 50.9328 21.5727Z" fill="url(#paint1_linear_6749_54685)"/>
</g>
<defs>
<linearGradient id="paint0_linear_6749_54685" x1="8.0057" y1="19.0328" x2="22.3637" y2="19.0328" gradientUnits="userSpaceOnUse">
<stop stop-color="#F9A51A"/>
<stop offset="0.5" stop-color="#FFDC00"/>
<stop offset="1" stop-color="#FFDC00"/>
</linearGradient>
<linearGradient id="paint1_linear_6749_54685" x1="15.6348" y1="34.8127" x2="52.0048" y2="34.8127" gradientUnits="userSpaceOnUse">
<stop stop-color="#F9A51A"/>
<stop offset="0.5" stop-color="#FFDC00"/>
<stop offset="1" stop-color="#FFDC00"/>
</linearGradient>
<clipPath id="clip0_6749_54685">
<path d="M0 30C0 13.4315 13.4315 0 30 0V0C46.5685 0 60 13.4315 60 30V30C60 46.5685 46.5685 60 30 60V60C13.4315 60 0 46.5685 0 30V30Z" fill="white"/>
</clipPath>
</defs>
</svg>
