<svg width="60" height="60" viewBox="0 0 60 60" fill="none" xmlns="http://www.w3.org/2000/svg">
<g clip-path="url(#clip0_6749_54716)">
<path d="M0 30C0 13.4315 13.4315 0 30 0C46.5685 0 60 13.4315 60 30C60 46.5685 46.5685 60 30 60C13.4315 60 0 46.5685 0 30Z" fill="#1D1D1D"/>
<circle cx="30" cy="30" r="30" fill="#1D1D1D"/>
<path d="M19.5371 27.6049C22.9991 24.1389 26.4611 20.6709 29.9311 17.2129C33.3951 20.6769 36.8611 24.1389 40.3231 27.6049C37.8891 27.6089 35.4531 27.6049 33.0191 27.6069C31.9871 26.5829 30.9671 25.5489 29.9311 24.5289C28.9931 25.4949 28.0271 26.4329 27.0831 27.3909C26.9891 27.4769 26.9091 27.6209 26.7611 27.6049C24.3531 27.6049 21.9451 27.6089 19.5371 27.6049Z" fill="#06428B"/>
<path d="M7.92583 39.2063C11.3958 35.7483 14.8518 32.2783 18.3198 28.8203C19.7798 30.2383 21.2018 31.6943 22.6458 33.1263C24.6678 35.1483 26.6878 37.1703 28.7118 39.1903C28.4138 39.2263 28.1118 39.2043 27.8118 39.2083C25.6818 39.2083 23.5498 39.2123 21.4178 39.2083C20.3838 38.1883 19.3718 37.1463 18.3278 36.1363C17.3078 37.1683 16.2818 38.1943 15.2518 39.2143C12.8098 39.2043 10.3678 39.2143 7.92383 39.2083L7.92583 39.2063Z" fill="#06428B"/>
<path d="M31.1407 39.2043C34.6067 35.7463 38.0627 32.2763 41.5307 28.8203C45.0047 32.2703 48.4587 35.7443 51.9247 39.2043C49.4887 39.2143 47.0547 39.2083 44.6187 39.2083C43.5887 38.1823 42.5607 37.1543 41.5327 36.1243C40.5067 37.1543 39.4767 38.1783 38.4507 39.2083C36.0127 39.2083 33.5747 39.2143 31.1367 39.2043H31.1407Z" fill="#06428B"/>
<path d="M19.6036 28.6035C21.9636 28.6095 24.3236 28.6035 26.6836 28.6075C26.7716 28.6135 26.8796 28.5955 26.9396 28.6815C27.7696 29.5215 28.6076 30.3555 29.4456 31.1895C29.2776 31.1995 29.1096 31.2135 28.9416 31.2195C26.6756 31.2275 24.4076 31.2115 22.1396 31.2275C21.3116 30.3915 20.4756 29.5635 19.6476 28.7235L19.6016 28.6055L19.6036 28.6035Z" fill="#0198D2"/>
<path d="M33.0099 28.6116C35.4499 28.6036 37.8879 28.5976 40.3279 28.6136C39.4899 29.4716 38.6179 30.2976 37.7959 31.1696C37.6339 31.1956 37.4699 31.2176 37.3039 31.2176C35.4719 31.2136 33.6379 31.2196 31.8059 31.2136C31.3439 31.1916 30.8759 31.2656 30.4199 31.1696C30.5039 31.1056 30.5919 31.0436 30.6659 30.9676C31.4379 30.1716 32.2359 29.4036 33.0099 28.6096V28.6116Z" fill="#0198D2"/>
<path d="M7.98441 40.2164C10.4104 40.1924 12.8364 40.2083 15.2604 40.2083C16.1164 41.0603 16.9744 41.9123 17.8224 42.7743C15.7024 42.7943 13.5824 42.7783 11.4624 42.7823C11.1444 42.7723 10.8244 42.8044 10.5084 42.7644C9.88241 42.1944 9.31042 41.5664 8.70042 40.9764C8.45442 40.7304 8.19042 40.4984 7.98242 40.2164H7.98441Z" fill="#0198D2"/>
<path d="M21.4395 40.2092C23.8455 40.2032 26.2515 40.1992 28.6555 40.2092C28.6055 40.2972 28.5535 40.3872 28.4815 40.4612C27.7155 41.2332 26.9395 41.9952 26.1755 42.7712C23.7355 42.7952 21.2955 42.7812 18.8555 42.7772C19.7095 41.9152 20.5535 41.0412 21.4375 40.2092H21.4395Z" fill="#0198D2"/>
<path d="M31.1836 40.2175C33.6116 40.1935 36.0396 40.2055 38.4676 40.2115C39.3236 41.0675 40.1796 41.9235 41.0356 42.7795C38.5916 42.7895 36.1496 42.7835 33.7056 42.7835C33.1256 42.2115 32.5536 41.6295 31.9756 41.0535C31.7056 40.7815 31.4156 40.5235 31.1836 40.2175Z" fill="#0198D2"/>
<path d="M42.0645 42.7773C42.8925 41.9073 43.7625 41.0753 44.6025 40.2153C46.4885 40.1913 48.3745 40.2113 50.2625 40.2053C50.8165 40.2093 51.3705 40.1933 51.9265 40.2213C51.0585 41.0693 50.2225 41.9493 49.3425 42.7853C46.9165 42.7793 44.4905 42.7933 42.0665 42.7773H42.0645Z" fill="#0198D2"/>
</g>
<defs>
<clipPath id="clip0_6749_54716">
<path d="M0 30C0 13.4315 13.4315 0 30 0C46.5685 0 60 13.4315 60 30C60 46.5685 46.5685 60 30 60C13.4315 60 0 46.5685 0 30Z" fill="white"/>
</clipPath>
</defs>
</svg>
