<svg width="60" height="60" viewBox="0 0 60 60" fill="none" xmlns="http://www.w3.org/2000/svg">
<g clip-path="url(#clip0_6749_54730)">
<path d="M0 30C0 13.4315 13.4315 0 30 0C46.5685 0 60 13.4315 60 30C60 46.5685 46.5685 60 30 60C13.4315 60 0 46.5685 0 30Z" fill="#1D1D1D"/>
<circle cx="30" cy="30" r="30" fill="#1D1D1D"/>
<path d="M46.1887 12.8965H23.3867V35.6985H46.1887V12.8965Z" fill="#173966"/>
<path d="M40.4887 18.5977H23.3867V35.6997H40.4887V18.5977Z" fill="#4C789D"/>
<path d="M34.7867 24.2988H23.3867V35.6988H34.7867V24.2988Z" fill="#789AB5"/>
<path d="M34.7883 24.2988H11.9863V47.1008H34.7883V24.2988Z" fill="#173966"/>
<path d="M29.0883 29.998H11.9863V47.1H29.0883V29.998Z" fill="#4C789D"/>
<path d="M23.3863 35.6992H11.9863V47.0992H23.3863V35.6992Z" fill="#789AB5"/>
</g>
<defs>
<clipPath id="clip0_6749_54730">
<path d="M0 30C0 13.4315 13.4315 0 30 0C46.5685 0 60 13.4315 60 30C60 46.5685 46.5685 60 30 60C13.4315 60 0 46.5685 0 30Z" fill="white"/>
</clipPath>
</defs>
</svg>
