<svg width="60" height="60" viewBox="0 0 60 60" fill="none" xmlns="http://www.w3.org/2000/svg">
<g clip-path="url(#clip0_6749_54733)">
<path d="M0 30C0 13.4315 13.4315 0 30 0C46.5685 0 60 13.4315 60 30C60 46.5685 46.5685 60 30 60C13.4315 60 0 46.5685 0 30Z" fill="#1D1D1D"/>
<circle cx="30" cy="30" r="30" fill="#1D1D1D"/>
<path d="M60 0H0V60H60V0Z" fill="#060002"/>
<path d="M32.6193 11.9538C34.5413 11.5258 36.6533 12.5298 37.5433 14.2858C38.3773 15.8318 38.1853 17.8558 37.0713 19.2138C35.8433 20.7978 33.5153 21.3678 31.6973 20.5258C29.8513 19.7398 28.7053 17.6278 29.0693 15.6518C29.3433 13.8418 30.8253 12.3018 32.6213 11.9558L32.6193 11.9538Z" fill="#FFC801"/>
<path d="M41.9912 22.1647C42.4732 20.3487 42.9612 18.5327 43.4552 16.7188C45.2772 16.7247 47.0992 16.7187 48.9212 16.7227C48.4332 18.5447 47.9452 20.3667 47.4532 22.1867C45.6452 22.1867 43.8352 22.1867 42.0252 22.1867C41.4992 24.0107 41.0612 25.8587 40.5232 27.6787C38.6932 27.6647 36.8632 27.6887 35.0332 27.6667C35.5292 25.8347 35.9972 23.9947 36.5212 22.1707C38.3432 22.1707 40.1652 22.1767 41.9872 22.1667L41.9912 22.1647Z" fill="#FFC801"/>
<path d="M22.9182 22.1719C24.7422 22.1719 26.5622 22.1719 28.3862 22.1719C27.9002 23.9939 27.4062 25.8119 26.9222 27.6359C25.1862 27.6519 23.4502 27.6179 21.7142 27.6539C21.6362 27.5699 21.5622 27.4859 21.4902 27.3979C22.0122 25.6699 22.4322 23.9119 22.9162 22.1719H22.9182Z" fill="#FFC801"/>
<path d="M29.7079 22.1834C31.5359 22.1534 33.3619 22.1774 35.1899 22.1714C34.7039 23.9934 34.2119 25.8154 33.7239 27.6374C31.8999 27.6254 30.0759 27.6674 28.2539 27.6174C28.7579 25.8114 29.2339 23.9974 29.7059 22.1834H29.7079Z" fill="#FFC801"/>
<path d="M14.5352 33.0894C15.0212 31.2674 15.5072 29.4454 15.9992 27.6234C17.7612 27.6134 19.5232 27.6414 21.2832 27.6094C21.3452 27.6934 21.4052 27.7774 21.4612 27.8634C21.3652 28.0254 21.2972 28.1954 21.2592 28.3794C20.8572 29.9474 20.4072 31.5014 20.0172 33.0714C18.1912 33.1134 16.3632 33.0794 14.5372 33.0894H14.5352Z" fill="#FFC801"/>
<path d="M27.9892 28.9277C29.8132 28.9277 31.6373 28.9277 33.4633 28.9277C32.9813 30.7517 32.4872 32.5717 32.0012 34.3937C30.1772 34.3937 28.3532 34.3937 26.5312 34.3937C27.0133 32.5717 27.5033 30.7517 27.9913 28.9297L27.9892 28.9277Z" fill="#FFC801"/>
<path d="M19.4619 35.6864C21.2819 35.6844 23.1039 35.6864 24.9259 35.6864C24.4399 37.5124 23.9519 39.3344 23.4639 41.1584C21.6439 41.1584 19.8239 41.1604 18.0059 41.1584C18.4839 39.3324 18.9779 37.5124 19.4619 35.6884V35.6864Z" fill="#FFC801"/>
<path d="M33.0694 35.6864C34.8934 35.6844 36.7134 35.6864 38.5374 35.6864C38.0514 37.5064 37.5674 39.3244 37.0754 41.1424C38.8914 41.1364 40.7074 41.1424 42.5234 41.1404C42.0414 42.9644 41.5474 44.7864 41.0634 46.6104C39.2414 46.6144 37.4194 46.6104 35.5974 46.6104C36.0794 44.7924 36.5694 42.9764 37.0514 41.1584C35.2374 41.1584 33.4234 41.1584 31.6094 41.1584C32.0934 39.3344 32.5834 37.5104 33.0694 35.6864Z" fill="#FFC801"/>
<path d="M12.5441 41.1382C14.3641 41.1362 16.1801 41.1362 18.0001 41.1382C17.5181 42.9622 17.0261 44.7822 16.5441 46.6082C14.7201 46.6122 12.9001 46.6082 11.0781 46.6102C11.5641 44.7842 12.0581 42.9622 12.5461 41.1382H12.5441Z" fill="#FFC801"/>
</g>
<defs>
<clipPath id="clip0_6749_54733">
<path d="M0 30C0 13.4315 13.4315 0 30 0C46.5685 0 60 13.4315 60 30C60 46.5685 46.5685 60 30 60C13.4315 60 0 46.5685 0 30Z" fill="white"/>
</clipPath>
</defs>
</svg>
