<svg width="60" height="60" viewBox="0 0 60 60" fill="none" xmlns="http://www.w3.org/2000/svg">
<g clip-path="url(#clip0_6749_54731)">
<path d="M0 30C0 13.4315 13.4315 0 30 0C46.5685 0 60 13.4315 60 30C60 46.5685 46.5685 60 30 60C13.4315 60 0 46.5685 0 30Z" fill="#1D1D1D"/>
<circle cx="30" cy="30" r="30" fill="#1D1D1D"/>
<path d="M34.7563 12.7785C34.9363 13.1405 34.8043 13.4425 34.6563 13.4265C33.7123 13.4865 33.1023 13.0485 31.9443 13.1545C33.8683 11.6485 34.6423 12.5685 34.7584 12.7785M36.1403 12.6245C36.5283 12.5205 36.7963 12.9665 36.7963 13.2525C36.4763 13.3565 36.1384 13.5045 35.7124 13.4565C35.6784 13.1645 35.7704 12.7325 36.1364 12.6245M45.0443 37.4485C45.1063 38.0625 45.1243 39.1785 44.9943 39.2265C44.8843 39.0625 44.1963 37.8965 45.0443 37.4485ZM36.6963 50.2125C35.5663 50.7125 33.4984 51.0565 32.2844 51.0205C31.6944 50.9525 31.4663 50.6585 31.4823 50.2965C31.5063 50.0125 31.7403 49.7945 32.0243 49.7865C32.0943 49.7865 32.1724 49.7745 32.2624 49.7685C34.3364 49.4545 37.6123 49.1105 38.5723 47.7965C38.2763 47.7465 37.9943 47.6365 37.7423 47.4765C38.8123 46.7405 39.7343 45.8065 40.4543 44.7265C40.6543 44.5685 40.7904 44.3445 40.8364 44.0945C40.8604 44.0545 40.8883 44.0145 40.9083 43.9745C41.5264 44.4765 42.3003 45.1025 42.1443 44.9785C43.0483 47.7405 39.4024 46.6905 38.2364 49.8505C39.9884 47.5005 43.5783 49.7585 43.4163 45.2985C44.5143 43.9685 44.4143 42.7665 44.8383 41.9365C44.8903 41.8305 45.4443 42.1045 45.4324 42.5505C45.4023 43.6345 47.1304 43.8785 46.9844 42.7205C46.0303 43.0025 45.5183 41.4665 46.1243 40.8185C46.5343 40.3785 48.5463 39.9305 48.7743 40.3945C49.1783 39.7345 48.1983 38.9885 47.5084 39.3645C46.8204 39.7405 46.3203 40.0085 46.2803 39.7825C46.2583 39.6945 47.2323 38.8465 47.5723 38.1445C47.7663 37.7425 48.1263 37.4405 48.5503 37.5865C47.3483 35.9705 46.7703 37.5145 46.5063 37.9605C46.3263 38.2565 45.9023 39.1705 45.8463 39.1365C45.7903 39.1025 46.1763 38.0785 46.0743 37.3765C46.0103 36.9205 46.5223 36.6705 46.7543 36.5925C45.7523 35.9365 45.2423 36.1925 45.1383 37.0525C44.0743 36.9725 43.6343 37.5525 43.8523 38.2165C44.0703 38.8825 44.3764 39.6305 44.3864 39.9985C44.1544 40.6585 43.1563 41.0645 42.8283 41.4345C42.7243 41.5565 42.9143 42.6325 43.4263 43.3485C41.7323 42.7285 42.5943 37.6785 38.7243 37.1345C39.8383 36.6605 41.4123 37.1845 42.0923 38.8265C41.8343 35.8765 39.9223 33.4445 37.5003 31.5485C37.1943 31.0605 37.8363 31.0465 38.2043 31.3085L38.2463 31.3365C39.2183 32.1405 40.0323 33.0265 40.2143 33.8685C40.6363 33.5485 41.1183 33.5485 42.2503 33.9165C42.6003 32.5685 42.1203 31.7305 42.1463 30.9765C42.1463 30.8825 42.6463 30.8925 42.7903 31.2225C43.1383 32.0245 44.4803 31.6105 43.9783 30.8145C43.3783 31.3565 42.4843 30.4025 42.7043 29.7305C42.8543 29.2685 44.1683 28.2505 44.4943 28.5125C44.5623 27.8925 43.5903 27.6845 43.2163 28.1945C42.8423 28.7045 42.5683 29.0725 42.4643 28.9185C42.4163 28.8625 42.8363 27.9085 42.8483 27.2905C42.8483 26.9285 43.0123 26.5885 43.3723 26.5445C41.9443 25.7785 42.0504 27.1045 42.0084 27.5185C41.9823 27.7945 41.9803 28.6025 41.9243 28.6025C41.8683 28.6025 41.8063 27.7185 41.4943 27.2405C41.2943 26.9325 41.5803 26.5725 41.7223 26.4385C40.7683 26.3025 40.4843 26.6645 40.7003 27.3265C39.8983 27.6325 39.7724 28.2085 40.1583 28.6185C40.5443 29.0265 41.0223 29.4705 41.1543 29.7385C41.2083 30.2965 40.6123 30.9365 40.5043 31.3185C40.4703 31.4445 40.9723 32.1625 41.5883 32.5105C40.3123 32.6245 39.1603 29.3325 35.6883 28.7785C35.2043 28.6245 34.7083 28.5185 34.2043 28.4645C33.1743 28.3505 31.9043 27.6745 32.3963 27.1645C32.8883 26.6545 33.8143 26.9445 33.9683 27.0865C33.9683 27.0865 32.9083 26.0885 30.5683 26.4585C28.8603 26.7305 27.9043 26.7245 27.1183 26.5285C25.2743 25.8625 23.7543 25.1785 23.8643 24.4445C23.9423 23.8685 24.6943 23.2725 25.8963 22.9505C25.9763 22.6005 26.1103 22.2665 26.2943 21.9605C25.7223 21.8625 24.4303 22.0445 24.1023 22.1405C24.2823 21.2485 24.5604 20.3725 25.2364 19.6525C24.6344 19.4365 24.0003 18.5305 23.7263 17.9085C24.8103 17.8505 25.6983 17.7145 26.9083 16.6425C26.8483 17.7185 25.5543 18.3465 24.9584 18.4145C25.3963 18.9045 25.9763 19.2445 26.6163 19.3865C26.2103 19.8625 25.6143 20.4185 25.2463 21.2325C25.9703 21.1825 27.1923 21.2325 27.1923 21.2325C27.1923 21.2325 26.5723 23.1485 26.7463 24.4865C27.6083 23.9445 28.1764 23.6865 29.5124 23.5005C29.6564 24.2845 29.8783 25.0525 30.1783 25.7925C32.7283 21.2105 40.9423 23.3905 37.3663 26.2825C38.1283 26.3725 40.2603 25.0465 40.0263 23.3785C41.1243 23.7005 41.1663 25.1865 40.7503 26.1865C41.5023 25.3785 43.1463 24.6105 41.5223 21.9805C41.3923 21.7685 42.0043 20.9945 41.7323 20.6605C41.3323 20.2645 41.8843 20.0665 41.1483 18.9345C41.1723 19.3765 41.0783 19.8185 40.8783 20.2125C40.5443 20.0325 40.1183 20.0965 39.8063 20.2125C39.7963 19.8685 39.6843 19.1425 39.3143 18.8405C38.7723 24.6085 33.6023 18.3385 31.0663 23.1805C30.9763 21.7985 32.2043 19.0605 28.4023 21.1525C30.5923 18.5905 30.2703 17.8465 27.2584 17.7985C27.2444 17.7825 27.2303 17.7685 27.2143 17.7545C28.2243 17.4805 30.0164 16.9325 30.5604 16.2085C29.4544 15.7785 29.0163 14.9425 29.0383 14.9425C30.3043 15.3225 31.2183 15.3985 33.9783 15.2925C33.3603 15.4705 32.7723 15.7385 32.2323 16.0885C29.4103 18.1625 32.0263 21.2485 35.1803 19.5245C34.8703 19.7925 34.7403 20.7725 35.3283 20.7185C36.1443 20.6305 37.6303 20.3685 38.3503 20.7185C37.7603 19.1045 35.5083 20.4725 36.5243 19.2065C36.0243 18.9385 34.6084 18.3585 32.7083 19.1165C33.5604 18.4605 34.6303 18.1545 35.7003 18.2645C35.5303 17.3045 36.1563 15.7925 37.5963 15.1485C37.8943 15.0205 39.2664 14.5685 39.1844 16.4605C39.6104 16.0725 39.7463 15.5005 39.7263 14.8325C39.8883 14.8985 40.2683 15.1605 40.1063 15.7665C40.3743 15.7385 40.6724 15.2785 40.7104 14.9165C40.8464 15.0105 41.0283 15.4725 40.9383 15.8445C41.2783 15.7245 41.4163 15.2845 41.4383 14.9785C41.7583 15.4665 41.9003 16.0505 41.8423 16.6305C42.2203 16.1765 42.3843 15.3645 42.0383 14.8025C42.2543 14.4925 42.4104 14.3185 42.2344 14.0025C42.1404 13.7865 41.8563 13.5225 41.8283 13.2905C41.8583 13.2565 41.8864 13.2205 41.9104 13.1825C42.2724 13.4185 43.0803 13.8025 43.5763 13.1725C44.4803 14.7085 45.9904 13.8225 45.6624 12.8805C46.2384 12.6405 46.8843 12.2105 46.9183 11.3085C46.9523 10.4085 46.2223 9.55653 44.8463 9.94453C43.4703 10.3325 43.6203 11.5005 43.8703 11.7525C44.3483 12.2165 44.8343 11.7305 44.8803 11.6345C44.9783 11.4685 44.9643 11.2605 44.8423 11.1105C44.7503 11.0165 44.4803 10.9885 44.6023 11.1105C44.6683 11.1805 44.8603 11.5705 44.4223 11.6425C43.9023 11.7145 43.8664 10.6265 44.8344 10.3645C45.3764 10.2625 46.2203 10.3945 46.3783 11.1625C46.5583 12.0205 45.3963 12.6325 45.2943 12.6685C45.1923 12.7045 45.2423 12.8285 45.2803 13.0025C45.4363 13.6405 44.5344 13.8585 43.8344 12.9925C43.7484 12.8805 43.6183 12.6845 43.5483 12.7905C43.1243 13.3725 42.3663 13.0725 42.0803 12.7785C42.2303 12.2105 42.1783 11.4225 41.6523 11.2125C41.3863 11.1085 40.9903 11.1685 40.5803 11.3345C40.6843 10.8745 41.2344 10.6865 41.5604 10.1185C41.8604 9.61054 41.6923 8.67253 40.6943 8.97253C40.0863 7.86253 38.7043 7.77854 38.1523 8.35654C37.4703 9.08054 37.6103 9.87454 38.0383 10.2185C38.4663 10.5625 39.2543 10.3345 39.3043 9.76454C39.3283 9.56454 39.2544 9.38053 39.1344 9.34653C39.0664 9.32453 39.0203 9.36654 39.0663 9.43854C39.1863 9.62654 39.1303 9.87854 38.9423 9.99854C38.9243 10.0105 38.9044 10.0205 38.8864 10.0285C38.6064 10.1685 38.1623 9.94853 38.2063 9.34453C38.2663 8.26053 39.8803 8.21453 40.2703 9.27253C40.3043 9.40453 40.4383 9.48454 40.5723 9.45054C40.5863 9.44654 40.6004 9.44254 40.6124 9.43654C41.2424 9.16854 41.3903 9.93653 40.4783 10.8725C40.2043 11.1465 40.0783 11.3785 40.0643 11.5965C39.6663 11.8245 39.3203 12.1325 39.0483 12.5005C38.4363 12.8465 37.7723 13.0905 37.0803 13.2245C37.2943 13.0325 37.6603 12.1225 37.1683 11.3285C36.9103 11.6745 36.1263 11.9945 35.8183 12.0525C35.7963 11.3965 35.2463 10.8805 34.5903 10.9025C34.5703 10.9025 34.5483 10.9025 34.5283 10.9065C34.7203 11.2565 34.6543 11.6685 34.5003 11.7485C32.7443 10.9545 31.3724 10.9065 31.1624 11.0445C31.4004 11.1945 31.7863 11.9485 31.5483 12.3445C30.8563 12.3125 28.8884 11.6345 28.2124 9.44254C28.1904 9.36654 28.1124 9.32253 28.0364 9.34453C27.9884 9.35853 27.9523 9.39454 27.9383 9.44254C27.7323 10.3465 28.3563 11.8705 29.3763 12.5645C28.1243 12.3465 25.9403 11.1585 24.4443 9.31053C24.3223 9.16853 24.0823 9.21654 24.1203 9.39854C24.4043 11.0465 26.8523 13.2465 29.8463 13.7285C24.0223 15.9465 23.6363 9.99253 18.3883 11.2205C21.0983 11.0805 22.0683 13.6445 23.8223 14.6985C21.4303 14.0945 19.0543 10.5605 15.4923 12.6865C19.3883 11.9225 19.2903 14.4945 23.3323 16.3945C19.7683 16.6305 19.5824 13.6185 16.4124 14.2545C18.5264 14.5365 19.3604 16.7205 21.3844 18.1345C18.5924 19.0565 16.8883 20.7425 16.1483 22.6405C15.6263 22.4845 15.1403 22.2265 14.7223 21.8785C14.5903 21.6125 14.0823 20.8325 14.4243 20.0325C14.7663 19.2305 15.5523 19.2565 16.0763 19.1405C16.4383 19.0725 16.3344 18.4265 16.0104 18.0225C15.8784 18.5305 14.7443 18.6505 14.8023 18.4185C15.0363 17.5885 15.5603 17.4265 15.7403 17.2265C15.9203 17.0265 16.4983 16.3225 15.2983 15.9605C15.5763 16.4105 14.3943 17.8365 14.2403 17.7905C14.0863 17.7445 14.3683 16.8585 14.5583 16.1625C14.7483 15.4665 13.9343 15.3325 13.1383 15.6725C13.9903 15.9085 13.5383 17.7025 13.3083 17.7345C13.0783 17.7665 12.8383 17.0465 12.6243 16.3105C12.5203 15.9265 11.6863 15.9185 11.2263 16.5185C11.7483 16.4845 12.5383 17.4825 12.4523 19.0065C12.4303 19.4705 12.4083 19.5705 12.4183 19.9105C12.3523 20.3585 11.7343 20.8145 11.1523 20.7265L11.3203 21.7005C11.3863 21.6905 11.4443 21.6585 11.4883 21.6105C11.9703 21.1085 12.6243 21.2105 12.7203 21.3285C12.9743 22.3785 12.6283 22.6225 12.8203 23.7585C13.0183 23.9025 13.2363 24.0185 13.4663 24.1025L13.2403 24.5925C12.6663 26.2405 14.7023 28.3145 13.5183 29.9625C16.1803 27.3245 13.4024 26.2785 14.7844 24.7085C15.1584 24.9585 15.4883 25.2725 15.7563 25.6345C16.0063 27.7645 17.3223 29.8225 19.5903 31.1525C22.7983 33.0305 27.5623 34.2265 30.6963 35.9285C31.8663 36.6125 32.8663 37.5425 32.1163 39.1445C32.4783 39.1885 32.5603 39.1445 32.9803 38.9645C32.9803 39.9065 32.0923 40.9545 30.9783 40.9545C31.2523 41.3605 32.1943 41.8585 32.7563 41.8245C32.0923 42.5765 30.3763 42.4165 29.5563 42.1865C29.5923 42.5205 30.1523 43.2225 30.8483 43.5205C29.8203 43.8505 28.2943 43.5685 27.6323 43.3125C27.4943 43.6285 27.7603 44.2925 28.1423 44.5065C27.6503 44.7165 25.9124 44.6725 25.1604 44.0825C25.1364 44.4285 25.2984 44.7605 25.5864 44.9525C24.4684 45.1885 22.5983 45.0905 21.6643 44.9045C27.9943 47.0745 36.0743 43.6945 33.6243 38.4145C35.5963 41.3085 34.3103 44.9585 28.7663 46.1905C23.3863 47.3865 18.9464 45.5265 17.3104 43.0145C16.4264 41.6465 16.3563 39.3985 17.4783 38.9825C18.4163 40.1245 20.7923 39.1625 21.9563 41.8485C22.1223 40.9325 22.0783 40.0965 21.0783 38.9545C23.4563 39.5705 24.6083 38.8745 26.2743 39.5865C25.0403 38.3025 23.5623 38.5025 22.6283 37.7585C25.2583 38.3905 26.4663 36.7305 28.0523 38.4425C27.6723 35.8825 25.0523 36.7505 22.8523 36.1325C23.7163 35.5445 24.5604 35.8705 25.3844 34.6005C23.6084 35.1725 23.4923 34.4205 21.5183 34.6685C21.9683 34.2845 22.1963 34.1585 22.1963 33.3125C21.5183 34.1065 15.9383 33.4705 15.5683 36.5665C15.9303 36.0925 17.9504 35.1045 19.1844 36.0525C16.9144 35.8605 14.5743 37.7125 14.2563 40.4125C13.9463 42.6925 14.7364 44.9865 16.3864 46.5925C16.8384 47.8105 17.6043 48.5825 17.9743 48.8125C18.0223 48.5425 18.0943 48.2765 18.1903 48.0205C18.9783 48.5085 19.8143 48.9145 20.6883 49.2285C20.8843 49.6265 21.1523 49.9865 21.4783 50.2865C21.6963 50.5145 21.9483 50.7045 22.2263 50.8525C23.0723 51.3385 23.9984 51.6665 24.9624 51.8205H25.0104L25.1344 51.8405H25.1903C25.4683 51.8845 25.7483 51.9145 26.0303 51.9285L25.9104 51.9005H25.9883C23.9283 51.4665 23.7043 50.8165 23.7143 50.5325C23.7543 50.3525 23.8783 50.2225 24.2223 50.3865C24.7003 50.6165 26.9823 52.0145 29.3163 51.9585C34.8483 52.3465 36.7003 50.2225 36.7003 50.2225" fill="#D49A2F"/>
</g>
<defs>
<clipPath id="clip0_6749_54731">
<path d="M0 30C0 13.4315 13.4315 0 30 0C46.5685 0 60 13.4315 60 30C60 46.5685 46.5685 60 30 60C13.4315 60 0 46.5685 0 30Z" fill="white"/>
</clipPath>
</defs>
</svg>
