<svg width="60" height="60" viewBox="0 0 60 60" fill="none" xmlns="http://www.w3.org/2000/svg">
<g clip-path="url(#clip0_6749_54729)">
<path d="M0 30C0 13.4315 13.4315 0 30 0C46.5685 0 60 13.4315 60 30C60 46.5685 46.5685 60 30 60C13.4315 60 0 46.5685 0 30Z" fill="#1D1D1D"/>
<g filter="url(#filter0_ii_6749_54729)">
<path d="M0 30C0 46.5685 13.4315 60 30 60C46.5685 60 60 46.5685 60 30C60 13.4315 46.5685 0 30 0C13.4315 0 0 13.4315 0 30Z" fill="#D6171F"/>
</g>
<path d="M30.0232 51.7193C17.9812 51.8773 8.23919 41.9393 8.29319 29.8633C8.34319 17.8913 18.4092 8.24329 30.0612 8.28529C41.8212 8.31929 51.3332 17.9513 51.7052 29.2213C52.1172 41.9333 41.7192 51.9753 30.0232 51.7193ZM42.1212 30.0393C39.2292 28.7133 36.8292 27.2313 34.8092 25.2033C32.7852 23.1733 31.2912 20.7393 30.0512 18.0573C25.5812 25.2653 26.6092 24.9813 18.0032 30.1173C20.7612 31.2493 23.1872 32.7613 25.1952 34.8213C27.2612 36.9573 28.8952 39.4713 30.0132 42.2253C32.4292 36.4533 36.3592 32.5173 42.1212 30.0373V30.0393ZM31.6352 48.6433C36.8412 48.1313 40.9272 45.9133 44.1952 42.1753C46.7832 39.2533 48.3192 35.5453 48.5732 31.6453C43.9872 32.1793 40.1272 33.8173 36.9932 36.9773C33.8552 40.1413 32.1292 43.9833 31.6352 48.6433ZM11.3792 31.6633C11.9332 36.7753 14.0612 40.9713 17.8832 44.2493C20.7672 46.7673 24.3732 48.3013 28.1812 48.6333C28.2132 41.9773 22.4932 32.6893 11.3852 31.6633H11.3792ZM28.2372 11.5873C21.6052 10.2333 11.0972 20.7053 11.4632 28.2253C18.4032 29.4553 28.8972 19.0833 28.2372 11.5873ZM31.6432 11.5873C32.1312 16.0273 33.7852 19.8433 36.8972 22.9713C40.0752 26.1633 43.9252 27.9413 48.4172 28.3513C49.5592 21.3933 38.7532 10.5413 31.6432 11.5813V11.5873Z" fill="white"/>
<path d="M42.1219 30.0405C36.3579 32.5205 32.4299 36.4545 30.0139 42.2285C28.8979 39.4745 27.2619 36.9585 25.1959 34.8245C23.1879 32.7525 20.7619 31.2525 18.0039 30.1205C26.6099 24.9845 25.5819 25.2685 30.0519 18.0605C31.2919 20.7425 32.7759 23.1685 34.8099 25.2065C36.8399 27.2425 39.2319 28.7165 42.1219 30.0425V30.0405Z" fill="#D6171F"/>
<path d="M31.6348 48.6445C32.1308 43.9845 33.8428 40.1485 36.9868 36.9785C40.1308 33.8085 43.9808 32.1805 48.5668 31.6465C48.3168 35.5465 46.7768 39.2545 44.1888 42.1765C40.9268 45.9145 36.8408 48.1325 31.6348 48.6445Z" fill="#D6171F"/>
<path d="M11.3867 31.666C22.4947 32.684 28.2147 41.98 28.2007 48.636C24.3927 48.304 20.7867 46.77 17.9027 44.252C14.0727 40.976 11.9427 36.778 11.3867 31.666Z" fill="#D6171F"/>
<path d="M28.2387 11.5918C28.9007 19.0878 18.4047 29.4598 11.4707 28.2298C11.0967 20.7118 21.6047 10.2378 28.2387 11.5918Z" fill="#D6171F"/>
<path d="M31.6445 11.5833C38.7545 10.5433 49.5605 21.3953 48.4185 28.3373C43.9265 27.9333 40.0785 26.1513 36.8985 22.9593C33.7865 19.8373 32.1285 16.0233 31.6445 11.5813V11.5833Z" fill="#D6171F"/>
</g>
<defs>
<filter id="filter0_ii_6749_54729" x="-12" y="-12" width="84" height="84" filterUnits="userSpaceOnUse" color-interpolation-filters="sRGB">
<feFlood flood-opacity="0" result="BackgroundImageFix"/>
<feBlend mode="normal" in="SourceGraphic" in2="BackgroundImageFix" result="shape"/>
<feColorMatrix in="SourceAlpha" type="matrix" values="0 0 0 0 0 0 0 0 0 0 0 0 0 0 0 0 0 0 127 0" result="hardAlpha"/>
<feOffset dx="-12" dy="-12"/>
<feGaussianBlur stdDeviation="12"/>
<feComposite in2="hardAlpha" operator="arithmetic" k2="-1" k3="1"/>
<feColorMatrix type="matrix" values="0 0 0 0 0 0 0 0 0 0 0 0 0 0 0 0 0 0 0.44 0"/>
<feBlend mode="normal" in2="shape" result="effect1_innerShadow_6749_54729"/>
<feColorMatrix in="SourceAlpha" type="matrix" values="0 0 0 0 0 0 0 0 0 0 0 0 0 0 0 0 0 0 127 0" result="hardAlpha"/>
<feOffset dx="12" dy="12"/>
<feGaussianBlur stdDeviation="12"/>
<feComposite in2="hardAlpha" operator="arithmetic" k2="-1" k3="1"/>
<feColorMatrix type="matrix" values="0 0 0 0 1 0 0 0 0 1 0 0 0 0 1 0 0 0 0.4 0"/>
<feBlend mode="normal" in2="effect1_innerShadow_6749_54729" result="effect2_innerShadow_6749_54729"/>
</filter>
<clipPath id="clip0_6749_54729">
<path d="M0 30C0 13.4315 13.4315 0 30 0C46.5685 0 60 13.4315 60 30C60 46.5685 46.5685 60 30 60C13.4315 60 0 46.5685 0 30Z" fill="white"/>
</clipPath>
</defs>
</svg>
