<svg width="60" height="60" viewBox="0 0 60 60" fill="none" xmlns="http://www.w3.org/2000/svg">
<g clip-path="url(#clip0_6749_54732)">
<path d="M0 30C0 13.4315 13.4315 0 30 0C46.5685 0 60 13.4315 60 30C60 46.5685 46.5685 60 30 60C13.4315 60 0 46.5685 0 30Z" fill="#1D1D1D"/>
<g filter="url(#filter0_ii_6749_54732)">
<path d="M0 30C0 46.5685 13.4315 60 30 60C46.5685 60 60 46.5685 60 30C60 13.4315 46.5685 0 30 0C13.4315 0 0 13.4315 0 30Z" fill="#DE2729"/>
</g>
<path d="M13.3973 18.1076C15.3053 17.4696 17.3593 17.3976 19.3473 17.6016C20.8053 17.7476 22.2413 18.0456 23.6693 18.3676C23.6793 18.6756 23.6733 18.9856 23.6733 19.2956C21.8173 18.8656 19.9393 18.4815 18.0293 18.4135C16.3713 18.3635 14.6693 18.5616 13.1413 19.2416C12.0253 19.7416 11.0153 20.5616 10.4653 21.6716C9.94529 22.7156 9.80129 23.9436 10.0433 25.0816C10.3333 26.3516 11.2253 27.3836 12.2293 28.1696C13.9693 29.5296 16.0133 30.4156 17.8913 31.5616C18.7093 32.0696 19.5093 32.6356 20.1273 33.3836C20.5613 33.9096 20.8773 34.5376 20.9913 35.2116C21.1813 36.2556 20.8653 37.3916 20.1233 38.1596C19.4973 38.8116 18.6233 39.1656 17.7433 39.3096C16.5313 39.5076 15.2833 39.3876 14.0973 39.0936C12.4933 38.6976 11.0033 37.9536 9.58529 37.1216C9.57729 36.7796 9.57729 36.4356 9.58529 36.0916C9.84129 36.1896 10.0573 36.3636 10.2993 36.4916C12.1613 37.5676 14.2173 38.4656 16.4013 38.5056C17.3773 38.4936 18.4293 38.3756 19.2273 37.7616C19.9313 37.2256 20.2013 36.2856 20.1193 35.4336C20.0353 34.7096 19.5933 34.0855 19.0853 33.5895C18.3413 32.8775 17.4573 32.3396 16.5693 31.8276C14.7813 30.8096 12.8833 29.9336 11.3113 28.5836C10.2993 27.7176 9.45329 26.5876 9.16329 25.2676C8.72729 23.2736 9.32129 21.0456 10.7973 19.6116C11.5213 18.9016 12.4473 18.4356 13.3973 18.1056V18.1076Z" fill="white"/>
<path d="M33.9643 17.5895C36.6123 17.2915 39.2623 17.7855 41.8363 18.3655C41.8523 18.6755 41.8423 18.9855 41.8423 19.2955C39.3943 18.7335 36.8783 18.2215 34.3563 18.4715C33.2583 18.5795 32.1663 18.8335 31.1663 19.3095C30.3503 19.6995 29.6003 20.2555 29.0603 20.9855C28.3903 21.8735 28.0823 23.0015 28.0983 24.1055C28.0983 24.9435 28.3543 25.7755 28.8083 26.4795C29.3863 27.3835 30.2263 28.0835 31.1003 28.6875C32.7043 29.7815 34.4763 30.5915 36.1283 31.6055C36.9323 32.1075 37.7163 32.6715 38.3163 33.4135C38.7583 33.9555 39.0743 34.6075 39.1703 35.3015C39.3243 36.2935 39.0283 37.3575 38.3423 38.0975C37.7523 38.7455 36.9183 39.1175 36.0683 39.2795C34.8843 39.5035 33.6583 39.4115 32.4883 39.1475C30.7983 38.7615 29.2223 37.9975 27.7423 37.1095C27.7463 36.7695 27.7343 36.4295 27.7483 36.0895C27.9023 36.1475 28.0423 36.2355 28.1803 36.3235C29.1783 36.9195 30.2163 37.4555 31.3103 37.8555C32.5803 38.3175 33.9423 38.6015 35.2963 38.4715C36.0983 38.3975 36.9403 38.1915 37.5463 37.6275C38.1143 37.1055 38.3303 36.3015 38.2963 35.5515C38.2483 34.8095 37.8183 34.1575 37.3063 33.6455C36.5623 32.9175 35.6683 32.3675 34.7703 31.8495C33.0043 30.8415 31.1323 29.9795 29.5663 28.6615C28.7103 27.9435 27.9623 27.0595 27.5543 26.0075C27.1863 25.0815 27.1123 24.0575 27.2503 23.0755C27.4123 21.9195 27.8883 20.7995 28.6663 19.9235C29.1283 19.3895 29.7043 18.9615 30.3283 18.6355C31.4523 18.0395 32.7063 17.7315 33.9643 17.5895Z" fill="white"/>
<path d="M46.3927 17.8678C46.6987 17.8578 47.0047 17.8618 47.3087 17.8638C47.3107 25.9618 47.3087 34.0598 47.3087 42.1578C47.0027 42.1598 46.6947 42.1598 46.3887 42.1578C46.4247 37.9178 46.4787 33.6778 46.4867 29.4378C46.4927 25.5818 46.5147 21.7238 46.3887 17.8698L46.3927 17.8678Z" fill="white"/>
<path d="M48.2715 17.8643C48.5435 17.8603 48.8175 17.8603 49.0895 17.8643C49.0895 25.9623 49.0895 34.0583 49.0895 42.1563C48.8155 42.1603 48.5435 42.1583 48.2695 42.1563C48.2715 34.0603 48.2695 25.9623 48.2695 17.8643H48.2715Z" fill="white"/>
<path d="M50.0547 17.8633C50.3427 17.8633 50.6327 17.8533 50.9207 17.8653C50.9327 17.8793 50.9607 17.9093 50.9727 17.9233C50.8847 20.2233 50.8787 22.5233 50.8687 24.8253C50.8547 30.6013 50.9147 36.3773 50.9767 42.1533C50.6687 42.1613 50.3607 42.1573 50.0547 42.1573C50.0547 34.0593 50.0547 25.9613 50.0547 17.8633Z" fill="white"/>
<path d="M16.0357 19.228C17.6177 19.012 19.2277 19.16 20.7797 19.504C21.7597 19.72 22.7197 20.008 23.6717 20.324C23.6777 20.562 23.6777 20.8 23.6757 21.038C22.3657 20.596 21.0397 20.176 19.6737 19.944C18.1897 19.682 16.6337 19.658 15.1837 20.112C14.2977 20.392 13.4437 20.88 12.8817 21.638C12.2957 22.42 12.0777 23.446 12.2157 24.406C12.4017 25.47 13.1917 26.29 14.0097 26.932C15.5677 28.132 17.3737 28.94 19.0517 29.952C20.0277 30.536 20.9877 31.176 21.7777 32.004C22.3937 32.646 22.8897 33.42 23.1217 34.284C23.3817 35.258 23.3277 36.31 23.0057 37.264C22.6737 38.244 22.0177 39.122 21.1397 39.68C20.0497 40.392 18.7337 40.668 17.4497 40.752C14.7297 40.944 12.0337 40.19 9.57572 39.08C9.57372 38.828 9.57372 38.574 9.57572 38.322C11.5117 39.232 13.5737 39.95 15.7197 40.124C16.9497 40.206 18.2097 40.106 19.3757 39.688C20.2697 39.368 21.1017 38.818 21.6517 38.034C22.2597 37.18 22.5017 36.094 22.4017 35.058C22.3137 34.206 21.8917 33.42 21.3277 32.788C20.6217 31.994 19.7397 31.384 18.8417 30.83C17.1377 29.778 15.2957 28.952 13.6737 27.768C12.7677 27.096 11.9237 26.252 11.5397 25.168C11.2117 24.248 11.2457 23.216 11.5777 22.302C11.8957 21.428 12.5157 20.676 13.2957 20.174C14.1117 19.638 15.0717 19.36 16.0317 19.23L16.0357 19.228Z" fill="white"/>
<path d="M34.022 19.2529C36.19 18.9149 38.4 19.2869 40.486 19.8989C40.942 20.0289 41.392 20.1789 41.844 20.3249C41.848 20.5629 41.848 20.8029 41.844 21.0409C40.646 20.6349 39.436 20.2469 38.192 20.0089C37.11 19.8029 36 19.6809 34.9 19.8029C33.832 19.9109 32.752 20.2069 31.868 20.8389C31.196 21.3169 30.684 22.0249 30.476 22.8269C30.284 23.5769 30.268 24.4069 30.608 25.1189C31.026 26.0029 31.786 26.6629 32.566 27.2249C34.468 28.5689 36.646 29.4549 38.542 30.8089C39.308 31.3609 40.034 31.9929 40.576 32.7749C41.014 33.4009 41.312 34.1289 41.41 34.8889C41.578 36.1869 41.258 37.5609 40.462 38.6089C39.932 39.3209 39.178 39.8429 38.362 40.1749C37.232 40.6329 36 40.7709 34.788 40.7829C32.346 40.7829 29.958 40.0749 27.746 39.0809C27.74 38.8269 27.742 38.5729 27.746 38.3189C28.848 38.8489 29.992 39.2929 31.17 39.6249C32.332 39.9469 33.532 40.1629 34.74 40.1509C35.816 40.1349 36.908 39.9789 37.9 39.5469C38.668 39.2129 39.37 38.6929 39.848 37.9969C40.438 37.1449 40.678 36.0709 40.572 35.0449C40.482 34.1849 40.048 33.3969 39.478 32.7609C38.842 32.0509 38.06 31.4909 37.258 30.9789C36.364 30.4109 35.422 29.9189 34.5 29.3989C33.444 28.8129 32.384 28.2189 31.446 27.4509C30.742 26.8649 30.098 26.1609 29.762 25.2929C29.162 23.7789 29.556 21.9389 30.708 20.7909C31.582 19.8929 32.806 19.4369 34.024 19.2509L34.022 19.2529Z" fill="white"/>
<path d="M15.832 20.7024C16.918 20.3664 18.078 20.4324 19.186 20.6204C20.744 20.8884 22.216 21.4804 23.674 22.0664C23.658 22.3864 23.728 22.7164 23.648 23.0304C22.43 22.5304 21.208 22.0264 19.93 21.6984C18.798 21.4144 17.604 21.2424 16.448 21.4764C15.89 21.5904 15.326 21.8224 14.95 22.2684C14.534 22.7624 14.406 23.4504 14.494 24.0784C14.672 24.7944 15.268 25.2984 15.828 25.7304C17.52 26.9664 19.476 27.7604 21.242 28.8784C22.028 29.3704 22.784 29.9164 23.456 30.5584C24.16 31.2364 24.766 32.0364 25.138 32.9444C25.544 33.9204 25.658 35.0004 25.546 36.0464C25.428 37.1904 25.05 38.3124 24.396 39.2624C23.944 39.9284 23.35 40.4964 22.666 40.9204C21.626 41.5744 20.44 41.9684 19.236 42.1804C16.954 42.5884 14.606 42.3964 12.352 41.9084C11.42 41.7124 10.5 41.4644 9.58398 41.2064C9.58398 40.8964 9.58398 40.5864 9.58398 40.2764C11.792 40.9004 14.046 41.4644 16.354 41.5064C17.614 41.5084 18.882 41.3804 20.092 41.0164C21.042 40.7284 21.958 40.2884 22.72 39.6444C23.572 38.9384 24.192 37.9624 24.47 36.8924C24.698 36.0064 24.754 35.0664 24.574 34.1664C24.358 33.0904 23.75 32.1284 22.982 31.3584C21.734 30.1164 20.172 29.2704 18.644 28.4284C17.606 27.8624 16.542 27.3424 15.564 26.6724C14.854 26.1764 14.166 25.5744 13.806 24.7684C13.424 23.9224 13.516 22.9064 13.972 22.1104C14.368 21.4084 15.08 20.9364 15.84 20.7064L15.832 20.7024Z" fill="white"/>
<path d="M34.0218 20.6931C35.1178 20.3631 36.2878 20.4311 37.4018 20.6271C38.9418 20.8951 40.3958 21.4871 41.8418 22.0631C41.8358 22.3851 41.8778 22.7111 41.8178 23.0291C40.5798 22.5211 39.3378 22.0091 38.0378 21.6811C36.9818 21.4231 35.8738 21.2591 34.7918 21.4431C34.1998 21.5371 33.5938 21.7511 33.1758 22.1991C32.7298 22.6731 32.5938 23.3631 32.6478 23.9931C32.7238 24.4831 33.0498 24.8891 33.3958 25.2251C34.2558 26.0211 35.2938 26.5811 36.3098 27.1471C37.9338 28.0191 39.6038 28.8491 41.0338 30.0311C41.8998 30.7471 42.6758 31.6031 43.1638 32.6251C43.6638 33.6451 43.8298 34.8071 43.7238 35.9311C43.5698 37.7731 42.6898 39.6051 41.1638 40.6931C39.5738 41.8131 37.6118 42.2631 35.6958 42.3711C32.9978 42.5391 30.3278 41.9371 27.7498 41.2031C27.7458 40.8911 27.7498 40.5811 27.7498 40.2691C29.9598 40.8971 32.2158 41.4571 34.5238 41.5011C35.7538 41.5031 36.9918 41.3792 38.1778 41.0352C39.1458 40.7492 40.0798 40.3132 40.8578 39.6612C41.6178 39.0372 42.1998 38.2011 42.5198 37.2711C42.8018 36.4371 42.8998 35.5411 42.8198 34.6651C42.7178 33.6171 42.2538 32.6231 41.5758 31.8231C40.9638 31.0831 40.1998 30.4851 39.4098 29.9491C38.5298 29.3591 37.5978 28.8531 36.6698 28.3431C35.5858 27.7571 34.4698 27.2111 33.4738 26.4791C32.8518 26.0111 32.2638 25.4471 31.9578 24.7171C31.5898 23.8551 31.6958 22.8251 32.1798 22.0311C32.5898 21.3611 33.2878 20.9131 34.0298 20.6911L34.0218 20.6931Z" fill="white"/>
</g>
<defs>
<filter id="filter0_ii_6749_54732" x="-12" y="-12" width="84" height="84" filterUnits="userSpaceOnUse" color-interpolation-filters="sRGB">
<feFlood flood-opacity="0" result="BackgroundImageFix"/>
<feBlend mode="normal" in="SourceGraphic" in2="BackgroundImageFix" result="shape"/>
<feColorMatrix in="SourceAlpha" type="matrix" values="0 0 0 0 0 0 0 0 0 0 0 0 0 0 0 0 0 0 127 0" result="hardAlpha"/>
<feOffset dx="-12" dy="-12"/>
<feGaussianBlur stdDeviation="12"/>
<feComposite in2="hardAlpha" operator="arithmetic" k2="-1" k3="1"/>
<feColorMatrix type="matrix" values="0 0 0 0 0 0 0 0 0 0 0 0 0 0 0 0 0 0 0.44 0"/>
<feBlend mode="normal" in2="shape" result="effect1_innerShadow_6749_54732"/>
<feColorMatrix in="SourceAlpha" type="matrix" values="0 0 0 0 0 0 0 0 0 0 0 0 0 0 0 0 0 0 127 0" result="hardAlpha"/>
<feOffset dx="12" dy="12"/>
<feGaussianBlur stdDeviation="12"/>
<feComposite in2="hardAlpha" operator="arithmetic" k2="-1" k3="1"/>
<feColorMatrix type="matrix" values="0 0 0 0 1 0 0 0 0 1 0 0 0 0 1 0 0 0 0.4 0"/>
<feBlend mode="normal" in2="effect1_innerShadow_6749_54732" result="effect2_innerShadow_6749_54732"/>
</filter>
<clipPath id="clip0_6749_54732">
<path d="M0 30C0 13.4315 13.4315 0 30 0C46.5685 0 60 13.4315 60 30C60 46.5685 46.5685 60 30 60C13.4315 60 0 46.5685 0 30Z" fill="white"/>
</clipPath>
</defs>
</svg>
