<svg width="60" height="60" viewBox="0 0 60 60" fill="none" xmlns="http://www.w3.org/2000/svg">
<g clip-path="url(#clip0_6749_54735)">
<path d="M0 30C0 13.4315 13.4315 0 30 0C46.5685 0 60 13.4315 60 30C60 46.5685 46.5685 60 30 60C13.4315 60 0 46.5685 0 30Z" fill="#1D1D1D"/>
<circle cx="30" cy="30" r="30" fill="#1D1D1D"/>
<path d="M47.0816 21.5714H35.3796C35.3496 21.3614 35.3176 21.1694 35.2976 20.9754C35.1936 19.9674 34.6716 19.2514 33.7796 18.7874C33.0716 18.4194 32.2976 18.2874 31.5176 18.2274C30.6036 18.1574 29.6815 18.1594 28.7895 18.4054C28.3935 18.5154 27.9895 18.6554 27.6375 18.8614C26.3095 19.6434 26.1016 21.3074 27.2176 22.3694C27.5816 22.7174 28.0495 22.9734 28.4995 23.2154C29.5935 23.7994 30.7915 24.0954 31.9796 24.4234C33.9176 24.9594 35.8855 25.3974 37.7755 26.1034C39.1195 26.6074 40.4275 27.1874 41.6155 27.9954C42.2875 28.4534 42.9416 28.9494 43.5336 29.5034C44.5876 30.4914 45.1216 31.7794 45.4216 33.1634C45.5976 33.9754 45.6816 34.8014 45.5556 35.6354C45.5456 35.7014 45.5436 35.7674 45.5436 35.8334C45.4736 39.0054 44.2736 41.7574 42.4196 44.2754C41.1436 46.0094 39.4296 47.1794 37.5476 48.1494C34.9936 49.4674 32.2756 50.2714 29.4296 50.6234C27.7775 50.8274 26.1116 50.9474 24.4456 50.8314C22.1136 50.6674 19.8175 50.3254 17.6755 49.2914C15.0195 48.0074 13.0115 46.0794 11.7015 43.4414C11.1915 42.4154 10.9936 41.3014 10.9116 40.1734C10.8616 39.4794 10.8916 38.7794 10.8936 38.0834C10.8956 37.5894 10.9236 37.5634 11.4476 37.5614C13.1796 37.5574 14.9116 37.5594 16.6436 37.5574C18.5096 37.5574 20.3735 37.5574 22.2395 37.5574C22.4195 37.5574 22.5996 37.5574 22.8076 37.5574C22.8356 37.8094 22.8476 38.0194 22.8816 38.2274C23.0696 39.3774 23.6655 40.2474 24.6635 40.8574C25.6855 41.4814 26.7976 41.7794 27.9856 41.7934C29.0536 41.8054 30.1155 41.7454 31.1255 41.3374C31.6875 41.1094 32.2095 40.8294 32.6275 40.3834C33.8975 39.0294 33.5256 37.0394 31.8176 36.3054C30.7656 35.8534 29.6776 35.4774 28.5836 35.1334C26.8076 34.5734 25.0076 34.0934 23.2336 33.5254C21.2796 32.8994 19.3956 32.0934 17.6956 30.9274C15.7656 29.6034 14.6795 27.7574 14.3755 25.4354C14.2435 24.4334 14.3455 23.4514 14.4635 22.4634C14.5695 21.5754 14.6335 20.6854 14.9015 19.8194C15.3975 18.2154 16.1556 16.7474 17.1736 15.4194C17.9696 14.3834 18.9875 13.5714 20.0415 12.8114C22.6595 10.9234 25.6115 9.86141 28.7875 9.40341C30.9035 9.09941 33.0396 9.0834 35.1696 9.2154C37.6036 9.3674 39.9296 9.94141 42.0856 11.1294C44.5296 12.4794 46.0656 14.4934 46.6716 17.2134C46.9536 18.4794 47.1235 19.7594 47.1135 21.0594C47.1135 21.2214 47.0956 21.3814 47.0856 21.5674L47.0816 21.5714Z" fill="#0C4DA2"/>
</g>
<defs>
<clipPath id="clip0_6749_54735">
<path d="M0 30C0 13.4315 13.4315 0 30 0C46.5685 0 60 13.4315 60 30C60 46.5685 46.5685 60 30 60C13.4315 60 0 46.5685 0 30Z" fill="white"/>
</clipPath>
</defs>
</svg>
