<svg width="60" height="60" viewBox="0 0 60 60" fill="none" xmlns="http://www.w3.org/2000/svg">
<g clip-path="url(#clip0_6749_54736)">
<path d="M0 30C0 13.4315 13.4315 0 30 0C46.5685 0 60 13.4315 60 30C60 46.5685 46.5685 60 30 60C13.4315 60 0 46.5685 0 30Z" fill="#1D1D1D"/>
<circle cx="30" cy="30" r="30" fill="#1D1D1D"/>
<path fill-rule="evenodd" clip-rule="evenodd" d="M51.9258 30.0381L37.2678 15.3301L29.9258 22.6721L37.2678 30.0381L29.9258 37.3801L37.2678 44.6721L51.9258 30.0381ZM29.9258 22.6721L22.6098 30.0381L29.9258 37.3801L22.6098 44.6721L7.92578 30.0381L22.6098 15.3301L29.9258 22.6721Z" fill="#EC2027"/>
</g>
<defs>
<clipPath id="clip0_6749_54736">
<path d="M0 30C0 13.4315 13.4315 0 30 0C46.5685 0 60 13.4315 60 30C60 46.5685 46.5685 60 30 60C13.4315 60 0 46.5685 0 30Z" fill="white"/>
</clipPath>
</defs>
</svg>
