<svg width="60" height="60" viewBox="0 0 60 60" fill="none" xmlns="http://www.w3.org/2000/svg">
<g clip-path="url(#clip0_6749_54837)">
<path d="M0 30C0 13.4315 13.4315 0 30 0C46.5685 0 60 13.4315 60 30C60 46.5685 46.5685 60 30 60C13.4315 60 0 46.5685 0 30Z" fill="#1D1D1D"/>
<circle cx="30" cy="30" r="150" fill="#1D1D1D"/>
<path d="M51.5518 19.6816V19.6856V19.6896C51.5518 19.6896 51.5478 19.6937 51.5458 19.6957C51.5458 19.6997 51.5418 19.7016 51.5398 19.7056C51.3778 19.9576 51.1778 20.1937 50.9378 20.3917H50.9338L50.8098 20.4896L50.8038 20.4977L50.6738 20.5957L48.4758 22.2536L41.2078 27.7296L25.5898 39.4997L27.0338 51.2656L27.0778 51.5937C27.0778 51.5937 27.0778 51.5957 27.0778 51.5977C27.1298 51.9017 27.2298 52.1936 27.3698 52.4596C27.3738 52.4636 27.3738 52.4657 27.3758 52.4697C27.3758 52.4697 27.3798 52.4737 27.3798 52.4757V52.4796C27.3798 52.4796 27.3798 52.4836 27.3818 52.4836C27.3958 52.5136 27.4118 52.5417 27.4298 52.5717C27.4438 52.5957 27.4578 52.6197 27.4718 52.6477H27.4738C27.4738 52.6477 27.4738 52.6476 27.4778 52.6516C27.4778 52.6516 27.4778 52.6576 27.4798 52.6596C27.4838 52.6636 27.4838 52.6657 27.4858 52.6697C28.0138 53.5017 28.9418 54.0516 29.9958 54.0516C31.0498 54.0516 31.9578 53.5137 32.4898 52.6997V52.6957C32.4898 52.6957 32.5118 52.6636 32.5158 52.6536C32.5338 52.6216 32.5998 52.5096 32.6178 52.4816L51.1998 20.2937L51.2938 20.1276C51.2938 20.1276 51.5598 19.6636 51.5458 19.6856L51.5518 19.6816Z" fill="url(#paint0_linear_6749_54837)"/>
<path d="M11.5713 15.1484H49.1293C49.1413 15.1484 49.1733 15.1524 49.1793 15.1524H49.1833C50.1533 15.2024 51.0793 15.7264 51.6013 16.6304C52.1293 17.5484 52.1153 18.6264 51.6573 19.4964C51.6573 19.5004 51.6533 19.5024 51.6513 19.5064V19.5124V19.5184H51.6493C51.6353 19.5464 51.6233 19.5704 51.6053 19.5984C51.5893 19.6284 51.5733 19.6544 51.5553 19.6824V19.6864H51.5533C51.5533 19.6864 51.5533 19.6924 51.5493 19.6964C51.5493 19.7004 51.5453 19.7024 51.5413 19.7064C51.3813 19.9584 51.1813 20.1924 50.9413 20.3904C50.9393 20.3924 50.9373 20.3924 50.9373 20.3924L50.6793 20.5964L41.2113 27.7304L23.2113 20.0904L14.8313 16.5344L12.2993 15.4584L12.1413 15.3944L11.9913 15.3324C11.6993 15.2264 11.3973 15.1644 11.0953 15.1564C11.0953 15.1564 11.0873 15.1544 11.0833 15.1544H11.0693C11.0433 15.1544 11.5753 15.1544 11.5753 15.1544L11.5713 15.1484Z" fill="url(#paint1_linear_6749_54837)"/>
<path d="M27.1299 52.0424L27.0359 51.8764L8.4499 19.6864C8.4339 19.6564 8.3659 19.5424 8.3519 19.5144C8.3459 19.5024 8.3299 19.4724 8.3299 19.4684C8.3279 19.4684 8.3279 19.4664 8.3259 19.4664C7.8839 18.6004 7.8759 17.5344 8.3979 16.6304C8.9259 15.7164 9.8699 15.1884 10.8519 15.1504H10.8659L10.8699 15.1484H10.8799C10.9119 15.1484 10.9399 15.1484 10.9699 15.1484C11.0039 15.1484 11.0339 15.1484 11.0699 15.1484H11.0779L11.0819 15.1504H11.0899C11.3979 15.1624 11.6979 15.2204 11.9899 15.3264H11.9959L12.2999 15.4524L23.2119 20.0844L25.5939 39.4944L26.7039 48.5284L27.0399 51.2604L27.0599 51.4224V51.4304L27.0839 51.5904C27.1379 51.8984 27.2399 52.1904 27.3799 52.4564C27.3799 52.4604 27.3819 52.4624 27.3819 52.4664C27.3859 52.4664 27.3859 52.4704 27.3859 52.4724C27.3859 52.4724 27.3859 52.4764 27.3899 52.4764V52.4804C27.4019 52.5024 27.1359 52.0424 27.1359 52.0424H27.1299Z" fill="url(#paint2_linear_6749_54837)"/>
</g>
<defs>
<linearGradient id="paint0_linear_6749_54837" x1="53.6648" y1="35.1439" x2="25.314" y2="39.0669" gradientUnits="userSpaceOnUse">
<stop stop-color="#FCB813"/>
<stop offset="0.7" stop-color="#F48120"/>
<stop offset="1" stop-color="#DC5928"/>
</linearGradient>
<linearGradient id="paint1_linear_6749_54837" x1="23.3982" y1="5.59499" x2="40.9719" y2="28.1843" gradientUnits="userSpaceOnUse">
<stop stop-color="#FCB813"/>
<stop offset="0.7" stop-color="#F48120"/>
<stop offset="1" stop-color="#DC5928"/>
</linearGradient>
<linearGradient id="paint2_linear_6749_54837" x1="12.9719" y1="46.6224" x2="23.7499" y2="20.1084" gradientUnits="userSpaceOnUse">
<stop stop-color="#FCB813"/>
<stop offset="0.7" stop-color="#F48120"/>
<stop offset="1" stop-color="#DC5928"/>
</linearGradient>
<clipPath id="clip0_6749_54837">
<path d="M0 30C0 13.4315 13.4315 0 30 0C46.5685 0 60 13.4315 60 30C60 46.5685 46.5685 60 30 60C13.4315 60 0 46.5685 0 30Z" fill="white"/>
</clipPath>
</defs>
</svg>
