<svg width="60" height="60" viewBox="0 0 60 60" fill="none" xmlns="http://www.w3.org/2000/svg">
<g clip-path="url(#clip0_6749_54843)">
<path d="M0 30C0 13.4315 13.4315 0 30 0C46.5685 0 60 13.4315 60 30C60 46.5685 46.5685 60 30 60C13.4315 60 0 46.5685 0 30Z" fill="#1D1D1D"/>
<circle cx="30" cy="30" r="30" fill="#1D1D1D"/>
<path d="M35.5095 12.7389C39.1615 11.3789 43.0215 10.6369 46.8835 10.2129C46.5695 10.3849 46.1995 10.3669 45.8635 10.4589C43.1715 11.0909 40.4615 11.9929 38.2515 13.7049C36.6875 14.9009 35.4655 16.5489 34.8435 18.4209C33.9915 20.9429 34.1135 23.6809 34.6215 26.2589C35.3355 29.8249 36.8935 33.1309 38.2435 36.4829C39.1575 38.7929 39.9755 41.1829 40.1755 43.6729C40.2695 44.8149 40.1495 46.0069 39.6175 47.0349C39.0775 48.1149 38.0875 48.9349 36.9615 49.3469C35.6915 49.8309 34.3055 49.8269 32.9675 49.7469C30.5095 49.6049 28.1055 48.9589 25.8195 48.0709C23.2375 47.0749 20.7855 45.7789 18.2315 44.7189C19.7575 44.6469 21.3075 44.7789 22.8095 44.4409C23.5015 44.2769 24.2615 43.9269 24.5135 43.2069C24.8035 42.3149 24.3695 41.3969 23.9035 40.6489C22.9015 39.1309 21.5055 37.9209 20.0595 36.8429C16.4695 34.2509 12.3375 32.4909 8.10352 31.2509C11.3575 30.9109 14.6915 31.2009 17.8155 32.1969C21.4215 33.3369 24.6495 35.4649 27.3455 38.0949C26.1895 35.6049 25.1075 33.0369 24.6795 30.3089C24.2895 27.8169 24.2975 25.2289 24.9675 22.7849C25.5775 20.5689 26.8175 18.5449 28.4755 16.9589C30.4675 15.0409 32.9515 13.7109 35.5195 12.7389H35.5095Z" fill="url(#paint0_linear_6749_54843)"/>
</g>
<defs>
<linearGradient id="paint0_linear_6749_54843" x1="46.5135" y1="44.1009" x2="27.7015" y2="21.6809" gradientUnits="userSpaceOnUse">
<stop stop-color="#FBB714"/>
<stop offset="1" stop-color="#CC8E2E"/>
</linearGradient>
<clipPath id="clip0_6749_54843">
<path d="M0 30C0 13.4315 13.4315 0 30 0C46.5685 0 60 13.4315 60 30C60 46.5685 46.5685 60 30 60C13.4315 60 0 46.5685 0 30Z" fill="white"/>
</clipPath>
</defs>
</svg>
