<svg width="60" height="60" viewBox="0 0 60 60" fill="none" xmlns="http://www.w3.org/2000/svg">
<g clip-path="url(#clip0_6749_54838)">
<path d="M0 30C0 13.4315 13.4315 0 30 0C46.5685 0 60 13.4315 60 30C60 46.5685 46.5685 60 30 60C13.4315 60 0 46.5685 0 30Z" fill="#1D1D1D"/>
<path d="M41.1101 13.168C37.7561 13.168 36.2401 13.932 34.4121 15.908L30.1481 20.628L25.8861 15.908C23.9041 13.93 22.5341 13.168 19.1881 13.168H14.1621C14.1621 13.168 21.9221 22.912 22.9941 23.98C24.6701 25.806 25.7361 26.714 28.0181 26.714H32.1281C34.4141 26.714 35.6301 25.804 37.3081 23.98C38.3701 22.91 46.1361 13.168 46.1361 13.168H41.1101Z" fill="#F7B418"/>
<path d="M38.3675 25.8056C35.9335 26.2616 34.5575 26.8616 33.3435 28.8456L32.2775 30.5176L31.3675 32.3496C30.1475 34.3276 30.2955 35.8476 31.2095 38.2836C31.6675 39.6576 36.0855 51.2336 36.0855 51.2336L38.6775 46.9656C40.3495 44.0776 40.3495 42.3996 39.5815 39.8096L37.7555 33.7236L43.8535 32.3496C46.5855 31.7456 47.9595 30.8216 49.6335 27.9356L52.0735 23.5156C52.0735 23.5156 39.8875 25.4996 38.3675 25.8056Z" fill="#EF7A22"/>
<path d="M28.9302 32.3496L27.8662 30.5176L26.9502 28.8456C25.7322 26.8616 24.3602 26.2616 21.9202 25.8056C20.4082 25.4996 8.07422 23.5156 8.07422 23.5156L10.6662 27.9356C12.3342 30.8236 13.7042 31.7456 16.3002 32.3496L22.5342 33.7236L20.5602 39.8096C19.8002 42.3996 19.9382 44.0776 21.6222 46.9656L24.0582 51.2336C24.0582 51.2336 28.6262 39.6576 29.0782 38.2836C29.8382 35.8496 30.1482 34.3276 28.9282 32.3496H28.9302Z" fill="#F49021"/>
</g>
<defs>
<clipPath id="clip0_6749_54838">
<path d="M0 30C0 13.4315 13.4315 0 30 0C46.5685 0 60 13.4315 60 30C60 46.5685 46.5685 60 30 60C13.4315 60 0 46.5685 0 30Z" fill="white"/>
</clipPath>
</defs>
</svg>
