<svg width="60" height="60" viewBox="0 0 60 60" fill="none" xmlns="http://www.w3.org/2000/svg">
<g clip-path="url(#clip0_6749_54841)">
<g filter="url(#filter0_ii_6749_54841)">
<path d="M29.9204 55.3524C43.9219 55.3524 55.2724 44.002 55.2724 30.0004C55.2724 15.9989 43.9219 4.64844 29.9204 4.64844C15.9188 4.64844 4.56836 15.9989 4.56836 30.0004C4.56836 44.002 15.9188 55.3524 29.9204 55.3524Z" fill="#E32823"/>
</g>
<path d="M33.7291 11.3455C36.7291 10.2295 39.9011 9.61748 43.0751 9.27148C42.8171 9.41148 42.5131 9.39749 42.2371 9.47349C40.0251 9.99349 37.7991 10.7355 35.9831 12.1415C34.6991 13.1235 33.6951 14.4775 33.1831 16.0155C32.4831 18.0875 32.5831 20.3375 33.0011 22.4555C33.5871 25.3855 34.8671 28.1015 35.9771 30.8555C36.7291 32.7535 37.4011 34.7175 37.5631 36.7635C37.6411 37.7015 37.5411 38.6815 37.1051 39.5255C36.6611 40.4115 35.8471 41.0855 34.9211 41.4255C33.8771 41.8235 32.7391 41.8195 31.6391 41.7555C29.6191 41.6375 27.6451 41.1075 25.7651 40.3775C23.6431 39.5595 21.6291 38.4935 19.5311 37.6235C20.7851 37.5655 22.0571 37.6735 23.2911 37.3955C23.8591 37.2615 24.4851 36.9735 24.6911 36.3815C24.9291 35.6475 24.5731 34.8935 24.1891 34.2795C23.3651 33.0335 22.2191 32.0375 21.0291 31.1515C18.0791 29.0235 14.6831 27.5755 11.2051 26.5575C13.8791 26.2775 16.6191 26.5155 19.1851 27.3355C22.1471 28.2715 24.8011 30.0215 27.0151 32.1815C26.0651 30.1355 25.1771 28.0255 24.8251 25.7835C24.5051 23.7355 24.5111 21.6095 25.0611 19.6015C25.5611 17.7815 26.5811 16.1175 27.9431 14.8155C29.5811 13.2395 31.6211 12.1475 33.7311 11.3475L33.7291 11.3455Z" fill="#F8EB00"/>
<path d="M29.8719 45.5215L30.6559 47.5915L32.7519 47.6575L31.0039 48.9955L31.7159 50.9795L29.9199 49.6915L28.1399 51.0475L28.8519 48.9615L27.0879 47.6115L29.2759 47.5895L29.8719 45.5215Z" fill="#F8EB00"/>
<path d="M37.8893 44.3359L39.3113 46.0339L41.3113 45.4079L40.1013 47.2459L41.4233 48.8859L39.3033 48.2599L38.0673 50.1239L38.0553 47.9199L35.9473 47.2239L38.0053 46.4839L37.8893 44.3359Z" fill="#F8EB00"/>
<path d="M21.8387 44.3691L20.4187 46.0671L18.4187 45.4411L19.6287 47.2792L18.3047 48.9191L20.4247 48.2931L21.6627 50.1572L21.6727 47.9552L23.7827 47.2572L21.7227 46.5171L21.8387 44.3691Z" fill="#F8EB00"/>
<path d="M15.413 41.1387L13.469 42.1987L11.835 40.8867L12.289 43.0387L10.459 44.0807L12.661 44.2727L13.129 46.4627L13.945 44.4147L16.163 44.5387L14.519 43.0967L15.413 41.1387Z" fill="#F8EB00"/>
<path d="M44.3165 41.1055L46.2605 42.1655L47.8925 40.8535L47.4385 43.0055L49.2705 44.0475L47.0685 44.2395L46.6005 46.4295L45.7825 44.3815L43.5645 44.5055L45.2105 43.0635L44.3165 41.1055Z" fill="#F8EB00"/>
</g>
<defs>
<filter id="filter0_ii_6749_54841" x="-7.43164" y="-7.35156" width="74.7031" height="74.7031" filterUnits="userSpaceOnUse" color-interpolation-filters="sRGB">
<feFlood flood-opacity="0" result="BackgroundImageFix"/>
<feBlend mode="normal" in="SourceGraphic" in2="BackgroundImageFix" result="shape"/>
<feColorMatrix in="SourceAlpha" type="matrix" values="0 0 0 0 0 0 0 0 0 0 0 0 0 0 0 0 0 0 127 0" result="hardAlpha"/>
<feOffset dx="-12" dy="-12"/>
<feGaussianBlur stdDeviation="12"/>
<feComposite in2="hardAlpha" operator="arithmetic" k2="-1" k3="1"/>
<feColorMatrix type="matrix" values="0 0 0 0 0 0 0 0 0 0 0 0 0 0 0 0 0 0 0.44 0"/>
<feBlend mode="normal" in2="shape" result="effect1_innerShadow_6749_54841"/>
<feColorMatrix in="SourceAlpha" type="matrix" values="0 0 0 0 0 0 0 0 0 0 0 0 0 0 0 0 0 0 127 0" result="hardAlpha"/>
<feOffset dx="12" dy="12"/>
<feGaussianBlur stdDeviation="12"/>
<feComposite in2="hardAlpha" operator="arithmetic" k2="-1" k3="1"/>
<feColorMatrix type="matrix" values="0 0 0 0 1 0 0 0 0 1 0 0 0 0 1 0 0 0 0.4 0"/>
<feBlend mode="normal" in2="effect1_innerShadow_6749_54841" result="effect2_innerShadow_6749_54841"/>
</filter>
<clipPath id="clip0_6749_54841">
<path d="M0 30C0 13.4315 13.4315 0 30 0V0C46.5685 0 60 13.4315 60 30V30C60 46.5685 46.5685 60 30 60V60C13.4315 60 0 46.5685 0 30V30Z" fill="white"/>
</clipPath>
</defs>
</svg>
