<svg width="60" height="60" viewBox="0 0 60 60" fill="none" xmlns="http://www.w3.org/2000/svg">
<g clip-path="url(#clip0_6749_54844)">
<path d="M0 30C0 13.4315 13.4315 0 30 0V0C46.5685 0 60 13.4315 60 30V30C60 46.5685 46.5685 60 30 60V60C13.4315 60 0 46.5685 0 30V30Z" fill="#1D1D1D"/>
<circle cx="30" cy="30" r="30" fill="#1D1D1D"/>
<path d="M14.1087 20.2967L14.1707 18.7147L10.1367 22.0207C17.2527 24.6927 26.7907 26.9467 26.8847 30.8327L18.6667 41.9147L10.1367 43.0247L16.6987 45.4727L16.4127 49.3167L20.8407 48.9867L24.8787 54.0007L23.5867 45.5187L31.7967 34.5147C34.9487 33.2687 40.1427 41.3367 45.0347 48.0287L47.0487 43.2087L45.5687 43.7547L41.6147 34.5107L44.0747 31.7947L42.4027 26.9887L39.2347 30.2687L37.4827 27.8567L45.8167 15.9687C49.4307 10.5247 44.3287 7.65066 40.4647 12.4147L31.6347 23.5267L28.8047 22.5367L31.0167 18.5467L25.9847 18.2907L24.1127 21.4187L14.1007 20.2947L14.1087 20.2967Z" fill="#E51F20"/>
</g>
<defs>
<clipPath id="clip0_6749_54844">
<path d="M0 30C0 13.4315 13.4315 0 30 0V0C46.5685 0 60 13.4315 60 30V30C60 46.5685 46.5685 60 30 60V60C13.4315 60 0 46.5685 0 30V30Z" fill="white"/>
</clipPath>
</defs>
</svg>
