<svg width="60" height="60" viewBox="0 0 60 60" fill="none" xmlns="http://www.w3.org/2000/svg">
<g clip-path="url(#clip0_6749_54842)">
<path d="M0 30C0 13.4315 13.4315 0 30 0C46.5685 0 60 13.4315 60 30C60 46.5685 46.5685 60 30 60C13.4315 60 0 46.5685 0 30Z" fill="#1D1D1D"/>
<path d="M20.3755 11.5306C20.0495 11.5466 19.7695 11.7126 19.7695 12.0526V23.1246C19.7695 23.1246 19.8095 24.9146 21.3955 26.7026C22.9815 28.4926 29.3975 35.8847 29.3975 35.8847V21.3986L21.2555 11.9006C21.0715 11.6446 20.7015 11.5126 20.3755 11.5286V11.5306Z" fill="#E00500"/>
<path d="M39.5775 11.5488C39.2895 11.5568 38.9575 11.7128 38.6795 12.0208L30.6055 21.4048V35.8868L39.0175 26.1308C39.0175 26.1308 40.2395 24.5448 40.2395 22.6888V12.2248C40.2395 11.7688 39.9455 11.5408 39.5775 11.5508V11.5488Z" fill="#E00500"/>
<path d="M8.74585 25.0195C8.00385 25.0195 7.68986 25.9515 8.40386 26.6755C8.40386 26.6755 21.9039 42.4015 24.6139 45.4835C27.3259 48.5655 29.3979 48.4735 29.3979 48.4735V37.8915C29.3979 37.8915 24.2698 31.7835 21.4158 28.4735C18.5618 25.1635 14.3379 25.0195 14.3379 25.0195H8.74385H8.74585Z" fill="#E00500"/>
<path d="M45.6635 25.0195C45.6635 25.0195 41.4395 25.1615 38.5855 28.4735C35.7315 31.7835 30.6035 37.8915 30.6035 37.8915V48.4735C30.6035 48.4735 32.6775 48.5655 35.3875 45.4835C38.0995 42.4015 51.5975 26.6755 51.5975 26.6755C52.3115 25.9535 51.9975 25.0195 51.2555 25.0195H45.6615H45.6635Z" fill="#E00500"/>
</g>
<defs>
<clipPath id="clip0_6749_54842">
<path d="M0 30C0 13.4315 13.4315 0 30 0C46.5685 0 60 13.4315 60 30C60 46.5685 46.5685 60 30 60C13.4315 60 0 46.5685 0 30Z" fill="white"/>
</clipPath>
</defs>
</svg>
