<svg width="60" height="60" viewBox="0 0 60 60" fill="none" xmlns="http://www.w3.org/2000/svg">
<g clip-path="url(#clip0_6749_54845)">
<path d="M0 30C0 13.4315 13.4315 0 30 0C46.5685 0 60 13.4315 60 30C60 46.5685 46.5685 60 30 60C13.4315 60 0 46.5685 0 30Z" fill="#1D1D1D"/>
<path d="M0 30C0 46.5685 13.4315 60 30 60C46.5685 60 60 46.5685 60 30C60 13.4315 46.5685 0 30 0C13.4315 0 0 13.4315 0 30Z" fill="white"/>
<path d="M48.5945 14.1543H39.1605C38.7005 14.1543 38.2745 14.4643 38.1945 14.9163C38.0925 15.5023 38.5405 16.0124 39.1085 16.0124H40.8585C41.3085 16.0124 41.6145 16.4704 41.4425 16.8864L32.1465 39.4063C32.1465 39.4063 32.1345 39.4123 32.1325 39.4063L23.3625 16.5683C23.2605 16.3003 23.4565 16.0124 23.7445 16.0124H24.5685C25.0825 16.0124 25.4985 15.5963 25.4985 15.0823C25.4985 14.5683 25.0825 14.1523 24.5685 14.1523H11.4065C10.8925 14.1523 10.4785 14.5683 10.4785 15.0803C10.4785 15.5943 10.8945 16.0104 11.4065 16.0104H13.7525C14.2285 16.0104 14.6565 16.2964 14.8385 16.7364L28.5485 49.9383C29.1685 51.4383 31.2845 51.4583 31.9325 49.9723L46.4605 16.6683C46.6345 16.2683 47.0285 16.0104 47.4645 16.0104H48.5425C49.0025 16.0104 49.4285 15.7003 49.5085 15.2483C49.6105 14.6623 49.1625 14.1523 48.5945 14.1523V14.1543Z" fill="#D2232A"/>
</g>
<defs>
<clipPath id="clip0_6749_54845">
<path d="M0 30C0 13.4315 13.4315 0 30 0C46.5685 0 60 13.4315 60 30C60 46.5685 46.5685 60 30 60C13.4315 60 0 46.5685 0 30Z" fill="white"/>
</clipPath>
</defs>
</svg>
