<svg width="34" height="34" viewBox="0 0 34 34" fill="none" xmlns="http://www.w3.org/2000/svg">
<g id="CirclesFour">
<g id="Vector">
<path d="M7.65625 14.125C11.2288 14.125 14.125 11.2288 14.125 7.65625C14.125 4.08366 11.2288 1.1875 7.65625 1.1875C4.08366 1.1875 1.1875 4.08366 1.1875 7.65625C1.1875 11.2288 4.08366 14.125 7.65625 14.125Z" stroke="white" stroke-width="2" stroke-linecap="round" stroke-linejoin="round"/>
<path d="M26.3438 14.125C29.9163 14.125 32.8125 11.2288 32.8125 7.65625C32.8125 4.08366 29.9163 1.1875 26.3438 1.1875C22.7712 1.1875 19.875 4.08366 19.875 7.65625C19.875 11.2288 22.7712 14.125 26.3438 14.125Z" stroke="white" stroke-width="2" stroke-linecap="round" stroke-linejoin="round"/>
<path d="M7.65625 32.8125C11.2288 32.8125 14.125 29.9163 14.125 26.3438C14.125 22.7712 11.2288 19.875 7.65625 19.875C4.08366 19.875 1.1875 22.7712 1.1875 26.3438C1.1875 29.9163 4.08366 32.8125 7.65625 32.8125Z" stroke="white" stroke-width="2" stroke-linecap="round" stroke-linejoin="round"/>
<path d="M26.3438 32.8125C29.9163 32.8125 32.8125 29.9163 32.8125 26.3438C32.8125 22.7712 29.9163 19.875 26.3438 19.875C22.7712 19.875 19.875 22.7712 19.875 26.3438C19.875 29.9163 22.7712 32.8125 26.3438 32.8125Z" stroke="white" stroke-width="2" stroke-linecap="round" stroke-linejoin="round"/>
</g>
</g>
</svg>
