<svg width="798" height="608" viewBox="0 0 798 608" fill="none" xmlns="http://www.w3.org/2000/svg">
<path d="M128.508 449.907C128.111 449.397 127.466 449.078 126.666 449.078H122.562C120.989 449.092 119.409 450.34 119.047 451.856L104.37 512.733C104.002 514.25 102.421 515.497 100.848 515.497L86.9432 515.533C86.1424 515.533 85.4975 515.214 85.1006 514.703L95.8161 528.587C96.2129 529.097 96.8579 529.416 97.6587 529.416L111.563 529.381C113.137 529.381 114.724 528.133 115.086 526.617L129.763 465.74C130.131 464.223 131.712 462.969 133.278 462.969H137.381C138.182 462.954 138.827 463.273 139.224 463.791L128.508 449.907Z" fill="#32D27E"/>
<path d="M138.564 425.868L127.849 411.984C128.232 412.48 128.38 413.161 128.196 413.905L126.573 420.638L137.289 434.521L138.912 427.788C139.089 427.044 138.947 426.364 138.564 425.868Z" fill="#EBE9E9" stroke="#32D27E" stroke-miterlimit="10"/>
<path d="M99.0755 449.978C98.6787 449.467 98.0338 449.148 97.24 449.148H93.1367C91.5634 449.163 89.9759 450.41 89.6144 451.927L88.6577 455.895C88.2963 457.405 86.7159 458.652 85.1426 458.659H81.0392C79.4659 458.673 77.8784 459.921 77.517 461.437L76.5603 465.392C76.1917 466.908 74.6113 468.163 73.0451 468.163H68.9418C67.3685 468.177 65.781 469.424 65.4195 470.934L64.4628 474.902C64.0943 476.419 62.5139 477.673 60.9477 477.673H56.8443C56.0506 477.688 55.4057 477.369 55.0088 476.858L65.7243 490.742C66.1212 491.252 66.759 491.571 67.5598 491.571H71.6632C73.2365 491.557 74.8169 490.31 75.1783 488.786L76.135 484.817C76.4965 483.308 78.0839 482.06 79.6573 482.053H83.7606C85.3339 482.039 86.9143 480.792 87.2757 479.268L88.2325 475.314C88.601 473.797 90.1885 472.543 91.7547 472.543H95.8581C97.4314 472.528 99.0118 471.281 99.3732 469.772L100.33 465.803C100.698 464.286 102.286 463.039 103.852 463.032H107.956C108.749 463.018 109.394 463.337 109.791 463.847L99.0755 449.963V449.978Z" fill="#32D27E"/>
<path d="M146.438 437.249C146.615 436.505 146.474 435.825 146.091 435.329L135.375 421.445C135.758 421.941 135.907 422.622 135.723 423.366L134.766 427.335C134.589 428.086 134.731 428.759 135.113 429.255L145.829 443.139C145.446 442.642 145.297 441.962 145.482 441.211L146.438 437.249Z" fill="#EBE9E9" stroke="#32D27E" stroke-miterlimit="10"/>
<path d="M153.965 446.717C154.142 445.966 154 445.286 153.61 444.79L142.895 430.906C143.277 431.402 143.426 432.083 143.249 432.834L142.292 436.803C142.115 437.554 142.257 438.227 142.64 438.723L153.355 452.607C152.972 452.11 152.824 451.43 153.008 450.686L153.965 446.717Z" fill="#EBE9E9" stroke="#32D27E" stroke-miterlimit="10"/>
<path d="M161.476 456.18C161.661 455.429 161.512 454.749 161.122 454.246L150.406 440.362C150.789 440.858 150.938 441.546 150.761 442.297L149.804 446.266C149.627 447.01 149.769 447.69 150.151 448.186L160.867 462.07C160.484 461.574 160.335 460.893 160.52 460.149L161.476 456.18Z" fill="#EBE9E9" stroke="#32D27E" stroke-miterlimit="10"/>
<path d="M136.034 459.371C135.638 458.86 134.993 458.542 134.192 458.542H130.088C129.295 458.556 128.65 458.237 128.253 457.727L138.968 471.61C139.365 472.12 140.01 472.439 140.804 472.439H144.907C145.708 472.425 146.353 472.744 146.75 473.261L136.034 459.378V459.371Z" fill="#32D27E"/>
<path d="M143.554 468.831C143.157 468.32 142.512 468.002 141.718 468.002H137.615C136.821 468.016 136.176 467.697 135.779 467.187L146.495 481.07C146.892 481.58 147.529 481.899 148.33 481.899H152.434C153.227 481.885 153.872 482.204 154.269 482.714L143.554 468.831Z" fill="#32D27E"/>
<path d="M168.656 463.713L157.94 449.83C158.323 450.326 158.472 451.014 158.295 451.765L152.767 474.698C152.398 476.215 150.818 477.469 149.252 477.469H145.148C144.347 477.483 143.703 477.164 143.306 476.647L154.021 490.531C154.418 491.041 155.063 491.36 155.864 491.36H159.967C161.54 491.346 163.121 490.098 163.482 488.575L169.01 465.641C169.194 464.89 169.046 464.21 168.656 463.706V463.713Z" fill="#EBE9E9" stroke="#32D27E" stroke-miterlimit="10"/>
<path d="M151.165 476.846C150.584 477.229 149.918 477.47 149.245 477.47H145.141C144.341 477.484 143.696 477.165 143.299 476.647L154.014 490.531C154.411 491.041 155.056 491.36 155.857 491.36H159.96C160.605 491.346 161.243 491.133 161.803 490.779L151.165 476.846Z" fill="#32D27E"/>
<path d="M126.006 411.156C127.58 411.156 128.565 412.389 128.203 413.906L127.24 417.896C126.878 419.405 127.849 420.632 129.401 420.632H133.533C135.106 420.617 136.091 421.85 135.73 423.374L134.773 427.343C134.404 428.86 135.39 430.1 136.963 430.093H141.066C142.639 430.078 143.625 431.319 143.256 432.842L142.299 436.811C141.931 438.328 142.916 439.568 144.489 439.561H148.593C150.166 439.547 151.144 440.787 150.775 442.311L149.819 446.279C149.45 447.796 150.442 449.036 152.016 449.029H156.119C157.692 449.015 158.67 450.255 158.302 451.779L152.774 474.712C152.405 476.229 150.825 477.483 149.259 477.483H145.155C143.582 477.497 142.597 476.257 142.965 474.733L143.922 470.765C144.284 469.255 143.306 468.008 141.732 468.015H137.629C136.056 468.029 135.078 466.789 135.446 465.265L136.403 461.311C136.771 459.794 135.779 458.547 134.213 458.554H130.11C128.536 458.568 127.558 457.328 127.92 455.811L128.877 451.843C129.245 450.326 128.253 449.079 126.687 449.086H122.583C121.01 449.1 119.43 450.347 119.068 451.864L104.391 512.741C104.023 514.257 102.442 515.505 100.869 515.505L86.9643 515.54C85.391 515.54 84.4059 514.307 84.7673 512.79L99.4444 451.913C99.813 450.397 98.8208 449.149 97.2616 449.157H93.1583C91.585 449.171 89.9975 450.418 89.6361 451.935L88.6793 455.903C88.3179 457.413 86.7375 458.667 85.1642 458.667H81.0608C79.4875 458.681 77.9001 459.929 77.5386 461.445L76.5819 465.4C76.2134 466.916 74.633 468.171 73.0667 468.171H68.9634C67.3901 468.185 65.8026 469.432 65.4412 470.942L64.4844 474.911C64.1159 476.427 62.5355 477.682 60.9693 477.682H56.8659C55.2926 477.696 54.3146 476.456 54.6832 474.932L60.211 451.998C60.5795 450.482 62.1599 449.227 63.7261 449.227H67.8295C69.4028 449.213 70.9761 447.973 71.3446 446.456L72.3014 442.488C72.6699 440.971 74.2574 439.717 75.8236 439.717H79.9269C81.5002 439.703 83.0735 438.462 83.4421 436.946L84.3988 432.977C84.7673 431.46 86.3548 430.206 87.921 430.206H92.0244C93.5977 430.192 95.171 428.952 95.5395 427.435L96.4963 423.466C96.8648 421.95 98.4452 420.702 100.018 420.702H104.122C105.688 420.688 107.276 419.441 107.637 417.924L108.594 413.956C108.962 412.439 110.543 411.192 112.116 411.192L126.021 411.156H126.006Z" fill="#EBE9E9" stroke="#32D27E" stroke-miterlimit="10"/>
<path d="M287.454 22.4646L284.683 19.885C284.322 19.5519 283.925 19.3889 283.521 19.3818L257.76 18.9141C258.157 18.9211 258.561 19.0841 258.922 19.4172L261.693 21.9969C262.054 22.33 262.451 22.493 262.855 22.5001L288.616 22.9678C288.22 22.9607 287.816 22.7977 287.454 22.4646Z" fill="#EBE9E9" stroke="#32D27E" stroke-linecap="round" stroke-linejoin="round"/>
<path d="M302.493 8.46391L299.722 5.87716C299.367 5.54408 298.963 5.38108 298.574 5.37399L272.812 4.90625C273.209 4.91334 273.606 5.07634 273.961 5.40942L276.732 7.99617C277.086 8.32925 277.49 8.49225 277.887 8.49934L303.648 8.96708C303.251 8.96708 302.854 8.79699 302.493 8.46391Z" fill="#EBE9E9" stroke="#32D27E" stroke-linecap="round" stroke-linejoin="round"/>
<path d="M307.177 139.45L281.416 138.983C280.636 138.968 279.864 139.557 279.417 140.62L277.66 144.837C277.213 145.907 276.441 146.488 275.661 146.474L301.422 146.941C302.202 146.956 302.974 146.367 303.421 145.304L305.178 141.088C305.625 140.017 306.397 139.436 307.177 139.45Z" fill="#32D27E"/>
<path d="M324.632 141.72L298.871 141.252C298.091 141.238 297.319 141.826 296.872 142.889L295.115 147.106C294.668 148.176 293.896 148.757 293.116 148.743L318.877 149.211C319.657 149.225 320.429 148.637 320.876 147.574L322.633 143.357C323.08 142.287 323.852 141.706 324.632 141.72Z" fill="#32D27E"/>
<path d="M319.962 10.7375L310.55 1.97091C310.196 1.63783 309.792 1.47483 309.395 1.46774L283.634 1C284.031 1.00709 284.428 1.17009 284.789 1.50317L294.2 10.2697C294.555 10.6028 294.952 10.7658 295.349 10.7729L321.11 11.2407C320.713 11.2336 320.316 11.0706 319.962 10.7375Z" fill="#EBE9E9" stroke="#32D27E" stroke-linecap="round" stroke-linejoin="round"/>
<path d="M339.678 127.716L313.916 127.248C313.137 127.234 312.364 127.822 311.918 128.885L305.958 143.194C305.511 144.271 304.732 144.859 303.952 144.845L329.713 145.313C330.493 145.327 331.265 144.739 331.719 143.662L337.679 129.353C338.125 128.283 338.898 127.702 339.678 127.716Z" fill="#32D27E"/>
<path d="M334.653 89.9724C335.716 90.9575 336.028 93.0907 335.362 94.6994L320.997 129.192C320.323 130.815 318.906 131.325 317.843 130.34L315.072 127.753C314.009 126.768 312.591 127.278 311.925 128.887L305.965 143.195C305.292 144.818 303.867 145.329 302.811 144.344L300.04 141.757C298.977 140.765 297.553 141.275 296.887 142.891L295.129 147.107C294.456 148.723 293.039 149.234 291.983 148.241L282.578 139.482C281.515 138.497 280.098 139.007 279.424 140.616L277.667 144.833C276.994 146.441 275.576 146.959 274.513 145.967L251.842 124.847C250.779 123.862 250.467 121.729 251.133 120.12L252.891 115.904C253.564 114.295 253.245 112.162 252.182 111.177L242.771 102.41C241.708 101.425 241.396 99.2917 242.062 97.683L243.82 93.4663C244.493 91.8575 244.174 89.7243 243.111 88.7393L240.34 86.1525C239.277 85.1674 238.965 83.0342 239.638 81.4113L245.598 67.1027C246.272 65.494 245.953 63.3608 244.89 62.3686L242.119 59.789C241.056 58.7968 240.737 56.6636 241.41 55.0478L255.775 20.5555C256.449 18.9468 257.866 18.4295 258.929 19.4216L261.7 22.0013C262.763 22.9935 264.188 22.4832 264.854 20.8674L270.814 6.55879C271.487 4.93588 272.904 4.42561 273.968 5.4107L276.739 7.99744C277.802 8.98253 279.219 8.47227 279.892 6.86353L281.65 2.64679C282.323 1.03804 283.74 0.520696 284.796 1.51287L294.208 10.2794C295.271 11.2645 296.688 10.7543 297.362 9.13136L299.112 4.9217C299.785 3.29879 301.203 2.78852 302.266 3.77361L324.937 24.8928C326 25.8849 326.319 28.0181 325.646 29.634L323.895 33.8436C323.222 35.4665 323.541 37.5926 324.597 38.5848L334.001 47.3443C335.064 48.3294 335.376 50.4625 334.71 52.0713L332.952 56.288C332.279 57.8968 332.598 60.03 333.668 61.0221L336.439 63.6089C337.502 64.594 337.814 66.7271 337.141 68.3501L331.181 82.6586C330.507 84.2674 330.826 86.4006 331.889 87.3856L334.66 89.9724H334.653Z" fill="#EBE9E9" stroke="#32D27E" stroke-linecap="round" stroke-linejoin="round"/>
<path d="M292.422 36.627C293.485 37.612 293.797 39.7452 293.131 41.354L290.155 48.5047L285.952 58.5895L282.976 65.7402C282.302 67.3631 280.885 67.8734 279.822 66.8883L277.051 64.3016C275.988 63.3165 275.676 61.1833 276.349 59.5604L279.326 52.4096L283.528 42.3249L286.505 35.1741C287.178 33.5654 288.595 33.048 289.659 34.0402L292.43 36.627H292.422Z" fill="#32D27E"/>
<path d="M312.322 55.1667C313.385 56.1589 313.704 58.2921 313.038 59.9008L310.061 67.0516L305.859 77.1363L302.882 84.2871C302.209 85.91 300.792 86.4203 299.721 85.4281L296.95 82.8484C295.887 81.8563 295.568 79.7231 296.242 78.1073L299.218 70.9565L303.421 60.8718L306.397 53.721C307.071 52.1123 308.488 51.5949 309.551 52.5871L312.322 55.1667Z" fill="#32D27E"/>
<path d="M268.985 70.8068C270.048 71.7919 270.36 73.9251 269.687 75.548L266.71 82.6988L262.012 78.319C260.949 77.3339 260.637 75.2007 261.31 73.5778L263.061 69.3682C263.734 67.7453 265.151 67.235 266.214 68.2201L268.985 70.8068Z" fill="#32D27E"/>
<path d="M293.244 107.419L290.267 114.57C289.594 116.179 288.176 116.696 287.113 115.704L282.415 111.324L275.781 105.144L269.148 98.9645L264.449 94.5848C263.386 93.5997 263.074 91.4665 263.74 89.8578L266.717 82.707L273.35 88.8869L279.984 95.0667L286.617 101.247L293.251 107.426L293.244 107.419Z" fill="#32D27E"/>
<path d="M302.152 101.704C303.215 102.689 303.527 104.822 302.854 106.445L301.103 110.655C300.43 112.278 299.013 112.788 297.95 111.803L293.251 107.423L296.227 100.272C296.901 98.6495 298.318 98.1393 299.381 99.1244L302.152 101.711V101.704Z" fill="#32D27E"/>
<path d="M361.123 95.1662C361.796 93.5575 361.477 91.4243 360.414 90.4392L357.643 87.8525C356.58 86.8674 356.268 84.7342 356.934 83.1255L362.894 68.8169C363.568 67.194 363.249 65.0679 362.193 64.0757L359.422 61.489C358.359 60.4968 358.04 58.3636 358.706 56.7549L360.463 52.5381C361.137 50.9294 360.818 48.7962 359.755 47.8111L350.35 39.0516C349.287 38.0665 348.975 35.9334 349.649 34.3104L351.406 30.1008C352.08 28.4779 351.761 26.3518 350.698 25.3596L328.026 4.24045C327.672 3.90736 327.268 3.74436 326.878 3.73727L301.117 3.26953C301.514 3.27662 301.911 3.43962 302.265 3.77271L324.936 24.8919C326 25.884 326.318 28.0172 325.645 29.633L323.888 33.8427C323.214 35.4656 323.533 37.5917 324.589 38.5839L333.994 47.3434C335.057 48.3285 335.368 50.4616 334.702 52.0704L332.945 56.2871C332.271 57.8959 332.59 60.029 333.661 61.0212L336.432 63.608C337.495 64.593 337.806 66.7262 337.133 68.3491L331.173 82.6577C330.5 84.2665 330.819 86.3996 331.882 87.3847L334.653 89.9715C335.716 90.9566 336.028 93.0897 335.361 94.6985L320.996 129.191C320.55 130.268 319.77 130.856 318.991 130.842L344.752 131.31C345.531 131.324 346.304 130.736 346.757 129.666L361.123 95.1733V95.1662Z" fill="#EBE9E9" stroke="#32D27E" stroke-linecap="round" stroke-linejoin="round"/>
<path d="M318.991 130.841C319.771 130.855 320.543 130.267 320.997 129.19L335.362 94.6973L361.123 95.165L346.758 129.657C346.311 130.734 345.539 131.316 344.752 131.301L318.991 130.834V130.841Z" fill="#32D27E"/>
<path d="M350.351 39.0514C349.288 38.0663 348.976 35.9331 349.65 34.3102L351.407 30.1006L325.646 29.6328L323.888 33.8425C323.215 35.4654 323.534 37.5915 324.59 38.5836L350.351 39.0514Z" fill="#32D27E"/>
<path d="M359.416 61.4948C358.352 60.5026 358.034 58.3694 358.7 56.7607L360.457 52.5439L334.696 52.0762L332.939 56.2929C332.265 57.9017 332.584 60.0348 333.654 61.027L359.416 61.4948Z" fill="#32D27E"/>
<path d="M357.643 87.851C356.58 86.8659 356.268 84.7327 356.934 83.124L362.895 68.8154L337.133 68.3477L331.173 82.6562C330.5 84.265 330.819 86.3982 331.882 87.3832L357.643 87.851Z" fill="#32D27E"/>
<path d="M3.94055 64.1089L11.4953 53.7832C8.80929 57.4543 7.81712 62.3797 9.13529 67.8012L1.58059 78.1269C0.262411 72.7125 1.2475 67.787 3.94055 64.1089Z" fill="#00843D" stroke="black" stroke-miterlimit="10"/>
<path d="M301.431 304.953L293.876 315.279C290.928 319.304 285.945 321.82 279.737 321.82L287.292 311.494C293.5 311.494 298.482 308.979 301.431 304.953Z" fill="#00843D" stroke="black" stroke-miterlimit="10"/>
<path d="M63.5769 290.925L56.0222 301.251L1.58008 78.1245L9.13478 67.7988L63.5769 290.925Z" fill="#00843D" stroke="black" stroke-miterlimit="10"/>
<path d="M287.291 311.484L279.737 321.81H82.5488L90.1035 311.484H287.291Z" fill="black" stroke="black" stroke-miterlimit="10"/>
<path d="M249.348 67.8002C246.577 56.4469 234.699 47.248 222.821 47.248H25.6333C13.7555 47.248 6.37089 56.454 9.1419 67.8002L51.933 243.188H292.139L249.348 67.8002Z" fill="#BDFF00" stroke="black" stroke-miterlimit="10"/>
<path d="M249.348 67.8002C246.577 56.4469 234.699 47.248 222.821 47.248H25.6333C13.7555 47.248 6.37089 56.454 9.1419 67.8002L51.933 243.188H292.139L249.348 67.8002Z" fill="black" stroke="black" stroke-miterlimit="10"/>
<path d="M186.6 236.137H160.272L159.776 234.507C159.372 233.182 160.18 232.098 161.569 232.098H182.865C184.247 232.098 185.714 233.182 186.111 234.507L186.607 236.137H186.6Z" fill="#00D763"/>
<path d="M83.251 47.248L19.2061 109.075L25.1449 133.411L114.391 47.248H83.251Z" fill="#32D27E"/>
<path d="M27.4551 139.982L122.307 48.4043" stroke="#32D27E" stroke-linecap="round" stroke-linejoin="round"/>
<path d="M232.326 68.9073C231.844 66.923 229.767 65.293 227.726 65.293H29.532C27.4839 65.293 26.2082 66.9159 26.6972 68.9073L63.9888 221.752C64.4707 223.736 66.5472 225.366 68.5883 225.366H266.775C268.823 225.366 270.099 223.743 269.61 221.752L232.318 68.9073H232.326Z" fill="#BDFF00" stroke="black" stroke-miterlimit="10"/>
<path d="M63.5775 290.925C66.3485 302.279 78.2262 311.485 90.104 311.485H287.292C299.169 311.485 306.554 302.279 303.783 290.925L292.132 243.188H51.9336L63.5846 290.925H63.5775Z" fill="#EBE9E9" stroke="black" stroke-miterlimit="10"/>
<path d="M90.1037 311.483L82.549 321.809C70.6712 321.809 58.7935 312.603 56.0225 301.25L63.5772 290.924C66.3482 302.277 78.2259 311.483 90.1037 311.483Z" fill="black" stroke="black" stroke-miterlimit="10"/>
<path d="M265.818 260.047C274.294 260.047 282.77 266.616 284.747 274.71C286.725 282.81 281.452 289.373 272.976 289.373H242.225C233.749 289.373 225.273 282.803 223.296 274.71C221.319 266.609 226.592 260.047 235.068 260.047H265.818Z" stroke="black" stroke-miterlimit="10"/>
<path d="M67.8574 190.008L70.3166 200.093H59.757L57.2979 190.008H67.8574Z" fill="black"/>
<path d="M78.417 190.008L80.1675 197.187C80.5573 198.789 79.5297 200.093 77.8855 200.093H70.3166L67.8574 190.008H78.417Z" fill="black"/>
<path d="M57.2987 190.008L59.7579 200.093H49.1983L47.4478 192.913C47.0581 191.312 48.0857 190.008 49.7298 190.008H57.2916H57.2987Z" fill="black"/>
<path d="M97.0772 179.912L98.8276 187.091C99.2174 188.693 98.1898 189.997 96.5456 189.997H88.9768L86.5176 179.912H97.0772Z" fill="black"/>
<path d="M86.5106 179.912L88.9698 189.997H78.4102L76.6598 182.818C76.27 181.216 77.2976 179.912 78.9418 179.912H86.5036H86.5106Z" fill="black"/>
<path d="M105.171 169.822L106.921 177.008C107.311 178.61 106.283 179.914 104.639 179.914H97.0772L95.3267 172.728C94.937 171.126 95.9646 169.822 97.6088 169.822H105.171Z" fill="black"/>
<path d="M110.274 159.738C111.918 159.738 113.59 161.049 113.98 162.644L115.731 169.823H105.171L103.42 162.644C103.031 161.042 104.058 159.738 105.703 159.738H110.274Z" fill="black"/>
<path d="M128.749 179.912L131.208 189.997H123.646C122.002 189.997 120.33 188.686 119.94 187.091L118.189 179.912H128.749Z" fill="black"/>
<path d="M123.292 169.822C124.936 169.822 126.609 171.133 126.999 172.728L128.749 179.914H118.19L115.73 169.822H123.292Z" fill="black"/>
<path d="M139.315 179.912L141.066 187.091C141.456 188.693 140.428 189.997 138.784 189.997H131.215L128.756 179.912H139.315Z" fill="black"/>
<path d="M142.483 149.646L144.942 159.738H134.383L132.632 152.552C132.243 150.95 133.27 149.646 134.914 149.646H142.476H142.483Z" fill="black"/>
<path d="M144.95 159.738L147.409 169.823H136.85L134.391 159.738H144.95Z" fill="black"/>
<path d="M147.409 169.822L149.159 177.008C149.549 178.61 148.522 179.914 146.877 179.914H139.316L136.856 169.822H147.416H147.409Z" fill="black"/>
<path d="M153.752 109.285L155.502 116.471C155.892 118.073 154.864 119.377 153.22 119.377H145.651L143.901 112.191C143.511 110.589 144.539 109.285 146.183 109.285H153.752Z" fill="black"/>
<path d="M158.855 99.1934C160.499 99.1934 162.171 100.504 162.561 102.099L164.312 109.278H153.752L152.002 102.099C151.612 100.497 152.639 99.1934 154.284 99.1934H158.855Z" fill="black"/>
<path d="M203.382 139.553L205.132 146.732C205.522 148.333 204.494 149.637 202.85 149.637H195.281L192.822 139.553H203.382Z" fill="black"/>
<path d="M192.815 139.553L195.275 149.637H187.713C186.069 149.637 184.396 148.326 184.006 146.732L182.256 139.553H192.815Z" fill="black"/>
<path d="M211.475 129.461L213.935 139.553H203.375L201.625 132.367C201.235 130.765 202.262 129.461 203.907 129.461H211.468H211.475Z" fill="black"/>
<path d="M222.035 129.461L223.786 136.647C224.175 138.249 223.148 139.553 221.504 139.553H213.935L211.476 129.461H222.035Z" fill="black"/>
<path d="M230.128 119.375L231.878 126.554C232.268 128.156 231.24 129.46 229.596 129.46H222.034L220.284 122.281C219.894 120.679 220.922 119.375 222.566 119.375H230.128Z" fill="black"/>
<path d="M235.23 109.286C236.875 109.286 238.547 110.597 238.937 112.192L239.979 116.465C240.368 118.067 239.341 119.371 237.697 119.371H230.135L228.384 112.185C227.995 110.583 229.022 109.279 230.666 109.279H235.237L235.23 109.286Z" fill="black"/>
<path d="M150.576 139.557L152.326 146.736C152.716 148.337 151.689 149.641 150.044 149.641H142.483L140.023 139.557H150.583H150.576Z" fill="black"/>
<path d="M171.88 109.287C173.524 109.287 175.197 110.598 175.587 112.193L177.337 119.379H166.778L164.318 109.287H171.887H171.88Z" fill="black"/>
<path d="M177.337 119.379L179.796 129.464H169.237L166.777 119.379H177.337Z" fill="black"/>
<path d="M179.796 129.463L182.255 139.555H174.686C173.042 139.555 171.37 138.244 170.98 136.649L169.229 129.463H179.789H179.796Z" fill="black"/>
<path d="M145.658 119.379L148.117 129.464H137.558L135.807 122.285C135.417 120.683 136.445 119.379 138.089 119.379H145.651H145.658Z" fill="black"/>
<path d="M148.117 129.463L150.576 139.555H140.024L137.558 129.463H148.117Z" fill="black"/>
<path d="M35.2578 104.004H38.0926" stroke="black" stroke-miterlimit="10"/>
<path d="M43.8115 104.004H235.195" stroke="black" stroke-miterlimit="10" stroke-dasharray="6 8"/>
<path d="M238.052 104.004H240.887" stroke="black" stroke-miterlimit="10"/>
<path d="M147.962 64.9414L148.635 67.6911" stroke="black" stroke-miterlimit="10"/>
<path d="M149.939 73.0352L185.785 219.934" stroke="black" stroke-miterlimit="10" stroke-dasharray="6 8"/>
<path d="M186.437 222.606L187.11 225.363" stroke="black" stroke-miterlimit="10"/>
<path d="M250.137 279.654C253.341 275.276 251.417 268.418 245.839 264.336C240.261 260.253 233.142 260.493 229.938 264.87C226.734 269.248 228.658 276.106 234.236 280.189C239.814 284.271 246.933 284.032 250.137 279.654Z" fill="white" stroke="black" stroke-miterlimit="10"/>
<path d="M250.142 279.688L248.271 282.239C246.719 284.358 244.089 285.683 240.815 285.683C234.55 285.683 228.293 280.829 226.833 274.847C226.138 271.991 226.655 269.39 228.073 267.456L229.944 264.904C228.526 266.839 228.002 269.44 228.704 272.296C230.164 278.284 236.428 283.132 242.686 283.132C245.96 283.132 248.59 281.807 250.142 279.688Z" fill="black" stroke="black" stroke-miterlimit="10"/>
<path d="M280.88 279.654C284.084 275.276 282.16 268.418 276.582 264.336C271.004 260.253 263.885 260.493 260.681 264.87C257.477 269.248 259.402 276.106 264.979 280.189C270.557 284.271 277.676 284.032 280.88 279.654Z" fill="#32D27E" stroke="black" stroke-miterlimit="10"/>
<path d="M280.885 279.684L279.014 282.235C277.462 284.354 274.833 285.679 271.558 285.679C265.294 285.679 259.036 280.825 257.576 274.843C256.881 271.987 257.399 269.386 258.816 267.452L260.687 264.9C259.27 266.835 258.745 269.436 259.447 272.292C260.907 278.281 267.172 283.128 273.429 283.128C276.704 283.128 279.333 281.803 280.885 279.684Z" fill="black" stroke="black" stroke-miterlimit="10"/>
<path d="M85.4128 254.737C85.2427 254.028 85.3703 253.376 85.7246 252.894L83.4072 256.055C83.0528 256.537 82.9182 257.189 83.0953 257.898L85.8167 269.038L88.1342 265.878L85.4128 254.737Z" fill="black" stroke="black" stroke-linecap="round" stroke-linejoin="round"/>
<path d="M117.665 279.724H106L103.683 282.885H115.348C116.163 282.885 116.815 282.552 117.197 282.028L119.515 278.867C119.125 279.398 118.473 279.724 117.665 279.724Z" fill="black" stroke="black" stroke-linecap="round" stroke-linejoin="round"/>
<path d="M79.8564 279.727C78.3044 279.727 76.731 278.515 76.3625 277.02L74.3073 268.586C74.1372 267.878 74.2648 267.226 74.6191 266.744L72.3017 269.905C71.9473 270.387 71.8127 271.039 71.9899 271.747L74.0451 280.181C74.4065 281.669 75.9798 282.888 77.539 282.888H89.197L91.5145 279.727H79.8564Z" fill="black" stroke="black" stroke-linecap="round" stroke-linejoin="round"/>
<path d="M96.4118 252.031C97.9709 252.031 99.5372 253.243 99.9057 254.738L102.627 265.879H114.292C115.844 265.879 117.41 267.091 117.779 268.586L119.834 277.019C120.196 278.508 119.225 279.727 117.673 279.727H106.008L108.729 290.867C109.09 292.356 108.119 293.575 106.56 293.575H97.73C96.1779 293.575 94.6046 292.363 94.2361 290.867L91.5147 279.727H79.8567C78.3046 279.727 76.7313 278.515 76.3628 277.019L74.3076 268.586C73.9461 267.098 74.9241 265.879 76.4762 265.879H88.1342L85.4128 254.738C85.0514 253.25 86.0294 252.031 87.5815 252.031H96.4118Z" fill="black" stroke="black" stroke-linecap="round" stroke-linejoin="round"/>
<path d="M106.553 293.566H97.7222C96.1701 293.566 94.5968 292.354 94.2283 290.859L91.5069 279.718L89.1895 282.879L91.9108 294.02C92.2723 295.508 93.8456 296.727 95.4047 296.727H104.235C105.05 296.727 105.709 296.394 106.092 295.862L108.409 292.702C108.02 293.233 107.368 293.566 106.553 293.566Z" fill="black" stroke="black" stroke-linecap="round" stroke-linejoin="round"/>
<path d="M106.554 293.567H97.7232C96.1712 293.567 94.5979 292.355 94.2293 290.86L91.5079 279.719H79.8499C78.2978 279.719 76.7245 278.507 76.356 277.012L74.3008 268.578" stroke="#EBE9E9" stroke-linecap="round" stroke-linejoin="round"/>
<path d="M117.666 279.727H106.001" stroke="#EBE9E9" stroke-linecap="round" stroke-linejoin="round"/>
<path d="M88.1345 265.879L85.4131 254.738" stroke="#EBE9E9" stroke-linecap="round" stroke-linejoin="round"/>
<path d="M161.136 290.214C161.751 290.214 162.249 289.715 162.249 289.101C162.249 288.486 161.751 287.988 161.136 287.988C160.522 287.988 160.023 288.486 160.023 289.101C160.023 289.715 160.522 290.214 161.136 290.214Z" fill="black"/>
<path d="M176.338 290.214C176.953 290.214 177.451 289.715 177.451 289.101C177.451 288.486 176.953 287.988 176.338 287.988C175.724 287.988 175.226 288.486 175.226 289.101C175.226 289.715 175.724 290.214 176.338 290.214Z" fill="black"/>
<path d="M191.54 290.214C192.155 290.214 192.653 289.715 192.653 289.101C192.653 288.486 192.155 287.988 191.54 287.988C190.926 287.988 190.428 288.486 190.428 289.101C190.428 289.715 190.926 290.214 191.54 290.214Z" fill="black"/>
<path d="M206.734 290.214C207.348 290.214 207.846 289.715 207.846 289.101C207.846 288.486 207.348 287.988 206.734 287.988C206.119 287.988 205.621 288.486 205.621 289.101C205.621 289.715 206.119 290.214 206.734 290.214Z" fill="black"/>
<path d="M157.658 275.934C158.272 275.934 158.77 275.436 158.77 274.822C158.77 274.207 158.272 273.709 157.658 273.709C157.043 273.709 156.545 274.207 156.545 274.822C156.545 275.436 157.043 275.934 157.658 275.934Z" fill="black"/>
<path d="M172.852 275.934C173.466 275.934 173.965 275.436 173.965 274.822C173.965 274.207 173.466 273.709 172.852 273.709C172.237 273.709 171.739 274.207 171.739 274.822C171.739 275.436 172.237 275.934 172.852 275.934Z" fill="black"/>
<path d="M188.053 275.934C188.668 275.934 189.166 275.436 189.166 274.822C189.166 274.207 188.668 273.709 188.053 273.709C187.439 273.709 186.94 274.207 186.94 274.822C186.94 275.436 187.439 275.934 188.053 275.934Z" fill="black"/>
<path d="M203.254 275.934C203.869 275.934 204.367 275.436 204.367 274.822C204.367 274.207 203.869 273.709 203.254 273.709C202.64 273.709 202.142 274.207 202.142 274.822C202.142 275.436 202.64 275.934 203.254 275.934Z" fill="black"/>
<path d="M154.17 261.653C154.785 261.653 155.283 261.155 155.283 260.54C155.283 259.926 154.785 259.428 154.17 259.428C153.556 259.428 153.058 259.926 153.058 260.54C153.058 261.155 153.556 261.653 154.17 261.653Z" fill="black"/>
<path d="M169.371 261.653C169.986 261.653 170.484 261.155 170.484 260.54C170.484 259.926 169.986 259.427 169.371 259.427C168.757 259.427 168.259 259.926 168.259 260.54C168.259 261.155 168.757 261.653 169.371 261.653Z" fill="black"/>
<path d="M184.566 261.653C185.18 261.653 185.678 261.155 185.678 260.54C185.678 259.926 185.18 259.427 184.566 259.427C183.951 259.427 183.453 259.926 183.453 260.54C183.453 261.155 183.951 261.653 184.566 261.653Z" fill="black"/>
<path d="M199.768 261.653C200.382 261.653 200.881 261.155 200.881 260.54C200.881 259.926 200.382 259.427 199.768 259.427C199.153 259.427 198.655 259.926 198.655 260.54C198.655 261.155 199.153 261.653 199.768 261.653Z" fill="black"/>
<path d="M467.442 279.817C465.294 278.009 461.234 276.535 458.427 276.535H410.76C407.954 276.535 404.871 278.69 403.914 281.333L385.779 331.162C384.822 333.798 385.793 337.434 387.94 339.234L424.452 369.871C426.6 371.678 430.66 373.152 433.467 373.152H481.134C483.94 373.152 487.023 370.998 487.98 368.354L506.115 318.526C507.072 315.889 506.101 312.254 503.954 310.454L467.442 279.817Z" fill="black" stroke="black" stroke-linecap="round" stroke-linejoin="round"/>
<path d="M430.115 368.362C429.158 370.999 426.614 371.679 424.459 369.879L387.947 339.242C385.8 337.435 384.822 333.806 385.786 331.17L403.921 281.342C404.878 278.705 407.422 278.025 409.577 279.825L446.089 310.462C448.236 312.269 449.214 315.898 448.25 318.534L430.115 368.362Z" fill="#EBE9E9" stroke="black" stroke-linecap="round" stroke-linejoin="round"/>
<path d="M430.115 368.361C429.158 370.997 430.667 373.159 433.474 373.159H481.141C483.947 373.159 487.03 371.004 487.987 368.361L506.122 318.532C507.079 315.896 505.57 313.735 502.763 313.735H455.096C452.29 313.735 449.207 315.889 448.25 318.532L430.115 368.361Z" fill="#EBE9E9" stroke="black" stroke-linecap="round" stroke-linejoin="round"/>
<path d="M409.577 279.817C407.43 278.009 407.961 276.535 410.768 276.535H458.435C461.241 276.535 465.295 278.009 467.449 279.817L503.961 310.454C506.109 312.261 505.577 313.735 502.771 313.735H455.104C452.297 313.735 448.243 312.261 446.089 310.454L409.577 279.817Z" fill="#EBE9E9" stroke="black" stroke-linecap="round" stroke-linejoin="round"/>
<path d="M321.989 361.457C319.841 359.65 315.78 358.176 312.974 358.176H265.307C262.501 358.176 259.418 360.33 258.461 362.974L240.326 412.802C239.369 415.439 240.34 419.074 242.487 420.874L278.999 451.511C281.146 453.319 285.207 454.793 288.014 454.793H335.681C338.487 454.793 341.57 452.638 342.527 449.995L360.662 400.166C361.619 397.53 360.648 393.894 358.501 392.094L321.989 361.457Z" fill="black" stroke="black" stroke-linecap="round" stroke-linejoin="round"/>
<path d="M284.661 450.003C283.705 452.64 281.161 453.32 279.006 451.52L242.494 420.883C240.347 419.076 239.369 415.447 240.333 412.811L258.468 362.982C259.425 360.346 261.969 359.666 264.123 361.466L300.636 392.103C302.783 393.91 303.761 397.539 302.797 400.175L284.661 450.003Z" fill="#32D27E" stroke="black" stroke-miterlimit="10"/>
<path d="M284.662 450.002C283.705 452.638 285.214 454.799 288.021 454.799H335.688C338.494 454.799 341.577 452.645 342.534 450.002L360.669 400.173C361.626 397.537 360.116 395.375 357.31 395.375H309.643C306.837 395.375 303.754 397.53 302.797 400.173L284.662 450.002Z" fill="#EBE9E9" stroke="black" stroke-linecap="round" stroke-linejoin="round"/>
<path d="M264.117 361.457C261.97 359.65 262.501 358.176 265.308 358.176H312.975C315.781 358.176 319.835 359.65 321.989 361.457L358.501 392.094C360.649 393.901 360.117 395.375 357.311 395.375H309.644C306.837 395.375 302.784 393.901 300.629 392.094L264.117 361.457Z" fill="#EBE9E9" stroke="black" stroke-linecap="round" stroke-linejoin="round"/>
<path d="M343.618 302.039C341.47 300.232 337.409 298.758 334.603 298.758H286.936C284.13 298.758 281.047 300.913 280.09 303.556L261.954 353.384C260.998 356.021 261.969 359.656 264.116 361.456L300.628 392.093C302.775 393.901 306.836 395.375 309.643 395.375H357.31C360.116 395.375 363.199 393.22 364.156 390.577L382.291 340.748C383.248 338.112 382.277 334.476 380.13 332.676L343.618 302.039Z" fill="black" stroke="black" stroke-linecap="round" stroke-linejoin="round"/>
<path d="M306.284 390.575C305.327 393.212 302.783 393.892 300.628 392.092L264.116 361.455C261.969 359.648 260.991 356.019 261.955 353.383L280.09 303.554C281.047 300.918 283.591 300.238 285.746 302.038L322.258 332.675C324.405 334.482 325.383 338.111 324.419 340.747L306.284 390.575Z" fill="#32D27E" stroke="black" stroke-miterlimit="10"/>
<path d="M292.294 346.318L284.491 339.848L286.709 333.76C287.858 330.614 290.77 329.678 293.187 331.684L296.596 334.512L292.294 346.326V346.318Z" fill="black"/>
<path d="M301.733 354.142L293.931 347.672L298.232 335.858L301.641 338.685C304.058 340.691 305.1 344.908 303.959 348.054L301.74 354.142H301.733Z" fill="black"/>
<path d="M287.163 360.429L283.754 357.601C281.337 355.596 280.296 351.379 281.437 348.232L283.655 342.145L291.458 348.615L287.156 360.429H287.163Z" fill="black"/>
<path d="M292.202 364.611L288.793 361.783L293.095 349.969L300.898 356.439L298.679 362.527C297.531 365.674 294.618 366.609 292.202 364.604V364.611Z" fill="black"/>
<path d="M306.284 390.576C305.327 393.212 306.836 395.374 309.643 395.374H357.31C360.116 395.374 363.199 393.219 364.156 390.576L382.291 340.747C383.248 338.111 381.739 335.949 378.932 335.949H331.265C328.459 335.949 325.376 338.104 324.419 340.747L306.284 390.576Z" fill="#EBE9E9" stroke="black" stroke-linecap="round" stroke-linejoin="round"/>
<path d="M285.745 302.039C283.598 300.232 284.129 298.758 286.936 298.758H334.603C337.409 298.758 341.463 300.232 343.617 302.039L380.129 332.676C382.277 334.483 381.745 335.958 378.939 335.958H331.272C328.465 335.958 324.411 334.483 322.257 332.676L285.745 302.039Z" fill="#EBE9E9" stroke="black" stroke-linecap="round" stroke-linejoin="round"/>
<path d="M480.985 242.616C478.837 240.809 474.777 239.334 471.97 239.334H424.303C421.497 239.334 418.414 241.489 417.457 244.132L399.322 293.961C398.365 296.597 399.336 300.233 401.483 302.033L437.995 332.67C440.143 334.477 444.203 335.951 447.01 335.951H494.677C497.483 335.951 500.566 333.797 501.523 331.153L519.658 281.325C520.615 278.688 519.644 275.053 517.497 273.253L480.985 242.616Z" fill="black" stroke="black" stroke-linecap="round" stroke-linejoin="round"/>
<path d="M443.651 331.162C442.694 333.798 440.15 334.478 437.995 332.678L401.483 302.041C399.336 300.234 398.358 296.605 399.322 293.969L417.457 244.141C418.414 241.504 420.958 240.824 423.113 242.624L459.625 273.261C461.772 275.068 462.75 278.697 461.786 281.333L443.651 331.162Z" fill="#EBE9E9" stroke="black" stroke-linecap="round" stroke-linejoin="round"/>
<path d="M443.651 331.16C442.694 333.796 444.204 335.958 447.01 335.958H494.677C497.483 335.958 500.566 333.803 501.523 331.16L519.659 281.332C520.615 278.695 519.106 276.534 516.299 276.534H468.632C465.826 276.534 462.743 278.688 461.786 281.332L443.651 331.16Z" fill="#EBE9E9" stroke="black" stroke-linecap="round" stroke-linejoin="round"/>
<path d="M423.113 242.616C420.966 240.809 421.497 239.335 424.304 239.335H471.971C474.777 239.335 478.831 240.809 480.985 242.616L517.497 273.253C519.645 275.06 519.113 276.534 516.307 276.534H468.64C465.833 276.534 461.78 275.06 459.625 273.253L423.113 242.616Z" fill="#EBE9E9" stroke="black" stroke-linecap="round" stroke-linejoin="round"/>
<path d="M525.314 279.817C523.167 278.009 519.106 276.535 516.299 276.535H468.632C465.826 276.535 462.743 278.69 461.786 281.333L443.651 331.162C442.694 333.798 443.665 337.434 445.812 339.234L482.324 369.871C484.472 371.678 488.533 373.152 491.339 373.152H539.006C541.812 373.152 544.895 370.998 545.852 368.354L563.987 318.526C564.944 315.889 563.973 312.254 561.826 310.454L525.314 279.817Z" fill="black" stroke="black" stroke-linecap="round" stroke-linejoin="round"/>
<path d="M487.987 368.362C487.03 370.999 484.486 371.679 482.331 369.879L445.819 339.242C443.672 337.435 442.694 333.806 443.658 331.17L461.793 281.342C462.75 278.705 465.294 278.025 467.449 279.825L503.961 310.462C506.108 312.269 507.086 315.898 506.122 318.534L487.987 368.362Z" fill="#32D27E" stroke="black" stroke-miterlimit="10"/>
<path d="M487.987 368.361C487.03 370.997 488.54 373.159 491.346 373.159H539.013C541.819 373.159 544.902 371.004 545.859 368.361L563.994 318.532C564.951 315.896 563.442 313.735 560.635 313.735H512.968C510.162 313.735 507.079 315.889 506.122 318.532L487.987 368.361Z" fill="#EBE9E9" stroke="black" stroke-linecap="round" stroke-linejoin="round"/>
<path d="M467.441 279.817C465.294 278.009 465.825 276.535 468.632 276.535H516.299C519.105 276.535 523.159 278.009 525.313 279.817L561.825 310.454C563.973 312.261 563.441 313.735 560.635 313.735H512.968C510.161 313.735 506.108 312.261 503.953 310.454L467.441 279.817Z" fill="#EBE9E9" stroke="black" stroke-linecap="round" stroke-linejoin="round"/>
<path d="M423.113 242.616C420.965 240.809 416.905 239.334 414.098 239.334H366.431C363.625 239.334 360.542 241.489 359.585 244.132L341.45 293.961C340.493 296.597 341.464 300.233 343.611 302.033L380.123 332.67C382.271 334.477 386.331 335.951 389.138 335.951H436.805C439.611 335.951 442.694 333.797 443.651 331.153L461.786 281.325C462.743 278.688 461.772 275.053 459.625 273.253L423.113 242.616Z" fill="black" stroke="black" stroke-linecap="round" stroke-linejoin="round"/>
<path d="M385.786 331.162C384.829 333.798 382.285 334.478 380.13 332.678L343.618 302.041C341.471 300.234 340.493 296.605 341.457 293.969L359.592 244.141C360.549 241.504 363.093 240.824 365.247 242.624L401.76 273.261C403.907 275.068 404.885 278.697 403.921 281.333L385.786 331.162Z" fill="#EBE9E9" stroke="black" stroke-linecap="round" stroke-linejoin="round"/>
<path d="M385.786 331.16C384.829 333.796 386.338 335.958 389.145 335.958H436.812C439.618 335.958 442.701 333.803 443.658 331.16L461.793 281.332C462.75 278.695 461.241 276.534 458.434 276.534H410.767C407.961 276.534 404.878 278.688 403.921 281.332L385.786 331.16Z" fill="black" stroke="black" stroke-linecap="round" stroke-linejoin="round"/>
<path d="M365.241 242.616C363.094 240.809 363.625 239.335 366.432 239.335H414.099C416.905 239.335 420.959 240.809 423.113 242.616L459.625 273.253C461.773 275.06 461.241 276.534 458.435 276.534H410.768C407.961 276.534 403.908 275.06 401.753 273.253L365.241 242.616Z" fill="#EBE9E9" stroke="black" stroke-linecap="round" stroke-linejoin="round"/>
<path d="M365.241 242.616C363.093 240.809 359.032 239.334 356.226 239.334H308.559C305.753 239.334 302.67 241.489 301.713 244.132L283.578 293.961C282.621 296.597 283.592 300.233 285.739 302.033L322.251 332.67C324.398 334.477 328.459 335.951 331.266 335.951H378.933C381.739 335.951 384.822 333.797 385.779 331.153L403.914 281.325C404.871 278.688 403.9 275.053 401.753 273.253L365.241 242.616Z" fill="black" stroke="black" stroke-linecap="round" stroke-linejoin="round"/>
<path d="M327.913 331.162C326.957 333.798 324.412 334.478 322.258 332.678L285.746 302.041C283.599 300.234 282.621 296.605 283.584 293.969L301.72 244.141C302.677 241.504 305.221 240.824 307.375 242.624L343.887 273.261C346.035 275.068 347.013 278.697 346.049 281.333L327.913 331.162Z" fill="#32D27E" stroke="black" stroke-miterlimit="10"/>
<path d="M327.914 331.16C326.957 333.796 328.466 335.958 331.273 335.958H378.94C381.746 335.958 384.829 333.803 385.786 331.16L403.921 281.332C404.878 278.695 403.368 276.534 400.562 276.534H352.895C350.089 276.534 347.006 278.688 346.049 281.332L327.914 331.16Z" fill="#EBE9E9" stroke="black" stroke-linecap="round" stroke-linejoin="round"/>
<path d="M307.376 242.616C305.228 240.809 305.76 239.335 308.566 239.335H356.233C359.04 239.335 363.094 240.809 365.248 242.616L401.76 273.253C403.907 275.06 403.376 276.534 400.569 276.534H352.903C350.096 276.534 346.042 275.06 343.888 273.253L307.376 242.616Z" fill="#EBE9E9" stroke="black" stroke-linecap="round" stroke-linejoin="round"/>
<path d="M366.318 398.658C364.17 396.851 360.11 395.377 357.303 395.377H309.636C306.83 395.377 303.747 397.532 302.79 400.175L284.655 450.004C283.698 452.64 284.669 456.276 286.816 458.076L323.328 488.713C325.476 490.52 329.536 491.994 332.343 491.994H380.01C382.816 491.994 385.899 489.839 386.856 487.196L404.991 437.367C405.948 434.731 404.977 431.096 402.83 429.295L366.318 398.658Z" fill="black" stroke="black" stroke-linecap="round" stroke-linejoin="round"/>
<path d="M328.991 487.196C328.034 489.833 325.49 490.513 323.335 488.713L286.823 458.076C284.676 456.269 283.698 452.64 284.662 450.004L302.797 400.176C303.754 397.539 306.298 396.859 308.453 398.659L344.965 429.296C347.112 431.103 348.09 434.732 347.126 437.368L328.991 487.196Z" fill="#32D27E" stroke="black" stroke-miterlimit="10"/>
<path d="M328.991 487.196C328.034 489.832 329.543 491.994 332.35 491.994H380.017C382.823 491.994 385.906 489.839 386.863 487.196L404.998 437.367C405.955 434.731 404.446 432.569 401.639 432.569H353.972C351.166 432.569 348.083 434.724 347.126 437.367L328.991 487.196Z" fill="#EBE9E9" stroke="black" stroke-linecap="round" stroke-linejoin="round"/>
<path d="M308.453 398.658C306.306 396.851 306.837 395.377 309.644 395.377H357.311C360.117 395.377 364.171 396.851 366.325 398.658L402.837 429.295C404.985 431.103 404.453 432.577 401.647 432.577H353.98C351.173 432.577 347.119 431.103 344.965 429.295L308.453 398.658Z" fill="#EBE9E9" stroke="black" stroke-linecap="round" stroke-linejoin="round"/>
<path d="M387.947 339.242C385.799 337.435 381.739 335.961 378.932 335.961H331.265C328.459 335.961 325.376 338.115 324.419 340.759L306.284 390.587C305.327 393.224 306.298 396.859 308.445 398.659L344.957 429.296C347.105 431.103 351.165 432.577 353.972 432.577H401.639C404.445 432.577 407.528 430.423 408.485 427.78L426.62 377.951C427.577 375.315 426.606 371.679 424.459 369.879L387.947 339.242Z" fill="black" stroke="black" stroke-linecap="round" stroke-linejoin="round"/>
<path d="M350.619 427.778C349.663 430.415 347.119 431.095 344.964 429.295L308.452 398.658C306.305 396.851 305.327 393.222 306.291 390.586L324.426 340.757C325.383 338.121 327.927 337.441 330.081 339.241L366.594 369.878C368.741 371.685 369.719 375.313 368.755 377.95L350.619 427.778Z" fill="black" stroke="black" stroke-linecap="round" stroke-linejoin="round"/>
<path d="M350.62 427.779C349.663 430.415 351.172 432.577 353.979 432.577H401.646C404.452 432.577 407.535 430.422 408.492 427.779L426.627 377.95C427.584 375.314 426.075 373.152 423.268 373.152H375.601C372.795 373.152 369.712 375.307 368.755 377.95L350.62 427.779Z" fill="#EBE9E9" stroke="black" stroke-linecap="round" stroke-linejoin="round"/>
<path d="M330.074 339.234C327.927 337.427 328.458 335.953 331.265 335.953H378.932C381.738 335.953 385.792 337.427 387.946 339.234L424.458 369.871C426.606 371.679 426.074 373.153 423.268 373.153H375.601C372.794 373.153 368.741 371.679 366.586 369.871L330.074 339.234Z" fill="#EBE9E9" stroke="black" stroke-linecap="round" stroke-linejoin="round"/>
<path d="M409.577 279.817C407.429 278.009 403.368 276.535 400.562 276.535H352.895C350.089 276.535 347.006 278.69 346.049 281.333L327.913 331.162C326.957 333.798 327.928 337.434 330.075 339.234L366.587 369.871C368.734 371.678 372.795 373.152 375.602 373.152H423.269C426.075 373.152 429.158 370.998 430.115 368.354L448.25 318.526C449.207 315.889 448.236 312.254 446.089 310.454L409.577 279.817Z" fill="black" stroke="black" stroke-linecap="round" stroke-linejoin="round"/>
<path d="M372.243 368.362C371.286 370.999 368.742 371.679 366.587 369.879L330.075 339.242C327.928 337.435 326.95 333.806 327.914 331.17L346.049 281.342C347.006 278.705 349.55 278.025 351.704 279.825L388.217 310.462C390.364 312.269 391.342 315.898 390.378 318.534L372.243 368.362Z" fill="#32D27E" stroke="black" stroke-miterlimit="10"/>
<path d="M365.361 330.517C362.703 328.285 361.754 323.225 363.235 319.206C363.624 318.15 364.149 317.272 364.751 316.584C363.936 314.791 362.845 313.239 361.498 312.112C356.849 308.214 350.981 310.752 348.387 317.782C345.794 324.812 347.459 333.678 352.108 337.576C356.757 341.474 362.625 338.936 365.219 331.906C365.361 331.516 365.495 331.112 365.609 330.716C365.524 330.652 365.446 330.588 365.361 330.517Z" fill="black"/>
<path d="M374.751 326.86C373.575 325.145 371.845 324.394 370.159 325.124C368.472 325.854 367.267 327.874 366.863 330.269C368.04 331.984 369.769 332.735 371.456 332.005C373.142 331.276 374.347 329.256 374.751 326.86Z" fill="black"/>
<path d="M372.243 368.361C371.286 370.997 372.795 373.159 375.602 373.159H423.269C426.075 373.159 429.158 371.004 430.115 368.361L448.25 318.532C449.207 315.896 447.698 313.735 444.891 313.735H397.224C394.418 313.735 391.335 315.889 390.378 318.532L372.243 368.361Z" fill="#EBE9E9" stroke="black" stroke-linecap="round" stroke-linejoin="round"/>
<path d="M351.705 279.817C349.558 278.009 350.089 276.535 352.896 276.535H400.562C403.369 276.535 407.423 278.009 409.577 279.817L446.089 310.454C448.236 312.261 447.705 313.735 444.899 313.735H397.232C394.425 313.735 390.371 312.261 388.217 310.454L351.705 279.817Z" fill="#EBE9E9" stroke="black" stroke-linecap="round" stroke-linejoin="round"/>
<path d="M526.391 435.857C524.244 434.05 520.183 432.575 517.376 432.575H469.709C466.903 432.575 463.82 434.73 462.863 437.373L444.728 487.202C443.771 489.838 444.742 493.474 446.889 495.274L483.401 525.911C485.549 527.718 489.61 529.192 492.416 529.192H540.083C542.889 529.192 545.972 527.038 546.929 524.394L565.065 474.566C566.021 471.929 565.05 468.294 562.903 466.494L526.391 435.857Z" fill="black" stroke="black" stroke-linecap="round" stroke-linejoin="round"/>
<path d="M489.064 524.395C488.107 527.031 485.563 527.711 483.408 525.911L446.896 495.274C444.749 493.467 443.771 489.839 444.735 487.202L462.87 437.374C463.827 434.737 466.371 434.057 468.526 435.857L505.038 466.494C507.185 468.301 508.163 471.93 507.199 474.566L489.064 524.395Z" fill="#EBE9E9" stroke="black" stroke-linecap="round" stroke-linejoin="round"/>
<path d="M489.064 524.394C488.107 527.031 489.617 529.192 492.423 529.192H540.09C542.897 529.192 545.979 527.038 546.936 524.394L565.072 474.566C566.028 471.929 564.519 469.768 561.712 469.768H514.045C511.239 469.768 508.156 471.922 507.199 474.566L489.064 524.394Z" fill="#EBE9E9" stroke="black" stroke-linecap="round" stroke-linejoin="round"/>
<path d="M468.518 435.857C466.371 434.05 466.903 432.575 469.709 432.575H517.376C520.182 432.575 524.236 434.05 526.391 435.857L562.903 466.494C565.05 468.301 564.518 469.775 561.712 469.775H514.045C511.239 469.775 507.185 468.301 505.03 466.494L468.518 435.857Z" fill="#EBE9E9" stroke="black" stroke-linecap="round" stroke-linejoin="round"/>
<path d="M468.519 435.857C466.372 434.05 462.311 432.575 459.504 432.575H411.837C409.031 432.575 405.948 434.73 404.991 437.373L386.856 487.202C385.899 489.838 386.87 493.474 389.017 495.274L425.529 525.911C427.677 527.718 431.738 529.192 434.544 529.192H482.211C485.017 529.192 488.1 527.038 489.057 524.394L507.193 474.566C508.149 471.929 507.178 468.294 505.031 466.494L468.519 435.857Z" fill="black" stroke="black" stroke-linecap="round" stroke-linejoin="round"/>
<path d="M431.192 524.395C430.235 527.031 427.691 527.711 425.536 525.911L389.024 495.274C386.877 493.467 385.899 489.839 386.863 487.202L404.998 437.374C405.955 434.737 408.499 434.057 410.654 435.857L447.166 466.494C449.313 468.301 450.291 471.93 449.327 474.566L431.192 524.395Z" fill="#EBE9E9" stroke="black" stroke-linecap="round" stroke-linejoin="round"/>
<path d="M431.192 524.394C430.235 527.031 431.745 529.192 434.551 529.192H482.218C485.024 529.192 488.107 527.038 489.064 524.394L507.2 474.566C508.156 471.929 506.647 469.768 503.84 469.768H456.173C453.367 469.768 450.284 471.922 449.327 474.566L431.192 524.394Z" fill="#EBE9E9" stroke="black" stroke-linecap="round" stroke-linejoin="round"/>
<path d="M410.654 435.857C408.507 434.05 409.038 432.575 411.845 432.575H459.512C462.318 432.575 466.372 434.05 468.526 435.857L505.038 466.494C507.186 468.301 506.654 469.775 503.848 469.775H456.181C453.374 469.775 449.321 468.301 447.166 466.494L410.654 435.857Z" fill="#EBE9E9" stroke="black" stroke-linecap="round" stroke-linejoin="round"/>
<path d="M410.654 435.857C408.506 434.05 404.446 432.575 401.639 432.575H353.972C351.166 432.575 348.083 434.73 347.126 437.373L328.991 487.202C328.034 489.838 329.005 493.474 331.152 495.274L367.664 525.911C369.812 527.718 373.872 529.192 376.679 529.192H424.346C427.152 529.192 430.235 527.038 431.192 524.394L449.327 474.566C450.284 471.929 449.313 468.294 447.166 466.494L410.654 435.857Z" fill="black" stroke="black" stroke-linecap="round" stroke-linejoin="round"/>
<path d="M373.32 524.395C372.363 527.031 369.819 527.711 367.664 525.911L331.152 495.274C329.005 493.467 328.027 489.839 328.991 487.202L347.126 437.374C348.083 434.737 350.627 434.057 352.782 435.857L389.294 466.494C391.441 468.301 392.419 471.93 391.455 474.566L373.32 524.395Z" fill="#32D27E" stroke="black" stroke-miterlimit="10"/>
<path d="M373.32 524.394C372.363 527.031 373.873 529.192 376.679 529.192H424.346C427.152 529.192 430.235 527.038 431.192 524.394L449.327 474.566C450.284 471.929 448.775 469.768 445.968 469.768H398.301C395.495 469.768 392.412 471.922 391.455 474.566L373.32 524.394Z" fill="#EBE9E9" stroke="black" stroke-linecap="round" stroke-linejoin="round"/>
<path d="M398.655 501.49L405.629 512.517L428.258 486.6C428.258 486.6 417.811 495.43 410.143 501.575C405.147 505.579 398.655 501.497 398.655 501.497V501.49Z" fill="black"/>
<path d="M352.781 435.857C350.634 434.05 351.165 432.575 353.972 432.575H401.639C404.445 432.575 408.499 434.05 410.653 435.857L447.165 466.494C449.313 468.301 448.781 469.775 445.975 469.775H398.308C395.501 469.775 391.448 468.301 389.293 466.494L352.781 435.857Z" fill="#EBE9E9" stroke="black" stroke-linecap="round" stroke-linejoin="round"/>
<path d="M548.021 376.432C545.874 374.625 541.813 373.151 539.006 373.151H491.339C488.533 373.151 485.45 375.305 484.493 377.949L466.358 427.777C465.401 430.413 466.372 434.049 468.519 435.849L505.031 466.486C507.179 468.293 511.24 469.767 514.046 469.767H561.713C564.519 469.767 567.602 467.613 568.559 464.969L586.694 415.141C587.651 412.505 586.68 408.869 584.533 407.069L548.021 376.432Z" fill="black" stroke="black" stroke-linecap="round" stroke-linejoin="round"/>
<path d="M510.687 464.976C509.73 467.612 507.186 468.292 505.031 466.492L468.519 435.855C466.372 434.048 465.394 430.42 466.358 427.783L484.493 377.955C485.45 375.319 487.994 374.638 490.149 376.438L526.661 407.075C528.808 408.882 529.786 412.511 528.822 415.147L510.687 464.976Z" fill="black" stroke="black" stroke-linecap="round" stroke-linejoin="round"/>
<path d="M510.687 464.976C509.73 467.613 511.24 469.774 514.046 469.774H561.713C564.52 469.774 567.602 467.62 568.559 464.976L586.695 415.148C587.651 412.511 586.142 410.35 583.335 410.35H535.669C532.862 410.35 529.779 412.504 528.823 415.148L510.687 464.976Z" fill="#EBE9E9" stroke="black" stroke-linecap="round" stroke-linejoin="round"/>
<path d="M490.149 376.432C488.002 374.625 488.533 373.151 491.34 373.151H539.007C541.813 373.151 545.867 374.625 548.021 376.432L584.533 407.069C586.681 408.876 586.149 410.35 583.343 410.35H535.676C532.87 410.35 528.816 408.876 526.661 407.069L490.149 376.432Z" fill="#EBE9E9" stroke="black" stroke-linecap="round" stroke-linejoin="round"/>
<path d="M476.668 376.432C474.521 374.625 470.46 373.151 467.654 373.151H362.122C359.315 373.151 356.232 375.305 355.276 377.949L337.14 427.777C336.183 430.413 337.154 434.049 339.302 435.849L375.814 466.486C377.961 468.293 382.022 469.767 384.828 469.767H490.36C493.167 469.767 496.249 467.613 497.206 464.969L515.342 415.141C516.299 412.505 515.328 408.869 513.18 407.069L476.668 376.432Z" fill="black" stroke="black" stroke-linecap="round" stroke-linejoin="round"/>
<path d="M381.469 464.976C380.512 467.612 377.968 468.292 375.814 466.492L339.302 435.855C337.154 434.048 336.176 430.42 337.14 427.783L355.276 377.955C356.232 375.319 358.777 374.638 360.931 376.438L397.443 407.075C399.59 408.882 400.568 412.511 399.605 415.147L381.469 464.976Z" fill="#32D27E" stroke="black" stroke-miterlimit="10"/>
<path d="M354.716 409.138L356.686 410.79L358.082 406.977L359.124 407.849L357.728 411.661L359.712 413.327L359.025 415.205L357.04 413.539L355.644 417.352L354.602 416.48L355.998 412.668L354.028 411.016L354.716 409.138Z" fill="black"/>
<path d="M363.475 417.367C364.978 413.249 367.068 411.591 368.805 413.051C370.576 414.539 370.711 418.04 369.201 422.172C367.706 426.268 365.658 427.99 363.879 426.495C362.129 425.028 361.98 421.463 363.475 417.367ZM367.777 420.974C368.776 418.253 369.017 416.077 368.011 415.227C366.99 414.369 365.899 415.815 364.9 418.558C363.9 421.279 363.667 423.462 364.687 424.319C365.708 425.177 366.771 423.738 367.784 420.974H367.777Z" fill="black"/>
<path d="M368.309 426.262L369.768 427.488L368.776 430.209L367.316 428.983L368.309 426.262Z" fill="black"/>
<path d="M373.34 422.307L371.788 421.003L372.405 419.309C373.262 419.961 374.233 420.003 374.97 418.473L376.161 419.472L371.42 432.434L370.052 431.286L373.333 422.307H373.34Z" fill="black"/>
<path d="M373.744 429.522C374.325 427.927 375.282 427.105 376.231 427.19L376.253 427.133C375.835 426.099 375.771 425.014 376.224 423.774C377.018 421.591 378.485 421.201 379.966 422.442C381.447 423.682 381.965 425.709 381.171 427.87C380.732 429.075 380.058 429.614 379.279 429.649L379.258 429.706C379.832 430.854 379.867 432.477 379.293 434.036C378.322 436.687 376.621 437.168 375.069 435.864C373.517 434.56 372.794 432.115 373.737 429.522H373.744ZM377.89 432.881C378.372 431.563 378.195 430.287 377.358 429.585C376.515 428.877 375.672 429.302 375.19 430.613C374.729 431.874 374.97 433.079 375.799 433.774C376.6 434.447 377.443 434.1 377.89 432.881ZM379.754 427.006C380.122 425.992 379.952 424.965 379.243 424.369C378.521 423.767 377.854 424.086 377.486 425.106C377.117 426.127 377.273 427.19 377.996 427.792C378.705 428.388 379.385 428.026 379.761 427.013L379.754 427.006Z" fill="black"/>
<path d="M381.469 464.976C380.512 467.613 382.022 469.774 384.828 469.774H490.36C493.167 469.774 496.25 467.62 497.206 464.976L515.342 415.148C516.299 412.511 514.789 410.35 511.983 410.35H406.451C403.644 410.35 400.561 412.504 399.605 415.148L381.469 464.976Z" fill="#EBE9E9" stroke="black" stroke-linecap="round" stroke-linejoin="round"/>
<path d="M430.476 437.316H425.749L427.748 431.823H432.475L430.476 437.316Z" fill="black"/>
<path d="M437.195 431.822H432.475L434.473 426.33H439.193L437.195 431.822Z" fill="black"/>
<path d="M428.477 442.807H423.75L425.749 437.315H430.476L428.477 442.807Z" fill="black"/>
<path d="M433.197 442.807H428.478L430.476 437.315H435.196L433.197 442.807Z" fill="black"/>
<path d="M437.917 442.807H433.197L435.196 437.315H439.916L437.917 442.807Z" fill="black"/>
<path d="M426.479 448.301H421.752L423.75 442.808H428.477L426.479 448.301Z" fill="black"/>
<path d="M429.2 453.792H424.48L426.479 448.3H431.199L429.2 453.792Z" fill="black"/>
<path d="M433.92 453.792H429.2L431.199 448.3H435.919L433.92 453.792Z" fill="black"/>
<path d="M441.914 431.822H437.194L439.193 426.33H443.913L441.914 431.822Z" fill="black"/>
<path d="M451.362 431.822H446.642L448.64 426.33H453.36L451.362 431.822Z" fill="black"/>
<path d="M456.088 431.822H451.361L453.36 426.33H458.087L456.088 431.822Z" fill="black"/>
<path d="M454.09 437.316H449.363L451.362 431.823H456.089L454.09 437.316Z" fill="black"/>
<path d="M452.091 442.807H447.364L449.363 437.315H454.09L452.091 442.807Z" fill="black"/>
<path d="M450.092 448.301H445.365L447.364 442.808H452.091L450.092 448.301Z" fill="black"/>
<path d="M448.094 453.792H443.367L445.366 448.3H450.093L448.094 453.792Z" fill="black"/>
<path d="M474.975 431.822H470.255L472.253 426.33H476.973L474.975 431.822Z" fill="black"/>
<path d="M479.702 431.822H474.975L476.973 426.33H481.7L479.702 431.822Z" fill="black"/>
<path d="M470.978 442.807H466.258L468.256 437.315H472.976L470.978 442.807Z" fill="black"/>
<path d="M475.706 442.807H470.979L472.977 437.315H477.704L475.706 442.807Z" fill="black"/>
<path d="M468.256 437.316H463.536L465.535 431.823H470.255L468.256 437.316Z" fill="black"/>
<path d="M466.258 442.807H461.538L463.537 437.315H468.257L466.258 442.807Z" fill="black"/>
<path d="M464.26 448.301H459.54L461.539 442.808H466.258L464.26 448.301Z" fill="black"/>
<path d="M462.261 453.792H457.541L459.54 448.3H464.259L462.261 453.792Z" fill="black"/>
<path d="M460.808 431.822H456.088L458.086 426.33H462.806L460.808 431.822Z" fill="black"/>
<path d="M360.924 376.432C358.776 374.625 359.308 373.151 362.114 373.151H467.646C470.453 373.151 474.507 374.625 476.661 376.432L513.173 407.069C515.32 408.876 514.789 410.35 511.982 410.35H406.45C403.644 410.35 399.59 408.876 397.436 407.069L360.924 376.432Z" fill="#32D27E" stroke="black" stroke-miterlimit="10"/>
<path d="M569.643 317.016C567.496 315.209 563.435 313.735 560.628 313.735H512.961C510.155 313.735 507.072 315.889 506.115 318.532L487.98 368.361C487.023 370.997 487.994 374.633 490.141 376.433L526.653 407.07C528.801 408.877 532.862 410.351 535.668 410.351H583.335C586.141 410.351 589.224 408.197 590.181 405.553L608.317 355.725C609.273 353.089 608.302 349.453 606.155 347.653L569.643 317.016Z" fill="black" stroke="black" stroke-linecap="round" stroke-linejoin="round"/>
<path d="M532.316 405.564C531.359 408.2 528.815 408.88 526.66 407.08L490.148 376.443C488.001 374.636 487.023 371.008 487.987 368.371L506.122 318.543C507.079 315.906 509.623 315.226 511.778 317.026L548.29 347.663C550.437 349.47 551.415 353.099 550.451 355.735L532.316 405.564Z" fill="#EBE9E9" stroke="black" stroke-linecap="round" stroke-linejoin="round"/>
<path d="M532.316 405.56C531.359 408.197 532.869 410.358 535.675 410.358H583.342C586.148 410.358 589.231 408.204 590.188 405.56L608.324 355.732C609.28 353.095 607.771 350.934 604.964 350.934H557.297C554.491 350.934 551.408 353.088 550.451 355.732L532.316 405.56Z" fill="#EBE9E9" stroke="black" stroke-linecap="round" stroke-linejoin="round"/>
<path d="M572.336 392.401C570.26 392.401 569.261 390.693 568.949 388.092C566.766 390.7 564.534 392.401 562.457 392.401C559.339 392.401 558.304 388.574 559.381 381.026C560.118 375.853 561.571 370.765 561.635 370.552L564.342 370.283C562.138 377.972 560.366 389.361 563.563 389.361C564.817 389.361 566.695 387.561 568.892 384.386C569.098 381.048 569.863 377.107 570.749 373.465C571.025 372.317 571.748 371.154 572.719 370.276C573.69 369.397 574.824 368.901 575.823 368.901H575.929C576.922 368.901 577.68 369.397 578.02 370.268C578.36 371.14 578.24 372.288 577.694 373.436C575.958 377.086 573.881 381.034 571.684 384.371C571.592 387.554 572.18 389.361 573.435 389.361C576.411 389.361 582.166 379.51 585.639 371.948H582.18L583.293 368.901H589.607L588.891 370.545C588.799 370.757 586.588 375.846 583.605 381.019C579.246 388.574 575.447 392.408 572.322 392.408L572.336 392.401ZM574.717 371.941C574.391 371.941 574.115 372.146 573.973 372.267C573.839 372.387 573.591 372.657 573.499 373.032C572.995 375.116 572.591 377.044 572.294 378.787C573.258 377.036 574.243 375.109 575.235 373.025C575.412 372.65 575.362 372.387 575.313 372.267C575.263 372.146 575.136 371.941 574.81 371.941H574.703H574.717Z" fill="black"/>
<path d="M511.778 317.016C509.631 315.209 510.162 313.735 512.969 313.735H560.636C563.442 313.735 567.496 315.209 569.65 317.016L606.162 347.653C608.31 349.46 607.778 350.934 604.972 350.934H557.305C554.498 350.934 550.445 349.46 548.29 347.653L511.778 317.016Z" fill="#EBE9E9" stroke="black" stroke-linecap="round" stroke-linejoin="round"/>
<path d="M511.777 317.016C509.629 315.209 505.569 313.735 502.762 313.735H455.095C452.289 313.735 449.206 315.889 448.249 318.532L430.114 368.361C429.157 370.997 430.128 374.633 432.275 376.433L468.787 407.07C470.935 408.877 474.995 410.351 477.802 410.351H525.469C528.275 410.351 531.358 408.197 532.315 405.553L550.45 355.725C551.407 353.089 550.436 349.453 548.289 347.653L511.777 317.016Z" fill="black" stroke="black" stroke-linecap="round" stroke-linejoin="round"/>
<path d="M474.443 405.564C473.486 408.2 470.942 408.88 468.787 407.08L432.275 376.443C430.128 374.636 429.15 371.008 430.114 368.371L448.249 318.543C449.206 315.906 451.75 315.226 453.905 317.026L490.417 347.663C492.564 349.47 493.542 353.099 492.578 355.735L474.443 405.564Z" fill="#EBE9E9" stroke="black" stroke-linecap="round" stroke-linejoin="round"/>
<path d="M474.443 405.56C473.486 408.197 474.996 410.358 477.802 410.358H525.469C528.275 410.358 531.358 408.204 532.315 405.56L550.451 355.732C551.407 353.095 549.898 350.934 547.091 350.934H499.424C496.618 350.934 493.535 353.088 492.578 355.732L474.443 405.56Z" fill="#EBE9E9" stroke="black" stroke-linecap="round" stroke-linejoin="round"/>
<path d="M490.743 380.358H493.733L495.044 376.772H496.625L495.314 380.358H498.326L497.681 382.122H494.669L493.358 385.708H491.777L493.088 382.122H490.098L490.743 380.358Z" fill="black"/>
<path d="M501.629 380.998C503.046 377.128 505.661 374.676 508.305 374.676C510.948 374.676 511.742 377.114 510.324 380.998C508.914 384.846 506.37 387.319 503.663 387.319C500.955 387.319 500.225 384.846 501.629 380.998ZM508.163 380.998C509.098 378.439 509.091 376.724 507.553 376.724C506.015 376.724 504.733 378.418 503.783 380.998C502.848 383.556 502.869 385.271 504.421 385.271C505.973 385.271 507.206 383.591 508.156 380.998H508.163Z" fill="black"/>
<path d="M509.742 384.477H511.96L511.025 387.035H508.807L509.742 384.477Z" fill="black"/>
<path d="M516.227 382.236C517.97 381.039 519.714 380.188 520.281 378.636C520.692 377.502 520.458 376.744 519.53 376.744C518.481 376.744 517.538 377.63 516.929 379.196H514.987C515.993 376.439 517.85 374.696 520.33 374.696C522.591 374.696 523.215 376.482 522.456 378.565C521.62 380.84 519.891 381.917 518.254 382.91C517.226 383.512 516 384.284 515.37 385.064H520.167L519.445 387.041H511.968C512.889 384.731 514.654 383.314 516.234 382.236H516.227Z" fill="black"/>
<path d="M522.492 381.176C523.257 379.036 524.256 377.307 525.631 376.088C526.623 375.202 527.722 374.692 529.132 374.692C531.216 374.692 531.974 376.017 531.577 377.817H529.586C529.706 377.073 529.451 376.527 528.537 376.527C527.02 376.527 525.801 377.852 525.022 379.986H525.05C525.865 379.242 526.737 378.731 527.956 378.731C529.883 378.731 530.932 380.482 529.99 383.061C529.075 385.549 526.737 387.299 524.561 387.299C521.585 387.299 521.315 384.457 522.492 381.169V381.176ZM527.998 383.104C528.501 381.729 528.048 380.687 526.921 380.687C525.645 380.687 524.533 381.694 524.022 383.09C523.526 384.45 524.001 385.421 525.171 385.421C526.34 385.421 527.516 384.415 527.991 383.111L527.998 383.104Z" fill="black"/>
<path d="M453.905 317.016C451.758 315.209 452.289 313.735 455.096 313.735H502.763C505.569 313.735 509.623 315.209 511.777 317.016L548.289 347.653C550.437 349.46 549.905 350.934 547.099 350.934H499.432C496.625 350.934 492.572 349.46 490.417 347.653L453.905 317.016Z" fill="#EBE9E9" stroke="black" stroke-linecap="round" stroke-linejoin="round"/>
<path d="M453.906 317.016C451.758 315.209 447.697 313.735 444.891 313.735H397.224C394.418 313.735 391.335 315.889 390.378 318.532L372.243 368.361C371.286 370.997 372.257 374.633 374.404 376.433L410.916 407.07C413.063 408.877 417.124 410.351 419.931 410.351H467.598C470.404 410.351 473.487 408.197 474.444 405.553L492.579 355.725C493.536 353.089 492.565 349.453 490.418 347.653L453.906 317.016Z" fill="black" stroke="black" stroke-linecap="round" stroke-linejoin="round"/>
<path d="M416.579 405.564C415.622 408.2 413.078 408.88 410.923 407.08L374.411 376.443C372.264 374.636 371.286 371.008 372.25 368.371L390.385 318.543C391.342 315.906 393.886 315.226 396.04 317.026L432.553 347.663C434.7 349.47 435.678 353.099 434.714 355.735L416.579 405.564Z" fill="#32D27E" stroke="black" stroke-miterlimit="10"/>
<path d="M416.579 405.56C415.622 408.197 417.131 410.358 419.938 410.358H467.605C470.411 410.358 473.494 408.204 474.451 405.56L492.586 355.732C493.543 353.095 492.033 350.934 489.227 350.934H441.56C438.754 350.934 435.671 353.088 434.714 355.732L416.579 405.56Z" fill="#EBE9E9" stroke="black" stroke-linecap="round" stroke-linejoin="round"/>
<path d="M396.033 317.016C393.886 315.209 394.417 313.735 397.224 313.735H444.891C447.697 313.735 451.751 315.209 453.905 317.016L490.417 347.653C492.565 349.46 492.033 350.934 489.227 350.934H441.56C438.753 350.934 434.7 349.46 432.545 347.653L396.033 317.016Z" fill="#EBE9E9" stroke="black" stroke-linecap="round" stroke-linejoin="round"/>
<path d="M586.46 147.17L560.252 189.33C557.524 193.717 557.212 201.066 559.551 205.666C561.237 208.975 565.511 212.611 569.054 213.738L605.361 225.297C610.272 226.863 616.296 227.529 621.448 227.373C631.604 227.054 636.565 226.934 650.129 230.385C653.432 231.228 656.912 229.974 658.931 227.231C661.341 223.943 661.334 218.571 658.91 215.297L655.31 210.421C652.199 206.204 645.367 202.625 640.13 202.47L619.861 197.083L609.556 189.826L637.84 159.515L586.46 147.177V147.17Z" fill="black"/>
<path d="M651.774 230.646C655.423 228.818 656.997 226.231 657.684 224.41C658.102 223.297 657.408 222.085 656.238 221.873L644.694 219.803C643.666 219.619 642.49 220.257 642.079 221.214L639.967 226.146" stroke="#32D27E" stroke-miterlimit="10"/>
<path d="M536.979 129.375L504.627 170.012C501.261 174.235 500.042 181.84 501.92 186.907C503.266 190.557 507.27 194.851 510.821 196.453L547.156 212.874C552.074 215.092 557.637 215.411 562.776 213.759C571.089 211.088 585.177 207.431 599.819 207.565C603.384 207.601 606.615 205.461 607.976 202.172C609.606 198.225 608.267 192.775 604.993 190.047L600.117 185.986C595.907 182.478 588.069 180.536 582.711 181.677L565.646 185.305L555.816 176.51L588.884 148.439L536.979 129.389V129.375Z" fill="black"/>
<path d="M587.403 208.018L586.084 205.736C585.44 204.624 585.964 203.192 587.176 202.76C590.84 201.456 598.061 199.039 603.093 198.352" stroke="#32D27E" stroke-miterlimit="10"/>
<path d="M566.524 212.598C574.979 210.139 587.19 207.439 599.812 207.552" stroke="#32D27E" stroke-miterlimit="10"/>
<path d="M565.646 185.293C559.374 186.618 557.964 191.636 557.964 191.636" stroke="#32D27E" stroke-miterlimit="10"/>
<path d="M541.557 171.735L536.539 171.09" stroke="#32D27E" stroke-miterlimit="10"/>
<path d="M555.817 176.495C555.817 176.495 552.387 173.115 544.314 172.08" stroke="#32D27E" stroke-miterlimit="10"/>
<path d="M600.118 185.97C595.908 182.462 588.07 180.52 582.712 181.661L565.647 185.29L563.797 183.631" stroke="#32D27E" stroke-miterlimit="10"/>
<path d="M532.288 147.858L490.531 154.428L482.622 169.53C478.136 178.106 470.298 182.237 470.298 182.237L466.563 193.165C461.652 207.531 451.829 213.625 441.702 213.675L435.274 213.703C430.037 213.725 426.897 209.621 428.301 204.575L445.005 144.315L445.423 133.699C445.699 126.562 451.553 119.135 458.434 117.193L494.982 106.889" fill="black"/>
<path d="M532.288 147.858L490.531 154.428L482.622 169.53C478.136 178.106 470.298 182.237 470.298 182.237L466.563 193.165C461.652 207.531 451.829 213.625 441.702 213.675L435.274 213.703C430.037 213.725 426.897 209.621 428.301 204.575L445.005 144.315L445.423 133.699C445.699 126.562 451.553 119.135 458.434 117.193L494.982 106.889" stroke="black" stroke-linecap="round" stroke-linejoin="round"/>
<path d="M520.332 208.336C518.575 206.153 514.882 203.914 512.126 203.375L465.366 194.148C462.609 193.602 459.172 195.126 457.719 197.528L430.278 242.906C428.825 245.309 429.081 249.058 430.838 251.248L460.731 288.376C462.489 290.559 466.181 292.798 468.938 293.337L515.697 302.564C518.454 303.11 521.891 301.586 523.344 299.184L550.785 253.806C552.238 251.404 551.983 247.655 550.225 245.465L520.332 208.336Z" fill="black" stroke="black" stroke-linecap="round" stroke-linejoin="round"/>
<path d="M466.571 287.979C465.118 290.382 462.489 290.559 460.731 288.369L430.838 251.24C429.081 249.057 428.825 245.301 430.278 242.899L457.719 197.521C459.172 195.119 461.801 194.941 463.559 197.131L493.451 234.26C495.209 236.443 495.464 240.199 494.011 242.601L466.571 287.979Z" fill="#32D27E" stroke="black" stroke-miterlimit="10"/>
<path d="M466.57 287.982C465.118 290.385 466.181 292.794 468.938 293.333L515.697 302.56C518.454 303.106 521.891 301.582 523.344 299.18L550.785 253.802C552.238 251.399 551.175 248.99 548.418 248.451L501.658 239.224C498.901 238.678 495.464 240.202 494.011 242.605L466.57 287.982Z" fill="#EBE9E9" stroke="black" stroke-linecap="round" stroke-linejoin="round"/>
<path d="M489.788 267.226L492.722 267.807L494.699 264.547L496.251 264.852L494.274 268.112L497.229 268.693L496.251 270.301L493.296 269.72L491.318 272.98L489.766 272.676L491.744 269.416L488.81 268.834L489.788 267.226Z" fill="black"/>
<path d="M503.941 268.217L501.63 267.764L502.509 266.318C503.792 266.517 505.209 266.24 506.279 264.865L508.051 265.213L501.318 276.304L499.277 275.9L503.941 268.217Z" fill="black"/>
<path d="M504.351 274.291L506.527 274.724L505.109 277.055L502.934 276.623L504.351 274.291Z" fill="black"/>
<path d="M511.949 275.723L507.243 274.795L508.675 272.435L517.186 266.971L519.241 267.375L514.996 274.369L516.548 274.674L515.485 276.425L513.933 276.12L512.48 278.515L510.496 278.126L511.949 275.73V275.723ZM509.943 273.363L513.012 273.966L515.606 269.692H515.577L509.972 273.314L509.943 273.363Z" fill="black"/>
<path d="M524.946 270.776L524.967 270.741L519.9 269.741L521.041 267.863L528.312 269.302L527.221 271.102C524.166 272.753 520.524 275.616 517.951 279.585L515.747 279.153C518.341 275.127 522.359 272.193 524.953 270.783L524.946 270.776Z" fill="black"/>
<path d="M463.558 197.132C461.801 194.95 462.609 193.603 465.366 194.149L512.125 203.376C514.882 203.922 518.575 206.154 520.332 208.337L550.225 245.465C551.982 247.648 551.175 248.995 548.418 248.449L501.658 239.222C498.901 238.676 495.209 236.444 493.451 234.261L463.558 197.132Z" fill="#BDFF00" stroke="black" stroke-linecap="round" stroke-linejoin="round"/>
<path d="M511.126 214.531C501.261 208.358 491.36 206.388 489.022 210.123C486.683 213.865 492.785 221.894 502.657 228.067C512.522 234.24 522.423 236.21 524.761 232.475C527.1 228.733 520.998 220.703 511.126 214.531ZM518.624 228.967L505.414 226.359C504.634 226.203 503.592 225.572 503.096 224.956L494.656 214.467C494.16 213.85 494.386 213.468 495.166 213.624L508.376 216.232C509.156 216.388 510.198 217.018 510.694 217.635L519.134 228.124C519.63 228.74 519.403 229.123 518.624 228.967Z" fill="black"/>
<path d="M494.975 106.881C502.288 104.818 513.684 100.07 520.303 96.3281L527.589 92.2106C535.073 87.9797 548.198 83.7629 556.745 82.8345L601.017 78.0366L668.074 64.6281C681.022 62.0414 701.836 63.395 714.337 67.633L797 95.6903C797 95.6903 776.256 100.701 765.605 128.283C747.986 173.916 762.557 205.092 762.557 205.092L715.833 169.487C710.447 165.383 701.29 164.88 695.486 168.36L685.004 174.653C680.533 177.339 676.047 183.533 673.332 187.658L656.529 213.15C652.589 219.124 644.623 227.43 638.819 231.618L605.312 255.778C602.406 257.875 597.332 260.732 594.029 262.128L580.847 267.705C577.268 269.215 572.102 272.708 569.359 275.458L558.672 286.181C555.448 289.42 549.643 288.789 546.454 285.508L544.116 283.105C539.112 277.967 539.58 267.039 542.422 260.455C546.093 251.951 554.817 242.497 564.342 234.361L593.739 209.252C603.434 200.974 604.036 190.989 600.641 183.675L591.825 164.675C590.039 160.819 584.263 157.928 580.018 157.751L552.407 156.617C543.216 156.241 532.266 147.85 532.266 147.85" fill="black"/>
<path d="M494.975 106.881C502.288 104.818 513.684 100.07 520.303 96.3281L527.589 92.2106C535.073 87.9797 548.198 83.7629 556.745 82.8345L601.017 78.0366L668.074 64.6281C681.022 62.0414 701.836 63.395 714.337 67.633L797 95.6903C797 95.6903 776.256 100.701 765.605 128.283C747.986 173.916 762.557 205.092 762.557 205.092L715.833 169.487C710.447 165.383 701.29 164.88 695.486 168.36L685.004 174.653C680.533 177.339 676.047 183.533 673.332 187.658L656.529 213.15C652.589 219.124 644.623 227.43 638.819 231.618L605.312 255.778C602.406 257.875 597.332 260.732 594.029 262.128L580.847 267.705C577.268 269.215 572.102 272.708 569.359 275.458L558.672 286.181C555.448 289.42 549.643 288.789 546.454 285.508L544.116 283.105C539.112 277.967 539.58 267.039 542.422 260.455C546.093 251.951 554.817 242.497 564.342 234.361L593.739 209.252C603.434 200.974 604.036 190.989 600.641 183.675L591.825 164.675C590.039 160.819 584.263 157.928 580.018 157.751L552.407 156.617C543.216 156.241 532.266 147.85 532.266 147.85" stroke="black" stroke-linecap="round" stroke-linejoin="round"/>
<path d="M684.02 172.263L689.193 164C690.469 161.959 693.417 159.755 695.734 159.11L702.828 157.133" stroke="#32D27E" stroke-miterlimit="10"/>
<path d="M532.288 147.857C532.288 147.857 543.245 156.248 552.429 156.624L580.04 157.758C584.285 157.935 590.054 160.827 591.847 164.682L600.663 183.682C604.058 190.996 603.455 200.981 593.76 209.259L583.782 217.785" stroke="#32D27E" stroke-linecap="round" stroke-linejoin="round"/>
<path d="M467.783 180.712L462.148 177.742" stroke="#32D27E" stroke-linecap="round" stroke-linejoin="round"/>
<path d="M490.531 154.42C482.516 155.682 473.82 149.637 473.82 149.637" stroke="#32D27E" stroke-linecap="round" stroke-linejoin="round"/>
<path d="M532.287 147.857L522.217 149.693" stroke="#32D27E" stroke-linecap="round" stroke-linejoin="round"/>
<path d="M523.727 132.181L522.749 128.283" stroke="#32D27E" stroke-linecap="round" stroke-linejoin="round"/>
<path d="M530.686 146.214C530.686 146.214 526.951 142.423 525.087 136.576" stroke="#32D27E" stroke-linecap="round" stroke-linejoin="round"/>
<path d="M555.114 287.287C551.585 285.764 546.504 282.05 544.973 273.135C544.739 271.753 545.427 270.378 546.681 269.754L558.36 263.865C560.033 263.022 562.393 263.496 563.605 264.921L570.451 272.957" stroke="#32D27E" stroke-linecap="round" stroke-linejoin="round"/>
<path d="M592.109 250.455L598.119 257.939" stroke="#32D27E" stroke-linecap="round" stroke-linejoin="round"/>
<path d="M598.118 249.426L602.434 254.798" stroke="#32D27E" stroke-linecap="round" stroke-linejoin="round"/>
<path d="M199.265 316.206C199.123 315.618 198.514 315.242 197.522 315.242H182.908C181.186 315.242 178.947 316.376 177.933 317.765C177.501 318.353 177.359 318.892 177.465 319.324L181.484 335.731L203.29 332.619L199.272 316.213L199.265 316.206Z" fill="#EBE9E9" stroke="black" stroke-miterlimit="10"/>
<path d="M201.532 331.643C203.254 331.643 203.828 332.776 202.815 334.166C201.802 335.555 199.562 336.689 197.84 336.689H183.227C181.505 336.689 180.93 335.555 181.944 334.166C182.957 332.776 185.197 331.643 186.919 331.643H201.532Z" fill="#EBE9E9" stroke="black" stroke-miterlimit="10"/>
<path d="M340.521 394.01C345.312 394.01 349.196 388.626 349.196 381.984C349.196 375.342 345.312 369.957 340.521 369.957C335.73 369.957 331.847 375.342 331.847 381.984C331.847 388.626 335.73 394.01 340.521 394.01Z" stroke="#32D27E" stroke-miterlimit="10"/>
<path d="M340.522 374.293H329.211V389.665H340.522C343.583 389.665 346.064 386.227 346.064 381.982C346.064 377.737 343.583 374.3 340.522 374.3V374.293Z" fill="#EBE9E9" stroke="black" stroke-miterlimit="10"/>
<path d="M329.218 389.665C332.279 389.665 334.76 386.226 334.76 381.983C334.76 377.74 332.279 374.301 329.218 374.301C326.157 374.301 323.676 377.74 323.676 381.983C323.676 386.226 326.157 389.665 329.218 389.665Z" fill="#EBE9E9" stroke="black" stroke-miterlimit="10"/>
<path d="M215.565 607.722C204.197 607.722 192.539 604.603 181.561 598.502C163.688 588.559 148.862 571.479 138.685 549.105C127.304 524.096 125.83 503.628 134.043 484.713C141.789 466.868 158.026 451.199 173.73 436.047C195.757 414.8 206.876 402.327 198.797 372.598L189.315 337.694C188.762 335.653 189.967 333.555 192.008 332.996C194.049 332.443 196.146 333.648 196.706 335.689L206.189 370.592C210.604 386.835 210.065 399.28 204.452 410.959C199.378 421.505 190.725 430.293 179.053 441.554C163.192 456.854 148.21 471.312 141.074 487.761C133.689 504.784 135.099 522.728 145.659 545.938C155.155 566.809 168.854 582.669 185.289 591.812C199.966 599.976 215.919 602.173 230.199 598.006C243.36 594.157 253.933 585.355 260.772 572.549C268.441 558.191 270.893 539.382 267.866 518.164L256.974 441.773C254.685 425.743 259.653 409.875 270.963 397.083C281.757 384.879 296.895 377.466 310.445 377.707L328.914 378.21C331.026 378.253 332.117 379.996 332.074 382.108C332.032 384.199 330.926 385.864 328.843 385.864C328.821 385.864 328.793 385.864 328.772 385.864L310.303 385.361C298.922 385.149 286.052 391.583 276.704 402.15C266.91 413.234 262.594 426.919 264.557 440.689L275.45 517.079C278.71 539.921 275.967 560.352 267.533 576.156C259.816 590.614 247.321 600.982 232.354 605.355C226.918 606.942 221.291 607.729 215.586 607.729L215.565 607.722Z" fill="black"/>
<path d="M324.824 385.745L310.282 385.348C309.425 385.327 308.567 385.348 307.695 385.412" stroke="#32D27E" stroke-miterlimit="10"/>
<path d="M310.424 377.693L324.718 378.083" stroke="#32D27E" stroke-miterlimit="10"/>
<path d="M188.705 335.71C188.465 334.697 189.939 333.485 192.001 332.996C194.056 332.507 195.92 332.932 196.161 333.946L196.693 335.689L189.308 337.695L188.705 335.71Z" fill="black"/>
</svg>
