<svg width="398" height="448" viewBox="0 0 398 448" fill="none" xmlns="http://www.w3.org/2000/svg">
<path d="M397.13 331.78C397.13 334.17 395.95 336.57 393.58 337.93L208.54 444.77C202.68 448.15 195.45 448.15 189.59 444.77L4.54993 337.93C2.17993 336.57 1 334.17 1 331.78C1 329.39 2.17993 326.99 4.54993 325.62L189.59 218.78C195.45 215.4 202.68 215.4 208.54 218.78L393.58 325.62C395.95 326.99 397.13 329.39 397.13 331.78Z" fill="#0F1B0E"/>
<path d="M397.13 120.58C397.13 122.97 395.95 125.37 393.58 126.73L208.54 233.57C202.68 236.95 195.45 236.95 189.59 233.57L4.54993 126.73C2.17993 125.37 1 122.97 1 120.58C1 118.19 2.17993 115.79 4.54993 114.42L189.59 7.57992C195.45 4.19992 202.68 4.19992 208.54 7.57992L393.58 114.42C395.95 115.79 397.13 118.19 397.13 120.58Z" fill="white" stroke="#0F1B0E" stroke-width="1.2" stroke-linecap="round" stroke-linejoin="round"/>
<path d="M337.429 120.58C337.429 122.25 336.599 123.92 334.939 124.87L300.05 145.02L286.78 152.68L205.679 199.51C201.579 201.87 196.529 201.87 192.439 199.51L111.33 152.68L98.0596 145.02L63.1694 124.87C61.5194 123.92 60.6895 122.25 60.6895 120.58C60.6895 118.91 61.5194 117.23 63.1694 116.27L192.439 41.6401C196.529 39.2801 201.579 39.2801 205.679 41.6401L334.939 116.27C336.599 117.23 337.429 118.91 337.429 120.58Z" fill="#2CEC85" stroke="#0F1B0E" stroke-width="1.2" stroke-linecap="round" stroke-linejoin="round"/>
<path d="M300.051 145.02L286.781 152.68L205.68 199.51C201.58 201.87 196.53 201.87 192.44 199.51L111.331 152.68L98.0605 145.02L192.44 90.5298C196.53 88.1698 201.58 88.1698 205.68 90.5298L300.051 145.02Z" fill="#05B757" stroke="#0F1B0E" stroke-width="1.2" stroke-linecap="round" stroke-linejoin="round"/>
<path d="M136.82 145.23C138.47 146.18 138.47 147.72 136.82 148.68C135.17 149.64 132.5 149.63 130.85 148.68C129.2 147.73 129.2 146.19 130.85 145.23C132.5 144.28 135.17 144.28 136.82 145.23Z" fill="#0F1B0E"/>
<path d="M152 136.47C153.65 137.42 153.65 138.96 152 139.92C150.35 140.87 147.68 140.87 146.03 139.92C144.38 138.97 144.38 137.43 146.03 136.47C147.68 135.52 150.35 135.52 152 136.47Z" fill="#0F1B0E"/>
<path d="M152 154C153.65 154.95 153.65 156.49 152 157.45C150.35 158.4 147.68 158.4 146.03 157.45C144.38 156.5 144.38 154.96 146.03 154C147.68 153.05 150.35 153.05 152 154Z" fill="#0F1B0E"/>
<path d="M243.091 136.47C244.741 137.42 244.741 138.96 243.091 139.92C241.441 140.87 238.77 140.87 237.12 139.92C235.47 138.97 235.47 137.43 237.12 136.47C238.77 135.52 241.441 135.52 243.091 136.47Z" fill="#0F1B0E"/>
<path d="M243.091 154C244.741 154.95 244.741 156.49 243.091 157.45C241.441 158.4 238.77 158.4 237.12 157.45C235.47 156.5 235.47 154.96 237.12 154C238.77 153.05 241.441 153.05 243.091 154Z" fill="#0F1B0E"/>
<path d="M258.27 145.23C259.92 146.18 259.92 147.72 258.27 148.68C256.62 149.63 253.95 149.63 252.3 148.68C250.65 147.73 250.65 146.19 252.3 145.23C253.95 144.28 256.62 144.28 258.27 145.23Z" fill="#0F1B0E"/>
<path d="M397.13 120.58V308C397.13 310.39 395.95 312.79 393.58 314.16L208.54 420.99C202.68 424.38 195.45 424.38 189.59 420.99L4.54993 314.16C2.17993 312.79 1 310.39 1 308V120.58C1 122.97 2.17993 125.37 4.54993 126.73L189.59 233.57C195.45 236.95 202.68 236.95 208.54 233.57L393.58 126.73C395.95 125.37 397.13 122.97 397.13 120.58Z" fill="#E5FAEF" stroke="#0F1B0E" stroke-width="1.2" stroke-miterlimit="10" stroke-linecap="round"/>
<path d="M21.4697 195.74C21.4697 202.03 22.8698 208.76 25.3198 215.33C25.9098 216.91 27.2798 218.12 28.2998 217.95L33.4497 217.08C34.3597 216.93 34.6296 215.73 34.1296 214.33C32.5896 210.07 31.7197 205.73 31.7197 201.66C31.7197 189 40.1196 183.46 50.8496 188.53C51.9296 189.04 52.7698 188.52 52.7698 187.27V180.21C52.7698 178.82 51.7498 177.11 50.5498 176.52C34.2998 168.45 21.4697 176.67 21.4697 195.74Z" fill="#05B757" stroke="#0F1B0E" stroke-width="1.2" stroke-linecap="round" stroke-linejoin="round"/>
<path d="M55.5904 241.78C55.4604 240.5 54.5603 239.07 53.5103 238.5C53.2603 238.37 53.0203 238.23 52.7703 238.09C48.0203 235.35 43.6402 231 40.1102 225.91C39.2602 224.68 38.0702 224.09 37.3602 224.59L33.2403 227.47C32.4403 228.03 32.5303 229.7 33.4703 231.1C38.7903 238.98 45.4903 245.72 52.7703 249.92C53.3103 250.23 53.8402 250.52 54.3602 250.8C55.5802 251.43 56.4904 250.71 56.3404 249.23L55.5904 241.78Z" fill="#2CEC85" stroke="#0F1B0E" stroke-width="1.2" stroke-linecap="round" stroke-linejoin="round"/>
<path d="M71.5204 235.66C69.5204 239.04 66.3102 240.9 62.3902 240.96C61.4402 240.97 60.9902 242 61.3902 243.37L63.6903 251.27C64.1403 252.82 65.4504 254.17 66.5304 254.19C72.7904 254.26 77.8703 251.31 80.9203 245.84C81.4503 244.89 80.9204 243.08 79.8004 241.92L74.1002 236C73.1102 234.97 72.0004 234.85 71.5104 235.67L71.5204 235.66Z" fill="#05B757" stroke="#0F1B0E" stroke-width="1.2" stroke-linecap="round" stroke-linejoin="round"/>
<path d="M60.3096 185.7L58.7295 191.62C58.4495 192.66 59.0295 194.22 60.0495 195.23C68.0895 203.28 73.8196 215.5 73.8196 225.96C73.8196 226.21 73.8196 226.46 73.8196 226.71C73.7896 227.91 74.5794 229.4 75.6294 230.15L81.7095 234.49C82.8995 235.34 83.9895 234.94 84.0495 233.59C84.0695 233.03 84.0896 232.45 84.0896 231.87C84.0896 216.07 75.2795 197.54 63.0095 185.57C61.8795 184.46 60.6496 184.54 60.3396 185.7H60.3096Z" fill="#2CEC85" stroke="#0F1B0E" stroke-width="1.2" stroke-linecap="round" stroke-linejoin="round"/>
<path d="M171.071 282.2C171.071 275.91 169.67 269.18 167.22 262.61C166.63 261.03 165.26 259.82 164.24 259.99L159.091 260.86C158.181 261.01 157.91 262.21 158.41 263.61C159.95 267.87 160.821 272.21 160.821 276.28C160.821 288.94 152.42 294.48 141.69 289.41C140.61 288.9 139.771 289.42 139.771 290.67V297.73C139.771 299.12 140.79 300.83 141.99 301.42C158.24 309.49 171.071 301.27 171.071 282.2Z" fill="#2CEC85" stroke="#0F1B0E" stroke-width="1.2" stroke-linecap="round" stroke-linejoin="round"/>
<path d="M136.95 236.16C137.08 237.44 137.98 238.87 139.03 239.44C139.28 239.57 139.52 239.71 139.77 239.85C144.52 242.59 148.9 246.94 152.43 252.03C153.28 253.26 154.47 253.85 155.18 253.35L159.3 250.47C160.1 249.91 160.01 248.24 159.07 246.84C153.75 238.96 147.05 232.22 139.77 228.02C139.23 227.71 138.7 227.42 138.18 227.14C136.96 226.51 136.05 227.23 136.2 228.71L136.95 236.16Z" fill="#05B757" stroke="#0F1B0E" stroke-width="1.2" stroke-linecap="round" stroke-linejoin="round"/>
<path d="M121.02 242.28C123.02 238.9 126.23 237.04 130.15 236.98C131.1 236.97 131.55 235.94 131.15 234.57L128.85 226.67C128.4 225.12 127.09 223.77 126.01 223.75C119.75 223.68 114.67 226.63 111.62 232.1C111.09 233.05 111.62 234.86 112.74 236.02L118.44 241.94C119.43 242.97 120.54 243.09 121.03 242.27L121.02 242.28Z" fill="#2CEC85" stroke="#0F1B0E" stroke-width="1.2" stroke-linecap="round" stroke-linejoin="round"/>
<path d="M132.23 292.24L133.81 286.32C134.09 285.28 133.51 283.721 132.49 282.711C124.45 274.661 118.72 262.44 118.72 251.98C118.72 251.73 118.72 251.48 118.72 251.23C118.75 250.03 117.96 248.54 116.91 247.79L110.83 243.451C109.64 242.601 108.55 243 108.49 244.35C108.47 244.91 108.45 245.49 108.45 246.07C108.45 261.87 117.26 280.4 129.53 292.37C130.66 293.48 131.89 293.4 132.2 292.24H132.23Z" fill="#05B757" stroke="#0F1B0E" stroke-width="1.2" stroke-linecap="round" stroke-linejoin="round"/>
<path d="M67.72 288.79L37.8201 271.53C35.4801 270.18 33.5801 266.55 33.5801 263.43C33.5801 260.31 35.4801 258.87 37.8201 260.22L67.72 277.48C70.06 278.83 71.96 282.46 71.96 285.58C71.96 288.7 70.06 290.14 67.72 288.79Z" fill="#2CEC85" stroke="#0F1B0E" stroke-width="1.2" stroke-linecap="round" stroke-linejoin="round"/>
<path d="M75.6599 312.72L29.8699 286.29C27.5299 284.94 25.6299 281.31 25.6299 278.19C25.6299 275.07 27.5299 273.63 29.8699 274.98L75.6599 301.41C77.9999 302.76 79.8999 306.39 79.8999 309.51C79.8999 312.63 77.9999 314.07 75.6599 312.72Z" fill="#05B757" stroke="#0F1B0E" stroke-width="1.2" stroke-linecap="round" stroke-linejoin="round"/>
<path d="M59.6497 322.83L45.8796 314.88C43.5396 313.53 41.6396 309.9 41.6396 306.78C41.6396 303.66 43.5396 302.22 45.8796 303.57L59.6497 311.52C61.9897 312.87 63.8896 316.5 63.8896 319.62C63.8896 322.74 61.9897 324.18 59.6497 322.83Z" fill="#2CEC85" stroke="#0F1B0E" stroke-width="1.2" stroke-linecap="round" stroke-linejoin="round"/>
<path d="M159.32 341.94L120.219 319.36C117.919 318.03 116.06 314.48 116.06 311.41C116.06 308.35 117.919 306.94 120.219 308.27L159.32 330.85C161.62 332.18 163.479 335.73 163.479 338.8C163.479 341.86 161.62 343.27 159.32 341.94Z" fill="#2CEC85" stroke="#0F1B0E" stroke-width="1.2" stroke-linecap="round" stroke-linejoin="round"/>
<path d="M149.439 355.21L130.099 344.04C127.799 342.71 125.939 339.16 125.939 336.09C125.939 333.03 127.799 331.62 130.099 332.95L149.439 344.12C151.739 345.45 153.599 349 153.599 352.07C153.599 355.13 151.739 356.54 149.439 355.21Z" fill="#05B757" stroke="#0F1B0E" stroke-width="1.2" stroke-linecap="round" stroke-linejoin="round"/>
<path d="M154.6 377.17L124.94 360.05C122.64 358.72 120.78 355.17 120.78 352.1C120.78 349.04 122.64 347.631 124.94 348.961L154.6 366.08C156.9 367.41 158.76 370.96 158.76 374.03C158.76 377.09 156.9 378.5 154.6 377.17Z" fill="#2CEC85" stroke="#0F1B0E" stroke-width="1.2" stroke-linecap="round" stroke-linejoin="round"/>
<path d="M230.6 300.77C230.6 300.77 253.78 262.65 272.13 287.87C290.48 313.09 317.29 291.18 327.91 266.75C337.21 245.37 346.79 212.19 369.38 199.39V273.19L230.6 353.32V300.77Z" fill="#05B757" stroke="#0F1B0E" stroke-width="1.2" stroke-linecap="round" stroke-linejoin="round"/>
<path d="M230.6 342.52C230.6 342.52 254.51 327.43 268.51 282.24C282.52 237.05 304.97 205.79 331.78 226.13C348.53 238.84 359.19 240.59 369.38 234.76V273.2L230.6 353.33V342.53V342.52Z" fill="#2CEC85" stroke="#0F1B0E" stroke-width="1.2" stroke-linecap="round" stroke-linejoin="round"/>
<path d="M230.6 254.33V363.31" stroke="#0F1B0E" stroke-width="1.2" stroke-miterlimit="10" stroke-linecap="round"/>
<path d="M236.969 377.62L224.229 384.98C222.319 386.08 220.77 384.91 220.77 382.36C220.77 379.8 222.319 376.84 224.229 375.73L236.969 368.37C238.879 367.27 240.429 368.44 240.429 370.99C240.429 373.55 238.879 376.51 236.969 377.62Z" fill="#2CEC85" stroke="#0F1B0E" stroke-width="1.2" stroke-linecap="round" stroke-linejoin="round"/>
<path d="M277.09 227.49V336.47" stroke="#0F1B0E" stroke-width="1.2" stroke-miterlimit="10" stroke-linecap="round"/>
<path d="M283.46 350.78L270.72 358.14C268.81 359.24 267.26 358.07 267.26 355.52C267.26 352.96 268.81 350 270.72 348.89L283.46 341.53C285.37 340.43 286.92 341.6 286.92 344.15C286.92 346.71 285.37 349.67 283.46 350.78Z" fill="#05B757" stroke="#0F1B0E" stroke-width="1.2" stroke-linecap="round" stroke-linejoin="round"/>
<path d="M323.58 200.65V309.63" stroke="#0F1B0E" stroke-width="1.2" stroke-miterlimit="10" stroke-linecap="round"/>
<path d="M329.95 323.94L317.21 331.3C315.3 332.4 313.75 331.23 313.75 328.68C313.75 326.12 315.3 323.16 317.21 322.05L329.95 314.69C331.86 313.59 333.41 314.76 333.41 317.31C333.41 319.87 331.86 322.83 329.95 323.94Z" fill="#2CEC85" stroke="#0F1B0E" stroke-width="1.2" stroke-linecap="round" stroke-linejoin="round"/>
<path d="M369.379 283.18V174.2" stroke="#0F1B0E" stroke-width="1.2" stroke-miterlimit="10" stroke-linecap="round"/>
<path d="M376.429 297.1L363.689 304.46C361.779 305.56 360.229 304.39 360.229 301.84C360.229 299.28 361.779 296.32 363.689 295.21L376.429 287.85C378.339 286.75 379.889 287.92 379.889 290.47C379.889 293.03 378.339 295.99 376.429 297.1Z" fill="#05B757" stroke="#0F1B0E" stroke-width="1.2" stroke-linecap="round" stroke-linejoin="round"/>
<path d="M277.65 180.99L267.42 175.08" stroke="#0F1B0E" stroke-width="1.2" stroke-linecap="round" stroke-linejoin="round"/>
<path d="M283.81 177.44L273.58 171.53" stroke="#0F1B0E" stroke-width="1.2" stroke-linecap="round" stroke-linejoin="round"/>
<path d="M289.96 173.89L279.73 167.98" stroke="#0F1B0E" stroke-width="1.2" stroke-linecap="round" stroke-linejoin="round"/>
<path d="M296.12 170.33L285.88 164.42" stroke="#0F1B0E" stroke-width="1.2" stroke-linecap="round" stroke-linejoin="round"/>
<path d="M302.27 166.78L292.04 160.87" stroke="#0F1B0E" stroke-width="1.2" stroke-linecap="round" stroke-linejoin="round"/>
<path d="M308.429 163.23L298.189 157.32" stroke="#0F1B0E" stroke-width="1.2" stroke-linecap="round" stroke-linejoin="round"/>
<path d="M106.22 160.87L95.9902 166.78" stroke="#0F1B0E" stroke-width="1.2" stroke-linecap="round" stroke-linejoin="round"/>
<path d="M112.381 164.42L102.141 170.33" stroke="#0F1B0E" stroke-width="1.2" stroke-linecap="round" stroke-linejoin="round"/>
<path d="M118.531 167.98L108.301 173.89" stroke="#0F1B0E" stroke-width="1.2" stroke-linecap="round" stroke-linejoin="round"/>
<path d="M124.68 171.53L114.45 177.44" stroke="#0F1B0E" stroke-width="1.2" stroke-linecap="round" stroke-linejoin="round"/>
<path d="M130.841 175.08L120.61 180.99" stroke="#0F1B0E" stroke-width="1.2" stroke-linecap="round" stroke-linejoin="round"/>
<path d="M136.99 178.64L126.76 184.55" stroke="#0F1B0E" stroke-width="1.2" stroke-linecap="round" stroke-linejoin="round"/>
<path d="M272 55.3701L261.77 61.28" stroke="#0F1B0E" stroke-width="1.2" stroke-linecap="round" stroke-linejoin="round"/>
<path d="M278.16 58.9302L267.92 64.8402" stroke="#0F1B0E" stroke-width="1.2" stroke-linecap="round" stroke-linejoin="round"/>
<path d="M284.31 62.48L274.08 68.39" stroke="#0F1B0E" stroke-width="1.2" stroke-linecap="round" stroke-linejoin="round"/>
<path d="M290.459 66.0303L280.229 71.9403" stroke="#0F1B0E" stroke-width="1.2" stroke-linecap="round" stroke-linejoin="round"/>
<path d="M296.62 69.5898L286.39 75.4999" stroke="#0F1B0E" stroke-width="1.2" stroke-linecap="round" stroke-linejoin="round"/>
<path d="M302.769 73.1401L292.539 79.05" stroke="#0F1B0E" stroke-width="1.2" stroke-linecap="round" stroke-linejoin="round"/>
<path d="M104.18 80.0897L93.9502 74.1797" stroke="#0F1B0E" stroke-width="1.2" stroke-linecap="round" stroke-linejoin="round"/>
<path d="M110.34 76.5398L100.1 70.6299" stroke="#0F1B0E" stroke-width="1.2" stroke-linecap="round" stroke-linejoin="round"/>
<path d="M116.49 72.9901L106.26 67.0801" stroke="#0F1B0E" stroke-width="1.2" stroke-linecap="round" stroke-linejoin="round"/>
<path d="M122.65 69.4299L112.41 63.52" stroke="#0F1B0E" stroke-width="1.2" stroke-linecap="round" stroke-linejoin="round"/>
<path d="M128.8 65.8798L118.57 59.9697" stroke="#0F1B0E" stroke-width="1.2" stroke-linecap="round" stroke-linejoin="round"/>
<path d="M134.951 62.33L124.721 56.4199" stroke="#0F1B0E" stroke-width="1.2" stroke-linecap="round" stroke-linejoin="round"/>
<path d="M194.02 149.41L250.82 64.9297L158.92 68.2997L194.02 149.41Z" stroke="#0F1B0E" stroke-width="1.2" stroke-linecap="round" stroke-linejoin="round"/>
<path d="M227.84 124.44C227.84 125.08 227.45 125.7 226.65 126.16L197.2 143.16C195.44 144.18 192.37 144.05 190.34 142.88L161.88 126.45C160.84 125.85 160.27 125.09 160.2 124.36V124.09C160.25 123.48 160.64 122.92 161.39 122.49L190.84 105.49C192.6 104.47 195.67 104.6 197.7 105.77L226.16 122.2C227.27 122.84 227.84 123.66 227.84 124.44Z" fill="white" stroke="#0F1B0E" stroke-width="1.2" stroke-linecap="round" stroke-linejoin="round"/>
<path d="M227.84 124.44V165.87C227.84 166.51 227.45 167.13 226.65 167.59L197.2 184.59C195.44 185.61 192.37 185.48 190.34 184.31L161.88 167.87C160.84 167.27 160.27 166.51 160.2 165.78V124.35C160.27 125.08 160.83 125.84 161.88 126.44L190.34 142.87C192.37 144.04 195.44 144.17 197.2 143.15L226.65 126.15C227.44 125.69 227.84 125.07 227.84 124.43V124.44Z" fill="#E5FAEF" stroke="#0F1B0E" stroke-width="1.2" stroke-linecap="round" stroke-linejoin="round"/>
<path d="M187.071 153.25V171.14C187.071 171.62 186.83 172.02 186.47 172.25L186.35 172.32C185.97 172.52 185.501 172.53 185.081 172.29L169.18 163.11C168.26 162.58 167.69 161.59 167.69 160.52V142.64C167.69 142.17 167.92 141.78 168.26 141.55L168.46 141.44C168.83 141.27 169.28 141.26 169.69 141.49L172.96 143.38L173.64 143.77L185.6 150.67C186.53 151.2 187.091 152.19 187.091 153.26L187.071 153.25Z" fill="#2CEC85" stroke="#0F1B0E" stroke-width="1.2" stroke-linecap="round" stroke-linejoin="round"/>
<path d="M187.07 153.25V166.53L175.11 159.63C174.19 159.1 173.62 158.11 173.62 157.04V143.76L185.58 150.66C186.51 151.19 187.07 152.18 187.07 153.25Z" fill="#05B757" stroke="#0F1B0E" stroke-width="1.2" stroke-linecap="round" stroke-linejoin="round"/>
<path d="M200.97 153.25V171.14C200.97 171.62 201.21 172.02 201.57 172.25L201.69 172.32C202.07 172.52 202.54 172.53 202.96 172.29L218.86 163.11C219.78 162.58 220.35 161.59 220.35 160.52V142.64C220.35 142.17 220.12 141.78 219.78 141.55L219.58 141.44C219.21 141.27 218.76 141.26 218.35 141.49L215.08 143.38L214.4 143.77L202.44 150.67C201.51 151.2 200.95 152.19 200.95 153.26L200.97 153.25Z" fill="#2CEC85" stroke="#0F1B0E" stroke-width="1.2" stroke-linecap="round" stroke-linejoin="round"/>
<path d="M200.971 153.25V166.53L212.931 159.63C213.851 159.1 214.421 158.11 214.421 157.04V143.76L202.461 150.66C201.531 151.19 200.971 152.18 200.971 153.25Z" fill="#05B757" stroke="#0F1B0E" stroke-width="1.2" stroke-linecap="round" stroke-linejoin="round"/>
<path d="M273.17 54.3298C273.17 54.7598 272.91 55.1698 272.38 55.4698L252.84 66.7499C251.67 67.4199 249.64 67.3398 248.29 66.5598L229.4 55.6598C228.71 55.2598 228.33 54.7599 228.29 54.2699V54.0898C228.32 53.6898 228.58 53.3098 229.08 53.0298L248.62 41.7499C249.79 41.0799 251.82 41.1598 253.17 41.9398L272.06 52.8398C272.8 53.2698 273.18 53.8098 273.18 54.3298H273.17Z" fill="white" stroke="#0F1B0E" stroke-width="1.2" stroke-linecap="round" stroke-linejoin="round"/>
<path d="M273.17 54.3297V81.8197C273.17 82.2497 272.91 82.6597 272.38 82.9597L252.84 94.2397C251.67 94.9097 249.64 94.8297 248.29 94.0497L229.4 83.1398C228.71 82.7398 228.33 82.2398 228.29 81.7498V54.2598C228.34 54.7398 228.71 55.2498 229.4 55.6498L248.29 66.5497C249.64 67.3297 251.67 67.4097 252.84 66.7397L272.38 55.4597C272.91 55.1597 273.17 54.7497 273.17 54.3197V54.3297Z" fill="#E5FAEF" stroke="#0F1B0E" stroke-width="1.2" stroke-linecap="round" stroke-linejoin="round"/>
<path d="M246.11 73.45V85.3199C246.11 85.6399 245.95 85.8999 245.71 86.0599L245.63 86.11C245.38 86.24 245.07 86.25 244.79 86.09L234.24 80C233.63 79.65 233.25 78.9899 233.25 78.2799V66.4099C233.25 66.0999 233.4 65.8399 233.63 65.6899L233.76 65.61C234.01 65.49 234.31 65.49 234.57 65.64L236.74 66.89L237.19 67.15L245.12 71.73C245.74 72.08 246.11 72.74 246.11 73.45Z" fill="#2CEC85" stroke="#0F1B0E" stroke-width="1.2" stroke-linecap="round" stroke-linejoin="round"/>
<path d="M255.34 73.45V85.3199C255.34 85.6399 255.5 85.8999 255.74 86.0599L255.82 86.11C256.07 86.24 256.38 86.25 256.66 86.09L267.21 80C267.82 79.65 268.2 78.9899 268.2 78.2799V66.4099C268.2 66.0999 268.05 65.8399 267.82 65.6899L267.69 65.61C267.44 65.49 267.14 65.49 266.88 65.64L264.71 66.89L264.26 67.15L256.33 71.73C255.71 72.08 255.34 72.74 255.34 73.45Z" fill="#05B757" stroke="#0F1B0E" stroke-width="1.2" stroke-linecap="round" stroke-linejoin="round"/>
<path d="M184.82 52.4698C184.82 52.9498 184.53 53.3998 183.94 53.7398L162.17 66.3098C160.87 67.0598 158.6 66.9698 157.1 66.0998L136.06 53.9498C135.29 53.5098 134.87 52.9399 134.82 52.3999V52.1998C134.85 51.7498 135.14 51.3299 135.7 51.0099L157.47 38.4398C158.77 37.6898 161.04 37.7799 162.54 38.6499L183.58 50.7998C184.4 51.2798 184.82 51.8798 184.82 52.4598V52.4698Z" fill="white" stroke="#0F1B0E" stroke-width="1.2" stroke-linecap="round" stroke-linejoin="round"/>
<path d="M184.82 52.4698V83.0999C184.82 83.5799 184.53 84.0299 183.94 84.3699L162.17 96.9398C160.87 97.6898 158.6 97.5999 157.1 96.7299L136.06 84.5798C135.29 84.1398 134.87 83.5698 134.82 83.0298V52.3999C134.87 52.9399 135.29 53.4998 136.06 53.9498L157.1 66.0999C158.6 66.9699 160.87 67.0598 162.17 66.3098L183.94 53.7399C184.53 53.3999 184.82 52.9498 184.82 52.4698Z" fill="#E5FAEF" stroke="#0F1B0E" stroke-width="1.2" stroke-linecap="round" stroke-linejoin="round"/>
<path d="M154.67 73.77V86.9999C154.67 87.3599 154.49 87.6499 154.23 87.8199L154.14 87.8699C153.86 88.0199 153.51 88.0299 153.2 87.8499L141.44 81.0699C140.76 80.6799 140.34 79.95 140.34 79.15V65.9299C140.34 65.5799 140.51 65.2899 140.76 65.1199L140.91 65.0399C141.19 64.9099 141.52 64.8999 141.82 65.0799L144.24 66.4799L144.74 66.77L153.58 71.8699C154.27 72.2599 154.68 72.9899 154.68 73.7799L154.67 73.77Z" fill="#2CEC85" stroke="#0F1B0E" stroke-width="1.2" stroke-linecap="round" stroke-linejoin="round"/>
<path d="M164.95 73.77V86.9999C164.95 87.3599 165.13 87.6499 165.39 87.8199L165.48 87.8699C165.76 88.0199 166.11 88.0299 166.42 87.8499L178.18 81.0699C178.86 80.6799 179.281 79.95 179.281 79.15V65.9299C179.281 65.5799 179.11 65.2899 178.86 65.1199L178.71 65.0399C178.43 64.9099 178.101 64.8999 177.801 65.0799L175.38 66.4799L174.88 66.77L166.041 71.8699C165.351 72.2599 164.94 72.9899 164.94 73.7799L164.95 73.77Z" fill="#05B757" stroke="#0F1B0E" stroke-width="1.2" stroke-linecap="round" stroke-linejoin="round"/>
<path d="M379.34 119.49C379.34 120.14 379.22 120.79 378.98 121.43C378.36 123.05 376.97 124.59 374.78 125.85C368.7 129.36 358.84 129.36 352.76 125.85C350.58 124.59 349.18 123.05 348.56 121.43C348.32 120.79 348.2 120.14 348.2 119.49C348.2 117.19 349.72 114.89 352.76 113.13C358.84 109.62 368.7 109.62 374.78 113.13C377.82 114.89 379.34 117.19 379.34 119.49Z" fill="#2CEC85" stroke="#0F1B0E" stroke-width="1.2" stroke-miterlimit="10" stroke-linecap="round"/>
<path d="M372.42 105.49C372.42 100.71 368.55 96.8398 363.77 96.8398C358.99 96.8398 355.12 100.71 355.12 105.49V119.49C355.12 119.73 355.19 119.98 355.32 120.22C355.66 120.83 356.44 121.41 357.65 121.88C361.03 123.2 366.5 123.2 369.88 121.88C371.09 121.41 371.87 120.83 372.21 120.22C372.34 119.98 372.41 119.74 372.41 119.49V105.49H372.42Z" fill="white" stroke="#0F1B0E" stroke-width="1.2" stroke-linecap="round" stroke-linejoin="round"/>
<path d="M363.771 105.58V122.88" stroke="#0F1B0E" stroke-width="1.2" stroke-linecap="round" stroke-linejoin="round"/>
<path d="M214.64 216.7C214.64 217.35 214.52 218 214.28 218.64C213.66 220.26 212.27 221.8 210.08 223.06C204 226.57 194.14 226.57 188.06 223.06C185.88 221.8 184.48 220.26 183.86 218.64C183.62 218 183.5 217.35 183.5 216.7C183.5 214.4 185.02 212.1 188.06 210.34C194.14 206.83 204 206.83 210.08 210.34C213.12 212.1 214.64 214.4 214.64 216.7Z" fill="#2CEC85" stroke="#0F1B0E" stroke-width="1.2" stroke-miterlimit="10" stroke-linecap="round"/>
<path d="M207.71 202.69C207.71 197.91 203.84 194.04 199.06 194.04C194.28 194.04 190.41 197.91 190.41 202.69V216.69C190.41 216.93 190.48 217.18 190.61 217.42C190.95 218.03 191.73 218.61 192.94 219.08C196.32 220.4 201.79 220.4 205.17 219.08C206.38 218.61 207.16 218.03 207.5 217.42C207.63 217.18 207.7 216.94 207.7 216.69V202.69H207.71Z" fill="white" stroke="#0F1B0E" stroke-width="1.2" stroke-linecap="round" stroke-linejoin="round"/>
<path d="M199.061 202.78V220.08" stroke="#0F1B0E" stroke-width="1.2" stroke-linecap="round" stroke-linejoin="round"/>
<path d="M214.64 23.6498C214.64 24.2998 214.52 24.9498 214.28 25.5898C213.66 27.2098 212.27 28.7498 210.08 30.0098C204 33.5198 194.14 33.5198 188.06 30.0098C185.88 28.7498 184.48 27.2098 183.86 25.5898C183.62 24.9498 183.5 24.2998 183.5 23.6498C183.5 21.3498 185.02 19.0497 188.06 17.2897C194.14 13.7797 204 13.7797 210.08 17.2897C213.12 19.0497 214.64 21.3498 214.64 23.6498Z" fill="#2CEC85" stroke="#0F1B0E" stroke-width="1.2" stroke-miterlimit="10" stroke-linecap="round"/>
<path d="M207.71 9.65002C207.71 4.87002 203.84 1 199.06 1C194.28 1 190.41 4.87002 190.41 9.65002V23.65C190.41 23.89 190.48 24.14 190.61 24.38C190.95 24.99 191.73 25.5699 192.94 26.0399C196.32 27.3599 201.79 27.3599 205.17 26.0399C206.38 25.5699 207.16 24.99 207.5 24.38C207.63 24.14 207.7 23.9 207.7 23.65V9.65002H207.71Z" fill="white" stroke="#0F1B0E" stroke-width="1.2" stroke-linecap="round" stroke-linejoin="round"/>
<path d="M199.061 9.74023V27.0302" stroke="#0F1B0E" stroke-width="1.2" stroke-linecap="round" stroke-linejoin="round"/>
<path d="M48.2603 119.49C48.2603 120.14 48.1401 120.79 47.9001 121.43C47.2801 123.05 45.8902 124.59 43.7002 125.85C37.6202 129.36 27.7602 129.36 21.6802 125.85C19.5002 124.59 18.1002 123.05 17.4802 121.43C17.2402 120.79 17.1201 120.14 17.1201 119.49C17.1201 117.19 18.6402 114.89 21.6802 113.13C27.7602 109.62 37.6202 109.62 43.7002 113.13C46.7402 114.89 48.2603 117.19 48.2603 119.49Z" fill="#2CEC85" stroke="#0F1B0E" stroke-width="1.2" stroke-miterlimit="10" stroke-linecap="round"/>
<path d="M41.3401 105.49C41.3401 100.71 37.4699 96.8398 32.6899 96.8398C27.9099 96.8398 24.04 100.71 24.04 105.49V119.49C24.04 119.73 24.11 119.98 24.24 120.22C24.58 120.83 25.3601 121.41 26.5701 121.88C29.9501 123.2 35.42 123.2 38.8 121.88C40.01 121.41 40.7899 120.83 41.1299 120.22C41.2599 119.98 41.3301 119.74 41.3301 119.49V105.49H41.3401Z" fill="white" stroke="#0F1B0E" stroke-width="1.2" stroke-linecap="round" stroke-linejoin="round"/>
<path d="M32.6904 105.58V122.88" stroke="#0F1B0E" stroke-width="1.2" stroke-linecap="round" stroke-linejoin="round"/>
</svg>
