<svg width="24" height="25" viewBox="0 0 24 25" fill="none" xmlns="http://www.w3.org/2000/svg">
<path d="M8 11.9002C8 12.6702 8.6 13.3002 9.33 13.3002H10.83C11.47 13.3002 11.99 12.7502 11.99 12.0802C11.99 11.3502 11.67 11.0902 11.2 10.9202L8.8 10.0802C8.32 9.9102 8 9.6502 8 8.9202C8 8.2502 8.52 7.7002 9.16 7.7002H10.66C11.4 7.7102 12 8.3302 12 9.1002" stroke="#00BF52" strokeWidth="1.5" strokeLinecap="round" strokeLinejoin="round"/>
<path d="M10 13.3496V14.0896" stroke="#00BF52" strokeWidth="1.5" strokeLinecap="round" strokeLinejoin="round"/>
<path d="M10 6.91016V7.69016" stroke="#00BF52" strokeWidth="1.5" strokeLinecap="round" strokeLinejoin="round"/>
<path d="M9.99 18.48C14.4028 18.48 17.98 14.9028 17.98 10.49C17.98 6.07724 14.4028 2.5 9.99 2.5C5.57724 2.5 2 6.07724 2 10.49C2 14.9028 5.57724 18.48 9.99 18.48Z" stroke="#111111" strokeWidth="1.5" strokeLinecap="round" strokeLinejoin="round"/>
<path d="M12.98 20.38C13.88 21.65 15.35 22.48 17.03 22.48C19.76 22.48 21.98 20.26 21.98 17.53C21.98 15.87 21.16 14.4 19.91 13.5" stroke="#00BF52" strokeWidth="1.5" strokeLinecap="round" strokeLinejoin="round"/>
</svg>
