<svg width="24" height="25" viewBox="0 0 24 25" fill="none" xmlns="http://www.w3.org/2000/svg">
<g id="vuesax/twotone/discount-shape">
<g id="discount-shape">
<path id="Vector" d="M3.98987 15.1599L2.46988 13.6399C1.84988 13.0199 1.84988 11.9999 2.46988 11.3799L3.98987 9.8599C4.24987 9.5999 4.45987 9.08989 4.45987 8.72989V6.57987C4.45987 5.69987 5.17988 4.97989 6.05988 4.97989H8.20987C8.56987 4.97989 9.07988 4.76992 9.33988 4.50992L10.8599 2.9899C11.4799 2.3699 12.4999 2.3699 13.1199 2.9899L14.6399 4.50992C14.8999 4.76992 15.4099 4.97989 15.7699 4.97989H17.9199C18.7999 4.97989 19.5199 5.69987 19.5199 6.57987V8.72989C19.5199 9.08989 19.7299 9.5999 19.9899 9.8599L21.5099 11.3799C22.1299 11.9999 22.1299 13.0199 21.5099 13.6399L19.9899 15.1599C19.7299 15.4199 19.5199 15.93 19.5199 16.29V18.4399C19.5199 19.3199 18.7999 20.04 17.9199 20.04H15.7699C15.4099 20.04 14.8999 20.2499 14.6399 20.5099L13.1199 22.0299C12.4999 22.6499 11.4799 22.6499 10.8599 22.0299L9.33988 20.5099C9.07988 20.2499 8.56987 20.04 8.20987 20.04H6.05988C5.17988 20.04 4.45987 19.3199 4.45987 18.4399V16.29C4.45987 15.92 4.24987 15.4099 3.98987 15.1599Z" stroke="#111111" strokeWidth="1.5" strokeLinecap="round" strokeLinejoin="round"/>
<path id="Vector_2" d="M9 15.5L15 9.5" stroke="#00BF52" strokeWidth="1.5" strokeLinecap="round" strokeLinejoin="round"/>
<path id="Vector_3" d="M14.4945 15H14.5035" stroke="#00BF52" strokeWidth="2" strokeLinecap="round" strokeLinejoin="round"/>
<path id="Vector_4" d="M9.49451 10H9.50349" stroke="#00BF52" strokeWidth="2" strokeLinecap="round" strokeLinejoin="round"/>
</g>
</g>
</svg>
