<svg width="24" height="25" viewBox="0 0 24 25" fill="none" xmlns="http://www.w3.org/2000/svg">
<g id="vuesax/twotone/receipt-edit">
<g id="receipt-edit">
<path id="Vector" d="M20.5 11.8V7.54001C20.5 3.51001 19.56 2.5 15.78 2.5H8.22C4.44 2.5 3.5 3.51001 3.5 7.54001V18.8C3.5 21.46 4.96001 22.09 6.73001 20.19L6.73999 20.18C7.55999 19.31 8.80999 19.38 9.51999 20.33L10.53 21.68" stroke="#111111" strokeWidth="1.5" strokeLinecap="round" strokeLinejoin="round"/>
<path id="Vector_2" d="M8 7.5H16" stroke="#00BF52" strokeWidth="1.5" strokeLinecap="round" strokeLinejoin="round"/>
<path id="Vector_3" d="M9 11.5H15" stroke="#00BF52" strokeWidth="1.5" strokeLinecap="round" strokeLinejoin="round"/>
<g id="Group">
<path id="Vector_4" d="M18.21 15.2698L14.6701 18.8098C14.5301 18.9498 14.4 19.2098 14.37 19.3998L14.18 20.7498C14.11 21.2398 14.45 21.5798 14.94 21.5098L16.29 21.3198C16.48 21.2898 16.75 21.1598 16.88 21.0198L20.4201 17.4798C21.0301 16.8698 21.3201 16.1598 20.4201 15.2598C19.5301 14.3698 18.82 14.6598 18.21 15.2698Z" stroke="#111111" strokeWidth="1.5" stroke-miterlimit="10" strokeLinecap="round" strokeLinejoin="round"/>
<path id="Vector_5" d="M17.7002 15.7798C18.0002 16.8598 18.8402 17.6998 19.9202 17.9998" stroke="#111111" strokeWidth="1.5" stroke-miterlimit="10" strokeLinecap="round" strokeLinejoin="round"/>
</g>
</g>
</g>
</svg>
