<svg width="340" height="321" viewBox="0 0 340 321" fill="none" xmlns="http://www.w3.org/2000/svg">
<g clip-path="url(#clip0_3050_26411)">
<path d="M331.777 209.922C331.794 212.812 331.04 215.655 329.593 218.158C328.146 220.66 326.058 222.733 323.543 224.163L308.881 232.626L190.588 300.835C187.8 302.451 184.833 303.734 181.746 304.658C180.188 305.125 178.604 305.495 177.001 305.767C167.523 307.393 157.775 305.655 149.446 300.853L31.1184 232.626L16.456 224.163C13.9523 222.72 11.8731 220.645 10.4274 218.145C8.98179 215.645 8.2207 212.809 8.2207 209.922C8.2207 207.036 8.98179 204.2 10.4274 201.7C11.8731 199.2 13.9523 197.124 16.456 195.682L149.423 119.009C155.681 115.402 162.78 113.502 170.005 113.502C177.231 113.502 184.33 115.402 190.588 119.009L323.543 195.682C326.058 197.111 328.147 199.184 329.594 201.687C331.041 204.19 331.795 207.032 331.777 209.922Z" fill="#F2F3F5" fill-opacity="0.1"/>
<path d="M170.017 306.993C167.638 306.999 165.263 306.804 162.917 306.409C161.291 306.129 159.683 305.755 158.101 305.289C154.961 304.36 151.942 303.063 149.107 301.425L16.1404 224.7C13.541 223.201 11.3824 221.045 9.88157 218.449C8.38077 215.853 7.59067 212.908 7.59067 209.911C7.59067 206.913 8.38077 203.968 9.88157 201.372C11.3824 198.776 13.541 196.62 16.1404 195.121L149.107 118.478C155.465 114.827 162.671 112.906 170.005 112.906C177.339 112.906 184.545 114.827 190.903 118.478L323.864 195.133C326.464 196.632 328.622 198.788 330.123 201.384C331.624 203.98 332.414 206.925 332.414 209.922C332.414 212.92 331.624 215.865 330.123 218.461C328.622 221.057 326.464 223.213 323.864 224.712L190.903 301.384C188.064 303.02 185.041 304.315 181.898 305.242C180.317 305.716 178.709 306.092 177.082 306.368C174.749 306.777 172.386 306.986 170.017 306.993ZM170.017 114.171C162.904 114.167 155.915 116.03 149.75 119.575L16.7716 196.23C14.3651 197.618 12.3668 199.614 10.9774 202.017C9.58805 204.421 8.85661 207.147 8.85661 209.922C8.85661 212.698 9.58805 215.424 10.9774 217.827C12.3668 220.231 14.3651 222.227 16.7716 223.614L149.739 300.287C152.49 301.872 155.419 303.129 158.464 304.034C160 304.485 161.561 304.848 163.139 305.119C172.473 306.724 182.074 305.014 190.278 300.287L323.227 223.614C325.635 222.228 327.635 220.232 329.026 217.829C330.416 215.425 331.148 212.698 331.148 209.922C331.148 207.146 330.416 204.419 329.026 202.016C327.635 199.612 325.635 197.617 323.227 196.23L190.266 119.558C184.104 116.012 177.117 114.148 170.005 114.153L170.017 114.171Z" fill="#CACCD8"/>
<path d="M87.7227 306.678C90.9631 306.678 93.59 305.165 93.59 303.298C93.59 301.432 90.9631 299.919 87.7227 299.919C84.4823 299.919 81.8554 301.432 81.8554 303.298C81.8554 305.165 84.4823 306.678 87.7227 306.678Z" fill="#F2F3F5" fill-opacity="0.1"/>
<path d="M87.7228 307.32C86.1667 307.346 84.6298 306.974 83.258 306.24C81.9432 305.481 81.2185 304.436 81.2185 303.322C81.2185 302.207 81.9432 301.139 83.258 300.403C84.6388 299.693 86.1696 299.322 87.7228 299.322C89.2761 299.322 90.8068 299.693 92.1876 300.403C93.4966 301.162 94.2213 302.207 94.2213 303.322C94.2213 304.436 93.4966 305.504 92.1876 306.24C90.8153 306.973 89.2787 307.344 87.7228 307.32ZM87.7228 300.544C86.3883 300.517 85.0689 300.83 83.8892 301.454C82.9892 301.973 82.4925 302.621 82.4925 303.298C82.4925 303.975 82.9892 304.617 83.8892 305.137C85.0763 305.738 86.3887 306.052 87.7199 306.052C89.051 306.052 90.3634 305.738 91.5506 305.137C92.4506 304.617 92.9473 303.969 92.9473 303.298C92.9473 302.627 92.4506 301.979 91.5506 301.454C90.37 300.841 89.0529 300.538 87.7228 300.573V300.544Z" fill="#CACCD8"/>
<path d="M62.7282 320.358C65.9686 320.358 68.5955 318.845 68.5955 316.979C68.5955 315.112 65.9686 313.6 62.7282 313.6C59.4878 313.6 56.8609 315.112 56.8609 316.979C56.8609 318.845 59.4878 320.358 62.7282 320.358Z" fill="#F2F3F5" fill-opacity="0.1"/>
<path d="M62.7283 321C61.1714 321.027 59.6338 320.653 58.2635 319.914C56.9486 319.162 56.224 318.117 56.224 316.996C56.224 315.876 56.9486 314.808 58.2635 314.078C59.6438 313.366 61.1748 312.995 62.7283 312.995C64.2818 312.995 65.8127 313.366 67.193 314.078C68.5021 314.831 69.2267 315.876 69.2267 316.996C69.2267 318.117 68.5021 319.179 67.193 319.914C65.8228 320.653 64.2852 321.027 62.7283 321ZM62.7283 314.218C61.3932 314.193 60.0739 314.509 58.8947 315.134C57.9947 315.654 57.498 316.302 57.498 316.979C57.498 317.656 57.9947 318.298 58.8947 318.817C60.0818 319.419 61.3942 319.732 62.7254 319.732C64.0565 319.732 65.3689 319.419 66.5561 318.817C67.456 318.298 67.9586 317.65 67.9586 316.979C67.9586 316.308 67.456 315.654 66.5561 315.134C65.3787 314.509 64.0614 314.194 62.7283 314.218Z" fill="#CACCD8"/>
<path d="M39.4521 310.337C42.6925 310.337 45.3194 308.824 45.3194 306.958C45.3194 305.091 42.6925 303.579 39.4521 303.579C36.2116 303.579 33.5847 305.091 33.5847 306.958C33.5847 308.824 36.2116 310.337 39.4521 310.337Z" fill="#F2F3F5" fill-opacity="0.1"/>
<path d="M39.452 310.985C37.8961 311.015 36.3586 310.646 34.9872 309.911C33.6724 309.152 32.9536 308.108 32.9536 306.993C32.9536 305.878 33.6724 304.81 34.9872 304.075C36.3671 303.361 37.8982 302.989 39.452 302.989C41.0058 302.989 42.5369 303.361 43.9168 304.075C45.2258 304.828 45.9505 305.872 45.9505 306.993C45.9505 308.113 45.2258 309.176 43.9168 309.911C42.5454 310.646 41.0079 311.015 39.452 310.985ZM39.452 304.221C38.1281 304.194 36.8191 304.503 35.6476 305.119C34.7418 305.639 34.2451 306.287 34.2451 306.958C34.2451 307.629 34.7418 308.283 35.6476 308.802C36.8371 309.392 38.1472 309.7 39.4754 309.7C40.8036 309.7 42.1137 309.392 43.3032 308.802C44.209 308.283 44.7057 307.635 44.7057 306.958C44.7057 306.281 44.209 305.639 43.3032 305.119C42.1178 304.495 40.7916 304.186 39.452 304.221Z" fill="#CACCD8"/>
<path d="M38.8149 303.578V295.991C38.8149 294.666 39.6973 293.4 41.2401 292.489L88.4123 265.292L89.0435 266.389L41.8713 293.627C40.7375 294.281 40.083 295.151 40.083 296.009V303.596L38.8149 303.578Z" fill="#CACCD8"/>
<path d="M88.354 299.919H87.0741V292.332C87.0741 291.007 87.9566 289.735 89.4935 288.83L109.363 277.373L110 278.476L90.1305 289.927C88.9968 290.581 88.3423 291.45 88.3423 292.308L88.354 299.919Z" fill="#CACCD8"/>
<path d="M63.3595 313.594H62.0913V294.783C62.0913 293.458 62.9738 292.192 64.5107 291.281L98.9899 271.403L99.6269 272.5L65.1477 292.378C64.014 293.032 63.3595 293.902 63.3595 294.76V313.594Z" fill="#CACCD8"/>
<path d="M30.2245 266.197C33.4649 266.197 36.0918 264.684 36.0918 262.817C36.0918 260.951 33.4649 259.438 30.2245 259.438C26.984 259.438 24.3571 260.951 24.3571 262.817C24.3571 264.684 26.984 266.197 30.2245 266.197Z" fill="#F2F3F5" fill-opacity="0.1"/>
<path d="M30.2244 266.844C28.6675 266.871 27.1299 266.497 25.7596 265.759C24.4448 265.006 23.726 263.961 23.726 262.841C23.726 261.72 24.4448 260.658 25.7596 259.922C27.1404 259.212 28.6712 258.841 30.2244 258.841C31.7777 258.841 33.3084 259.212 34.6892 259.922C35.9982 260.675 36.7229 261.72 36.7229 262.841C36.7229 263.961 35.9982 265.029 34.6892 265.759C33.3189 266.497 31.7813 266.871 30.2244 266.844ZM26.3966 261.008C25.4908 261.527 24.9941 262.175 24.9941 262.847C24.9941 263.518 25.4908 264.171 26.3966 264.691C27.5828 265.292 28.8942 265.606 30.2244 265.606C31.5546 265.606 32.8661 265.292 34.0522 264.691C34.958 264.171 35.4547 263.524 35.4547 262.847C35.4547 262.169 34.958 261.527 34.0522 261.008C32.8656 260.408 31.5544 260.095 30.2244 260.095C28.8944 260.095 27.5832 260.408 26.3966 261.008Z" fill="#CACCD8"/>
<path d="M6.49805 280.612C9.73847 280.612 12.3654 279.1 12.3654 277.233C12.3654 275.367 9.73847 273.854 6.49805 273.854C3.25762 273.854 0.630737 275.367 0.630737 277.233C0.630737 279.1 3.25762 280.612 6.49805 280.612Z" fill="#F2F3F5" fill-opacity="0.1"/>
<path d="M6.498 281.254C4.942 281.28 3.40527 280.908 2.03323 280.175C0.72419 279.416 -0.000457764 278.395 -0.000457764 277.227C-0.000457764 276.06 0.72419 275.044 2.03323 274.309C3.41397 273.599 4.94474 273.228 6.498 273.228C8.05125 273.228 9.58202 273.599 10.9628 274.309C12.2776 275.068 13.0023 276.113 13.0023 277.227C13.0023 278.342 12.2776 279.41 10.9628 280.145C9.59372 280.89 8.05664 281.271 6.498 281.254ZM2.67022 275.418C1.76441 275.937 1.26768 276.585 1.26768 277.262C1.26768 277.939 1.76441 278.581 2.67022 279.101C3.85737 279.702 5.16977 280.016 6.50092 280.016C7.83207 280.016 9.14447 279.702 10.3316 279.101C11.2316 278.581 11.7283 277.933 11.7283 277.262C11.7283 276.591 11.2316 275.937 10.3316 275.418C9.14365 274.819 7.83157 274.507 6.50092 274.507C5.17027 274.507 3.85819 274.819 2.67022 275.418Z" fill="#CACCD8"/>
<path d="M49.2171 263.453H36.0858V262.187H49.2171C50.875 262.217 52.5135 261.827 53.9799 261.055L67.4911 253.298L68.1223 254.395L54.6111 262.158C52.9539 263.044 51.0966 263.49 49.2171 263.453Z" fill="#CACCD8"/>
<path d="M44.9979 277.864H12.3654V276.597H44.9979C46.6529 276.631 48.2895 276.245 49.7549 275.476L77.8759 259.263L78.507 260.36L50.3919 276.568C48.7346 277.454 46.8773 277.9 44.9979 277.864Z" fill="#CACCD8"/>
<path d="M252.282 306.678C255.523 306.678 258.15 305.165 258.15 303.298C258.15 301.432 255.523 299.919 252.282 299.919C249.042 299.919 246.415 301.432 246.415 303.298C246.415 305.165 249.042 306.678 252.282 306.678Z" fill="#F2F3F5" fill-opacity="0.1"/>
<path d="M252.282 307.32C250.726 307.346 249.189 306.974 247.817 306.24C246.502 305.481 245.778 304.436 245.778 303.322C245.778 302.207 246.502 301.139 247.817 300.403C249.198 299.693 250.729 299.322 252.282 299.322C253.835 299.322 255.366 299.693 256.747 300.403C258.056 301.162 258.78 302.207 258.78 303.322C258.78 304.436 258.056 305.504 256.747 306.24C255.375 306.974 253.838 307.346 252.282 307.32ZM248.448 305.137C249.636 305.738 250.948 306.052 252.279 306.052C253.61 306.052 254.923 305.738 256.11 305.137C257.016 304.617 257.512 303.969 257.512 303.298C257.512 302.627 257.016 301.973 256.11 301.454C254.922 300.855 253.61 300.543 252.279 300.543C250.948 300.543 249.636 300.855 248.448 301.454C247.548 301.973 247.052 302.621 247.052 303.298C247.052 303.975 247.548 304.617 248.448 305.137Z" fill="#CACCD8"/>
<path d="M277.277 320.358C280.517 320.358 283.144 318.845 283.144 316.979C283.144 315.112 280.517 313.6 277.277 313.6C274.036 313.6 271.409 315.112 271.409 316.979C271.409 318.845 274.036 320.358 277.277 320.358Z" fill="#F2F3F5" fill-opacity="0.1"/>
<path d="M277.277 321C275.72 321.027 274.182 320.653 272.812 319.914C271.497 319.162 270.772 318.117 270.772 316.996C270.772 315.876 271.497 314.808 272.812 314.078C274.192 313.365 275.723 312.992 277.277 312.992C278.83 312.992 280.361 313.365 281.741 314.078C283.05 314.831 283.775 315.876 283.775 316.996C283.775 318.117 283.05 319.179 281.741 319.914C280.371 320.653 278.833 321.026 277.277 321ZM273.443 318.817C274.63 319.419 275.942 319.732 277.274 319.732C278.605 319.732 279.917 319.419 281.104 318.817C282.01 318.298 282.507 317.65 282.507 316.979C282.507 316.308 282.01 315.654 281.104 315.134C279.917 314.533 278.605 314.22 277.274 314.22C275.942 314.22 274.63 314.533 273.443 315.134C272.543 315.654 272.046 316.302 272.046 316.979C272.046 317.656 272.543 318.298 273.443 318.817Z" fill="#CACCD8"/>
<path d="M300.547 310.337C303.788 310.337 306.414 308.824 306.414 306.958C306.414 305.091 303.788 303.579 300.547 303.579C297.307 303.579 294.68 305.091 294.68 306.958C294.68 308.824 297.307 310.337 300.547 310.337Z" fill="#F2F3F5" fill-opacity="0.1"/>
<path d="M300.547 310.985C298.992 311.011 297.457 310.637 296.088 309.899C294.773 309.141 294.049 308.096 294.049 306.981C294.049 305.866 294.773 304.798 296.088 304.063C297.467 303.35 298.997 302.977 300.55 302.977C302.103 302.977 303.633 303.35 305.012 304.063C306.327 304.816 307.051 305.861 307.051 306.981C307.051 308.102 306.327 309.164 305.012 309.899C303.642 310.638 302.104 311.012 300.547 310.985ZM300.547 304.203C299.214 304.176 297.896 304.492 296.719 305.119C295.819 305.639 295.323 306.287 295.323 306.958C295.323 307.629 295.819 308.283 296.719 308.802C297.907 309.401 299.219 309.713 300.55 309.713C301.881 309.713 303.193 309.401 304.381 308.802C305.281 308.283 305.777 307.635 305.777 306.958C305.777 306.281 305.281 305.639 304.381 305.119C303.202 304.491 301.882 304.176 300.547 304.203Z" fill="#CACCD8"/>
<path d="M301.184 303.579H299.916V295.991C299.916 295.133 299.262 294.24 298.128 293.61L250.956 266.413L251.593 265.315L298.765 292.513C300.302 293.4 301.184 294.666 301.184 296.015V303.579Z" fill="#CACCD8"/>
<path d="M252.913 299.919H251.645V292.332C251.645 291.474 250.996 290.581 249.857 289.951L229.987 278.5L230.619 277.397L250.488 288.853C252.025 289.735 252.907 291.007 252.907 292.355L252.913 299.919Z" fill="#CACCD8"/>
<path d="M277.908 313.594H276.64V294.783C276.64 293.925 275.985 293.032 274.851 292.402L240.372 272.523L241.009 271.426L275.488 291.305C277.025 292.192 277.908 293.458 277.908 294.806V313.594Z" fill="#CACCD8"/>
<path d="M309.781 266.197C313.021 266.197 315.648 264.684 315.648 262.817C315.648 260.951 313.021 259.438 309.781 259.438C306.54 259.438 303.913 260.951 303.913 262.817C303.913 264.684 306.54 266.197 309.781 266.197Z" fill="#F2F3F5" fill-opacity="0.1"/>
<path d="M309.781 266.844C308.224 266.871 306.686 266.497 305.316 265.759C304.001 265.006 303.276 263.961 303.276 262.841C303.276 261.72 304.001 260.658 305.316 259.922C306.695 259.209 308.225 258.837 309.778 258.837C311.33 258.837 312.861 259.209 314.239 259.922C315.554 260.675 316.279 261.72 316.279 262.841C316.279 263.961 315.554 265.029 314.239 265.759C312.871 266.497 311.335 266.871 309.781 266.844ZM309.781 260.08C308.447 260.05 307.128 260.359 305.947 260.979C305.047 261.498 304.55 262.146 304.55 262.817C304.55 263.488 305.047 264.142 305.947 264.662C307.137 265.252 308.448 265.559 309.778 265.559C311.107 265.559 312.418 265.252 313.608 264.662C314.508 264.142 315.005 263.494 315.005 262.817C315.005 262.14 314.508 261.498 313.608 260.979C312.429 260.36 311.112 260.05 309.781 260.08Z" fill="#CACCD8"/>
<path d="M333.501 280.612C336.742 280.612 339.368 279.1 339.368 277.233C339.368 275.367 336.742 273.854 333.501 273.854C330.261 273.854 327.634 275.367 327.634 277.233C327.634 279.1 330.261 280.612 333.501 280.612Z" fill="#F2F3F5" fill-opacity="0.1"/>
<path d="M333.501 281.254C331.945 281.28 330.408 280.909 329.036 280.175C327.727 279.416 327.003 278.371 327.003 277.256C327.003 276.142 327.727 275.074 329.036 274.338C330.417 273.628 331.948 273.257 333.501 273.257C335.054 273.257 336.585 273.628 337.966 274.338C339.281 275.097 340 276.142 340 277.256C340 278.371 339.281 279.439 337.966 280.175C336.594 280.909 335.057 281.28 333.501 281.254ZM333.501 274.478C332.168 274.452 330.851 274.765 329.673 275.389C328.768 275.908 328.271 276.556 328.271 277.233C328.271 277.91 328.768 278.552 329.673 279.072C330.859 279.673 332.171 279.986 333.501 279.986C334.831 279.986 336.143 279.673 337.329 279.072C338.235 278.552 338.731 277.904 338.731 277.233C338.731 276.562 338.235 275.908 337.329 275.389C336.151 274.765 334.834 274.452 333.501 274.478Z" fill="#CACCD8"/>
<path d="M303.913 263.454H290.788C288.907 263.489 287.048 263.043 285.388 262.158L271.877 254.366L272.514 253.269L286.025 261.055C287.491 261.828 289.13 262.217 290.788 262.187H303.913V263.454Z" fill="#CACCD8"/>
<path d="M327.64 277.864H295.007C293.126 277.899 291.267 277.453 289.607 276.568L261.492 260.354L262.123 259.257L290.244 275.476C291.711 276.247 293.35 276.635 295.007 276.603H327.64V277.864Z" fill="#CACCD8"/>
<path d="M300.962 201.74C301.48 199.285 301.205 196.729 300.177 194.44C299.149 192.151 297.421 190.246 295.241 188.999L183.055 124.314C179.426 122.221 175.309 121.119 171.119 121.119C166.928 121.119 162.811 122.221 159.182 124.314L47.014 188.993C44.8329 190.239 43.1038 192.143 42.0756 194.433C41.0475 196.722 40.7734 199.279 41.2928 201.734C41.924 204.882 41.924 204.882 41.2928 201.734C41.1526 202.428 41.2286 209.094 41.2286 210.337C41.2286 210.465 41.2753 210.593 41.2987 210.722C41.6312 212.371 42.314 213.93 43.3009 215.293C44.2879 216.656 45.556 217.792 47.0199 218.624L159.223 283.297C162.852 285.39 166.969 286.492 171.16 286.492C175.35 286.492 179.467 285.39 183.096 283.297L295.229 218.624C296.696 217.795 297.967 216.659 298.957 215.296C299.946 213.933 300.63 212.373 300.962 210.722C300.989 210.593 301.013 210.465 301.032 210.337C301.021 209.094 301.102 202.522 300.962 201.74Z" fill="#BEC1D0"/>
<path d="M300.962 201.734C300.632 203.384 299.95 204.943 298.963 206.307C297.976 207.67 296.706 208.806 295.241 209.636L183.055 274.309C179.427 276.402 175.311 277.504 171.122 277.504C166.932 277.504 162.816 276.402 159.188 274.309L47.0141 209.636C45.1998 208.59 43.6932 207.086 42.6457 205.274C41.5982 203.462 41.0467 201.407 41.0467 199.315C41.0467 197.223 41.5982 195.167 42.6457 193.355C43.6932 191.544 45.1998 190.039 47.0141 188.993L159.188 124.314C162.816 122.221 166.932 121.119 171.122 121.119C175.311 121.119 179.427 122.221 183.055 124.314L295.259 188.993C297.436 190.241 299.162 192.147 300.187 194.436C301.212 196.726 301.483 199.281 300.962 201.734Z" fill="white"/>
<path d="M171.122 266.039C173.636 266.039 175.674 265.041 175.674 263.809C175.674 262.578 173.636 261.58 171.122 261.58C168.607 261.58 166.569 262.578 166.569 263.809C166.569 265.041 168.607 266.039 171.122 266.039Z" fill="#BEC1D0"/>
<path d="M281.934 201.103C284.449 201.103 286.487 200.105 286.487 198.874C286.487 197.643 284.449 196.644 281.934 196.644C279.42 196.644 277.382 197.643 277.382 198.874C277.382 200.105 279.42 201.103 281.934 201.103Z" fill="#BEC1D0"/>
<path d="M61.4368 201.103C63.9511 201.103 65.9892 200.105 65.9892 198.874C65.9892 197.643 63.9511 196.644 61.4368 196.644C58.9226 196.644 56.8844 197.643 56.8844 198.874C56.8844 200.105 58.9226 201.103 61.4368 201.103Z" fill="#BEC1D0"/>
<path d="M262.977 160.01C262.742 161.177 262.259 162.281 261.561 163.245C260.862 164.21 259.964 165.013 258.927 165.601L179.572 211.358C177.004 212.838 174.092 213.617 171.128 213.617C168.163 213.617 165.251 212.838 162.683 211.358L83.3283 165.601C82.047 164.861 80.9831 163.797 80.2435 162.517C79.5038 161.236 79.1145 159.784 79.1145 158.305C79.1145 156.827 79.5038 155.375 80.2435 154.094C80.9831 152.814 82.047 151.75 83.3283 151.01L162.683 105.253C165.25 103.77 168.162 102.99 171.128 102.99C174.093 102.99 177.005 103.77 179.572 105.253L258.927 151.01C260.468 151.89 261.689 153.235 262.417 154.852C263.145 156.469 263.341 158.275 262.977 160.01Z" fill="#4326D2"/>
<path d="M263.14 161.72C263.15 163.201 262.764 164.659 262.022 165.942C261.281 167.225 260.21 168.288 258.921 169.021L179.566 214.778C176.998 216.258 174.086 217.037 171.122 217.037C168.157 217.037 165.245 216.258 162.677 214.778L83.3224 169.021C82.0589 168.306 81.0048 167.273 80.2647 166.025C79.5245 164.777 79.1241 163.357 79.1031 161.907V161.516C79.1152 161.01 79.1719 160.506 79.2725 160.01C79.5079 161.177 79.9912 162.28 80.6899 163.244C81.3885 164.209 82.2862 165.012 83.3224 165.601L162.677 211.358C165.245 212.838 168.157 213.617 171.122 213.617C174.086 213.617 176.998 212.838 179.566 211.358L258.921 165.601C259.957 165.012 260.855 164.209 261.553 163.244C262.252 162.28 262.735 161.177 262.971 160.01C263.083 160.573 263.139 161.146 263.14 161.72Z" fill="#6B4FF6"/>
<path d="M263.146 161.72C263.146 161.72 263.105 168.204 263.029 194.403C263.029 195.413 263.029 196.37 263.029 197.246C263.017 197.338 263 197.43 262.977 197.52C262.744 198.687 262.262 199.791 261.564 200.755C260.867 201.72 259.969 202.524 258.933 203.111L179.572 248.868C177.006 250.348 174.094 251.127 171.131 251.127C168.167 251.127 165.256 250.348 162.689 248.868L83.3225 203.105C82.2862 202.518 81.3887 201.714 80.6909 200.75C79.9931 199.785 79.5114 198.681 79.2785 197.514C79.2554 197.424 79.2378 197.332 79.2259 197.24C79.2259 196.364 79.2259 195.407 79.2259 194.398C79.1558 168.221 79.109 161.924 79.109 161.924C79.1308 163.375 79.5315 164.795 80.2715 166.044C81.0115 167.293 82.0652 168.327 83.3284 169.044L154.975 210.354L162.689 214.802C165.256 216.281 168.167 217.06 171.131 217.06C174.094 217.06 177.006 216.281 179.572 214.802L187.286 210.354L258.933 169.044C260.224 168.308 261.294 167.241 262.035 165.953C262.776 164.666 263.159 163.205 263.146 161.72Z" fill="#4B35F5"/>
<path d="M150.913 215.7V234.143C150.912 234.314 150.866 234.482 150.78 234.63C150.694 234.778 150.571 234.9 150.423 234.986C150.274 235.072 150.106 235.117 149.935 235.118C149.764 235.118 149.595 235.074 149.447 234.989L99.6505 206.269C99.354 206.099 99.1076 205.854 98.9363 205.559C98.7649 205.264 98.6746 204.929 98.6745 204.588V186.145C98.6749 185.974 98.7204 185.806 98.8064 185.658C98.8925 185.509 99.0161 185.387 99.1648 185.301C99.3135 185.216 99.482 185.172 99.6535 185.172C99.8249 185.173 99.9932 185.218 100.141 185.305L102.198 186.472L102.45 186.612L149.937 213.996C150.237 214.169 150.485 214.417 150.656 214.717C150.827 215.016 150.916 215.355 150.913 215.7Z" fill="#5535F5"/>
<path d="M150.913 215.7V231.768L103.437 204.384C103.14 204.215 102.893 203.97 102.722 203.675C102.55 203.38 102.46 203.044 102.461 202.703V186.629L149.949 214.014C150.243 214.186 150.487 214.432 150.657 214.728C150.826 215.024 150.914 215.359 150.913 215.7Z" fill="#4B2CE7"/>
<path d="M142.048 215.286C141.661 214.47 141.013 213.805 140.207 213.395C139.956 213.255 126.597 205.557 126.38 205.44C125.697 205.061 125.071 204.786 124.499 205.066H124.475H124.434H124.388H124.347H124.212H124.171H124.13H124.084H123.897H123.856H123.815H123.768H123.581H123.54H123.306H123.155L122.991 205.16C122.896 205.222 122.809 205.297 122.734 205.382C122.12 206.064 122.05 207.407 122.629 208.673C123.018 209.49 123.667 210.156 124.475 210.564L138.308 218.525C138.986 218.899 139.611 219.173 140.178 218.893H140.207H140.254H140.388H140.429H140.476H140.517H140.704H140.838H140.879H141.066H141.107H141.154H141.195H141.423H141.464L141.633 218.799C141.715 218.742 141.788 218.673 141.849 218.595C142.556 217.906 142.638 216.558 142.048 215.286Z" fill="#08A952"/>
<path d="M140.692 216.027C140.305 215.211 139.657 214.546 138.851 214.136C138.6 214.002 125.241 206.304 125.025 206.181C124.341 205.808 123.716 205.533 123.143 205.814L122.979 205.907C122.884 205.969 122.798 206.044 122.722 206.129C122.108 206.812 122.038 208.154 122.617 209.42C123.006 210.238 123.655 210.903 124.464 211.311L138.296 219.272C138.974 219.646 139.599 219.92 140.166 219.64L140.336 219.546C140.417 219.491 140.49 219.424 140.552 219.348C141.201 218.653 141.282 217.299 140.692 216.027Z" fill="#00D763"/>
<path opacity="0.3" d="M241.938 204.687C241.972 204.728 242.011 204.764 242.055 204.792L242.143 204.845C242.669 205.101 243.388 204.658 243.756 203.852C243.906 203.583 243.981 203.277 243.97 202.969C243.96 202.66 243.866 202.361 243.698 202.102C243.657 202.058 243.612 202.019 243.563 201.985L243.475 201.932C242.949 201.676 242.231 202.119 241.863 202.925C241.708 203.196 241.634 203.505 241.647 203.817C241.661 204.128 241.762 204.43 241.938 204.687Z" fill="white"/>
<path opacity="0.3" d="M241.938 189.834C241.973 189.873 242.012 189.908 242.055 189.939L242.143 189.991C242.669 190.248 243.388 189.804 243.756 188.999C243.906 188.729 243.981 188.424 243.97 188.115C243.96 187.807 243.866 187.507 243.698 187.248C243.659 187.203 243.613 187.164 243.563 187.131L243.475 187.079C242.949 186.822 242.231 187.266 241.863 188.071C241.708 188.342 241.634 188.651 241.647 188.963C241.661 189.275 241.762 189.576 241.938 189.834Z" fill="white"/>
<path d="M243.978 204.389C243.637 204.389 243.306 204.281 243.031 204.08L243.756 203.035C243.809 203.081 243.875 203.109 243.944 203.118C244.014 203.126 244.085 203.114 244.147 203.082C244.215 203.047 244.272 202.995 244.312 202.93C244.352 202.865 244.374 202.791 244.375 202.714V190.738C244.377 190.685 244.366 190.631 244.345 190.582C244.324 190.532 244.292 190.488 244.253 190.452L242.943 189.215L243.82 188.293L245.129 189.53C245.293 189.686 245.424 189.873 245.513 190.081C245.603 190.288 245.649 190.512 245.649 190.738V202.714C245.649 203.158 245.473 203.583 245.16 203.897C244.847 204.211 244.422 204.388 243.978 204.389Z" fill="#CACCD8"/>
<path opacity="0.3" d="M234.511 209.088C234.542 209.132 234.582 209.169 234.628 209.199L234.715 209.245C235.236 209.502 235.954 209.059 236.323 208.253C236.474 207.984 236.549 207.679 236.54 207.37C236.53 207.062 236.437 206.762 236.27 206.502C236.227 206.459 236.18 206.419 236.13 206.385L236.042 206.333C235.522 206.076 234.797 206.52 234.435 207.325C234.283 207.597 234.209 207.906 234.223 208.217C234.236 208.528 234.336 208.83 234.511 209.088Z" fill="white"/>
<path opacity="0.3" d="M234.511 194.234C234.541 194.278 234.581 194.314 234.628 194.339L234.715 194.392C235.236 194.648 235.954 194.205 236.323 193.399C236.474 193.13 236.549 192.825 236.54 192.517C236.53 192.208 236.437 191.908 236.27 191.649C236.227 191.605 236.18 191.566 236.13 191.532L236.042 191.479C235.522 191.222 234.797 191.666 234.435 192.471C234.283 192.743 234.209 193.052 234.223 193.364C234.236 193.675 234.336 193.976 234.511 194.234Z" fill="white"/>
<path d="M236.527 208.79C236.188 208.791 235.858 208.682 235.586 208.481L236.305 207.436C236.358 207.481 236.424 207.51 236.494 207.518C236.563 207.527 236.634 207.514 236.696 207.483C236.765 207.449 236.824 207.396 236.865 207.331C236.906 207.267 236.929 207.192 236.93 207.115V195.139C236.93 195.085 236.92 195.032 236.899 194.983C236.877 194.934 236.846 194.89 236.807 194.853L235.51 193.616L236.381 192.693L237.69 193.931C237.855 194.086 237.986 194.273 238.075 194.481C238.165 194.689 238.21 194.913 238.21 195.139V207.115C238.21 207.558 238.034 207.983 237.721 208.297C237.408 208.611 236.982 208.789 236.539 208.79H236.527Z" fill="#CACCD8"/>
<path opacity="0.3" d="M227.065 213.488C227.102 213.526 227.141 213.561 227.182 213.593L227.27 213.64C227.796 213.897 228.515 213.453 228.883 212.648C229.035 212.379 229.11 212.073 229.099 211.764C229.089 211.456 228.994 211.156 228.825 210.897C228.784 210.852 228.739 210.811 228.69 210.774L228.602 210.728C228.076 210.471 227.358 210.909 226.99 211.714C226.833 211.987 226.757 212.298 226.771 212.612C226.784 212.926 226.886 213.23 227.065 213.488Z" fill="white"/>
<path opacity="0.3" d="M227.066 198.635C227.1 198.676 227.139 198.713 227.183 198.746L227.27 198.792C227.796 199.049 228.515 198.606 228.883 197.8C229.035 197.531 229.11 197.225 229.099 196.916C229.089 196.608 228.994 196.308 228.825 196.049C228.786 196.002 228.741 195.961 228.69 195.927L228.603 195.874C228.077 195.617 227.358 196.061 226.99 196.866C226.834 197.138 226.759 197.449 226.773 197.761C226.786 198.074 226.888 198.377 227.066 198.635Z" fill="white"/>
<path d="M229.082 213.196C228.741 213.196 228.41 213.088 228.135 212.887L228.86 211.837C228.913 211.882 228.979 211.911 229.048 211.919C229.118 211.927 229.189 211.915 229.251 211.883C229.319 211.849 229.377 211.796 229.417 211.731C229.457 211.667 229.479 211.592 229.479 211.516V199.539C229.481 199.486 229.47 199.432 229.449 199.383C229.428 199.334 229.396 199.289 229.356 199.253L228.047 198.016L228.924 197.094L230.233 198.331C230.397 198.487 230.527 198.675 230.617 198.882C230.706 199.09 230.753 199.313 230.753 199.539V211.516C230.752 211.959 230.575 212.384 230.263 212.698C229.95 213.013 229.526 213.192 229.082 213.196Z" fill="#CACCD8"/>
<path opacity="0.3" d="M219.615 217.889C219.646 217.931 219.686 217.967 219.732 217.994L219.819 218.041C220.345 218.297 221.058 217.854 221.426 217.054C221.578 216.785 221.653 216.48 221.643 216.172C221.634 215.863 221.541 215.563 221.374 215.303C221.331 215.258 221.284 215.217 221.233 215.181L221.146 215.134C220.626 214.877 219.901 215.315 219.539 216.12C219.385 216.393 219.311 216.703 219.325 217.015C219.338 217.328 219.439 217.63 219.615 217.889Z" fill="white"/>
<path opacity="0.3" d="M219.615 203.035C219.646 203.078 219.686 203.113 219.732 203.14L219.819 203.187C220.345 203.444 221.058 203 221.426 202.201C221.578 201.932 221.653 201.626 221.643 201.318C221.634 201.009 221.541 200.709 221.374 200.45C221.331 200.404 221.284 200.363 221.233 200.327L221.146 200.281C220.626 200.024 219.901 200.461 219.539 201.267C219.385 201.54 219.311 201.85 219.325 202.162C219.338 202.474 219.439 202.777 219.615 203.035Z" fill="white"/>
<path d="M221.631 217.597C221.292 217.597 220.962 217.489 220.69 217.288L221.409 216.243C221.463 216.286 221.529 216.313 221.598 216.32C221.668 216.327 221.738 216.315 221.8 216.284C221.869 216.25 221.927 216.197 221.968 216.133C222.01 216.068 222.032 215.993 222.034 215.916V203.94C222.033 203.887 222.022 203.834 222.001 203.785C221.98 203.736 221.95 203.691 221.911 203.654L220.602 202.417L221.473 201.495L222.782 202.732C222.947 202.887 223.078 203.074 223.167 203.282C223.257 203.49 223.302 203.714 223.302 203.94V215.945C223.301 216.257 223.214 216.562 223.05 216.827C222.886 217.092 222.652 217.306 222.373 217.445C222.141 217.554 221.887 217.606 221.631 217.597Z" fill="#CACCD8"/>
<path d="M114.441 199.102C113.658 197.351 112.104 196.411 110.976 196.965L109.421 197.724C109.355 197.757 109.29 197.794 109.229 197.835C109.12 197.907 109.022 197.994 108.936 198.092C108.235 198.874 108.153 200.426 108.819 201.862C109.608 203.613 111.157 204.553 112.285 203.998L113.839 203.24C113.904 203.207 113.967 203.17 114.026 203.129C114.124 203.07 114.21 202.993 114.278 202.901C115.026 202.107 115.125 200.561 114.441 199.102Z" fill="url(#paint0_linear_3050_26411)"/>
<path d="M112.741 203.648C112.67 203.737 112.585 203.814 112.489 203.876L112.297 203.987C111.169 204.57 109.62 203.578 108.831 201.851C108.165 200.397 108.247 198.862 108.948 198.08C109.034 197.982 109.132 197.896 109.24 197.824C109.302 197.782 109.366 197.745 109.433 197.713C110.561 197.158 112.115 198.11 112.899 199.849C113.559 201.314 113.471 202.866 112.741 203.648Z" fill="url(#paint1_linear_3050_26411)"/>
<path d="M262.977 70.8651C262.742 72.0325 262.259 73.136 261.561 74.1007C260.862 75.0654 259.964 75.8687 258.927 76.4563L179.566 122.213C176.998 123.693 174.086 124.472 171.122 124.472C168.157 124.472 165.245 123.693 162.677 122.213L83.3223 76.4563C82.041 75.7162 80.9771 74.6525 80.2375 73.372C79.4978 72.0915 79.1085 70.6392 79.1085 69.1609C79.1085 67.6826 79.4978 66.2303 80.2375 64.9497C80.9771 63.6692 82.041 62.6055 83.3223 61.8654L162.677 16.0908C165.245 14.611 168.157 13.8319 171.122 13.8319C174.086 13.8319 176.998 14.611 179.566 16.0908L258.921 61.8654C260.463 62.7447 261.686 64.0894 262.414 65.7064C263.143 67.3234 263.34 69.1294 262.977 70.8651Z" fill="#4326D2"/>
<path d="M171.122 109.998C168.882 109.998 166.681 109.41 164.74 108.294L106.751 74.8571C105.94 74.3989 105.237 73.771 104.692 73.0165C104.146 72.2621 103.77 71.3987 103.589 70.4857C103.315 69.1346 103.472 67.7317 104.04 66.475C104.607 65.2183 105.555 64.1713 106.751 63.482L164.74 30.0397C166.682 28.9243 168.882 28.3373 171.122 28.3373C173.361 28.3373 175.562 28.9243 177.503 30.0397L235.51 63.4528C236.705 64.1428 237.653 65.1898 238.22 66.4463C238.787 67.7029 238.945 69.1055 238.672 70.4565C238.489 71.3687 238.112 72.2311 237.567 72.9853C237.021 73.7395 236.32 74.3679 235.51 74.8279L177.515 108.264C175.573 109.393 173.368 109.991 171.122 109.998ZM171.122 29.1525C169.031 29.1511 166.977 29.7007 165.167 30.7459L107.172 64.1999C106.125 64.8033 105.296 65.7209 104.802 66.8222C104.307 67.9234 104.174 69.1523 104.419 70.3339C104.576 71.1289 104.903 71.8805 105.378 72.5373C105.854 73.1941 106.465 73.7406 107.172 74.1392L165.167 107.576C166.978 108.62 169.033 109.169 171.125 109.169C173.216 109.169 175.271 108.62 177.083 107.576L235.072 74.1217C235.778 73.7246 236.39 73.1793 236.865 72.5234C237.34 71.8675 237.668 71.1166 237.824 70.3222C238.066 69.1424 237.931 67.9164 237.437 66.8178C236.943 65.7191 236.115 64.8033 235.072 64.1999L177.071 30.7459C175.259 29.7129 173.208 29.1735 171.122 29.1817V29.1525Z" fill="#6B4FF6"/>
<path d="M263.14 72.5751C263.15 74.0567 262.764 75.514 262.022 76.7973C261.281 78.0806 260.21 79.1433 258.921 79.8764L179.566 125.633C176.999 127.116 174.087 127.897 171.122 127.897C168.157 127.897 165.244 127.116 162.677 125.633L83.3224 79.8764C82.0589 79.1609 81.0048 78.1279 80.2647 76.8799C79.5245 75.6318 79.1241 74.2122 79.1031 72.7618V72.3708C79.1155 71.8668 79.1722 71.3649 79.2725 70.8708C79.5079 72.0379 79.9912 73.1409 80.6899 74.1054C81.3885 75.07 82.2862 75.8736 83.3224 76.4621L162.677 122.219C165.245 123.699 168.157 124.478 171.122 124.478C174.086 124.478 176.998 123.699 179.566 122.219L258.921 76.4562C259.957 75.8678 260.855 75.0641 261.553 74.0996C262.252 73.135 262.735 72.032 262.971 70.865C263.083 71.4282 263.139 72.0009 263.14 72.5751Z" fill="#6B4FF6"/>
<path d="M263.146 72.5752C263.146 72.5752 263.023 140.277 263.023 141.164C263.011 141.255 262.994 141.344 262.971 141.433C262.738 142.6 262.256 143.703 261.558 144.668C260.861 145.633 259.963 146.436 258.927 147.024L179.566 192.781C177 194.263 174.089 195.044 171.125 195.044C168.16 195.044 165.249 194.263 162.683 192.781L83.3224 147.024C82.2861 146.436 81.3886 145.633 80.6908 144.668C79.993 143.703 79.5113 142.6 79.2784 141.433C79.2552 141.344 79.2377 141.255 79.2258 141.164C79.2258 140.283 79.1031 72.7561 79.1031 72.7561C79.1248 74.2071 79.5255 75.6273 80.2655 76.8761C81.0056 78.1249 82.0593 79.1592 83.3224 79.8765L154.969 121.186L162.683 125.634C165.25 127.113 168.161 127.893 171.125 127.893C174.088 127.893 177 127.113 179.566 125.634L187.28 121.186L258.927 79.8765C260.215 79.1425 261.285 78.0795 262.026 76.7965C262.768 75.5134 263.154 74.0565 263.146 72.5752Z" fill="#4B35F5"/>
<path d="M158.674 145.53V150.508C158.673 150.73 158.613 150.947 158.502 151.138C158.39 151.33 158.231 151.488 158.038 151.599C157.846 151.709 157.628 151.767 157.407 151.768C157.185 151.768 156.967 151.71 156.775 151.599L92.1817 114.352C91.7965 114.13 91.4765 113.812 91.2539 113.427C91.0312 113.043 90.9139 112.607 90.9136 112.163V107.196C90.9138 106.975 90.9724 106.757 91.0835 106.564C91.1947 106.372 91.3544 106.213 91.5467 106.101C91.7391 105.99 91.9573 105.932 92.1795 105.931C92.4017 105.931 92.6201 105.989 92.8129 106.099L95.4894 107.64L157.435 143.347C157.816 143.57 158.131 143.889 158.348 144.272C158.566 144.655 158.678 145.089 158.674 145.53Z" fill="#5535F5"/>
<path d="M158.674 145.53V148.594L96.7284 112.887C96.3438 112.665 96.0246 112.346 95.803 111.962C95.5814 111.577 95.4652 111.142 95.4661 110.698V107.64L157.412 143.347C157.797 143.567 158.116 143.885 158.338 144.268C158.56 144.651 158.676 145.087 158.674 145.53Z" fill="#0C1659"/>
<path d="M158.674 164.334V169.313C158.675 169.535 158.616 169.753 158.505 169.946C158.394 170.138 158.234 170.298 158.041 170.409C157.848 170.519 157.63 170.577 157.407 170.577C157.185 170.576 156.967 170.516 156.775 170.404L92.1817 133.157C91.797 132.936 91.4772 132.618 91.2545 132.235C91.0319 131.852 90.9143 131.417 90.9136 130.974V126.001C90.9131 125.779 90.9713 125.561 91.0824 125.368C91.1935 125.176 91.3536 125.016 91.5464 124.905C91.7391 124.795 91.9578 124.737 92.1802 124.738C92.4026 124.738 92.6209 124.798 92.8129 124.91L95.4894 126.451L157.435 162.152C157.815 162.375 158.129 162.695 158.347 163.078C158.564 163.461 158.677 163.894 158.674 164.334Z" fill="#5535F5"/>
<path d="M158.674 164.334V167.399L96.7284 131.692C96.3443 131.471 96.0253 131.153 95.8037 130.77C95.5821 130.386 95.4656 129.951 95.4661 129.509V126.451L157.412 162.152C157.796 162.372 158.115 162.691 158.336 163.074C158.558 163.457 158.675 163.892 158.674 164.334Z" fill="#0C1659"/>
<path d="M223.583 70.1297C223.443 70.7975 223.163 71.4278 222.76 71.9784C222.356 72.529 221.84 72.9872 221.245 73.3222L217.692 75.3708L175.92 99.4575C174.453 100.3 172.79 100.744 171.098 100.744C169.406 100.744 167.744 100.3 166.277 99.4575L124.499 75.3708L120.969 73.3222C120.236 72.8996 119.627 72.2918 119.204 71.5598C118.781 70.8278 118.558 69.9974 118.558 69.1521C118.558 68.3069 118.781 67.4765 119.204 66.7445C119.627 66.0125 120.236 65.4046 120.969 64.9821L166.295 38.8468C167.761 38.0039 169.424 37.5603 171.116 37.5603C172.808 37.5603 174.47 38.0039 175.937 38.8468L221.263 64.9821C222.143 65.4863 222.842 66.2557 223.259 67.1802C223.675 68.1047 223.789 69.137 223.583 70.1297Z" fill="#5535F5"/>
<path d="M217.715 75.3708L175.943 99.4575C174.476 100.3 172.814 100.744 171.122 100.744C169.43 100.744 167.767 100.3 166.3 99.4575L124.522 75.3708L166.3 51.2841C167.766 50.4383 169.429 49.993 171.122 49.993C172.814 49.993 174.477 50.4383 175.943 51.2841L217.715 75.3708Z" fill="#4B2CE7"/>
<path style="mix-blend-mode:screen" d="M223.583 32.5669C223.786 31.5731 223.669 30.5407 223.249 29.6172C222.829 28.6937 222.128 27.9264 221.245 27.425L175.943 1.28395C174.475 0.443342 172.811 0.00106812 171.119 0.00106812C169.426 0.00106812 167.763 0.443342 166.295 1.28395L120.969 27.4309C120.09 27.9347 119.394 28.7038 118.98 29.6277C118.567 30.5515 118.457 31.5826 118.667 32.5727V68.2329C118.541 68.8609 118.541 69.5075 118.667 70.1355C118.799 70.8014 119.073 71.4312 119.47 71.982C119.867 72.5329 120.379 72.9919 120.969 73.328L124.522 75.3766L166.295 99.4633C167.762 100.307 169.426 100.751 171.119 100.751C172.812 100.751 174.476 100.307 175.943 99.4633L217.715 75.3766L221.269 73.328C221.864 72.993 222.38 72.5348 222.783 71.9842C223.186 71.4336 223.467 70.8033 223.606 70.1355C223.723 69.5185 223.723 68.885 223.606 68.2679L223.583 32.5669Z" fill="url(#paint2_linear_3050_26411)"/>
<path style="mix-blend-mode:screen" d="M207.851 75.8201C207.784 75.8201 207.718 75.8069 207.656 75.7814C207.595 75.7559 207.538 75.7185 207.491 75.6714C207.444 75.6242 207.407 75.5682 207.381 75.5066C207.355 75.445 207.342 75.379 207.342 75.3123V32.4968C207.335 32.4259 207.342 32.3542 207.364 32.2864C207.386 32.2186 207.422 32.1561 207.47 32.1031C207.517 32.0501 207.576 32.0077 207.641 31.9787C207.706 31.9496 207.776 31.9346 207.848 31.9346C207.919 31.9346 207.99 31.9496 208.055 31.9787C208.12 32.0077 208.178 32.0501 208.226 32.1031C208.274 32.1561 208.31 32.2186 208.332 32.2864C208.354 32.3542 208.361 32.4259 208.353 32.4968V75.289C208.356 75.3571 208.346 75.4252 208.322 75.4891C208.298 75.553 208.262 75.6115 208.215 75.6611C208.168 75.7107 208.112 75.7503 208.049 75.7776C207.986 75.8049 207.919 75.8194 207.851 75.8201Z" fill="url(#paint3_linear_3050_26411)"/>
<path style="mix-blend-mode:screen" d="M193.896 60.7973C193.761 60.7973 193.631 60.7438 193.536 60.6486C193.441 60.5534 193.387 60.4242 193.387 60.2895V26.8122C193.379 26.7413 193.387 26.6696 193.409 26.6018C193.431 26.534 193.467 26.4715 193.514 26.4185C193.562 26.3655 193.62 26.3231 193.686 26.2941C193.751 26.265 193.821 26.25 193.893 26.25C193.964 26.25 194.035 26.265 194.1 26.2941C194.165 26.3231 194.223 26.3655 194.271 26.4185C194.319 26.4715 194.355 26.534 194.376 26.6018C194.398 26.6696 194.406 26.7413 194.398 26.8122V60.2895C194.398 60.4232 194.345 60.5515 194.251 60.6465C194.157 60.7416 194.029 60.7958 193.896 60.7973Z" fill="url(#paint4_linear_3050_26411)"/>
<path style="mix-blend-mode:screen" d="M179.94 78.3473C179.874 78.3481 179.808 78.3356 179.746 78.3108C179.685 78.2859 179.628 78.249 179.581 78.2023C179.534 78.1557 179.496 78.1001 179.471 78.0388C179.445 77.9775 179.432 77.9118 179.432 77.8454V36.0512C179.424 35.9803 179.432 35.9086 179.454 35.8408C179.475 35.773 179.511 35.7105 179.559 35.6575C179.607 35.6045 179.665 35.5621 179.73 35.5331C179.795 35.504 179.866 35.489 179.937 35.489C180.009 35.489 180.079 35.504 180.144 35.5331C180.21 35.5621 180.268 35.6045 180.316 35.6575C180.363 35.7105 180.399 35.773 180.421 35.8408C180.443 35.9086 180.45 35.9803 180.443 36.0512V77.8454C180.443 77.9785 180.39 78.1061 180.296 78.2003C180.201 78.2944 180.074 78.3473 179.94 78.3473Z" fill="url(#paint5_linear_3050_26411)"/>
<path style="mix-blend-mode:screen" d="M138.559 72.4409C138.424 72.4409 138.295 72.3874 138.2 72.2921C138.104 72.1969 138.051 72.0678 138.051 71.9331V39.1619C138.051 39.0272 138.104 38.8981 138.2 38.8029C138.295 38.7076 138.424 38.6541 138.559 38.6541C138.694 38.6541 138.823 38.7076 138.919 38.8029C139.014 38.8981 139.068 39.0272 139.068 39.1619V71.9331C139.068 72.0678 139.014 72.1969 138.919 72.2921C138.823 72.3874 138.694 72.4409 138.559 72.4409Z" fill="url(#paint6_linear_3050_26411)"/>
<path style="mix-blend-mode:screen" d="M158.23 65.6298C158.095 65.6298 157.966 65.5763 157.871 65.4811C157.775 65.3859 157.722 65.2567 157.722 65.1221V25.8842C157.722 25.7495 157.775 25.6204 157.871 25.5251C157.966 25.4299 158.095 25.3764 158.23 25.3764C158.365 25.3764 158.494 25.4299 158.59 25.5251C158.685 25.6204 158.738 25.7495 158.738 25.8842V65.1221C158.738 65.2567 158.685 65.3859 158.59 65.4811C158.494 65.5763 158.365 65.6298 158.23 65.6298Z" fill="url(#paint7_linear_3050_26411)"/>
<path d="M171.753 83.8451C172.101 83.8451 172.384 83.5629 172.384 83.2148C172.384 82.8667 172.101 82.5845 171.753 82.5845C171.404 82.5845 171.122 82.8667 171.122 83.2148C171.122 83.5629 171.404 83.8451 171.753 83.8451Z" fill="white"/>
<path d="M169.602 29.3569C169.951 29.3569 170.233 29.0747 170.233 28.7266C170.233 28.3785 169.951 28.0963 169.602 28.0963C169.254 28.0963 168.971 28.3785 168.971 28.7266C168.971 29.0747 169.254 29.3569 169.602 29.3569Z" fill="white"/>
<path d="M148.932 38.8235C149.281 38.8235 149.563 38.5413 149.563 38.1931C149.563 37.845 149.281 37.5628 148.932 37.5628C148.584 37.5628 148.301 37.845 148.301 38.1931C148.301 38.5413 148.584 38.8235 148.932 38.8235Z" fill="white"/>
<path d="M201.504 38.1931C201.853 38.1931 202.135 37.9109 202.135 37.5628C202.135 37.2147 201.853 36.9324 201.504 36.9324C201.156 36.9324 200.873 37.2147 200.873 37.5628C200.873 37.9109 201.156 38.1931 201.504 38.1931Z" fill="white"/>
<path d="M128.157 48.4359C128.506 48.4359 128.788 48.1537 128.788 47.8056C128.788 47.4575 128.506 47.1753 128.157 47.1753C127.808 47.1753 127.526 47.4575 127.526 47.8056C127.526 48.1537 127.808 48.4359 128.157 48.4359Z" fill="white"/>
<path d="M167.095 54.5349C167.444 54.5349 167.726 54.2527 167.726 53.9046C167.726 53.5565 167.444 53.2743 167.095 53.2743C166.747 53.2743 166.464 53.5565 166.464 53.9046C166.464 54.2527 166.747 54.5349 167.095 54.5349Z" fill="white"/>
<path d="M194.527 72.5751C194.875 72.5751 195.158 72.2929 195.158 71.9447C195.158 71.5966 194.875 71.3144 194.527 71.3144C194.178 71.3144 193.896 71.5966 193.896 71.9447C193.896 72.2929 194.178 72.5751 194.527 72.5751Z" fill="white"/>
<path d="M144.543 67.7427C144.892 67.7427 145.174 67.4605 145.174 67.1123C145.174 66.7642 144.892 66.482 144.543 66.482C144.195 66.482 143.912 66.7642 143.912 67.1123C143.912 67.4605 144.195 67.7427 144.543 67.7427Z" fill="white"/>
<path d="M163.221 280.998L163.01 280.927C163.079 280.956 163.149 280.979 163.221 280.998Z" fill="white"/>
<path d="M261.364 170.089C261.364 169.956 261.329 169.824 261.263 169.708C261.196 169.593 261.1 169.496 260.984 169.43L253.235 164.959C252.944 164.793 252.615 164.705 252.279 164.705C251.944 164.705 251.615 164.793 251.324 164.959L243.581 169.43C243.463 169.495 243.366 169.591 243.298 169.707C243.23 169.823 243.195 169.955 243.195 170.089V178.879C243.195 179.014 243.23 179.146 243.298 179.263C243.366 179.38 243.463 179.477 243.581 179.544L251.324 184.009C251.615 184.175 251.944 184.263 252.279 184.263C252.615 184.263 252.944 184.175 253.235 184.009L260.984 179.544C261.1 179.475 261.195 179.378 261.262 179.261C261.328 179.145 261.364 179.013 261.364 178.879V170.089Z" fill="#00D763"/>
<path d="M261.364 170.089C261.364 170.223 261.329 170.354 261.263 170.47C261.196 170.586 261.1 170.682 260.984 170.749L260.686 170.918L253.235 175.219C252.944 175.386 252.615 175.473 252.279 175.473C251.944 175.473 251.615 175.386 251.324 175.219L243.873 170.918L243.581 170.749C243.464 170.682 243.367 170.586 243.3 170.471C243.232 170.355 243.197 170.223 243.197 170.089C243.197 169.955 243.232 169.823 243.3 169.708C243.367 169.592 243.464 169.496 243.581 169.43L251.324 164.959C251.615 164.793 251.944 164.705 252.279 164.705C252.615 164.705 252.944 164.793 253.235 164.959L260.984 169.43C261.1 169.496 261.196 169.593 261.263 169.708C261.329 169.824 261.364 169.956 261.364 170.089Z" fill="#09E4A8"/>
<path d="M295.329 140.493C295.332 140.385 295.306 140.278 295.252 140.184C295.199 140.091 295.12 140.014 295.025 139.962L288.819 136.384C288.586 136.249 288.322 136.178 288.053 136.178C287.784 136.178 287.52 136.249 287.288 136.384L281.093 139.962C280.998 140.014 280.919 140.091 280.866 140.184C280.812 140.278 280.786 140.385 280.789 140.493V147.537C280.787 147.644 280.814 147.75 280.867 147.843C280.921 147.935 280.999 148.011 281.093 148.063L287.299 151.646C287.533 151.778 287.797 151.848 288.065 151.848C288.333 151.848 288.597 151.778 288.83 151.646L295.037 148.063C295.132 148.011 295.21 147.934 295.264 147.84C295.318 147.746 295.344 147.64 295.341 147.532V140.493H295.329Z" fill="#00D763"/>
<path d="M295.329 140.493C295.332 140.601 295.306 140.708 295.252 140.801C295.199 140.895 295.12 140.972 295.025 141.024L294.791 141.158L288.819 144.602C288.586 144.737 288.322 144.808 288.053 144.808C287.784 144.808 287.52 144.737 287.288 144.602L281.321 141.158L281.081 141.024C280.986 140.972 280.908 140.895 280.854 140.801C280.8 140.708 280.774 140.601 280.777 140.493C280.774 140.385 280.8 140.278 280.854 140.184C280.908 140.091 280.986 140.014 281.081 139.962L287.288 136.384C287.52 136.249 287.784 136.178 288.053 136.178C288.322 136.178 288.586 136.249 288.819 136.384L295.025 139.962C295.12 140.014 295.199 140.091 295.252 140.184C295.306 140.278 295.332 140.385 295.329 140.493Z" fill="#09E4A8"/>
<path d="M279.012 119.645C279.013 119.6 279.002 119.554 278.979 119.514C278.957 119.474 278.924 119.441 278.884 119.418L276.237 117.895C276.138 117.837 276.026 117.807 275.912 117.807C275.798 117.807 275.686 117.837 275.588 117.895L272.941 119.418C272.901 119.44 272.868 119.472 272.846 119.511C272.823 119.55 272.812 119.595 272.812 119.64V122.645C272.811 122.691 272.822 122.735 272.845 122.774C272.868 122.814 272.901 122.846 272.941 122.867L275.588 124.396C275.686 124.454 275.798 124.484 275.912 124.484C276.026 124.484 276.138 124.454 276.237 124.396L278.884 122.867C278.924 122.846 278.957 122.814 278.979 122.774C279.002 122.735 279.014 122.691 279.012 122.645V119.645Z" fill="#00D763"/>
<path d="M279.013 119.645C279.014 119.691 279.002 119.735 278.98 119.774C278.957 119.814 278.924 119.846 278.884 119.867L278.785 119.926L276.237 121.396C276.138 121.454 276.026 121.484 275.912 121.484C275.798 121.484 275.686 121.454 275.588 121.396L273.04 119.926L272.941 119.867C272.9 119.845 272.867 119.812 272.844 119.771C272.822 119.731 272.811 119.686 272.812 119.64C272.812 119.595 272.823 119.55 272.846 119.511C272.869 119.472 272.901 119.44 272.941 119.418L275.588 117.895C275.686 117.837 275.798 117.807 275.912 117.807C276.026 117.807 276.138 117.837 276.237 117.895L278.884 119.418C278.924 119.441 278.957 119.474 278.979 119.514C279.002 119.554 279.013 119.6 279.013 119.645Z" fill="#09E4A8"/>
<path d="M76.5554 126.065C76.5561 126.008 76.5413 125.952 76.5124 125.903C76.4836 125.853 76.4419 125.813 76.3918 125.785L73.125 123.9C73.0028 123.828 72.8636 123.79 72.7218 123.79C72.58 123.79 72.4408 123.828 72.3186 123.9L69.0518 125.785C69.0017 125.813 68.96 125.853 68.9311 125.903C68.9023 125.952 68.8875 126.008 68.8882 126.065V129.772C68.8868 129.829 68.9014 129.885 68.9303 129.935C68.9592 129.984 69.0012 130.025 69.0518 130.052L72.2893 131.902C72.4115 131.974 72.5508 132.012 72.6926 132.012C72.8344 132.012 72.9736 131.974 73.0958 131.902L76.3626 130.017C76.4131 129.99 76.4552 129.949 76.4841 129.9C76.513 129.85 76.5275 129.794 76.5262 129.737V126.065H76.5554Z" fill="#00D763"/>
<path d="M76.5553 126.065C76.5554 126.122 76.5403 126.178 76.5116 126.228C76.4828 126.277 76.4414 126.318 76.3917 126.346L76.269 126.416L73.125 128.231C73.0018 128.3 72.8629 128.336 72.7217 128.336C72.5805 128.336 72.4416 128.3 72.3185 128.231L69.1745 126.416L69.0517 126.346C69.002 126.318 68.9606 126.277 68.9319 126.228C68.9031 126.178 68.888 126.122 68.8881 126.065C68.8874 126.008 68.9022 125.952 68.9311 125.903C68.9599 125.853 69.0016 125.813 69.0517 125.785L72.3185 123.9C72.4407 123.828 72.5799 123.79 72.7217 123.79C72.8635 123.79 73.0028 123.828 73.125 123.9L76.3917 125.785C76.4418 125.813 76.4836 125.853 76.5124 125.903C76.5412 125.952 76.5561 126.008 76.5553 126.065Z" fill="#09E4A8"/>
<path d="M60.502 165.233C60.503 165.09 60.4656 164.949 60.3936 164.825C60.3217 164.7 60.2179 164.598 60.0929 164.527L51.8062 159.747C51.4957 159.567 51.1428 159.472 50.7836 159.472C50.4243 159.472 50.0714 159.567 49.7609 159.747L41.4917 164.527C41.3667 164.598 41.2629 164.7 41.191 164.825C41.1191 164.949 41.0817 165.09 41.0826 165.233V174.647C41.0817 174.791 41.1191 174.932 41.191 175.056C41.2629 175.18 41.3667 175.283 41.4917 175.354L49.7842 180.134C50.0958 180.311 50.4482 180.404 50.8069 180.404C51.1656 180.404 51.5181 180.311 51.8296 180.134L60.1163 175.354C60.2422 175.282 60.3465 175.179 60.4185 175.053C60.4905 174.928 60.5274 174.786 60.5254 174.641V165.233H60.502Z" fill="#00D763"/>
<path d="M60.5021 165.233C60.5043 165.377 60.4674 165.519 60.3953 165.643C60.3233 165.767 60.2188 165.87 60.093 165.939L59.7833 166.126L51.8063 170.725C51.4948 170.903 51.1423 170.996 50.7836 170.996C50.4249 170.996 50.0724 170.903 49.7609 170.725L41.784 166.126L41.4684 165.939C41.3447 165.868 41.242 165.764 41.1707 165.641C41.0993 165.517 41.0618 165.376 41.0618 165.233C41.0618 165.09 41.0993 164.95 41.1707 164.826C41.242 164.702 41.3447 164.599 41.4684 164.527L49.7609 159.747C50.0715 159.567 50.4243 159.472 50.7836 159.472C51.1429 159.472 51.4958 159.567 51.8063 159.747L60.093 164.527C60.218 164.598 60.3218 164.7 60.3937 164.825C60.4656 164.949 60.503 165.09 60.5021 165.233Z" fill="#09E4A8"/>
<path d="M53.9159 136.536C53.9165 136.439 53.8914 136.344 53.8432 136.26C53.7949 136.176 53.7252 136.106 53.6412 136.057L48.0427 132.83C47.8329 132.709 47.5951 132.646 47.3532 132.646C47.1112 132.646 46.8734 132.709 46.6636 132.83L41.0651 136.057C40.9811 136.106 40.9114 136.176 40.8631 136.26C40.8149 136.344 40.7898 136.439 40.7904 136.536V142.886C40.7898 142.983 40.8149 143.078 40.8631 143.162C40.9114 143.246 40.9811 143.316 41.0651 143.364L46.6636 146.592C46.8734 146.712 47.1112 146.776 47.3532 146.776C47.5951 146.776 47.8329 146.712 48.0427 146.592L53.6412 143.364C53.7252 143.316 53.7949 143.246 53.8432 143.162C53.8914 143.078 53.9165 142.983 53.9159 142.886V136.536Z" fill="#00D763"/>
<path d="M53.9159 136.536C53.9132 136.632 53.8867 136.726 53.8387 136.81C53.7908 136.893 53.723 136.963 53.6412 137.014L53.4308 137.137L48.0427 140.236C47.8339 140.359 47.5957 140.424 47.3532 140.424C47.1106 140.424 46.8724 140.359 46.6636 140.236L41.2813 137.155L41.0651 137.032C40.9833 136.981 40.9155 136.911 40.8676 136.827C40.8196 136.744 40.7931 136.65 40.7904 136.553C40.7898 136.456 40.8149 136.361 40.8631 136.277C40.9114 136.193 40.9811 136.123 41.0651 136.075L46.6636 132.847C46.8734 132.727 47.1112 132.664 47.3532 132.664C47.5951 132.664 47.8329 132.727 48.0427 132.847L53.6412 136.075C53.7227 136.122 53.7907 136.189 53.8388 136.27C53.8869 136.35 53.9135 136.442 53.9159 136.536Z" fill="#09E4A8"/>
<g clip-path="url(#clip1_3050_26411)">
<path d="M240.891 130.799C240.767 128.256 238.855 127.164 236.235 127.873C235.621 128.029 235.117 128.182 234.78 128.287C234.486 128.379 234.217 128.471 233.963 128.561C232.709 129.009 231.36 129.692 230.151 129.905C229.505 130.019 228.859 129.958 228.585 129.369C228.214 128.566 228.52 127.228 229.339 126.176C230.692 124.439 232.783 123.347 234.197 123.256C234.663 123.225 235.041 123.306 235.369 123.494C235.564 123.616 235.736 123.805 235.871 124.035C235.998 124.252 236.095 124.504 236.145 124.774L236.214 124.714L236.42 124.516L240.209 120.861L240.33 120.752L240.433 120.653C240.192 119.54 239.675 118.766 238.918 118.288C238.28 117.901 237.505 117.751 236.575 117.811C236.386 117.821 236.196 117.851 235.99 117.89C234.818 118.07 233.44 118.625 231.872 119.529C230.15 120.522 228.685 121.665 227.462 122.946C227.083 123.344 226.722 123.751 226.395 124.158C225.741 124.991 225.206 125.836 224.793 126.671C224.612 127.061 224.457 127.46 224.33 127.861C224.32 127.889 224.311 127.918 224.302 127.945C224.051 128.714 223.913 129.468 223.913 130.175C223.913 130.217 223.913 130.256 223.915 130.295C223.915 130.321 223.916 130.344 223.916 130.37C223.916 133.671 226.813 133.585 229.209 132.806C229.403 132.743 229.598 132.676 229.793 132.608C230.522 132.352 231.256 132.065 231.992 131.75C233.504 131.106 235.851 129.949 236.241 131.886C236.273 132.045 236.288 132.219 236.288 132.401C236.288 133.278 235.876 134.299 235.224 135.206C235.2 135.242 235.175 135.275 235.152 135.307C234.867 135.703 234.544 136.063 234.217 136.373C233.545 136.998 232.77 137.525 232.064 137.893C231.323 138.28 230.617 138.508 229.996 138.568C229.686 138.589 229.393 138.578 229.135 138.528C228.877 138.478 228.067 138.269 227.688 137.276C227.654 137.196 227.636 137.108 227.619 137.057C227.585 137.098 227.551 137.117 227.533 137.147C227.502 137.176 227.464 137.218 227.428 137.257C227.404 137.282 227.382 137.306 227.361 137.325C227.258 137.445 227.137 137.554 227.034 137.673L223.399 141.537C223.571 142.331 223.881 142.967 224.347 143.433C224.812 143.9 225.414 144.188 226.156 144.298C226.586 144.347 227.069 144.347 227.603 144.258C227.982 144.198 228.395 144.099 228.825 143.97C229.859 143.653 231.013 143.126 232.288 142.391C233.178 141.877 233.999 141.34 234.753 140.779C234.758 140.776 234.761 140.772 234.764 140.77C238.211 138.46 240.9 134.27 240.9 131.062C240.9 130.971 240.899 130.882 240.894 130.794L240.891 130.799Z" fill="white"/>
<path d="M222.514 136.459C222.493 134.146 222.183 132.295 221.533 130.934C220.895 129.554 219.965 128.739 218.759 128.481C218.124 128.345 217.418 128.382 216.645 128.591C215.949 128.777 215.2 129.103 214.401 129.564C213.265 130.219 212.248 131.063 211.387 132.056C210.509 133.06 209.802 134.221 209.268 135.542C208.736 136.807 208.349 138.228 208.107 139.771C208.097 139.828 208.088 139.885 208.08 139.943L207.552 140.213V134.109L203.101 136.675V166.003L207.552 163.437V150.079L208.107 149.76C208.349 151.023 208.736 151.997 209.268 152.649C209.802 153.354 210.509 153.701 211.387 153.692C212.248 153.691 213.265 153.364 214.401 152.708C215.2 152.247 215.949 151.709 216.645 151.093C217.559 150.323 218.362 149.427 219.052 148.415C220.189 146.747 221.05 144.879 221.636 142.833C222.222 140.787 222.515 138.671 222.515 136.506C222.515 136.49 222.515 136.474 222.514 136.459ZM216.537 143.449C216.193 144.661 215.728 145.704 215.125 146.608C214.522 147.491 213.781 148.197 212.902 148.704C212.61 148.872 212.329 148.999 212.06 149.087C211.919 149.133 211.78 149.169 211.644 149.195C211.522 149.217 211.402 149.232 211.284 149.239C210.784 149.269 210.353 149.16 209.991 148.931C209.63 148.704 209.319 148.406 209.061 147.998C208.803 147.611 208.613 147.164 208.493 146.656C208.479 146.596 208.465 146.535 208.452 146.475C208.443 146.43 208.434 146.384 208.425 146.339C208.346 145.941 208.304 145.541 208.304 145.118V144.323C208.304 143.858 208.344 143.361 208.425 142.825C208.433 142.77 208.442 142.715 208.452 142.657C208.484 142.466 208.52 142.27 208.562 142.068C208.734 141.234 208.992 140.389 209.371 139.535C209.733 138.691 210.198 137.907 210.767 137.181C211.034 136.841 211.326 136.534 211.644 136.256C212.004 135.943 212.396 135.666 212.817 135.424C213.661 134.937 214.401 134.788 215.039 134.957C215.676 135.125 216.158 135.622 216.503 136.437C216.838 137.211 217.027 138.277 217.036 139.617C217.037 139.652 217.037 139.688 217.037 139.724C217.054 140.985 216.882 142.237 216.537 143.449Z" fill="white"/>
<path d="M200.95 137.934V159.844L196.499 162.411V156.383L196.004 156.669C195.387 160 194.311 162.586 192.779 164.431C192.335 164.968 191.853 165.441 191.333 165.852C190.987 166.125 190.625 166.371 190.244 166.59C189.696 166.906 189.181 167.139 188.7 167.287C188.696 167.289 188.694 167.291 188.691 167.291C187.229 167.806 186.07 167.659 185.218 166.856C184.082 165.764 183.513 163.449 183.513 159.894V147.955L188.784 144.916V156.099C188.784 158.658 189.165 161.967 191.982 160.439C193.299 159.724 194.529 158.056 195.143 156.395C196.067 153.896 196.346 151.436 196.343 149.23C196.341 147.712 196.34 146.196 196.339 144.68C196.339 143.358 196.339 141.914 196.339 140.593L200.95 137.934Z" fill="white"/>
<path d="M256.869 98.3243V112.722L253.256 114.805V107.298L252.56 107.699C252.502 108.013 252.412 108.471 252.291 109.026C252.062 110.07 251.943 110.621 251.744 111.265C251.321 112.65 250.756 113.739 250.516 114.204C250.1 115.007 249.631 115.72 249.11 116.345C248.852 116.654 248.578 116.949 248.288 117.225C247.788 117.74 247.257 118.198 246.708 118.581C246.497 118.725 246.283 118.863 246.064 118.99C245.844 119.116 245.632 119.224 245.422 119.323C245.06 119.487 244.709 119.611 244.374 119.693C244.367 119.695 244.36 119.697 244.352 119.699V114.37C244.36 114.372 244.367 114.374 244.374 114.376C246.328 114.936 249.123 112.833 250.634 109.785C251.05 108.945 251.371 108.079 251.612 107.229C251.653 107.085 251.89 105.967 252.023 105.286L244.374 109.696V105.529L256.869 98.3243Z" fill="#02E56A"/>
</g>
</g>
<defs>
<linearGradient id="paint0_linear_3050_26411" x1="111.385" y1="203.099" x2="111.939" y2="197.094" gradientUnits="userSpaceOnUse">
<stop stop-color="#F2F3F5"/>
<stop offset="0.44" stop-color="#CFD1DD"/>
<stop offset="1" stop-color="#A7AAC1"/>
</linearGradient>
<linearGradient id="paint1_linear_3050_26411" x1="112.285" y1="199.026" x2="109.56" y2="202.514" gradientUnits="userSpaceOnUse">
<stop stop-color="#F2F3F5"/>
<stop offset="0.44" stop-color="#CFD1DD"/>
<stop offset="1" stop-color="#A7AAC1"/>
</linearGradient>
<linearGradient id="paint2_linear_3050_26411" x1="171.122" y1="100.555" x2="171.122" y2="14.7776" gradientUnits="userSpaceOnUse">
<stop stop-color="#09E4A8" stop-opacity="0.5"/>
<stop offset="0.11" stop-color="#09E4A8" stop-opacity="0.38"/>
<stop offset="0.27" stop-color="#09E4A8" stop-opacity="0.24"/>
<stop offset="0.43" stop-color="#09E4A8" stop-opacity="0.14"/>
<stop offset="0.6" stop-color="#09E4A8" stop-opacity="0.06"/>
<stop offset="0.78" stop-color="#09E4A8" stop-opacity="0.01"/>
<stop offset="1" stop-color="#09E4A8" stop-opacity="0"/>
</linearGradient>
<linearGradient id="paint3_linear_3050_26411" x1="207.851" y1="75.8201" x2="207.851" y2="31.989" gradientUnits="userSpaceOnUse">
<stop stop-color="white" stop-opacity="0"/>
<stop offset="1" stop-color="white"/>
</linearGradient>
<linearGradient id="paint4_linear_3050_26411" x1="193.896" y1="60.7973" x2="193.896" y2="26.3044" gradientUnits="userSpaceOnUse">
<stop stop-color="white" stop-opacity="0"/>
<stop offset="1" stop-color="white"/>
</linearGradient>
<linearGradient id="paint5_linear_3050_26411" x1="179.94" y1="78.3473" x2="179.94" y2="35.5434" gradientUnits="userSpaceOnUse">
<stop stop-color="white" stop-opacity="0"/>
<stop offset="1" stop-color="white"/>
</linearGradient>
<linearGradient id="paint6_linear_3050_26411" x1="138.559" y1="72.4409" x2="138.559" y2="38.6541" gradientUnits="userSpaceOnUse">
<stop stop-color="white" stop-opacity="0"/>
<stop offset="1" stop-color="white"/>
</linearGradient>
<linearGradient id="paint7_linear_3050_26411" x1="158.23" y1="65.6298" x2="158.23" y2="25.3764" gradientUnits="userSpaceOnUse">
<stop stop-color="white" stop-opacity="0"/>
<stop offset="1" stop-color="white"/>
</linearGradient>
<clipPath id="clip0_3050_26411">
<rect width="340" height="321" fill="white"/>
</clipPath>
<clipPath id="clip1_3050_26411">
<rect width="84.6771" height="36.6757" fill="white" transform="matrix(0.866306 -0.499514 0 1 183.513 140.622)"/>
</clipPath>
</defs>
</svg>
