<svg width="340" height="344" viewBox="0 0 340 344" fill="none" xmlns="http://www.w3.org/2000/svg">
<path d="M227.672 169.16V223.784" stroke="#00D763" stroke-width="0.742459" stroke-linecap="round" stroke-linejoin="round"/>
<path d="M213.195 72.9688L191.797 85.3236L213.195 97.6784L234.593 85.3236L213.195 72.9688Z" fill="#00D763"/>
<path d="M191.797 118.771V85.3301L213.195 97.6849V131.126L191.797 118.771Z" fill="#4331E8"/>
<path d="M234.59 118.771V85.3301L213.191 97.6849V131.126L234.59 118.771Z" fill="#15224B"/>
<path d="M234.594 98.5039L213.195 110.859L234.594 123.214L255.992 110.859L234.594 98.5039Z" fill="#00D763"/>
<path d="M213.195 165.222V110.865L234.594 123.22V177.577L213.195 165.222Z" fill="#4331E8"/>
<path d="M255.988 165.222V110.865L234.59 123.22V177.577L255.988 165.222Z" fill="#15224B"/>
<path d="M231.177 165.46V148.643L216.617 140.238V157.055L231.177 165.46Z" fill="#15224B"/>
<path d="M231.177 148.644V131.835L216.617 123.43V140.239L231.177 148.644Z" stroke="#00D763" stroke-width="0.742459" stroke-linecap="round" stroke-linejoin="round"/>
<path d="M225.253 130.981L221.711 128.939" stroke="#00D763" stroke-width="0.742459" stroke-linecap="round" stroke-linejoin="round"/>
<path d="M213.191 131.135V97.6934" stroke="#00D763" stroke-width="0.742459" stroke-linecap="round" stroke-linejoin="round"/>
<path d="M234.594 176.821V123.207" stroke="#00D763" stroke-width="0.742459" stroke-linecap="round" stroke-linejoin="round"/>
<path d="M216.613 157.059L231.173 165.463L199.669 183.654L185.109 175.242L216.613 157.059Z" fill="#BCC0E5"/>
<path d="M216.613 146.363V157.048L185.109 175.231V164.554L216.613 146.363Z" fill="#15224B"/>
<path d="M216.609 157.048L231.169 165.452V154.768L216.609 146.363V157.048Z" fill="#15224B"/>
<path d="M213.211 159.03L227.771 167.435V150.618L213.211 142.213V159.03Z" fill="#BCC0E5"/>
<path d="M227.771 150.618L213.211 142.213" stroke="#00D763" stroke-width="0.742459" stroke-linecap="round" stroke-linejoin="round"/>
<path d="M208.445 161.771L223.005 170.175V153.366L208.445 144.961V161.771Z" fill="#BCC0E5"/>
<path d="M223.005 153.366L208.445 144.961" stroke="#00D763" stroke-width="0.742459" stroke-linecap="round" stroke-linejoin="round"/>
<path d="M203.691 164.526L218.251 172.939V156.122L203.691 147.717V164.526Z" fill="#BCC0E5"/>
<path d="M218.251 156.122L203.691 147.717" stroke="#00D763" stroke-width="0.742459" stroke-linecap="round" stroke-linejoin="round"/>
<path d="M198.914 167.282L213.474 175.687V158.877L198.914 150.465V167.282Z" fill="#BCC0E5"/>
<path d="M213.474 158.877L198.914 150.465" stroke="#00D763" stroke-width="0.742459" stroke-linecap="round" stroke-linejoin="round"/>
<path d="M194.16 170.023L208.72 178.427V161.618L194.16 153.213V170.023Z" fill="#BCC0E5"/>
<path d="M208.72 161.618L194.16 153.213" stroke="#00D763" stroke-width="0.742459" stroke-linecap="round" stroke-linejoin="round"/>
<path d="M231.183 154.777V165.462L199.68 183.652V172.968L231.183 154.777Z" fill="#15224B"/>
<path d="M185.109 175.241L199.669 183.654V166.836L185.109 158.432V175.241Z" fill="#4331E8"/>
<path d="M159.696 206.517L276.642 274.039L159.696 341.561L42.7425 274.039L159.696 206.517Z" fill="url(#paint0_linear_6724_81739)" stroke="#040919" stroke-width="0.742459"/>
<path d="M159.878 213.495L159.692 213.388L159.507 213.495L48.6935 277.471L42.7465 274.038L159.692 206.517L276.639 274.038L270.691 277.471L159.878 213.495Z" fill="#D0D3F5" stroke="#040919" stroke-width="0.742459"/>
<path d="M159.876 227.529L159.69 227.422L159.505 227.529L60.8457 284.488L49.4336 277.893L159.69 214.239L269.947 277.893L258.528 284.488L159.876 227.529Z" fill="#080D07" stroke="#040919" stroke-width="0.742459"/>
<path d="M48.697 277.472L42.7429 274.039L159.326 206.731V213.603L48.697 277.472Z" fill="#040919" stroke="#040919" stroke-width="0.742459"/>
<path d="M159.692 213.811L48.6914 277.894" stroke="#040919" stroke-width="0.742459" stroke-linecap="round" stroke-linejoin="round"/>
<path d="M176.254 223.351V221.896C176.254 220.247 177.42 218.228 178.846 217.404L186.27 213.12C187.696 212.296 187.696 210.952 186.27 210.128L169.208 200.275C167.783 199.451 166.617 197.431 166.617 195.783V100.695" stroke="#00D763" stroke-width="0.742459" stroke-linecap="round" stroke-linejoin="round"/>
<path d="M176.254 223.35V240.746" stroke="white" stroke-width="0.742459" stroke-linecap="round" stroke-linejoin="round"/>
<path d="M179.464 261.244H173.539V267.169H179.464V261.244Z" fill="#15224B"/>
<path d="M179.464 255.324H173.539V261.249H179.464V255.324Z" fill="#15224B"/>
<path d="M173.542 255.324H167.617V261.249H173.542V255.324Z" fill="#15224B"/>
<path d="M116.734 294.014H110.809V299.939H116.734V294.014Z" fill="#15224B"/>
<path d="M116.734 288.084H110.809V294.009H116.734V288.084Z" fill="#15224B"/>
<path d="M116.734 282.166H110.809V288.091H116.734V282.166Z" fill="#15224B"/>
<path d="M179.464 310.729H173.539V316.653H179.464V310.729Z" fill="#15224B"/>
<path d="M122.667 299.939H116.742V305.864H122.667" fill="#15224B"/>
<path d="M122.667 294.014H116.742V299.939H122.667V294.014Z" fill="#15224B"/>
<path d="M148.992 91.5781L127.594 103.933L148.992 116.288L170.39 103.933L148.992 91.5781Z" fill="#00D763"/>
<path d="M127.594 133.2V103.939L148.992 116.294V145.548L127.594 133.2Z" fill="#4331E8"/>
<path d="M170.386 133.2V103.939L148.988 116.294V145.548L170.386 133.2Z" fill="#15224B"/>
<path d="M148.988 144.798V116.287" stroke="#00D763" stroke-width="0.742459" stroke-linecap="round" stroke-linejoin="round"/>
<path d="M132.653 116.85C132.94 116.85 133.172 116.617 133.172 116.33C133.172 116.043 132.94 115.811 132.653 115.811C132.366 115.811 132.133 116.043 132.133 116.33C132.133 116.617 132.366 116.85 132.653 116.85Z" fill="#00D763"/>
<path d="M138.617 120.293C138.904 120.293 139.137 120.061 139.137 119.774C139.137 119.487 138.904 119.254 138.617 119.254C138.33 119.254 138.098 119.487 138.098 119.774C138.098 120.061 138.33 120.293 138.617 120.293Z" fill="#00D763"/>
<path d="M132.653 123.748C132.94 123.748 133.172 123.516 133.172 123.229C133.172 122.942 132.94 122.709 132.653 122.709C132.366 122.709 132.133 122.942 132.133 123.229C132.133 123.516 132.366 123.748 132.653 123.748Z" fill="#00D763"/>
<path d="M144.594 123.748C144.881 123.748 145.114 123.516 145.114 123.229C145.114 122.942 144.881 122.709 144.594 122.709C144.307 122.709 144.074 122.942 144.074 123.229C144.074 123.516 144.307 123.748 144.594 123.748Z" fill="#00D763"/>
<path d="M138.617 127.188C138.904 127.188 139.137 126.955 139.137 126.668C139.137 126.381 138.904 126.148 138.617 126.148C138.33 126.148 138.098 126.381 138.098 126.668C138.098 126.955 138.33 127.188 138.617 127.188Z" fill="#00D763"/>
<path d="M132.653 130.641C132.94 130.641 133.172 130.408 133.172 130.121C133.172 129.834 132.94 129.602 132.653 129.602C132.366 129.602 132.133 129.834 132.133 130.121C132.133 130.408 132.366 130.641 132.653 130.641Z" fill="#00D763"/>
<path d="M144.594 130.641C144.881 130.641 145.114 130.408 145.114 130.121C145.114 129.834 144.881 129.602 144.594 129.602C144.307 129.602 144.074 129.834 144.074 130.121C144.074 130.408 144.307 130.641 144.594 130.641Z" fill="#00D763"/>
<path d="M144.594 137.536C144.881 137.536 145.114 137.303 145.114 137.016C145.114 136.729 144.881 136.496 144.594 136.496C144.307 136.496 144.074 136.729 144.074 137.016C144.074 137.303 144.307 137.536 144.594 137.536Z" fill="#00D763"/>
<path d="M138.617 134.088C138.904 134.088 139.137 133.856 139.137 133.569C139.137 133.282 138.904 133.049 138.617 133.049C138.33 133.049 138.098 133.282 138.098 133.569C138.098 133.856 138.33 134.088 138.617 134.088Z" fill="#00D763"/>
<path d="M148.992 169.215L127.594 181.57L148.992 193.924L170.39 181.57L148.992 169.215Z" fill="#00D763"/>
<path d="M127.594 231.537V181.576L148.992 193.931V243.892L127.594 231.537Z" fill="#4331E8"/>
<path d="M170.386 231.537V181.576L148.988 193.931V243.892L170.386 231.537Z" fill="#15224B"/>
<path d="M148.988 295.68L170.386 283.326L148.988 270.971" stroke="#00D763" stroke-width="0.742459" stroke-linecap="round" stroke-linejoin="round"/>
<path d="M148.992 295.68V326.017L127.594 313.662V301.434" stroke="#00D763" stroke-width="0.742459" stroke-linecap="round" stroke-linejoin="round"/>
<path d="M170.386 313.67V283.332L148.988 295.687V326.024L170.386 313.67Z" stroke="#00D763" stroke-width="0.742459" stroke-linecap="round" stroke-linejoin="round"/>
<path d="M148.987 295.675L143.27 292.371" stroke="#00D763" stroke-width="0.742459" stroke-linecap="round" stroke-linejoin="round"/>
<path d="M127.597 246.383L106.199 258.738L127.597 271.092L148.996 258.738L127.597 246.383Z" stroke="#00D763" stroke-width="0.742459" stroke-linecap="round" stroke-linejoin="round"/>
<path d="M106.199 289.082V258.744L127.597 271.099V301.437L106.199 289.082Z" stroke="#00D763" stroke-width="0.742459" stroke-linecap="round" stroke-linejoin="round"/>
<path d="M148.992 289.082V258.744L127.594 271.099V301.437L148.992 289.082Z" stroke="#00D763" stroke-width="0.742459" stroke-linecap="round" stroke-linejoin="round"/>
<path d="M127.597 216.041L106.199 228.388L127.597 240.743L148.996 228.388L127.597 216.041Z" fill="#00D763"/>
<path d="M106.199 258.74V228.395L127.597 240.749V271.094L106.199 258.74Z" fill="#4331E8"/>
<path d="M148.992 258.74V228.395L127.594 240.749V271.094L148.992 258.74Z" fill="#15224B"/>
<path d="M106.199 248.121L84.8008 260.476L106.199 272.831L127.597 260.476L106.199 248.121Z" fill="#00D763"/>
<path d="M84.8008 271.1V260.482L106.199 272.837V283.455L84.8008 271.1Z" fill="#4331E8"/>
<path d="M127.594 271.1V260.482L106.195 272.837V283.455L127.594 271.1Z" fill="#15224B"/>
<path d="M234.586 200.143L213.188 212.497L234.586 224.852L255.984 212.497L234.586 200.143Z" fill="#4331E8"/>
<path d="M213.188 252.004V212.504L234.586 224.859V264.358L213.188 252.004Z" fill="#4331E8"/>
<path d="M255.98 252.004V212.504L234.582 224.859V264.358L255.98 252.004Z" fill="#15224B"/>
<path d="M84.8044 108.883L63.4062 121.238L84.8044 133.592L106.203 121.238L84.8044 108.883Z" fill="#00D763"/>
<path d="M63.4062 208.641V121.244L84.8044 133.599V220.988L63.4062 208.641Z" fill="#4331E8"/>
<path d="M106.199 208.641V121.244L84.8008 133.599V220.988L106.199 208.641Z" fill="#15224B"/>
<path d="M84.8008 220.239V133.592" stroke="#00D763" stroke-width="0.742459" stroke-linecap="round" stroke-linejoin="round"/>
<path d="M101.481 184.254C101.768 184.254 102 184.022 102 183.735C102 183.448 101.768 183.215 101.481 183.215C101.194 183.215 100.961 183.448 100.961 183.735C100.961 184.022 101.194 184.254 101.481 184.254Z" fill="#00D763"/>
<path d="M95.5041 187.698C95.7911 187.698 96.0238 187.465 96.0238 187.178C96.0238 186.891 95.7911 186.658 95.5041 186.658C95.2171 186.658 94.9844 186.891 94.9844 187.178C94.9844 187.465 95.2171 187.698 95.5041 187.698Z" fill="#00D763"/>
<path d="M101.481 191.153C101.768 191.153 102 190.92 102 190.633C102 190.346 101.768 190.113 101.481 190.113C101.194 190.113 100.961 190.346 100.961 190.633C100.961 190.92 101.194 191.153 101.481 191.153Z" fill="#00D763"/>
<path d="M89.5393 191.153C89.8263 191.153 90.059 190.92 90.059 190.633C90.059 190.346 89.8263 190.113 89.5393 190.113C89.2522 190.113 89.0195 190.346 89.0195 190.633C89.0195 190.92 89.2522 191.153 89.5393 191.153Z" fill="#00D763"/>
<path d="M95.5041 194.592C95.7911 194.592 96.0238 194.36 96.0238 194.072C96.0238 193.785 95.7911 193.553 95.5041 193.553C95.2171 193.553 94.9844 193.785 94.9844 194.072C94.9844 194.36 95.2171 194.592 95.5041 194.592Z" fill="#00D763"/>
<path d="M101.481 198.045C101.768 198.045 102 197.813 102 197.526C102 197.239 101.768 197.006 101.481 197.006C101.194 197.006 100.961 197.239 100.961 197.526C100.961 197.813 101.194 198.045 101.481 198.045Z" fill="#00D763"/>
<path d="M89.5393 198.045C89.8263 198.045 90.059 197.813 90.059 197.526C90.059 197.239 89.8263 197.006 89.5393 197.006C89.2522 197.006 89.0195 197.239 89.0195 197.526C89.0195 197.813 89.2522 198.045 89.5393 198.045Z" fill="#00D763"/>
<path d="M95.5041 201.493C95.7911 201.493 96.0238 201.26 96.0238 200.973C96.0238 200.686 95.7911 200.453 95.5041 200.453C95.2171 200.453 94.9844 200.686 94.9844 200.973C94.9844 201.26 95.2171 201.493 95.5041 201.493Z" fill="#00D763"/>
<path d="M101.481 204.94C101.768 204.94 102 204.707 102 204.42C102 204.133 101.768 203.9 101.481 203.9C101.194 203.9 100.961 204.133 100.961 204.42C100.961 204.707 101.194 204.94 101.481 204.94Z" fill="#00D763"/>
<path d="M89.5393 204.94C89.8263 204.94 90.059 204.707 90.059 204.42C90.059 204.133 89.8263 203.9 89.5393 203.9C89.2522 203.9 89.0195 204.133 89.0195 204.42C89.0195 204.707 89.2522 204.94 89.5393 204.94Z" fill="#00D763"/>
<path d="M89.5393 211.836C89.8263 211.836 90.059 211.604 90.059 211.317C90.059 211.03 89.8263 210.797 89.5393 210.797C89.2522 210.797 89.0195 211.03 89.0195 211.317C89.0195 211.604 89.2522 211.836 89.5393 211.836Z" fill="#00D763"/>
<path d="M95.5041 208.383C95.7911 208.383 96.0238 208.151 96.0238 207.863C96.0238 207.576 95.7911 207.344 95.5041 207.344C95.2171 207.344 94.9844 207.576 94.9844 207.863C94.9844 208.151 95.2171 208.383 95.5041 208.383Z" fill="#00D763"/>
<path d="M213.191 199.066L191.793 211.421L213.191 223.776L234.589 211.421L213.191 199.066Z" fill="#00D763"/>
<path d="M191.793 308.165V211.428L213.191 223.783V311.105L205.076 315.827L191.793 308.165Z" fill="#15224B"/>
<path d="M234.586 298.75V211.428L213.188 223.783V311.105L234.586 298.75Z" fill="#15224B"/>
<path d="M213.188 310.354V223.774L234.229 211.627" stroke="#00D763" stroke-width="0.742459" stroke-linecap="round" stroke-linejoin="round"/>
<path d="M191.793 308.158L205.061 315.813" stroke="white" stroke-width="0.742459" stroke-linecap="round" stroke-linejoin="round"/>
<path d="M196.528 282.788C196.815 282.788 197.047 282.555 197.047 282.268C197.047 281.981 196.815 281.748 196.528 281.748C196.24 281.748 196.008 281.981 196.008 282.268C196.008 282.555 196.24 282.788 196.528 282.788Z" fill="#00D763"/>
<path d="M202.492 286.231C202.779 286.231 203.012 285.998 203.012 285.711C203.012 285.424 202.779 285.191 202.492 285.191C202.205 285.191 201.973 285.424 201.973 285.711C201.973 285.998 202.205 286.231 202.492 286.231Z" fill="#00D763"/>
<path d="M196.528 289.686C196.815 289.686 197.047 289.453 197.047 289.166C197.047 288.879 196.815 288.646 196.528 288.646C196.24 288.646 196.008 288.879 196.008 289.166C196.008 289.453 196.24 289.686 196.528 289.686Z" fill="#00D763"/>
<path d="M208.469 289.686C208.756 289.686 208.989 289.453 208.989 289.166C208.989 288.879 208.756 288.646 208.469 288.646C208.182 288.646 207.949 288.879 207.949 289.166C207.949 289.453 208.182 289.686 208.469 289.686Z" fill="#00D763"/>
<path d="M202.492 293.125C202.779 293.125 203.012 292.893 203.012 292.606C203.012 292.319 202.779 292.086 202.492 292.086C202.205 292.086 201.973 292.319 201.973 292.606C201.973 292.893 202.205 293.125 202.492 293.125Z" fill="#00D763"/>
<path d="M196.528 296.579C196.815 296.579 197.047 296.346 197.047 296.059C197.047 295.772 196.815 295.539 196.528 295.539C196.24 295.539 196.008 295.772 196.008 296.059C196.008 296.346 196.24 296.579 196.528 296.579Z" fill="#00D763"/>
<path d="M208.469 296.579C208.756 296.579 208.989 296.346 208.989 296.059C208.989 295.772 208.756 295.539 208.469 295.539C208.182 295.539 207.949 295.772 207.949 296.059C207.949 296.346 208.182 296.579 208.469 296.579Z" fill="#00D763"/>
<path d="M202.492 300.026C202.779 300.026 203.012 299.793 203.012 299.506C203.012 299.219 202.779 298.986 202.492 298.986C202.205 298.986 201.973 299.219 201.973 299.506C201.973 299.793 202.205 300.026 202.492 300.026Z" fill="#00D763"/>
<path d="M196.528 303.473C196.815 303.473 197.047 303.24 197.047 302.953C197.047 302.666 196.815 302.434 196.528 302.434C196.24 302.434 196.008 302.666 196.008 302.953C196.008 303.24 196.24 303.473 196.528 303.473Z" fill="#00D763"/>
<path d="M208.469 303.473C208.756 303.473 208.989 303.24 208.989 302.953C208.989 302.666 208.756 302.434 208.469 302.434C208.182 302.434 207.949 302.666 207.949 302.953C207.949 303.24 208.182 303.473 208.469 303.473Z" fill="#00D763"/>
<path d="M208.469 310.37C208.756 310.37 208.989 310.137 208.989 309.85C208.989 309.563 208.756 309.33 208.469 309.33C208.182 309.33 207.949 309.563 207.949 309.85C207.949 310.137 208.182 310.37 208.469 310.37Z" fill="#00D763"/>
<path d="M202.492 306.916C202.779 306.916 203.012 306.684 203.012 306.397C203.012 306.11 202.779 305.877 202.492 305.877C202.205 305.877 201.973 306.11 201.973 306.397C201.973 306.684 202.205 306.916 202.492 306.916Z" fill="#00D763"/>
<path d="M148.996 243.891V193.93" stroke="#00D763" stroke-width="0.742459" stroke-linecap="round" stroke-linejoin="round"/>
<path d="M127.598 271.089V240.744" stroke="#00D763" stroke-width="0.742459" stroke-linecap="round" stroke-linejoin="round"/>
<path d="M106.199 283.442V272.824" stroke="#00D763" stroke-width="0.742459" stroke-linecap="round" stroke-linejoin="round"/>
<path d="M84.7969 271.095L106.195 283.45L148.991 258.74" stroke="white" stroke-width="0.742459" stroke-linecap="round" stroke-linejoin="round"/>
<path d="M216.445 247.273V230.463L231.005 222.059V238.868L216.445 247.273Z" fill="#15224B"/>
<path d="M216.445 264.093V247.276L231.005 238.871V255.688L216.445 264.093Z" stroke="#4331E8" stroke-width="0.742459" stroke-linecap="round" stroke-linejoin="round"/>
<path d="M216.445 280.902V264.092L231.005 255.688V272.497L216.445 280.902Z" stroke="#4331E8" stroke-width="0.742459" stroke-linecap="round" stroke-linejoin="round"/>
<path d="M231.005 238.857L216.445 247.262L283.12 285.76L297.68 277.355L231.005 238.857Z" fill="#15224B"/>
<path d="M231.004 228.178V238.855L297.678 277.352V266.668L231.004 228.178Z" fill="#15224B"/>
<path d="M231.005 238.855L216.445 247.259V236.583L231.005 228.178V238.855Z" fill="#BCC0E5"/>
<path d="M234.951 241.145L220.391 249.55V232.74L234.951 224.328V241.145Z" fill="#BCC0E5"/>
<path d="M220.391 232.74L234.951 224.328" stroke="#00D763" stroke-width="0.742459" stroke-linecap="round" stroke-linejoin="round"/>
<path d="M239.705 243.886L225.145 252.291V235.481L239.705 227.076V243.886Z" fill="#BCC0E5"/>
<path d="M225.145 235.481L239.705 227.076" stroke="#00D763" stroke-width="0.742459" stroke-linecap="round" stroke-linejoin="round"/>
<path d="M244.482 246.642L229.922 255.054V238.237L244.482 229.832V246.642Z" fill="white"/>
<path d="M229.922 238.237L244.482 229.832" stroke="#00D763" stroke-width="0.742459" stroke-linecap="round" stroke-linejoin="round"/>
<path d="M249.236 249.397L234.676 257.802V240.992L249.236 232.58V249.397Z" fill="white"/>
<path d="M234.676 240.992L249.236 232.58" stroke="#00D763" stroke-width="0.742459" stroke-linecap="round" stroke-linejoin="round"/>
<path d="M254.001 252.138L239.441 260.543V243.733L254.001 235.328V252.138Z" fill="#BCC0E5"/>
<path d="M239.441 243.733L254.001 235.328" stroke="#00D763" stroke-width="0.742459" stroke-linecap="round" stroke-linejoin="round"/>
<path d="M258.755 254.901L244.195 263.306V246.489L258.755 238.084V254.901Z" fill="#BCC0E5"/>
<path d="M244.195 246.489L258.755 238.084" stroke="#00D763" stroke-width="0.742459" stroke-linecap="round" stroke-linejoin="round"/>
<path d="M263.528 257.637L248.961 266.042V249.233L263.528 240.82V257.637Z" fill="white"/>
<path d="M248.961 249.233L263.528 240.82" stroke="#00D763" stroke-width="0.742459" stroke-linecap="round" stroke-linejoin="round"/>
<path d="M268.29 260.39L253.73 268.795V251.985L268.29 243.58V260.39Z" fill="#BCC0E5"/>
<path d="M253.73 251.985L268.29 243.58" stroke="#00D763" stroke-width="0.742459" stroke-linecap="round" stroke-linejoin="round"/>
<path d="M286.658 256.503L272.098 264.915V248.098L286.658 239.693V256.503Z" fill="#BCC0E5"/>
<path d="M272.098 248.098L286.658 239.693" stroke="#00D763" stroke-width="0.742459" stroke-linecap="round" stroke-linejoin="round"/>
<path d="M216.445 236.584V247.261L283.12 285.758V275.081L216.445 236.584Z" fill="#4331E8"/>
<path d="M297.681 277.368L283.121 285.773V268.963L297.681 260.559V277.368Z" fill="#4331E8"/>
<path d="M222.367 263.231L225.909 261.189" stroke="#4331E8" stroke-width="0.742459" stroke-linecap="round" stroke-linejoin="round"/>
<path d="M216.445 297.72V280.903L231.005 272.498V289.315L216.445 297.72Z" stroke="#4331E8" stroke-width="0.742459" stroke-linecap="round" stroke-linejoin="round"/>
<path d="M222.367 280.04L225.909 277.998" stroke="#4331E8" stroke-width="0.742459" stroke-linecap="round" stroke-linejoin="round"/>
<path d="M152.41 237.458V220.649L166.97 212.236V229.053L152.41 237.458Z" stroke="#4331E8" stroke-width="0.742459" stroke-linecap="round" stroke-linejoin="round"/>
<path d="M158.34 219.791L161.881 217.742" stroke="#4331E8" stroke-width="0.742459" stroke-linecap="round" stroke-linejoin="round"/>
<path d="M152.41 220.646V203.829L166.97 195.424V212.234L152.41 220.646Z" stroke="#4331E8" stroke-width="0.742459" stroke-linecap="round" stroke-linejoin="round"/>
<path d="M158.34 202.97L161.881 200.928" stroke="#4331E8" stroke-width="0.742459" stroke-linecap="round" stroke-linejoin="round"/>
<path d="M167.612 310.734H161.688V316.659H167.612V310.734Z" fill="#15224B"/>
<path d="M167.612 316.654H161.688V322.579H167.612V316.654Z" fill="#15224B"/>
<path d="M161.683 322.588H155.758V328.513H161.683V322.588Z" fill="#15224B"/>
<path d="M89.5273 211.334L90.693 212.01C92.1409 212.849 93.3288 214.898 93.3288 216.576V246.297" stroke="#00D763" stroke-width="0.742459" stroke-linecap="round" stroke-linejoin="round"/>
<path d="M134.83 177.391V221.509C134.83 223.283 133.575 225.459 132.038 226.35L126.106 229.772C124.569 230.656 124.569 232.111 126.106 232.995L133.939 237.516C135.476 238.4 136.731 240.583 136.731 242.357V270.185" stroke="white" stroke-width="0.742459" stroke-linecap="round" stroke-linejoin="round"/>
<path d="M138.63 133.564L137.419 134.262C135.994 135.087 134.828 137.106 134.828 138.754V177.393" stroke="#00D763" stroke-width="0.742459" stroke-linecap="round" stroke-linejoin="round"/>
<path d="M93.332 246.275V303.528" stroke="white" stroke-width="0.742459" stroke-linecap="round" stroke-linejoin="round"/>
<path d="M155.187 81.8398V96.5632C155.187 98.1966 154.029 100.209 152.611 101.025L151.096 101.902C149.968 102.555 149.968 103.617 151.096 104.27C152.225 104.923 154.066 104.923 155.195 104.27L164.001 99.1841C165.426 98.36 166.592 99.0356 166.592 100.684" stroke="#00D763" stroke-width="0.742459" stroke-linecap="round" stroke-linejoin="round"/>
<path d="M148.992 2L127.594 14.3548L148.992 26.7096L170.39 14.3548L148.992 2Z" fill="#00D763"/>
<path d="M127.594 75.5266V14.3613L148.992 26.7161V87.874L127.594 75.5266Z" fill="#15224B"/>
<path d="M170.386 75.5266V14.3613L148.988 26.7161V87.874L170.386 75.5266Z" fill="#15224B"/>
<path d="M148.988 87.1243V26.709" stroke="#00D763" stroke-width="0.742459" stroke-linecap="round" stroke-linejoin="round"/>
<path d="M145.572 81.8489V65.0392L131.012 56.627V73.4441L145.572 81.8489Z" stroke="#00D763" stroke-width="0.742459" stroke-linecap="round" stroke-linejoin="round"/>
<path d="M139.655 64.1742L136.113 62.125" stroke="#00D763" stroke-width="0.742459" stroke-linecap="round" stroke-linejoin="round"/>
<path d="M145.572 65.0344V48.2173L131.012 39.8125V56.6222L145.572 65.0344Z" stroke="#00D763" stroke-width="0.742459" stroke-linecap="round" stroke-linejoin="round"/>
<path d="M139.655 47.3543L136.113 45.3125" stroke="#00D763" stroke-width="0.742459" stroke-linecap="round" stroke-linejoin="round"/>
<path d="M176.251 241.55C177.022 241.55 177.647 241.188 177.647 240.741C177.647 240.294 177.022 239.932 176.251 239.932C175.48 239.932 174.855 240.294 174.855 240.741C174.855 241.188 175.48 241.55 176.251 241.55Z" fill="white"/>
<path d="M136.728 270.996C137.499 270.996 138.124 270.633 138.124 270.186C138.124 269.739 137.499 269.377 136.728 269.377C135.957 269.377 135.332 269.739 135.332 270.186C135.332 270.633 135.957 270.996 136.728 270.996Z" fill="white"/>
<defs>
<linearGradient id="paint0_linear_6724_81739" x1="108.875" y1="274.039" x2="88.8653" y2="274.039" gradientUnits="userSpaceOnUse">
<stop stop-color="#080D07"/>
<stop offset="0.05" stop-color="#080C28"/>
<stop offset="0.24" stop-color="#1A1762"/>
<stop offset="0.42" stop-color="#282092"/>
<stop offset="0.59" stop-color="#3427B7"/>
<stop offset="0.75" stop-color="#3C2CD2"/>
<stop offset="0.89" stop-color="#412FE2"/>
<stop offset="1" stop-color="#4331E8"/>
</linearGradient>
</defs>
</svg>
