<svg width="340" height="344" viewBox="0 0 340 344" fill="none" xmlns="http://www.w3.org/2000/svg">
<g clip-path="url(#clip0_6724_82248)">
<path d="M173.932 204.914L47.8633 277.699L173.932 350.483L300.001 277.699L173.932 204.914Z" fill="url(#paint0_linear_6724_82248)"/>
<path d="M47.8633 277.699L173.932 350.484L300.001 277.699" stroke="#040919" stroke-width="1.17882" stroke-linecap="round" stroke-linejoin="round"/>
<path d="M187.335 278.865C187.979 278.865 188.501 278.342 188.501 277.698C188.501 277.054 187.979 276.531 187.335 276.531C186.69 276.531 186.168 277.054 186.168 277.698C186.168 278.342 186.69 278.865 187.335 278.865Z" fill="#00D763"/>
<path d="M173.93 286.597C174.575 286.597 175.097 286.075 175.097 285.43C175.097 284.786 174.575 284.264 173.93 284.264C173.286 284.264 172.764 284.786 172.764 285.43C172.764 286.075 173.286 286.597 173.93 286.597Z" fill="#00D763"/>
<path d="M200.733 286.597C201.377 286.597 201.9 286.075 201.9 285.43C201.9 284.786 201.377 284.264 200.733 284.264C200.089 284.264 199.566 284.786 199.566 285.43C199.566 286.075 200.089 286.597 200.733 286.597Z" fill="#00D763"/>
<path d="M187.335 294.331C187.979 294.331 188.501 293.809 188.501 293.165C188.501 292.52 187.979 291.998 187.335 291.998C186.69 291.998 186.168 292.52 186.168 293.165C186.168 293.809 186.69 294.331 187.335 294.331Z" fill="#00D763"/>
<path d="M173.93 302.064C174.575 302.064 175.097 301.542 175.097 300.897C175.097 300.253 174.575 299.73 173.93 299.73C173.286 299.73 172.764 300.253 172.764 300.897C172.764 301.542 173.286 302.064 173.93 302.064Z" fill="#00D763"/>
<path d="M214.132 294.331C214.776 294.331 215.298 293.809 215.298 293.165C215.298 292.52 214.776 291.998 214.132 291.998C213.487 291.998 212.965 292.52 212.965 293.165C212.965 293.809 213.487 294.331 214.132 294.331Z" fill="#00D763"/>
<path d="M200.733 302.064C201.377 302.064 201.9 301.542 201.9 300.897C201.9 300.253 201.377 299.73 200.733 299.73C200.089 299.73 199.566 300.253 199.566 300.897C199.566 301.542 200.089 302.064 200.733 302.064Z" fill="#00D763"/>
<path d="M187.335 309.816C187.979 309.816 188.501 309.293 188.501 308.649C188.501 308.005 187.979 307.482 187.335 307.482C186.69 307.482 186.168 308.005 186.168 308.649C186.168 309.293 186.69 309.816 187.335 309.816Z" fill="#00D763"/>
<path d="M173.93 317.55C174.575 317.55 175.097 317.028 175.097 316.383C175.097 315.739 174.575 315.217 173.93 315.217C173.286 315.217 172.764 315.739 172.764 316.383C172.764 317.028 173.286 317.55 173.93 317.55Z" fill="#00D763"/>
<path d="M214.132 309.816C214.776 309.816 215.298 309.293 215.298 308.649C215.298 308.005 214.776 307.482 214.132 307.482C213.487 307.482 212.965 308.005 212.965 308.649C212.965 309.293 213.487 309.816 214.132 309.816Z" fill="#00D763"/>
<path d="M200.733 317.55C201.377 317.55 201.9 317.028 201.9 316.383C201.9 315.739 201.377 315.217 200.733 315.217C200.089 315.217 199.566 315.739 199.566 316.383C199.566 317.028 200.089 317.55 200.733 317.55Z" fill="#00D763"/>
<path d="M227.548 302.064C228.192 302.064 228.714 301.542 228.714 300.897C228.714 300.253 228.192 299.73 227.548 299.73C226.903 299.73 226.381 300.253 226.381 300.897C226.381 301.542 226.903 302.064 227.548 302.064Z" fill="#00D763"/>
<path d="M187.335 325.285C187.979 325.285 188.501 324.762 188.501 324.118C188.501 323.474 187.979 322.951 187.335 322.951C186.69 322.951 186.168 323.474 186.168 324.118C186.168 324.762 186.69 325.285 187.335 325.285Z" fill="#00D763"/>
<path d="M173.93 333.033C174.575 333.033 175.097 332.51 175.097 331.866C175.097 331.222 174.575 330.699 173.93 330.699C173.286 330.699 172.764 331.222 172.764 331.866C172.764 332.51 173.286 333.033 173.93 333.033Z" fill="#00D763"/>
<path d="M160.53 278.865C161.174 278.865 161.697 278.342 161.697 277.698C161.697 277.054 161.174 276.531 160.53 276.531C159.886 276.531 159.363 277.054 159.363 277.698C159.363 278.342 159.886 278.865 160.53 278.865Z" fill="#00D763"/>
<path d="M214.132 263.382C214.776 263.382 215.298 262.86 215.298 262.216C215.298 261.571 214.776 261.049 214.132 261.049C213.487 261.049 212.965 261.571 212.965 262.216C212.965 262.86 213.487 263.382 214.132 263.382Z" fill="#00D763"/>
<path d="M200.733 271.117C201.377 271.117 201.9 270.594 201.9 269.95C201.9 269.306 201.377 268.783 200.733 268.783C200.089 268.783 199.566 269.306 199.566 269.95C199.566 270.594 200.089 271.117 200.733 271.117Z" fill="#00D763"/>
<path d="M227.548 271.117C228.192 271.117 228.714 270.594 228.714 269.95C228.714 269.306 228.192 268.783 227.548 268.783C226.903 268.783 226.381 269.306 226.381 269.95C226.381 270.594 226.903 271.117 227.548 271.117Z" fill="#00D763"/>
<path d="M214.132 278.865C214.776 278.865 215.298 278.342 215.298 277.698C215.298 277.054 214.776 276.531 214.132 276.531C213.487 276.531 212.965 277.054 212.965 277.698C212.965 278.342 213.487 278.865 214.132 278.865Z" fill="#00D763"/>
<path d="M240.952 278.865C241.596 278.865 242.119 278.342 242.119 277.698C242.119 277.054 241.596 276.531 240.952 276.531C240.308 276.531 239.785 277.054 239.785 277.698C239.785 278.342 240.308 278.865 240.952 278.865Z" fill="#00D763"/>
<path d="M227.548 286.597C228.192 286.597 228.714 286.075 228.714 285.43C228.714 284.786 228.192 284.264 227.548 284.264C226.903 284.264 226.381 284.786 226.381 285.43C226.381 286.075 226.903 286.597 227.548 286.597Z" fill="#00D763"/>
<path d="M240.952 294.331C241.596 294.331 242.119 293.809 242.119 293.165C242.119 292.52 241.596 291.998 240.952 291.998C240.308 291.998 239.785 292.52 239.785 293.165C239.785 293.809 240.308 294.331 240.952 294.331Z" fill="#00D763"/>
<path d="M254.352 286.597C254.997 286.597 255.519 286.075 255.519 285.43C255.519 284.786 254.997 284.264 254.352 284.264C253.708 284.264 253.186 284.786 253.186 285.43C253.186 286.075 253.708 286.597 254.352 286.597Z" fill="#00D763"/>
<path d="M227.548 255.648C228.192 255.648 228.714 255.125 228.714 254.481C228.714 253.837 228.192 253.314 227.548 253.314C226.903 253.314 226.381 253.837 226.381 254.481C226.381 255.125 226.903 255.648 227.548 255.648Z" fill="#00D763"/>
<path d="M240.952 263.382C241.596 263.382 242.119 262.86 242.119 262.216C242.119 261.571 241.596 261.049 240.952 261.049C240.308 261.049 239.785 261.571 239.785 262.216C239.785 262.86 240.308 263.382 240.952 263.382Z" fill="#00D763"/>
<path d="M254.352 271.117C254.997 271.117 255.519 270.594 255.519 269.95C255.519 269.306 254.997 268.783 254.352 268.783C253.708 268.783 253.186 269.306 253.186 269.95C253.186 270.594 253.708 271.117 254.352 271.117Z" fill="#00D763"/>
<path d="M267.751 278.865C268.395 278.865 268.917 278.342 268.917 277.698C268.917 277.054 268.395 276.531 267.751 276.531C267.106 276.531 266.584 277.054 266.584 277.698C266.584 278.342 267.106 278.865 267.751 278.865Z" fill="#00D763"/>
<path d="M147.132 286.597C147.776 286.597 148.298 286.075 148.298 285.43C148.298 284.786 147.776 284.264 147.132 284.264C146.487 284.264 145.965 284.786 145.965 285.43C145.965 286.075 146.487 286.597 147.132 286.597Z" fill="#00D763"/>
<path d="M160.53 294.331C161.174 294.331 161.697 293.809 161.697 293.165C161.697 292.52 161.174 291.998 160.53 291.998C159.886 291.998 159.363 292.52 159.363 293.165C159.363 293.809 159.886 294.331 160.53 294.331Z" fill="#00D763"/>
<path d="M133.733 294.331C134.377 294.331 134.9 293.809 134.9 293.165C134.9 292.52 134.377 291.998 133.733 291.998C133.089 291.998 132.566 292.52 132.566 293.165C132.566 293.809 133.089 294.331 133.733 294.331Z" fill="#00D763"/>
<path d="M147.132 302.081C147.776 302.081 148.298 301.559 148.298 300.915C148.298 300.27 147.776 299.748 147.132 299.748C146.487 299.748 145.965 300.27 145.965 300.915C145.965 301.559 146.487 302.081 147.132 302.081Z" fill="#00D763"/>
<path d="M160.53 309.816C161.174 309.816 161.697 309.293 161.697 308.649C161.697 308.005 161.174 307.482 160.53 307.482C159.886 307.482 159.363 308.005 159.363 308.649C159.363 309.293 159.886 309.816 160.53 309.816Z" fill="#00D763"/>
<path d="M133.733 309.816C134.377 309.816 134.9 309.293 134.9 308.649C134.9 308.005 134.377 307.482 133.733 307.482C133.089 307.482 132.566 308.005 132.566 308.649C132.566 309.293 133.089 309.816 133.733 309.816Z" fill="#00D763"/>
<path d="M147.132 317.55C147.776 317.55 148.298 317.028 148.298 316.383C148.298 315.739 147.776 315.217 147.132 315.217C146.487 315.217 145.965 315.739 145.965 316.383C145.965 317.028 146.487 317.55 147.132 317.55Z" fill="#00D763"/>
<path d="M120.317 302.081C120.961 302.081 121.484 301.559 121.484 300.915C121.484 300.27 120.961 299.748 120.317 299.748C119.673 299.748 119.15 300.27 119.15 300.915C119.15 301.559 119.673 302.081 120.317 302.081Z" fill="#00D763"/>
<path d="M160.53 325.285C161.174 325.285 161.697 324.762 161.697 324.118C161.697 323.474 161.174 322.951 160.53 322.951C159.886 322.951 159.363 323.474 159.363 324.118C159.363 324.762 159.886 325.285 160.53 325.285Z" fill="#00D763"/>
<path d="M133.733 278.865C134.377 278.865 134.9 278.342 134.9 277.698C134.9 277.054 134.377 276.531 133.733 276.531C133.089 276.531 132.566 277.054 132.566 277.698C132.566 278.342 133.089 278.865 133.733 278.865Z" fill="#00D763"/>
<path d="M120.317 286.597C120.961 286.597 121.484 286.075 121.484 285.43C121.484 284.786 120.961 284.264 120.317 284.264C119.673 284.264 119.15 284.786 119.15 285.43C119.15 286.075 119.673 286.597 120.317 286.597Z" fill="#00D763"/>
<path d="M147.132 271.117C147.776 271.117 148.298 270.594 148.298 269.95C148.298 269.306 147.776 268.783 147.132 268.783C146.487 268.783 145.965 269.306 145.965 269.95C145.965 270.594 146.487 271.117 147.132 271.117Z" fill="#00D763"/>
<path d="M106.913 294.331C107.557 294.331 108.079 293.809 108.079 293.165C108.079 292.52 107.557 291.998 106.913 291.998C106.268 291.998 105.746 292.52 105.746 293.165C105.746 293.809 106.268 294.331 106.913 294.331Z" fill="#00D763"/>
<path d="M120.317 255.648C120.961 255.648 121.484 255.125 121.484 254.481C121.484 253.837 120.961 253.314 120.317 253.314C119.673 253.314 119.15 253.837 119.15 254.481C119.15 255.125 119.673 255.648 120.317 255.648Z" fill="#00D763"/>
<path d="M106.913 263.382C107.557 263.382 108.079 262.86 108.079 262.216C108.079 261.571 107.557 261.049 106.913 261.049C106.268 261.049 105.746 261.571 105.746 262.216C105.746 262.86 106.268 263.382 106.913 263.382Z" fill="#00D763"/>
<path d="M93.5124 271.117C94.1568 271.117 94.6791 270.594 94.6791 269.95C94.6791 269.306 94.1568 268.783 93.5124 268.783C92.8681 268.783 92.3457 269.306 92.3457 269.95C92.3457 270.594 92.8681 271.117 93.5124 271.117Z" fill="#00D763"/>
<path d="M133.733 263.382C134.377 263.382 134.9 262.86 134.9 262.216C134.9 261.571 134.377 261.049 133.733 261.049C133.089 261.049 132.566 261.571 132.566 262.216C132.566 262.86 133.089 263.382 133.733 263.382Z" fill="#00D763"/>
<path d="M120.317 271.117C120.961 271.117 121.484 270.594 121.484 269.95C121.484 269.306 120.961 268.783 120.317 268.783C119.673 268.783 119.15 269.306 119.15 269.95C119.15 270.594 119.673 271.117 120.317 271.117Z" fill="#00D763"/>
<path d="M106.913 278.865C107.557 278.865 108.079 278.342 108.079 277.698C108.079 277.054 107.557 276.531 106.913 276.531C106.268 276.531 105.746 277.054 105.746 277.698C105.746 278.342 106.268 278.865 106.913 278.865Z" fill="#00D763"/>
<path d="M93.5124 286.597C94.1568 286.597 94.6791 286.075 94.6791 285.43C94.6791 284.786 94.1568 284.264 93.5124 284.264C92.8681 284.264 92.3457 284.786 92.3457 285.43C92.3457 286.075 92.8681 286.597 93.5124 286.597Z" fill="#00D763"/>
<path d="M80.114 278.865C80.7583 278.865 81.2807 278.342 81.2807 277.698C81.2807 277.054 80.7583 276.531 80.114 276.531C79.4696 276.531 78.9473 277.054 78.9473 277.698C78.9473 278.342 79.4696 278.865 80.114 278.865Z" fill="#00D763"/>
<path d="M180.147 303.935L305.038 231.826L180.147 159.717L55.248 231.826L180.147 303.935Z" fill="url(#paint1_linear_6724_82248)"/>
<path d="M180.147 167.919L297.939 235.923L305.038 231.826L180.147 159.717L55.248 231.826L62.355 235.923L180.147 167.919Z" fill="#040919"/>
<path d="M180.147 159.717V167.919L62.355 235.923L55.248 231.826L180.147 159.717Z" fill="#040919"/>
<path d="M305.038 231.826L180.147 159.717L55.248 231.826" stroke="#4331E8" stroke-width="0.787906" stroke-linecap="round" stroke-linejoin="round"/>
<path d="M201.123 218.264H194.836V224.551H201.123V218.264Z" fill="#040919"/>
<path d="M201.123 211.977H194.836V218.264H201.123V211.977Z" fill="#040919"/>
<path d="M194.836 211.977H188.549V218.264H194.836V211.977Z" fill="#040919"/>
<path d="M134.553 253.035H128.266V259.323H134.553V253.035Z" fill="#040919"/>
<path d="M134.553 246.748H128.266V253.036H134.553V246.748Z" fill="#040919"/>
<path d="M201.123 270.77H194.836V277.057H201.123V270.77Z" fill="#040919"/>
<path d="M140.848 259.33H134.561V265.618H140.848" fill="#040919"/>
<path d="M140.848 253.035H134.561V259.323H140.848V253.035Z" fill="#040919"/>
<path d="M188.541 270.773H182.254V277.061H188.541V270.773Z" fill="#040919"/>
<path d="M188.541 277.061H182.254V283.348H188.541V277.061Z" fill="#040919"/>
<path d="M182.254 283.35H175.967V289.637H182.254V283.35Z" fill="#040919"/>
<path d="M80.1641 133.086C80.1641 118.061 89.9814 103.051 109.624 91.5872C129.329 80.0916 155.212 74.332 181.142 74.332C207.072 74.332 232.994 80.0759 252.842 91.5872C272.768 103.138 282.735 118.297 282.735 133.433" stroke="#00D763" stroke-width="0.787906" stroke-linecap="round" stroke-linejoin="round"/>
<path d="M181.496 233.576C234.75 233.576 277.92 190.667 277.92 137.735C277.92 84.804 234.75 41.8945 181.496 41.8945C128.243 41.8945 85.0723 84.804 85.0723 137.735C85.0723 190.667 128.243 233.576 181.496 233.576Z" fill="#4331E8"/>
<path d="M167.478 231.166L174.522 229.086L180.116 222.499L173.072 217.905L161.679 213.966L160.466 211.949L145.669 201.281L134.725 195.757L127.066 196.671L121.102 190.738L116.918 182.016L116.24 173.334L113.097 172.609L108.023 171.529L105.935 161.956L112.08 155.96L123.67 168.346L125.159 163.8L127.161 157.158L139.751 143.401L149.734 142.96L144.014 134.584L154.997 133.418L155.084 129.03C155.084 129.03 148.497 112.389 146.803 111.696C145.117 111.002 143.242 110.766 143.242 110.766L134.26 124.405L129.926 108.757L131.707 105.621L145.74 100.507L142.572 93.7314L136.899 94.8896L131.549 90.7216L127.767 77.3035C127.767 77.3035 128.28 67.0607 129.257 68.1244C130.234 69.1881 125.159 67.0371 125.159 67.0371L109.338 82.094L114.665 85.4032L111.844 93.5344L104.981 110.112L97.1967 129.203L96.8027 147.199L103.665 170.607L115.949 185.712L128.414 204.542L127.649 211.248L137.742 218.315L148.844 227.943L159.512 231.166H167.462H167.478Z" fill="#00D763"/>
<path d="M140.056 88.0816L145.863 80.8171L142.932 74.7266L138.48 77.0351L135.242 86.4821L140.056 88.0816Z" fill="#00D763"/>
<path d="M146.102 86.19L146.866 82.8887L151.696 84.5433L149.702 86.0954L146.102 86.19Z" fill="#00D763"/>
<path d="M156.942 84.89L152.506 83.1015L154.783 80.1074L159.424 78.3583L158.313 76.3964L160.393 73.7963L170.249 72.2441L172.4 74.7182L159.77 81.8251L156.942 84.89Z" fill="#00D763"/>
<path d="M164.194 85.3481C163.769 85.096 163.816 82.9213 163.816 82.9213L164.494 80.4631L175.461 75.2708L181.441 74.1992L186.531 79.3521L186.579 89.8234L186.169 99.688L174.894 109.356L169.891 119.898L166.125 118.74L164.817 102.714L166.645 100.161L166.4 87.1445L164.186 85.3402L164.194 85.3481Z" fill="#00D763"/>
<path d="M208.765 122.032L204.959 118.046L205.203 111.711L207.945 112.562L209.411 116.147L214.729 121.505V124.239L209.521 126.854L208.765 122.032Z" fill="#00D763"/>
<path d="M207.14 123.322L204.958 119.604L203.594 120.21L203.051 125.111L204.634 125.56L207.14 123.322Z" fill="#00D763"/>
<path d="M192.279 113.798L189.616 115.154L186.283 113.184L186.047 110.371L188.521 110.237L191.334 108.299L193.768 110.442L192.279 113.798Z" fill="#00D763"/>
<path d="M272.577 169.188L264.068 173.569L257.339 159.41L247.853 160.411L247.246 152.879L244.008 145.614L241.471 145.055L232.804 160.458L215.281 168.589L212.767 173.01L204.833 186.215L203.328 203.289L208.938 206.89L214.367 208.095L224.113 204.329L232.315 205.897L232.725 211.396L227.619 221.891C248.483 210.569 264.659 191.793 272.569 169.18L272.577 169.188Z" fill="#00D763"/>
<path d="M274.586 133.654L277.903 136.994C277.588 95.2431 250.413 59.8661 212.704 47.0469L211.341 51.0967L215.068 56.1551L210.143 58.2273L212.712 61.8595L219.448 66.0591L220.221 69.7701L226.768 73.3708L222.269 75.4351C222.269 75.4351 217.754 72.7799 217.203 72.2441C216.651 71.7005 215.154 68.8167 215.154 68.8167L213.437 68.8876L214.721 73.5757L220.835 77.397L223.23 76.357L225.287 76.9794L226.035 82.0378L223.672 83.1487L225.87 84.9924L226.76 89.8932L224.57 90.0429C224.57 90.0429 220.819 88.798 221.024 88.3804C221.229 87.9628 223.664 86.0719 223.664 86.0719L222.513 84.2282L219.362 83.9603L215.856 84.7797L212.223 83.913L210.128 88.798L211.948 97.4729L210.679 104.178L212.736 108.283L215.706 108.929L216.171 107.542H217.274L221.072 111.947L222.781 109.827L218.676 100.632L218.148 93.9588L219.228 93.4861L223.656 101.184L225.066 101.089L226.926 99.0644L227.666 99.8839L226.863 101.846L225.602 102.972L226.855 105.872L226.027 106.817L227.375 111.001L226.445 113.31L220.339 115.161L218.259 112.285L217.573 113.247L218.093 118.25L215.477 124.845L210.128 130.399L213.941 132.692L215.69 138.058L209.623 139.933L208.441 142.447C208.441 142.447 209.741 150.814 210.041 151.555C210.34 152.295 213.311 153.068 213.311 153.068C213.311 153.068 219.685 150.751 219.307 150.129C218.921 149.506 219.086 144.936 219.086 144.936C219.086 144.936 221.623 139.019 221.93 138.609C222.238 138.2 225.255 134.961 225.255 134.961H227.706L235.994 141.903L236.995 141.58L236.775 137.751L230.747 134.52L229.242 132.763L229.463 130.589L236.672 134.835L241.447 141.186L243.74 141.603L243.937 139.413L242.826 136.852L241.526 135.678L244.52 134.04L245.709 135.828L245.914 137.751L247.963 139.145L253.675 134.615L255.369 142.848L253.833 148.671L257.772 149.656L265.785 167.037L268.669 165.414L273.176 151.263L272.601 142.013L269.362 144.33L265.809 137.688L272.963 137.302L274.555 133.677L274.586 133.654Z" fill="#00D763"/>
<path d="M282.733 133.435C282.733 148.452 272.923 163.446 253.304 174.894C234.04 186.138 208.89 191.897 183.567 192.157C157.054 192.433 130.36 186.689 110.055 174.918C90.1369 163.367 80.1699 148.216 80.1699 133.08" stroke="#00D763" stroke-width="0.787906" stroke-linecap="round" stroke-linejoin="round"/>
<path d="M245.662 209.271C228.619 224.383 206.132 233.57 181.495 233.57C154.241 233.57 129.627 222.326 112.088 204.26" stroke="white" stroke-width="0.787906" stroke-linecap="round" stroke-linejoin="round"/>
<path d="M181.498 60.1489C185.688 60.1489 189.085 58.1699 189.085 55.7287C189.085 53.2876 185.688 51.3086 181.498 51.3086C177.307 51.3086 173.91 53.2876 173.91 55.7287C173.91 58.1699 177.307 60.1489 181.498 60.1489Z" stroke="#040919" stroke-width="0.787906" stroke-linecap="round" stroke-linejoin="round"/>
<path d="M123.472 164.424L86.3691 181.498" stroke="#00D763" stroke-width="0.787906" stroke-linecap="round" stroke-linejoin="round"/>
<path d="M222.711 201.094L238.934 226.023" stroke="#00D763" stroke-width="0.787906" stroke-linecap="round" stroke-linejoin="round"/>
<path d="M121.038 150.123L59.2109 162.785" stroke="#00D763" stroke-width="0.787906" stroke-linecap="round" stroke-linejoin="round"/>
<path d="M235.973 132.836L246.925 131.852" stroke="#00D763" stroke-width="0.787906" stroke-linecap="round" stroke-linejoin="round"/>
<path d="M256.756 120.585L295.608 111.729" stroke="#00D763" stroke-width="0.787906" stroke-linecap="round" stroke-linejoin="round"/>
<path d="M242.07 113.919L279.583 99.1777" stroke="#00D763" stroke-width="0.787906" stroke-linecap="round" stroke-linejoin="round"/>
<path d="M217.385 61.3343L234.813 24.0742" stroke="#00D763" stroke-width="0.787906" stroke-linecap="round" stroke-linejoin="round"/>
<path d="M135.184 143.662L75.0273 151.36" stroke="#00D763" stroke-width="0.787906" stroke-linecap="round" stroke-linejoin="round"/>
<path d="M105.944 121.828L38.1445 107.559" stroke="#00D763" stroke-width="0.787906" stroke-linecap="round" stroke-linejoin="round"/>
<path d="M89.7758 178.355H83.4883V184.643H89.7758V178.355Z" fill="white"/>
<path d="M62.3558 159.641H56.0684V165.928H62.3558V159.641Z" fill="white"/>
<path d="M282.727 96.0332H276.439V102.321H282.727V96.0332Z" fill="white"/>
<path d="M298.75 108.584H292.463V114.871H298.75V108.584Z" fill="white"/>
<path d="M237.957 20.9297H231.67V27.2172H237.957V20.9297Z" fill="white"/>
<path d="M249.477 128.705H243.189V134.993H249.477V128.705Z" fill="white"/>
<path d="M233.971 89.1309H227.684V95.4183H233.971V89.1309Z" fill="white"/>
<path d="M233.971 120.57H227.684V126.858H233.971V120.57Z" fill="white"/>
<path d="M227.684 114.283H221.396V120.571H227.684V114.283Z" fill="white"/>
<path d="M227.684 120.57H221.396V126.858H227.684V120.57Z" fill="white"/>
<path d="M213.43 143.307H207.143V149.594H213.43V143.307Z" fill="white"/>
<path d="M233.971 107.994H227.684V114.282H233.971V107.994Z" fill="white"/>
<path d="M213.43 195.641H207.143V201.928H213.43V195.641Z" fill="white"/>
<path d="M213.43 189.354H207.143V195.641H213.43V189.354Z" fill="white"/>
<path d="M219.717 183.057H213.43V189.344H219.717V183.057Z" fill="white"/>
<path d="M166.957 213.1H160.67V219.387H166.957V213.1Z" fill="white"/>
<path d="M135.514 200.523H129.227V206.811H135.514V200.523Z" fill="white"/>
<path d="M242.077 222.879H235.789V229.166H242.077V222.879Z" fill="white"/>
<path d="M160.67 213.1H154.383V219.387H160.67V213.1Z" fill="white"/>
<path d="M136.055 132.008H129.768V138.295H136.055V132.008Z" fill="white"/>
<path d="M136.055 125.721H129.768V132.008H136.055V125.721Z" fill="white"/>
<path d="M129.76 138.297H123.473V144.584H129.76V138.297Z" fill="white"/>
<path d="M123.475 113.145H117.188V119.432H123.475V113.145Z" fill="white"/>
<path d="M129.76 106.859H123.473V113.147H129.76V106.859Z" fill="white"/>
<path d="M166.957 219.389H160.67V225.676H166.957V219.389Z" fill="white"/>
<path d="M78.1703 148.217H71.8828V154.504H78.1703V148.217Z" fill="white"/>
<path d="M41.2875 104.416H35V110.704H41.2875V104.416Z" fill="white"/>
<path d="M253.211 175.359H246.924V181.647H253.211V175.359Z" fill="white"/>
</g>
<defs>
<linearGradient id="paint0_linear_6724_82248" x1="119.498" y1="277.699" x2="98.0642" y2="277.699" gradientUnits="userSpaceOnUse">
<stop stop-color="#080D07"/>
<stop offset="0.05" stop-color="#080C28"/>
<stop offset="0.24" stop-color="#1A1762"/>
<stop offset="0.42" stop-color="#282092"/>
<stop offset="0.59" stop-color="#3427B7"/>
<stop offset="0.75" stop-color="#3C2CD2"/>
<stop offset="0.89" stop-color="#412FE2"/>
<stop offset="1" stop-color="#4331E8"/>
</linearGradient>
<linearGradient id="paint1_linear_6724_82248" x1="92.6421" y1="231.826" x2="110.985" y2="231.826" gradientUnits="userSpaceOnUse">
<stop stop-color="#040919"/>
<stop offset="0.05" stop-color="#080C28"/>
<stop offset="0.24" stop-color="#1A1762"/>
<stop offset="0.42" stop-color="#282092"/>
<stop offset="0.59" stop-color="#3427B7"/>
<stop offset="0.75" stop-color="#3C2CD2"/>
<stop offset="0.89" stop-color="#412FE2"/>
<stop offset="1" stop-color="#4331E8"/>
</linearGradient>
<clipPath id="clip0_6724_82248">
<rect width="340" height="344" fill="white"/>
</clipPath>
</defs>
</svg>
