<svg width="32" height="32" viewBox="0 0 32 32" fill="none" xmlns="http://www.w3.org/2000/svg">
<g id="vuesax/linear/note-2">
<g id="note-2">
<path id="Vector" d="M28.8801 13.9187L27.5734 19.492C26.4534 24.3054 24.2401 26.252 20.0801 25.852C19.4134 25.7987 18.6934 25.6787 17.9201 25.492L15.6801 24.9587C10.1201 23.6387 8.40008 20.892 9.70674 15.3187L11.0134 9.73204C11.2801 8.59871 11.6001 7.61204 12.0001 6.79871C13.5601 3.57204 16.2134 2.70538 20.6667 3.75871L22.8934 4.27871C28.4801 5.58538 30.1867 8.34538 28.8801 13.9187Z" stroke="white" stroke-width="2" stroke-linecap="round" stroke-linejoin="round"/>
<path id="Vector_2" d="M20.0805 25.8522C19.2538 26.4122 18.2138 26.8788 16.9471 27.2922L14.8405 27.9855C9.54712 29.6922 6.76045 28.2655 5.04045 22.9722L3.33379 17.7055C1.62712 12.4122 3.04045 9.61216 8.33379 7.90549L10.4405 7.21216C10.9871 7.03883 11.5071 6.89216 12.0005 6.79883C11.6005 7.61216 11.2805 8.59883 11.0138 9.73216L9.70712 15.3188C8.40046 20.8922 10.1205 23.6388 15.6805 24.9588L17.9205 25.4922C18.6938 25.6788 19.4138 25.7988 20.0805 25.8522Z" stroke="white" stroke-width="2" stroke-linecap="round" stroke-linejoin="round"/>
<path id="Vector_3" d="M16.853 11.373L23.3197 13.013" stroke="white" stroke-width="2" stroke-linecap="round" stroke-linejoin="round"/>
<path id="Vector_4" d="M15.5469 16.5332L19.4135 17.5199" stroke="white" stroke-width="2" stroke-linecap="round" stroke-linejoin="round"/>
</g>
</g>
</svg>
