<svg width="60" height="60" viewBox="0 0 60 60" fill="none" xmlns="http://www.w3.org/2000/svg">
<rect width="60" height="60" rx="30" fill="#F3F3FB"/>
<path d="M19.1279 38.0047C20.3636 35.518 21.0047 32.7782 21.0007 30.0014C20.9994 28.6519 21.3021 27.3196 21.8864 26.1032C22.4707 24.8869 23.3215 23.8178 24.3756 22.9753M30.001 30.0011C30.0081 34.5754 28.8476 39.0759 26.6294 43.0765M25.5 30.0011C25.5 28.8076 25.9741 27.663 26.818 26.8191C27.6619 25.9752 28.8065 25.5011 30 25.5011C31.1935 25.5011 32.3381 25.9752 33.182 26.8191C34.0259 27.663 34.5 28.8076 34.5 30.0011C34.5066 34.6394 33.4848 39.2215 31.5082 43.4176M42.7362 37.8761C43.2464 35.2822 43.5027 32.6447 43.5013 30.0011C43.5013 26.4207 42.079 22.9869 39.5473 20.4552C37.0155 17.9234 33.5818 16.5011 30.0013 16.5011C26.4209 16.5011 22.9871 17.9234 20.4554 20.4552C17.9237 22.9869 16.5013 26.4207 16.5013 30.0011C16.503 31.5339 16.2432 33.0557 15.7332 34.5011M25.0503 34.5011C24.57 36.8667 23.7098 39.1388 22.5029 41.2293M28.875 21.0707C30.1417 20.9123 31.4277 21.0249 32.6476 21.4012C33.8675 21.7775 34.9935 22.4088 35.9509 23.2532C36.9083 24.0977 37.6753 25.136 38.2009 26.2993C38.7266 27.4627 38.999 28.7245 39 30.0011C39.0004 31.5054 38.9073 33.0083 38.7215 34.501M37.8675 39.0011C37.6533 39.8334 37.4104 40.6538 37.1389 41.462" stroke="#111013" stroke-width="2" stroke-linecap="round" stroke-linejoin="round"/>
</svg>
