<svg xmlns="http://www.w3.org/2000/svg" width="31" height="30" viewBox="0 0 31 30" fill="none">
  <path d="M5.12817 23.0047C6.36388 20.518 7.00498 17.7782 7.0009 15.0014C6.99963 13.6519 7.30237 12.3196 7.88665 11.1032C8.47093 9.88688 9.32172 8.81778 10.3759 7.97534M16.0012 15.0011C16.0083 19.5754 14.8478 24.0759 12.6296 28.0765M11.5002 15.0011C11.5002 13.8076 11.9743 12.663 12.8183 11.8191C13.6622 10.9752 14.8068 10.5011 16.0002 10.5011C17.1937 10.5011 18.3383 10.9752 19.1822 11.8191C20.0261 12.663 20.5002 13.8076 20.5002 15.0011C20.5068 19.6394 19.485 24.2215 17.5084 28.4176M28.7364 22.8761C29.2466 20.2822 29.5029 17.6447 29.5016 15.0011C29.5016 11.4207 28.0793 7.9869 25.5475 5.45516C23.0158 2.92342 19.582 1.5011 16.0016 1.5011C12.4212 1.5011 8.98739 2.92342 6.45564 5.45516C3.9239 7.9869 2.50159 11.4207 2.50159 15.0011C2.50327 16.5339 2.24348 18.0557 1.7334 19.5011M11.0506 19.5011C10.5703 21.8667 9.71001 24.1388 8.50317 26.2293M14.8752 6.07073C16.142 5.9123 17.4279 6.02495 18.6478 6.40121C19.8677 6.77748 20.9937 7.40876 21.9511 8.25321C22.9085 9.09766 23.6755 10.136 24.2012 11.2993C24.7269 12.4627 24.9992 13.7245 25.0002 15.0011C25.0006 16.5054 24.9076 18.0083 24.7217 19.501M23.8678 24.0011C23.6535 24.8334 23.4107 25.6538 23.1392 26.462" stroke="#111013" stroke-width="2" stroke-linecap="round" stroke-linejoin="round"/>
</svg>